<?xml version="1.0" encoding="utf-8"?>
<svg contentScriptType="text/ecmascript" xmlns:xlink="http://www.w3.org/1999/xlink" zoomAndPan="magnify" contentStyleType="text/css" viewBox="158.0 149.0 811.0000000000013 665.9999999999999" xmlns:cacoo="http://cacoo.com/" preserveAspectRatio="xMidYMin meet" xmlns="http://www.w3.org/2000/svg" version="1.1"><defs><linearGradient x1="0%" xmlns:xlink="http://www.w3.org/1999/xlink" y1="0%" x2="0%" y2="100%" xlink:type="simple" xlink:actuate="onLoad" id="id7" xlink:show="other"><stop stop-opacity="1.0" stop-color="#ffffff" offset="0%"/><stop stop-opacity="1.0" stop-color="#cccccc" offset="100%"/></linearGradient><linearGradient x1="0%" xmlns:xlink="http://www.w3.org/1999/xlink" y1="0%" x2="0%" y2="100%" xlink:type="simple" xlink:actuate="onLoad" id="id9" xlink:show="other"><stop stop-opacity="1.0" stop-color="#ffffff" offset="0%"/><stop stop-opacity="1.0" stop-color="#cccccc" offset="100%"/></linearGradient></defs><g><g transform="translate(173.0 208.0)"><path fill="#dcdcdc" fill-opacity="1.0" d="M780.9999999999999 591.9999999999999 L0.0 591.9999999999999 L0.0 0.0 L780.9999999999999 0.0 L780.9999999999999 591.9999999999999z" stroke="none"/><g transform="translate(1.0 1.0)"><clipPath id="id0"><path d="M0 0 L779.0 0 L779.0 590.0 L0 590.0z"/></clipPath><text font-size="12" clip-path="url(#id0)" text-decoration="none" fill="#000000" font-family="Arial,Arial" font-style="normal" font-weight="normal"/></g></g><g transform="translate(173.0 164.0)"><path fill="#999999" fill-opacity="1.0" d="M781.0000000000013 43.99999999999999 L0.0 43.99999999999999 L0.0 0.0 L781.0000000000013 0.0 L781.0000000000013 43.99999999999999z" stroke="none"/><g transform="translate(1.0 1.0)"><clipPath id="id1"><path d="M0 0 L779.0 0 L779.0 42.0 L0 42.0z"/></clipPath><text font-size="12" clip-path="url(#id1)" text-decoration="none" fill="#000000" font-family="Arial,Arial" font-style="normal" font-weight="normal"/></g></g><g transform="translate(298.0 171.0)"><clipPath id="id2"><path d="M0 0 L88.0 0 L88.0 30.0 L0 30.0z"/></clipPath><text font-size="14" clip-path="url(#id2)" text-decoration="underline" fill="#ffffff" font-family="Arial,Arial" font-style="normal" font-weight="bold"><tspan x="21.0" xml:space="preserve" y="20.0" textLength="45.0">Gestor</tspan></text></g><g transform="translate(718.0 171.0)"><clipPath id="id3"><path d="M0 0 L124.0 0 L124.0 30.0 L0 30.0z"/></clipPath><text font-size="14" clip-path="url(#id3)" text-decoration="none" fill="#ffffff" font-family="Arial,Arial" font-style="normal" font-weight="bold"><tspan x="15.0" xml:space="preserve" y="20.0" textLength="94.0">Configuración</tspan></text></g><g transform="translate(572.0 171.0)"><clipPath id="id4"><path d="M0 0 L124.0 0 L124.0 30.0 L0 30.0z"/></clipPath><text font-size="14" clip-path="url(#id4)" text-decoration="none" fill="#ffffff" font-family="Arial,Arial" font-style="normal" font-weight="bold"><tspan x="32.0" xml:space="preserve" y="20.0" textLength="60.0">Capturas</tspan></text></g><g transform="translate(422.0 171.0)"><clipPath id="id5"><path d="M0 0 L124.0 0 L124.0 30.0 L0 30.0z"/></clipPath><text font-size="14" clip-path="url(#id5)" text-decoration="none" fill="#ffffff" font-family="Arial,Arial" font-style="normal" font-weight="bold"><tspan x="6.0" xml:space="preserve" y="20.0" textLength="112.0">Almacenamiento</tspan></text></g><path fill="none" d="M401.99999949999983 175.20648342753856 L401.99999949999983 196.79351657246147" stroke-width="1.0" stroke-linejoin="round" stroke="#000000"/><path fill="none" d="M561.9999994999998 175.20648342753856 L561.9999994999998 196.79351657246147" stroke-width="1.0" stroke-linejoin="round" stroke="#000000"/><path fill="none" d="M707.9999994999998 175.20648342753856 L707.9999994999998 196.79351657246147" stroke-width="1.0" stroke-linejoin="round" stroke="#000000"/><g transform="translate(298.0 281.5)"><path fill="none" d="M0.0 4.75 L543.9999999999999 4.75" stroke-width="1.0" stroke-linejoin="round" stroke="#999999"/></g><g transform="translate(482.0 256.5)"><g transform="translate(0.0 0.0)"><clipPath id="id6"><path d="M0 0 L214.0 0 L214.0 25.0 L0 25.0z"/></clipPath><text font-size="18" clip-path="url(#id6)" text-decoration="none" fill="#000000" font-family="Arial,Arial" font-style="normal" font-weight="bold"><tspan x="2.0" xml:space="preserve" y="18.5" textLength="175.0">Selecciona un modo</tspan></text></g></g><g transform="translate(298.0 303.45000000000005)"><path fill="url(#id7)" d="M0.0 0.0 L265.50000000000034 0.0 L265.50000000000034 45.55000000000002 L0.0 45.55000000000002 L0.0 0.0z" stroke-width="1.0" stroke-linejoin="round" stroke="#666666"/><g transform="translate(0.0 0.0)"><clipPath id="id8"><path d="M0 0 L265.5 0 L265.5 45.549999999999955 L0 45.549999999999955z"/></clipPath><text font-size="12" clip-path="url(#id8)" text-decoration="none" fill="#000000" font-family="Arial,Arial" font-style="normal" font-weight="normal"><tspan x="22.0" xml:space="preserve" y="26.774999999999977" textLength="221.0">Inicializar la FPGA en modo reproducción</tspan></text></g></g><g transform="translate(576.5 303.45000000000005)"><path fill="url(#id9)" d="M0.0 0.0 L265.50000000000034 0.0 L265.50000000000034 45.55000000000002 L0.0 45.55000000000002 L0.0 0.0z" stroke-width="1.0" stroke-linejoin="round" stroke="#666666"/><g transform="translate(0.0 0.0)"><clipPath id="id10"><path d="M0 0 L265.5 0 L265.5 45.549999999999955 L0 45.549999999999955z"/></clipPath><text font-size="12" clip-path="url(#id10)" text-decoration="none" fill="#000000" font-family="Arial,Arial" font-style="normal" font-weight="normal"><tspan x="37.0" xml:space="preserve" y="26.774999999999977" textLength="192.0">Inicializar la FPGA en modo captura</tspan></text></g></g></g></svg>