<?xml version="1.0" encoding="utf-8"?>
<svg contentScriptType="text/ecmascript" xmlns:xlink="http://www.w3.org/1999/xlink" zoomAndPan="magnify" contentStyleType="text/css" viewBox="158.0 149.0 811.0000000000013 665.9999999999999" xmlns:cacoo="http://cacoo.com/" preserveAspectRatio="xMidYMin meet" xmlns="http://www.w3.org/2000/svg" version="1.1"><defs><linearGradient x1="0%" xmlns:xlink="http://www.w3.org/1999/xlink" y1="0%" x2="0%" y2="100%" xlink:type="simple" xlink:actuate="onLoad" id="id10" xlink:show="other"><stop stop-opacity="1.0" stop-color="#ffffff" offset="0%"/><stop stop-opacity="1.0" stop-color="#cccccc" offset="100%"/></linearGradient></defs><g><g transform="translate(173.0 208.0)"><path fill="#dcdcdc" fill-opacity="1.0" d="M780.9999999999999 591.9999999999999 L0.0 591.9999999999999 L0.0 0.0 L780.9999999999999 0.0 L780.9999999999999 591.9999999999999z" stroke="none"/><g transform="translate(1.0 1.0)"><clipPath id="id0"><path d="M0 0 L779.0 0 L779.0 590.0 L0 590.0z"/></clipPath><text font-size="12" clip-path="url(#id0)" text-decoration="none" fill="#000000" font-family="Arial,Arial" font-style="normal" font-weight="normal"/></g></g><g transform="translate(173.0 164.0)"><path fill="#999999" fill-opacity="1.0" d="M781.0000000000013 43.99999999999999 L0.0 43.99999999999999 L0.0 0.0 L781.0000000000013 0.0 L781.0000000000013 43.99999999999999z" stroke="none"/><g transform="translate(1.0 1.0)"><clipPath id="id1"><path d="M0 0 L779.0 0 L779.0 42.0 L0 42.0z"/></clipPath><text font-size="12" clip-path="url(#id1)" text-decoration="none" fill="#000000" font-family="Arial,Arial" font-style="normal" font-weight="normal"/></g></g><g transform="translate(298.0 171.0)"><clipPath id="id2"><path d="M0 0 L88.0 0 L88.0 30.0 L0 30.0z"/></clipPath><text font-size="14" clip-path="url(#id2)" text-decoration="none" fill="#ffffff" font-family="Arial,Arial" font-style="normal" font-weight="bold"><tspan x="21.0" xml:space="preserve" y="20.0" textLength="45.0">Gestor</tspan></text></g><g transform="translate(718.0 171.0)"><clipPath id="id3"><path d="M0 0 L124.0 0 L124.0 30.0 L0 30.0z"/></clipPath><text font-size="14" clip-path="url(#id3)" text-decoration="none" fill="#ffffff" font-family="Arial,Arial" font-style="normal" font-weight="bold"><tspan x="15.0" xml:space="preserve" y="20.0" textLength="94.0">Configuración</tspan></text></g><g transform="translate(572.0 171.0)"><clipPath id="id4"><path d="M0 0 L124.0 0 L124.0 30.0 L0 30.0z"/></clipPath><text font-size="14" clip-path="url(#id4)" text-decoration="none" fill="#ffffff" font-family="Arial,Arial" font-style="normal" font-weight="bold"><tspan x="32.0" xml:space="preserve" y="20.0" textLength="60.0">Capturas</tspan></text></g><g transform="translate(422.0 171.0)"><clipPath id="id5"><path d="M0 0 L124.0 0 L124.0 30.0 L0 30.0z"/></clipPath><text font-size="14" clip-path="url(#id5)" text-decoration="underline" fill="#ffffff" font-family="Arial,Arial" font-style="normal" font-weight="bold"><tspan x="6.0" xml:space="preserve" y="20.0" textLength="112.0">Almacenamiento</tspan></text></g><path fill="none" d="M401.99999949999983 175.20648342753856 L401.99999949999983 196.79351657246147" stroke-width="1.0" stroke-linejoin="round" stroke="#000000"/><path fill="none" d="M561.9999994999998 175.20648342753856 L561.9999994999998 196.79351657246147" stroke-width="1.0" stroke-linejoin="round" stroke="#000000"/><path fill="none" d="M707.9999994999998 175.20648342753856 L707.9999994999998 196.79351657246147" stroke-width="1.0" stroke-linejoin="round" stroke="#000000"/><g transform="translate(318.0 298.0)"><path fill="#ffffff" fill-opacity="1.0" d="M0.0 0.0 L491.0000000000001 0.0 L491.0000000000001 168.99999999999994 L0.0 168.99999999999994 L0.0 0.0z" stroke-width="1.0" stroke-linejoin="round" stroke="#999999"/><path fill="none" d="M0.0 0.0 L491.0000000000001 168.99999999999994" stroke-width="1.0" stroke-linejoin="round" stroke="#999999"/><path fill="none" d="M491.0000000000001 0.0 L0.0 168.99999999999994" stroke-width="1.0" stroke-linejoin="round" stroke="#999999"/><g transform="translate(20.458333333333332 9.388888888888891)"><clipPath id="id6"><path d="M0 0 L450.08333333333337 0 L450.08333333333337 150.22222222222223 L0 150.22222222222223z"/></clipPath><text font-size="12" clip-path="url(#id6)" text-decoration="none" fill="#000000" font-family="Arial,Arial" font-style="normal" font-weight="normal"/></g></g><g transform="translate(298.0 281.5)"><path fill="none" d="M0.0 4.75 L543.9999999999999 4.75" stroke-width="1.0" stroke-linejoin="round" stroke="#999999"/></g><g transform="translate(456.5 256.5)"><g transform="translate(0.0 0.0)"><clipPath id="id7"><path d="M0 0 L214.0 0 L214.0 25.0 L0 25.0z"/></clipPath><text font-size="18" clip-path="url(#id7)" text-decoration="none" fill="#000000" font-family="Arial,Arial" font-style="normal" font-weight="bold"><tspan x="2.0" xml:space="preserve" y="18.5" textLength="203.0">Estadísticas de espacio</tspan></text></g></g><g transform="translate(318.0 534.0)"><path fill="#ffffff" fill-opacity="1.0" d="M0.0 0.0 L491.0000000000001 0.0 L491.0000000000001 168.99999999999994 L0.0 168.99999999999994 L0.0 0.0z" stroke-width="1.0" stroke-linejoin="round" stroke="#999999"/><path fill="none" d="M0.0 0.0 L491.0000000000001 168.99999999999994" stroke-width="1.0" stroke-linejoin="round" stroke="#999999"/><path fill="none" d="M491.0000000000001 0.0 L0.0 168.99999999999994" stroke-width="1.0" stroke-linejoin="round" stroke="#999999"/><g transform="translate(20.458333333333332 9.388888888888891)"><clipPath id="id8"><path d="M0 0 L450.08333333333337 0 L450.08333333333337 150.22222222222223 L0 150.22222222222223z"/></clipPath><text font-size="12" clip-path="url(#id8)" text-decoration="none" fill="#000000" font-family="Arial,Arial" font-style="normal" font-weight="normal"/></g></g><g transform="translate(298.0 517.0)"><path fill="none" d="M0.0 4.75 L543.9999999999999 4.75" stroke-width="1.0" stroke-linejoin="round" stroke="#999999"/></g><g transform="translate(457.0 492.0)"><g transform="translate(0.0 0.0)"><clipPath id="id9"><path d="M0 0 L214.0 0 L214.0 25.0 L0 25.0z"/></clipPath><text font-size="18" clip-path="url(#id9)" text-decoration="none" fill="#000000" font-family="Arial,Arial" font-style="normal" font-weight="bold"><tspan x="2.0" xml:space="preserve" y="18.5" textLength="185.0">Estadísticas del RAID</tspan></text></g></g><g transform="translate(696.0 716.45)"><path fill="url(#id10)" d="M0.0 0.0 L113.00000000000003 0.0 L113.00000000000003 25.0 L0.0 25.0 L0.0 0.0z" stroke-width="1.0" stroke-linejoin="round" stroke="#666666"/><g transform="translate(0.0 0.0)"><clipPath id="id11"><path d="M0 0 L113.0 0 L113.0 25.0 L0 25.0z"/></clipPath><text font-size="12" clip-path="url(#id11)" text-decoration="none" fill="#000000" font-family="Arial,Arial" font-style="normal" font-weight="normal"><tspan x="13.0" xml:space="preserve" y="16.5" textLength="87.0">Formatear RAID</tspan></text></g></g></g></svg>