<?xml version="1.0" encoding="utf-8"?>
<svg contentScriptType="text/ecmascript" xmlns:xlink="http://www.w3.org/1999/xlink" zoomAndPan="magnify" contentStyleType="text/css" viewBox="158.0 149.0 811.0000000000013 665.9999999999999" xmlns:cacoo="http://cacoo.com/" preserveAspectRatio="xMidYMin meet" xmlns="http://www.w3.org/2000/svg" version="1.1"><defs><linearGradient x1="0%" xmlns:xlink="http://www.w3.org/1999/xlink" y1="0%" x2="0%" y2="100%" xlink:type="simple" xlink:actuate="onLoad" id="id7" xlink:show="other"><stop stop-opacity="1.0" stop-color="#ffffff" offset="0%"/><stop stop-opacity="1.0" stop-color="#cccccc" offset="100%"/></linearGradient><linearGradient x1="0%" xmlns:xlink="http://www.w3.org/1999/xlink" y1="0%" x2="0%" y2="100%" xlink:type="simple" xlink:actuate="onLoad" id="id9" xlink:show="other"><stop stop-opacity="1.0" stop-color="#666666" offset="0%"/><stop stop-opacity="1.0" stop-color="#333333" offset="100%"/></linearGradient><linearGradient x1="0%" xmlns:xlink="http://www.w3.org/1999/xlink" y1="0%" x2="0%" y2="100%" xlink:type="simple" xlink:actuate="onLoad" id="id15" xlink:show="other"><stop stop-opacity="1.0" stop-color="#ffffff" offset="0%"/><stop stop-opacity="1.0" stop-color="#cccccc" offset="100%"/></linearGradient><linearGradient x1="0%" xmlns:xlink="http://www.w3.org/1999/xlink" y1="0%" x2="0%" y2="100%" xlink:type="simple" xlink:actuate="onLoad" id="id17" xlink:show="other"><stop stop-opacity="1.0" stop-color="#666666" offset="0%"/><stop stop-opacity="1.0" stop-color="#333333" offset="100%"/></linearGradient><linearGradient x1="0%" xmlns:xlink="http://www.w3.org/1999/xlink" y1="0%" x2="0%" y2="100%" xlink:type="simple" xlink:actuate="onLoad" id="id18" xlink:show="other"><stop stop-opacity="1.0" stop-color="#ffffff" offset="0%"/><stop stop-opacity="1.0" stop-color="#cccccc" offset="100%"/></linearGradient></defs><g><g transform="translate(173.0 208.0)"><path fill="#dcdcdc" fill-opacity="1.0" d="M780.9999999999999 591.9999999999999 L0.0 591.9999999999999 L0.0 0.0 L780.9999999999999 0.0 L780.9999999999999 591.9999999999999z" stroke="none"/><g transform="translate(1.0 1.0)"><clipPath id="id0"><path d="M0 0 L779.0 0 L779.0 590.0 L0 590.0z"/></clipPath><text font-size="12" clip-path="url(#id0)" text-decoration="none" fill="#000000" font-family="Arial,Arial" font-style="normal" font-weight="normal"/></g></g><g transform="translate(173.0 164.0)"><path fill="#999999" fill-opacity="1.0" d="M781.0000000000013 43.99999999999999 L0.0 43.99999999999999 L0.0 0.0 L781.0000000000013 0.0 L781.0000000000013 43.99999999999999z" stroke="none"/><g transform="translate(1.0 1.0)"><clipPath id="id1"><path d="M0 0 L779.0 0 L779.0 42.0 L0 42.0z"/></clipPath><text font-size="12" clip-path="url(#id1)" text-decoration="none" fill="#000000" font-family="Arial,Arial" font-style="normal" font-weight="normal"/></g></g><g transform="translate(298.0 171.0)"><clipPath id="id2"><path d="M0 0 L88.0 0 L88.0 30.0 L0 30.0z"/></clipPath><text font-size="14" clip-path="url(#id2)" text-decoration="none" fill="#ffffff" font-family="Arial,Arial" font-style="normal" font-weight="bold"><tspan x="21.0" xml:space="preserve" y="20.0" textLength="45.0">Gestor</tspan></text></g><g transform="translate(718.0 171.0)"><clipPath id="id3"><path d="M0 0 L124.0 0 L124.0 30.0 L0 30.0z"/></clipPath><text font-size="14" clip-path="url(#id3)" text-decoration="underline" fill="#ffffff" font-family="Arial,Arial" font-style="normal" font-weight="bold"><tspan x="15.0" xml:space="preserve" y="20.0" textLength="94.0">Configuraci칩n</tspan></text></g><g transform="translate(572.0 171.0)"><clipPath id="id4"><path d="M0 0 L124.0 0 L124.0 30.0 L0 30.0z"/></clipPath><text font-size="14" clip-path="url(#id4)" text-decoration="none" fill="#ffffff" font-family="Arial,Arial" font-style="normal" font-weight="bold"><tspan x="32.0" xml:space="preserve" y="20.0" textLength="60.0">Capturas</tspan></text></g><g transform="translate(422.0 171.0)"><clipPath id="id5"><path d="M0 0 L124.0 0 L124.0 30.0 L0 30.0z"/></clipPath><text font-size="14" clip-path="url(#id5)" text-decoration="none" fill="#ffffff" font-family="Arial,Arial" font-style="normal" font-weight="bold"><tspan x="6.0" xml:space="preserve" y="20.0" textLength="112.0">Almacenamiento</tspan></text></g><path fill="none" d="M401.99999949999983 175.20648342753856 L401.99999949999983 196.79351657246147" stroke-width="1.0" stroke-linejoin="round" stroke="#000000"/><path fill="none" d="M561.9999994999998 175.20648342753856 L561.9999994999998 196.79351657246147" stroke-width="1.0" stroke-linejoin="round" stroke="#000000"/><path fill="none" d="M707.9999994999998 175.20648342753856 L707.9999994999998 196.79351657246147" stroke-width="1.0" stroke-linejoin="round" stroke="#000000"/><g transform="translate(484.0 301.5)"><path fill="#ffffff" fill-opacity="1.0" d="M3.0 0.0 L354.99999999999983 0.0 Q357.99999999999983 0.0 357.99999999999983 3.0 L357.99999999999983 17.0 Q357.99999999999983 20.0 354.99999999999983 20.0 L3.0 20.0 Q0.0 20.0 0.0 17.0 L0.0 3.0 Q0.0 0.0 3.0 0.0z" stroke-width="1.0" stroke-linejoin="round" stroke="#999999"/><g transform="translate(2.0 0.0)"><clipPath id="id6"><path d="M0 0 L354.0 0 L354.0 20.0 L0 20.0z"/></clipPath><text font-size="12" clip-path="url(#id6)" text-decoration="none" fill="#000000" font-family="Arial,Arial" font-style="normal" font-weight="normal"><tspan x="2.0" xml:space="preserve" y="14.0" textLength="126.0">127.0.0.1:1337/fpga/api</tspan></text></g></g><g transform="translate(298.0 280.5)"><path fill="none" d="M0.0 5.0 L544.0 5.0" stroke-width="1.0" stroke-linejoin="round" stroke="#999999"/></g><g transform="translate(484.0 452.0)"><path fill="url(#id7)" d="M5.0 0.0 L352.99999999999994 0.0 Q357.99999999999994 0.0 357.99999999999994 5.0 L357.99999999999994 20.0 Q357.99999999999994 25.0 352.99999999999994 25.0 L5.0 25.0 Q0.0 25.0 0.0 20.0 L0.0 5.0 Q0.0 0.0 5.0 0.0z" stroke-width="1.0" stroke-linejoin="round" stroke="#666666"/><g transform="translate(5.0 0.0)"><clipPath id="id8"><path d="M0 0 L328.0 0 L328.0 25.0 L0 25.0z"/></clipPath><text font-size="12" clip-path="url(#id8)" text-decoration="none" fill="#000000" font-family="Arial,Arial" font-style="normal" font-weight="normal"><tspan x="2.0" xml:space="preserve" y="16.5" textLength="43.0">Espa침ol</tspan></text></g><path fill="url(#id9)" d="M345.0 11.0 L351.0 11.0 L348.0 15.0 L345.0 11.0z" stroke="none"/></g><g transform="translate(307.5 301.5)"><g transform="translate(0.0 0.0)"><clipPath id="id10"><path d="M0 0 L157.0 0 L157.0 20.0 L0 20.0z"/></clipPath><text font-size="12" clip-path="url(#id10)" text-decoration="none" fill="#000000" font-family="Arial,Arial" font-style="normal" font-weight="bold"><tspan x="2.0" xml:space="preserve" y="14.0" textLength="145.0">Direcci칩n de la API FPGA</tspan></text></g></g><g transform="translate(298.0 245.50000000000003)"><g transform="translate(0.0 0.0)"><clipPath id="id11"><path d="M0 0 L120.0 0 L120.0 34.99999999999997 L0 34.99999999999997z"/></clipPath><text font-size="24" clip-path="url(#id11)" text-decoration="none" fill="#000000" font-family="Arial,Arial" font-style="normal" font-weight="bold"><tspan x="2.0" xml:space="preserve" y="25.999999999999986" textLength="97.0">Servidor</tspan></text></g></g><g transform="translate(298.0 416.5)"><path fill="none" d="M0.0 5.0 L544.0 5.0" stroke-width="1.0" stroke-linejoin="round" stroke="#999999"/></g><g transform="translate(413.0 454.5)"><g transform="translate(0.0 0.0)"><clipPath id="id12"><path d="M0 0 L51.5 0 L51.5 20.0 L0 20.0z"/></clipPath><text font-size="12" clip-path="url(#id12)" text-decoration="none" fill="#000000" font-family="Arial,Arial" font-style="normal" font-weight="bold"><tspan x="2.0" xml:space="preserve" y="14.0" textLength="38.0">Idioma</tspan></text></g></g><g transform="translate(298.0 375.5)"><g transform="translate(0.0 0.0)"><clipPath id="id13"><path d="M0 0 L196.0 0 L196.0 41.0 L0 41.0z"/></clipPath><text font-size="24" clip-path="url(#id13)" text-decoration="none" fill="#000000" font-family="Arial,Arial" font-style="normal" font-weight="bold"><tspan x="2.0" xml:space="preserve" y="29.0" textLength="121.0">Aplicaci칩n</tspan></text></g></g><g transform="translate(418.0 502.0)"><g transform="translate(0.0 0.0)"><clipPath id="id14"><path d="M0 0 L51.5 0 L51.5 20.0 L0 20.0z"/></clipPath><text font-size="12" clip-path="url(#id14)" text-decoration="none" fill="#000000" font-family="Arial,Arial" font-style="normal" font-weight="bold"><tspan x="2.0" xml:space="preserve" y="14.0" textLength="31.0">Tema</tspan></text></g></g><g transform="translate(484.0 498.0)"><path fill="url(#id15)" d="M5.0 0.0 L352.99999999999994 0.0 Q357.99999999999994 0.0 357.99999999999994 5.0 L357.99999999999994 20.0 Q357.99999999999994 25.0 352.99999999999994 25.0 L5.0 25.0 Q0.0 25.0 0.0 20.0 L0.0 5.0 Q0.0 0.0 5.0 0.0z" stroke-width="1.0" stroke-linejoin="round" stroke="#666666"/><g transform="translate(5.0 0.0)"><clipPath id="id16"><path d="M0 0 L328.0 0 L328.0 25.0 L0 25.0z"/></clipPath><text font-size="12" clip-path="url(#id16)" text-decoration="none" fill="#000000" font-family="Arial,Arial" font-style="normal" font-weight="normal"><tspan x="2.0" xml:space="preserve" y="16.5" textLength="27.0">Base</tspan></text></g><path fill="url(#id17)" d="M345.0 11.0 L351.0 11.0 L348.0 15.0 L345.0 11.0z" stroke="none"/></g><g transform="translate(752.0 564.6500000000001)"><path fill="url(#id18)" d="M5.0 0.0 L85.0 0.0 Q90.0 0.0 90.0 5.0 L90.0 20.0 Q90.0 25.0 85.0 25.0 L5.0 25.0 Q0.0 25.0 0.0 20.0 L0.0 5.0 Q0.0 0.0 5.0 0.0 L5.0 0.0z" stroke-width="1.0" stroke-linejoin="round" stroke="#666666"/><g transform="translate(0.0 0.0)"><clipPath id="id19"><path d="M0 0 L90.0 0 L90.0 25.0 L0 25.0z"/></clipPath><text font-size="12" clip-path="url(#id19)" text-decoration="none" fill="#000000" font-family="Arial,Arial" font-style="normal" font-weight="normal"><tspan x="23.0" xml:space="preserve" y="16.5" textLength="44.0">Guardar</tspan></text></g></g></g></svg>