<?xml version="1.0" encoding="utf-8"?>
<svg contentScriptType="text/ecmascript" xmlns:xlink="http://www.w3.org/1999/xlink" zoomAndPan="magnify" contentStyleType="text/css" viewBox="158.0 149.0 811.0000000000013 665.9999999999999" xmlns:cacoo="http://cacoo.com/" preserveAspectRatio="xMidYMin meet" xmlns="http://www.w3.org/2000/svg" version="1.1"><defs><linearGradient x1="0%" xmlns:xlink="http://www.w3.org/1999/xlink" y1="0%" x2="0%" y2="100%" xlink:type="simple" xlink:actuate="onLoad" id="id6" xlink:show="other"><stop stop-opacity="1.0" stop-color="#ffffff" offset="0%"/><stop stop-opacity="1.0" stop-color="#cccccc" offset="100%"/></linearGradient><linearGradient x1="0%" xmlns:xlink="http://www.w3.org/1999/xlink" y1="0%" x2="0%" y2="100%" xlink:type="simple" xlink:actuate="onLoad" id="id18" xlink:show="other"><stop stop-opacity="1.0" stop-color="#d4e1f5" offset="0%"/><stop stop-opacity="1.0" stop-color="#5389d6" offset="100%"/></linearGradient></defs><g><g transform="translate(173.0 208.0)"><path fill="#dcdcdc" fill-opacity="1.0" d="M780.9999999999999 591.9999999999999 L0.0 591.9999999999999 L0.0 0.0 L780.9999999999999 0.0 L780.9999999999999 591.9999999999999z" stroke="none"/><g transform="translate(1.0 1.0)"><clipPath id="id0"><path d="M0 0 L779.0 0 L779.0 590.0 L0 590.0z"/></clipPath><text font-size="12" clip-path="url(#id0)" text-decoration="none" fill="#000000" font-family="Arial,Arial" font-style="normal" font-weight="normal"/></g></g><g transform="translate(173.0 164.0)"><path fill="#999999" fill-opacity="1.0" d="M781.0000000000013 43.99999999999999 L0.0 43.99999999999999 L0.0 0.0 L781.0000000000013 0.0 L781.0000000000013 43.99999999999999z" stroke="none"/><g transform="translate(1.0 1.0)"><clipPath id="id1"><path d="M0 0 L779.0 0 L779.0 42.0 L0 42.0z"/></clipPath><text font-size="12" clip-path="url(#id1)" text-decoration="none" fill="#000000" font-family="Arial,Arial" font-style="normal" font-weight="normal"/></g></g><g transform="translate(298.0 171.0)"><clipPath id="id2"><path d="M0 0 L88.0 0 L88.0 30.0 L0 30.0z"/></clipPath><text font-size="14" clip-path="url(#id2)" text-decoration="underline" fill="#ffffff" font-family="Arial,Arial" font-style="normal" font-weight="bold"><tspan x="21.0" xml:space="preserve" y="20.0" textLength="45.0">Gestor</tspan></text></g><g transform="translate(718.0 171.0)"><clipPath id="id3"><path d="M0 0 L124.0 0 L124.0 30.0 L0 30.0z"/></clipPath><text font-size="14" clip-path="url(#id3)" text-decoration="none" fill="#ffffff" font-family="Arial,Arial" font-style="normal" font-weight="bold"><tspan x="15.0" xml:space="preserve" y="20.0" textLength="94.0">Configuración</tspan></text></g><g transform="translate(572.0 171.0)"><clipPath id="id4"><path d="M0 0 L124.0 0 L124.0 30.0 L0 30.0z"/></clipPath><text font-size="14" clip-path="url(#id4)" text-decoration="none" fill="#ffffff" font-family="Arial,Arial" font-style="normal" font-weight="bold"><tspan x="32.0" xml:space="preserve" y="20.0" textLength="60.0">Capturas</tspan></text></g><g transform="translate(422.0 171.0)"><clipPath id="id5"><path d="M0 0 L124.0 0 L124.0 30.0 L0 30.0z"/></clipPath><text font-size="14" clip-path="url(#id5)" text-decoration="none" fill="#ffffff" font-family="Arial,Arial" font-style="normal" font-weight="bold"><tspan x="6.0" xml:space="preserve" y="20.0" textLength="112.0">Almacenamiento</tspan></text></g><path fill="none" d="M401.99999949999983 175.20648342753856 L401.99999949999983 196.79351657246147" stroke-width="1.0" stroke-linejoin="round" stroke="#000000"/><path fill="none" d="M561.9999994999998 175.20648342753856 L561.9999994999998 196.79351657246147" stroke-width="1.0" stroke-linejoin="round" stroke="#000000"/><path fill="none" d="M707.9999994999998 175.20648342753856 L707.9999994999998 196.79351657246147" stroke-width="1.0" stroke-linejoin="round" stroke="#000000"/><g transform="translate(469.5 636.0)"><path fill="url(#id6)" d="M0.0 0.0 L207.00000000000003 0.0 L207.00000000000003 25.0 L0.0 25.0 L0.0 0.0z" stroke-width="1.0" stroke-linejoin="round" stroke="#666666"/><g transform="translate(0.0 0.0)"><clipPath id="id7"><path d="M0 0 L207.0 0 L207.0 25.0 L0 25.0z"/></clipPath><text font-size="12" clip-path="url(#id7)" text-decoration="none" fill="#000000" font-family="Arial,Arial" font-style="normal" font-weight="normal"><tspan x="60.0" xml:space="preserve" y="16.5" textLength="86.0">Detener captura</tspan></text></g></g><g transform="translate(428.0 430.0)"><g transform="translate(0.0 0.0)"><clipPath id="id8"><path d="M0 0 L141.5 0 L141.5 18.0 L0 18.0z"/></clipPath><text font-size="14" clip-path="url(#id8)" text-decoration="none" fill="#000000" font-family="Arial,Arial" font-style="normal" font-weight="bold"><tspan x="2.0" xml:space="preserve" y="14.0" textLength="126.0">Tamaño de la traza</tspan></text></g></g><g transform="translate(517.0 242.0)"><g transform="translate(0.0 0.0)"><clipPath id="id9"><path d="M0 0 L120.0 0 L120.0 25.0 L0 25.0z"/></clipPath><text font-size="18" clip-path="url(#id9)" text-decoration="none" fill="#000000" font-family="Arial,Arial" font-style="normal" font-weight="bold"><tspan x="2.0" xml:space="preserve" y="18.5" textLength="100.0">Capturando</tspan></text></g></g><g transform="translate(230.0 263.75)"><path fill="none" d="M0.0 7.625000000000002 L685.9999999999995 7.625000000000002" stroke-width="1.0" stroke-linejoin="round" stroke="#999999"/></g><g transform="translate(509.0 480.0)"><g transform="translate(0.0 0.0)"><clipPath id="id10"><path d="M0 0 L64.0 0 L64.0 18.0 L0 18.0z"/></clipPath><text font-size="14" clip-path="url(#id10)" text-decoration="none" fill="#000000" font-family="Arial,Arial" font-style="normal" font-weight="bold"><tspan x="2.0" xml:space="preserve" y="14.0" textLength="44.0">Puerto</tspan></text></g></g><g transform="translate(511.5 760.8000000000001)"><g transform="translate(0.0 0.0)"><clipPath id="id11"><path d="M0 0 L104.0 0 L104.0 20.0 L0 20.0z"/></clipPath><text font-size="12" clip-path="url(#id11)" text-decoration="underline" fill="#0000ff" font-family="Arial,Arial" font-style="normal" font-weight="normal"><tspan x="2.0" xml:space="preserve" y="14.0" textLength="95.0">Cambiar de modo</tspan></text></g></g><g transform="translate(428.0 374.0)"><g transform="translate(0.0 0.0)"><clipPath id="id12"><path d="M0 0 L142.0 0 L142.0 18.0 L0 18.0z"/></clipPath><text font-size="14" clip-path="url(#id12)" text-decoration="none" fill="#000000" font-family="Arial,Arial" font-style="normal" font-weight="bold"><tspan x="2.0" xml:space="preserve" y="14.0" textLength="125.0">Nombre de la traza</tspan></text></g></g><g transform="translate(579.0 374.0)"><g transform="translate(0.0 0.0)"><clipPath id="id13"><path d="M0 0 L170.0 0 L170.0 20.0 L0 20.0z"/></clipPath><text font-size="12" clip-path="url(#id13)" text-decoration="none" fill="#000000" font-family="Arial,Arial" font-style="normal" font-weight="normal"><tspan x="2.0" xml:space="preserve" y="14.0" textLength="97.0">Captura_labs_test</tspan></text></g></g><g transform="translate(580.0 430.0)"><g transform="translate(0.0 0.0)"><clipPath id="id14"><path d="M0 0 L90.0 0 L90.0 20.0 L0 20.0z"/></clipPath><text font-size="12" clip-path="url(#id14)" text-decoration="none" fill="#000000" font-family="Arial,Arial" font-style="normal" font-weight="normal"><tspan x="2.0" xml:space="preserve" y="14.0" textLength="44.0">12.3 GB</tspan></text></g></g><g transform="translate(583.0 480.0)"><g transform="translate(0.0 0.0)"><clipPath id="id15"><path d="M0 0 L90.0 0 L90.0 20.0 L0 20.0z"/></clipPath><text font-size="12" clip-path="url(#id15)" text-decoration="none" fill="#000000" font-family="Arial,Arial" font-style="normal" font-weight="normal"><tspan x="2.0" xml:space="preserve" y="14.0" textLength="6.0">2</tspan></text></g></g><g transform="translate(417.0 526.0)"><g transform="translate(0.0 0.0)"><clipPath id="id16"><path d="M0 0 L146.0 0 L146.0 18.0 L0 18.0z"/></clipPath><text font-size="14" clip-path="url(#id16)" text-decoration="none" fill="#000000" font-family="Arial,Arial" font-style="normal" font-weight="bold"><tspan x="2.0" xml:space="preserve" y="14.0" textLength="136.0">Tiempo transcurrido</tspan></text></g></g><g transform="translate(582.0 525.0)"><g transform="translate(0.0 0.0)"><clipPath id="id17"><path d="M0 0 L90.0 0 L90.0 20.0 L0 20.0z"/></clipPath><text font-size="12" clip-path="url(#id17)" text-decoration="none" fill="#000000" font-family="Arial,Arial" font-style="normal" font-weight="normal"><tspan x="2.0" xml:space="preserve" y="14.0" textLength="30.0">10:12</tspan></text></g></g><g transform="translate(346.5 326.5)"><path fill="#ffffff" fill-opacity="1.0" d="M429.00000000000045 0.0 Q434.00000000000045 0.0 434.00000000000045 5.0 L434.00000000000045 9.0 Q434.00000000000045 14.0 429.00000000000045 14.0 L5.0 14.0 Q0.0 14.0 0.0 9.0 L0.0 5.0 Q0.0 0.0 5.0 0.0 L429.00000000000045 0.0z" stroke-width="1.0" stroke-linejoin="round" stroke="#999999"/><path fill="url(#id18)" d="M195.30000000000027 1.0 L195.30000000000027 14.0 L6.0 14.0 Q1.0 14.0 1.0 9.0 L1.0 6.0 Q1.0 1.0 6.0 1.0 L195.30000000000027 1.0z" stroke="none"/><g transform="translate(5.0 5.0)"><clipPath id="id19"><path d="M0 0 L424.0 0 L424.0 4.0 L0 4.0z"/></clipPath><text font-size="12" clip-path="url(#id19)" text-decoration="none" fill="#000000" font-family="Arial,Arial" font-style="normal" font-weight="normal"/></g></g><g transform="translate(563.5 323.5)"><g transform="translate(0.0 0.0)"><clipPath id="id20"><path d="M0 0 L90.0 0 L90.0 20.0 L0 20.0z"/></clipPath><text font-size="12" clip-path="url(#id20)" text-decoration="none" fill="#000000" font-family="Arial,Arial" font-style="normal" font-weight="normal"><tspan x="2.0" xml:space="preserve" y="14.0" textLength="24.0">40%</tspan></text></g></g><g transform="translate(483.0 578.0)"><g transform="translate(0.0 0.0)"><clipPath id="id21"><path d="M0 0 L146.0 0 L146.0 18.0 L0 18.0z"/></clipPath><text font-size="14" clip-path="url(#id21)" text-decoration="none" fill="#000000" font-family="Arial,Arial" font-style="normal" font-weight="bold"><tspan x="2.0" xml:space="preserve" y="14.0" textLength="70.0">Capturado</tspan></text></g></g><g transform="translate(582.0 578.0)"><g transform="translate(0.0 0.0)"><clipPath id="id22"><path d="M0 0 L90.0 0 L90.0 20.0 L0 20.0z"/></clipPath><text font-size="12" clip-path="url(#id22)" text-decoration="none" fill="#000000" font-family="Arial,Arial" font-style="normal" font-weight="normal"><tspan x="2.0" xml:space="preserve" y="14.0" textLength="44.0">4.92 GB</tspan></text></g></g></g></svg>