<?xml version="1.0" encoding="utf-8"?>
<svg contentScriptType="text/ecmascript" xmlns:xlink="http://www.w3.org/1999/xlink" zoomAndPan="magnify" contentStyleType="text/css" viewBox="158.0 149.0 811.0000000000013 665.9999999999999" xmlns:cacoo="http://cacoo.com/" preserveAspectRatio="xMidYMin meet" xmlns="http://www.w3.org/2000/svg" version="1.1"><defs><linearGradient x1="0%" xmlns:xlink="http://www.w3.org/1999/xlink" y1="0%" x2="0%" y2="100%" xlink:type="simple" xlink:actuate="onLoad" id="id7" xlink:show="other"><stop stop-opacity="1.0" stop-color="#ffffff" offset="0%"/><stop stop-opacity="1.0" stop-color="#cccccc" offset="100%"/></linearGradient><linearGradient x1="0%" xmlns:xlink="http://www.w3.org/1999/xlink" y1="0%" x2="0%" y2="100%" xlink:type="simple" xlink:actuate="onLoad" id="id8" xlink:show="other"><stop stop-opacity="1.0" stop-color="#ffffff" offset="0%"/><stop stop-opacity="1.0" stop-color="#cccccc" offset="100%"/></linearGradient><linearGradient xlink:actuate="onLoad" xlink:type="simple" id="id9" xlink:show="other" xmlns:xlink="http://www.w3.org/1999/xlink"><stop stop-opacity="1.0" stop-color="#999999" offset="0%"/><stop stop-opacity="1.0" stop-color="#cccccc" offset="100%"/></linearGradient><linearGradient x1="0%" xmlns:xlink="http://www.w3.org/1999/xlink" y1="0%" x2="0%" y2="100%" xlink:type="simple" xlink:actuate="onLoad" id="id10" xlink:show="other"><stop stop-opacity="1.0" stop-color="#666666" offset="0%"/><stop stop-opacity="1.0" stop-color="#333333" offset="100%"/></linearGradient><linearGradient x1="0%" xmlns:xlink="http://www.w3.org/1999/xlink" y1="0%" x2="0%" y2="100%" xlink:type="simple" xlink:actuate="onLoad" id="id11" xlink:show="other"><stop stop-opacity="1.0" stop-color="#666666" offset="0%"/><stop stop-opacity="1.0" stop-color="#333333" offset="100%"/></linearGradient><linearGradient x1="0%" xmlns:xlink="http://www.w3.org/1999/xlink" y1="0%" x2="0%" y2="100%" xlink:type="simple" xlink:actuate="onLoad" id="id12" xlink:show="other"><stop stop-opacity="1.0" stop-color="#ffffff" offset="0%"/><stop stop-opacity="1.0" stop-color="#cccccc" offset="100%"/></linearGradient><linearGradient x1="0%" xmlns:xlink="http://www.w3.org/1999/xlink" y1="0%" x2="0%" y2="100%" xlink:type="simple" xlink:actuate="onLoad" id="id17" xlink:show="other"><stop stop-opacity="1.0" stop-color="#ffffff" offset="0%"/><stop stop-opacity="1.0" stop-color="#cccccc" offset="100%"/></linearGradient><linearGradient x1="0%" xmlns:xlink="http://www.w3.org/1999/xlink" y1="0%" x2="0%" y2="100%" xlink:type="simple" xlink:actuate="onLoad" id="id22" xlink:show="other"><stop stop-opacity="1.0" stop-color="#ffffff" offset="0%"/><stop stop-opacity="1.0" stop-color="#cccccc" offset="100%"/></linearGradient><linearGradient x1="0%" xmlns:xlink="http://www.w3.org/1999/xlink" y1="0%" x2="0%" y2="100%" xlink:type="simple" xlink:actuate="onLoad" id="id27" xlink:show="other"><stop stop-opacity="1.0" stop-color="#ffffff" offset="0%"/><stop stop-opacity="1.0" stop-color="#cccccc" offset="100%"/></linearGradient><linearGradient x1="0%" xmlns:xlink="http://www.w3.org/1999/xlink" y1="0%" x2="0%" y2="100%" xlink:type="simple" xlink:actuate="onLoad" id="id34" xlink:show="other"><stop stop-opacity="1.0" stop-color="#666666" offset="0%"/><stop stop-opacity="1.0" stop-color="#333333" offset="100%"/></linearGradient><linearGradient x1="0%" xmlns:xlink="http://www.w3.org/1999/xlink" y1="0%" x2="0%" y2="100%" xlink:type="simple" xlink:actuate="onLoad" id="id39" xlink:show="other"><stop stop-opacity="1.0" stop-color="#ffffff" offset="0%"/><stop stop-opacity="1.0" stop-color="#cccccc" offset="100%"/></linearGradient><linearGradient x1="0%" xmlns:xlink="http://www.w3.org/1999/xlink" y1="0%" x2="0%" y2="100%" xlink:type="simple" xlink:actuate="onLoad" id="id42" xlink:show="other"><stop stop-opacity="1.0" stop-color="#ffffff" offset="0%"/><stop stop-opacity="1.0" stop-color="#cccccc" offset="100%"/></linearGradient><linearGradient x1="0%" xmlns:xlink="http://www.w3.org/1999/xlink" y1="0%" x2="0%" y2="100%" xlink:type="simple" xlink:actuate="onLoad" id="id46" xlink:show="other"><stop stop-opacity="1.0" stop-color="#ffffff" offset="0%"/><stop stop-opacity="1.0" stop-color="#cccccc" offset="100%"/></linearGradient></defs><g><g transform="translate(173.0 208.0)"><path fill="#dcdcdc" fill-opacity="1.0" d="M780.9999999999999 591.9999999999999 L0.0 591.9999999999999 L0.0 0.0 L780.9999999999999 0.0 L780.9999999999999 591.9999999999999z" stroke="none"/><g transform="translate(1.0 1.0)"><clipPath id="id0"><path d="M0 0 L779.0 0 L779.0 590.0 L0 590.0z"/></clipPath><text font-size="12" clip-path="url(#id0)" text-decoration="none" fill="#000000" font-family="Arial,Arial" font-style="normal" font-weight="normal"/></g></g><g transform="translate(173.0 164.0)"><path fill="#999999" fill-opacity="1.0" d="M781.0000000000013 43.99999999999999 L0.0 43.99999999999999 L0.0 0.0 L781.0000000000013 0.0 L781.0000000000013 43.99999999999999z" stroke="none"/><g transform="translate(1.0 1.0)"><clipPath id="id1"><path d="M0 0 L779.0 0 L779.0 42.0 L0 42.0z"/></clipPath><text font-size="12" clip-path="url(#id1)" text-decoration="none" fill="#000000" font-family="Arial,Arial" font-style="normal" font-weight="normal"/></g></g><g transform="translate(298.0 171.0)"><clipPath id="id2"><path d="M0 0 L88.0 0 L88.0 30.0 L0 30.0z"/></clipPath><text font-size="14" clip-path="url(#id2)" text-decoration="none" fill="#ffffff" font-family="Arial,Arial" font-style="normal" font-weight="bold"><tspan x="21.0" xml:space="preserve" y="20.0" textLength="45.0">Gestor</tspan></text></g><g transform="translate(718.0 171.0)"><clipPath id="id3"><path d="M0 0 L124.0 0 L124.0 30.0 L0 30.0z"/></clipPath><text font-size="14" clip-path="url(#id3)" text-decoration="none" fill="#ffffff" font-family="Arial,Arial" font-style="normal" font-weight="bold"><tspan x="15.0" xml:space="preserve" y="20.0" textLength="94.0">Configuración</tspan></text></g><g transform="translate(572.0 171.0)"><clipPath id="id4"><path d="M0 0 L124.0 0 L124.0 30.0 L0 30.0z"/></clipPath><text font-size="14" clip-path="url(#id4)" text-decoration="underline" fill="#ffffff" font-family="Arial,Arial" font-style="normal" font-weight="bold"><tspan x="32.0" xml:space="preserve" y="20.0" textLength="60.0">Capturas</tspan></text></g><g transform="translate(422.0 171.0)"><clipPath id="id5"><path d="M0 0 L124.0 0 L124.0 30.0 L0 30.0z"/></clipPath><text font-size="14" clip-path="url(#id5)" text-decoration="none" fill="#ffffff" font-family="Arial,Arial" font-style="normal" font-weight="bold"><tspan x="6.0" xml:space="preserve" y="20.0" textLength="112.0">Almacenamiento</tspan></text></g><path fill="none" d="M401.99999949999983 175.20648342753856 L401.99999949999983 196.79351657246147" stroke-width="1.0" stroke-linejoin="round" stroke="#000000"/><path fill="none" d="M561.9999994999998 175.20648342753856 L561.9999994999998 196.79351657246147" stroke-width="1.0" stroke-linejoin="round" stroke="#000000"/><path fill="none" d="M707.9999994999998 175.20648342753856 L707.9999994999998 196.79351657246147" stroke-width="1.0" stroke-linejoin="round" stroke="#000000"/><g transform="translate(230.0 331.0)"><path fill="#ffffff" fill-opacity="1.0" d="M3.0 0.0 L400.0 0.0 L400.0 375.0 L3.0 375.0 Q0.0 375.0 0.0 372.0 L0.0 3.0 Q0.0 0.0 3.0 0.0z" stroke-width="1.0" stroke-linejoin="round" stroke="#999999"/><g transform="translate(5.0 5.0)"><clipPath id="id6"><path d="M0 0 L390.0 0 L390.0 365.0 L0 365.0z"/></clipPath><text font-size="12" clip-path="url(#id6)" text-decoration="none" fill="#000000" font-family="Times" font-style="normal" font-weight="normal"/></g><path fill="url(#id7)" d="M400.0 0.0 L417.0 0.0 Q420.0 0.0 420.0 3.0 L420.0 20.0 L400.0 20.0 L400.0 0.0z" stroke-width="1.0" stroke-linejoin="round" stroke="#999999"/><path fill="url(#id8)" d="M400.0 355.0 L420.0 355.0 L420.0 372.0 Q420.0 375.0 417.0 375.0 L400.0 375.0 L400.0 355.0z" stroke-width="1.0" stroke-linejoin="round" stroke="#999999"/><path fill="url(#id9)" d="M400.0 20.0 L420.0 20.0 L420.0 355.0 L400.0 355.0 L400.0 20.0z" stroke-width="1.0" stroke-linejoin="round" stroke="#999999"/><path fill="url(#id10)" d="M410.0 8.0 L413.0 12.0 L407.0 12.0 L410.0 8.0z" stroke="none"/><path fill="url(#id11)" d="M407.0 363.0 L413.0 363.0 L410.0 367.0 L407.0 363.0z" stroke="none"/></g><g transform="translate(230.0 331.0)"><path fill="url(#id12)" d="M0.0 0.0 L100.0 0.0 L100.0 18.0 L0.0 18.0 L0.0 0.0z" stroke-width="1.0" stroke-linejoin="round" stroke="#999999"/><g transform="translate(0.0 0.0)"><clipPath id="id13"><path d="M0 0 L100.0 0 L100.0 18.0 L0 18.0z"/></clipPath><text font-size="12" clip-path="url(#id13)" text-decoration="none" fill="#333333" font-family="Arial,Arial" font-style="normal" font-weight="bold"><tspan x="27.0" xml:space="preserve" y="13.0" textLength="45.0">Nombre</tspan></text></g><path fill="#ffffff" fill-opacity="1.0" d="M0.0 18.0 L100.0 18.0 L100.0 38.0 L0.0 38.0 L0.0 18.0z" stroke-width="1.0" stroke-linejoin="round" stroke="#999999"/><g transform="translate(0.0 18.0)"><clipPath id="id14"><path d="M0 0 L100.0 0 L100.0 20.0 L0 20.0z"/></clipPath><text font-size="12" clip-path="url(#id14)" text-decoration="none" fill="#000000" font-family="Arial,Arial" font-style="normal" font-weight="normal"><tspan x="2.0" xml:space="preserve" y="14.0" textLength="61.0">test con crc</tspan></text></g><path fill="#ffffff" fill-opacity="1.0" d="M0.0 38.0 L100.0 38.0 L100.0 58.0 L0.0 58.0 L0.0 38.0z" stroke-width="1.0" stroke-linejoin="round" stroke="#999999"/><g transform="translate(0.0 38.0)"><clipPath id="id15"><path d="M0 0 L100.0 0 L100.0 20.0 L0 20.0z"/></clipPath><text font-size="12" clip-path="url(#id15)" text-decoration="none" fill="#000000" font-family="Arial,Arial" font-style="normal" font-weight="normal"><tspan x="2.0" xml:space="preserve" y="14.0" textLength="57.0">test sin crc</tspan></text></g><path fill="#ffffff" fill-opacity="1.0" d="M0.0 58.0 L100.0 58.0 L100.0 78.0 L0.0 78.0 L0.0 58.0z" stroke-width="1.0" stroke-linejoin="round" stroke="#999999"/><g transform="translate(0.0 58.0)"><clipPath id="id16"><path d="M0 0 L100.0 0 L100.0 20.0 L0 20.0z"/></clipPath><text font-size="12" clip-path="url(#id16)" text-decoration="none" fill="#000000" font-family="Arial,Arial" font-style="normal" font-weight="normal"><tspan x="2.0" xml:space="preserve" y="14.0" textLength="22.0">labs</tspan></text></g></g><g transform="translate(330.0 331.0)"><path fill="url(#id17)" d="M0.0 0.0 L100.0 0.0 L100.0 18.0 L0.0 18.0 L0.0 0.0z" stroke-width="1.0" stroke-linejoin="round" stroke="#999999"/><g transform="translate(0.0 0.0)"><clipPath id="id18"><path d="M0 0 L100.0 0 L100.0 18.0 L0 18.0z"/></clipPath><text font-size="12" clip-path="url(#id18)" text-decoration="none" fill="#333333" font-family="Arial,Arial" font-style="normal" font-weight="bold"><tspan x="37.0" xml:space="preserve" y="13.0" textLength="25.0">Tipo</tspan></text></g><path fill="#ffffff" fill-opacity="1.0" d="M0.0 18.0 L100.0 18.0 L100.0 38.0 L0.0 38.0 L0.0 18.0z" stroke-width="1.0" stroke-linejoin="round" stroke="#999999"/><g transform="translate(0.0 18.0)"><clipPath id="id19"><path d="M0 0 L100.0 0 L100.0 20.0 L0 20.0z"/></clipPath><text font-size="12" clip-path="url(#id19)" text-decoration="none" fill="#000000" font-family="Arial,Arial" font-style="normal" font-weight="normal"><tspan x="2.0" xml:space="preserve" y="14.0" textLength="34.0">simple</tspan></text></g><path fill="#ffffff" fill-opacity="1.0" d="M0.0 38.0 L100.0 38.0 L100.0 58.0 L0.0 58.0 L0.0 38.0z" stroke-width="1.0" stroke-linejoin="round" stroke="#999999"/><g transform="translate(0.0 38.0)"><clipPath id="id20"><path d="M0 0 L100.0 0 L100.0 20.0 L0 20.0z"/></clipPath><text font-size="12" clip-path="url(#id20)" text-decoration="none" fill="#000000" font-family="Arial,Arial" font-style="normal" font-weight="normal"><tspan x="2.0" xml:space="preserve" y="14.0" textLength="26.0">pcap</tspan></text></g><path fill="#ffffff" fill-opacity="1.0" d="M0.0 58.0 L100.0 58.0 L100.0 78.0 L0.0 78.0 L0.0 58.0z" stroke-width="1.0" stroke-linejoin="round" stroke="#999999"/><g transform="translate(0.0 58.0)"><clipPath id="id21"><path d="M0 0 L100.0 0 L100.0 20.0 L0 20.0z"/></clipPath><text font-size="12" clip-path="url(#id21)" text-decoration="none" fill="#000000" font-family="Arial,Arial" font-style="normal" font-weight="normal"><tspan x="2.0" xml:space="preserve" y="14.0" textLength="34.0">simple</tspan></text></g></g><g transform="translate(430.0 331.0)"><path fill="url(#id22)" d="M0.0 0.0 L100.0 0.0 L100.0 18.0 L0.0 18.0 L0.0 0.0z" stroke-width="1.0" stroke-linejoin="round" stroke="#999999"/><g transform="translate(0.0 0.0)"><clipPath id="id23"><path d="M0 0 L100.0 0 L100.0 18.0 L0 18.0z"/></clipPath><text font-size="12" clip-path="url(#id23)" text-decoration="none" fill="#333333" font-family="Arial,Arial" font-style="normal" font-weight="bold"><tspan x="27.0" xml:space="preserve" y="13.0" textLength="46.0">Tamaño</tspan></text></g><path fill="#ffffff" fill-opacity="1.0" d="M0.0 18.0 L100.0 18.0 L100.0 38.0 L0.0 38.0 L0.0 18.0z" stroke-width="1.0" stroke-linejoin="round" stroke="#999999"/><g transform="translate(0.0 18.0)"><clipPath id="id24"><path d="M0 0 L100.0 0 L100.0 20.0 L0 20.0z"/></clipPath><text font-size="12" clip-path="url(#id24)" text-decoration="none" fill="#000000" font-family="Arial,Arial" font-style="normal" font-weight="normal"><tspan x="2.0" xml:space="preserve" y="14.0" textLength="34.0">12 GB</tspan></text></g><path fill="#ffffff" fill-opacity="1.0" d="M0.0 38.0 L100.0 38.0 L100.0 58.0 L0.0 58.0 L0.0 38.0z" stroke-width="1.0" stroke-linejoin="round" stroke="#999999"/><g transform="translate(0.0 38.0)"><clipPath id="id25"><path d="M0 0 L100.0 0 L100.0 20.0 L0 20.0z"/></clipPath><text font-size="12" clip-path="url(#id25)" text-decoration="none" fill="#000000" font-family="Arial,Arial" font-style="normal" font-weight="normal"><tspan x="2.0" xml:space="preserve" y="14.0" textLength="58.0">123.44 MB</tspan></text></g><path fill="#ffffff" fill-opacity="1.0" d="M0.0 58.0 L100.0 58.0 L100.0 78.0 L0.0 78.0 L0.0 58.0z" stroke-width="1.0" stroke-linejoin="round" stroke="#999999"/><g transform="translate(0.0 58.0)"><clipPath id="id26"><path d="M0 0 L100.0 0 L100.0 20.0 L0 20.0z"/></clipPath><text font-size="12" clip-path="url(#id26)" text-decoration="none" fill="#000000" font-family="Arial,Arial" font-style="normal" font-weight="normal"><tspan x="2.0" xml:space="preserve" y="14.0" textLength="42.0">2.71 TB</tspan></text></g></g><g transform="translate(530.0 331.0)"><path fill="url(#id27)" d="M0.0 0.0 L100.0 0.0 L100.0 18.0 L0.0 18.0 L0.0 0.0z" stroke-width="1.0" stroke-linejoin="round" stroke="#999999"/><g transform="translate(0.0 0.0)"><clipPath id="id28"><path d="M0 0 L100.0 0 L100.0 18.0 L0 18.0z"/></clipPath><text font-size="12" clip-path="url(#id28)" text-decoration="none" fill="#333333" font-family="Arial,Arial" font-style="normal" font-weight="bold"><tspan x="33.0" xml:space="preserve" y="13.0" textLength="34.0">Fecha</tspan></text></g><path fill="#ffffff" fill-opacity="1.0" d="M0.0 18.0 L100.0 18.0 L100.0 38.0 L0.0 38.0 L0.0 18.0z" stroke-width="1.0" stroke-linejoin="round" stroke="#999999"/><g transform="translate(0.0 18.0)"><clipPath id="id29"><path d="M0 0 L100.0 0 L100.0 20.0 L0 20.0z"/></clipPath><text font-size="12" clip-path="url(#id29)" text-decoration="none" fill="#000000" font-family="Arial,Arial" font-style="normal" font-weight="normal"><tspan x="2.0" xml:space="preserve" y="14.0" textLength="60.0">05/01/2014</tspan></text></g><path fill="#ffffff" fill-opacity="1.0" d="M0.0 38.0 L100.0 38.0 L100.0 58.0 L0.0 58.0 L0.0 38.0z" stroke-width="1.0" stroke-linejoin="round" stroke="#999999"/><g transform="translate(0.0 38.0)"><clipPath id="id30"><path d="M0 0 L100.0 0 L100.0 20.0 L0 20.0z"/></clipPath><text font-size="12" clip-path="url(#id30)" text-decoration="none" fill="#000000" font-family="Arial,Arial" font-style="normal" font-weight="normal"><tspan x="2.0" xml:space="preserve" y="14.0" textLength="60.0">06/03/2014</tspan></text></g><path fill="#ffffff" fill-opacity="1.0" d="M0.0 58.0 L100.0 58.0 L100.0 78.0 L0.0 78.0 L0.0 58.0z" stroke-width="1.0" stroke-linejoin="round" stroke="#999999"/><g transform="translate(0.0 58.0)"><clipPath id="id31"><path d="M0 0 L100.0 0 L100.0 20.0 L0 20.0z"/></clipPath><text font-size="12" clip-path="url(#id31)" text-decoration="none" fill="#000000" font-family="Arial,Arial" font-style="normal" font-weight="normal"><tspan x="2.0" xml:space="preserve" y="14.0" textLength="60.0">02/12/2014</tspan></text></g></g><g transform="translate(530.0 298.0)"><path fill="#ffffff" fill-opacity="1.0" d="M3.0 0.0 L117.0 0.0 Q120.0 0.0 120.0 3.0 L120.0 17.0 Q120.0 20.0 117.0 20.0 L3.0 20.0 Q0.0 20.0 0.0 17.0 L0.0 3.0 Q0.0 0.0 3.0 0.0z" stroke-width="1.0" stroke-linejoin="round" stroke="#999999"/><g transform="translate(2.0 0.0)"><clipPath id="id32"><path d="M0 0 L116.0 0 L116.0 20.0 L0 20.0z"/></clipPath><text font-size="12" clip-path="url(#id32)" text-decoration="none" fill="#000000" font-family="Arial,Arial" font-style="normal" font-weight="normal"><tspan x="2.0" xml:space="preserve" y="14.0" textLength="47.0">Buscar...</tspan></text></g></g><g transform="translate(290.0 298.0)"><path fill="#ffffff" fill-opacity="1.0" d="M14.0 10.0 Q14.0 11.39238657165761 13.467156727579 12.67878402655563 Q12.934313455158 13.9651814814536 11.9497474683058 14.9497474683058 Q10.9651814814537 15.934313455158 9.67878402655563 16.467156727579003 Q8.39238657165761 17.0 7.0 17.0 Q5.60761342834239 17.0 4.32121597344437 16.467156727579003 Q3.03481851854635 15.934313455158 2.05025253169417 14.9497474683058 Q1.06568654484199 13.9651814814537 0.532843272420993 12.67878402655563 Q0.0 11.39238657165761 0.0 10.0 Q0.0 8.6076134283424 0.532843272420992 7.32121597344437 Q1.06568654484198 6.03481851854635 2.05025253169417 5.05025253169417 Q3.03481851854635 4.06568654484199 4.32121597344437 3.532843272420994 Q5.60761342834239 3.0 7.0 3.0 Q8.39238657165761 3.0 9.67878402655563 3.532843272420994 Q10.9651814814536 4.06568654484199 11.9497474683058 5.05025253169417 Q12.934313455158 6.03481851854635 13.467156727579 7.32121597344437 Q14.0 8.60761342834239 14.0 10.0z" stroke-width="1.0" stroke-linejoin="round" stroke="#999999"/><g transform="translate(16.0 0.0)"><clipPath id="id33"><path d="M0 0 L74.0 0 L74.0 20.0 L0 20.0z"/></clipPath><text font-size="12" clip-path="url(#id33)" text-decoration="none" fill="#000000" font-family="Arial,Arial" font-style="normal" font-weight="normal"><tspan x="2.0" xml:space="preserve" y="13.0" textLength="36.0">Simple</tspan></text></g></g><g transform="translate(230.0 298.0)"><path fill="#ffffff" fill-opacity="1.0" d="M14.0 10.0 Q14.0 11.39238657165761 13.467156727579 12.67878402655563 Q12.934313455158 13.9651814814536 11.9497474683058 14.9497474683058 Q10.9651814814537 15.934313455158 9.67878402655563 16.467156727579003 Q8.39238657165761 17.0 7.0 17.0 Q5.60761342834239 17.0 4.32121597344437 16.467156727579003 Q3.03481851854635 15.934313455158 2.05025253169417 14.9497474683058 Q1.06568654484199 13.9651814814537 0.532843272420993 12.67878402655563 Q0.0 11.39238657165761 0.0 10.0 Q0.0 8.6076134283424 0.532843272420992 7.32121597344437 Q1.06568654484198 6.03481851854635 2.05025253169417 5.05025253169417 Q3.03481851854635 4.06568654484199 4.32121597344437 3.532843272420994 Q5.60761342834239 3.0 7.0 3.0 Q8.39238657165761 3.0 9.67878402655563 3.532843272420994 Q10.9651814814536 4.06568654484199 11.9497474683058 5.05025253169417 Q12.934313455158 6.03481851854635 13.467156727579 7.32121597344437 Q14.0 8.60761342834239 14.0 10.0z" stroke-width="1.0" stroke-linejoin="round" stroke="#999999"/><path fill="url(#id34)" d="M10.0 10.0 Q10.0 10.59673710213897 9.77163859753386 11.14805029709527 Q9.54327719506772 11.69936349205156 9.12132034355964 12.12132034355964 Q8.69936349205156 12.54327719506772 8.14805029709527 12.77163859753386 Q7.59673710213897 13.0 7.0 13.0 Q6.40326289786103 13.0 5.85194970290473 12.77163859753386 Q5.30063650794844 12.54327719506772 4.878679656440358 12.12132034355964 Q4.45672280493228 11.69936349205156 4.22836140246614 11.14805029709527 Q4.0 10.59673710213897 4.0 10.0 Q4.0 9.40326289786103 4.228361402466139 8.85194970290473 Q4.456722804932279 8.30063650794844 4.878679656440357 7.878679656440358 Q5.30063650794843 7.45672280493228 5.85194970290473 7.22836140246614 Q6.40326289786102 7.0 7.0 7.0 Q7.59673710213897 7.0 8.14805029709527 7.22836140246614 Q8.69936349205156 7.45672280493228 9.12132034355964 7.878679656440357 Q9.54327719506772 8.30063650794843 9.77163859753386 8.85194970290473 Q10.0 9.403262897861019 10.0 10.0z" stroke="none"/><g transform="translate(16.0 0.0)"><clipPath id="id35"><path d="M0 0 L74.0 0 L74.0 20.0 L0 20.0z"/></clipPath><text font-size="12" clip-path="url(#id35)" text-decoration="none" fill="#000000" font-family="Arial,Arial" font-style="normal" font-weight="normal"><tspan x="2.0" xml:space="preserve" y="13.0" textLength="33.0">Todas</tspan></text></g></g><g transform="translate(352.0 298.0)"><path fill="#ffffff" fill-opacity="1.0" d="M14.0 10.0 Q14.0 11.39238657165761 13.467156727579 12.67878402655563 Q12.934313455158 13.9651814814536 11.9497474683058 14.9497474683058 Q10.9651814814537 15.934313455158 9.67878402655563 16.467156727579003 Q8.39238657165761 17.0 7.0 17.0 Q5.60761342834239 17.0 4.32121597344437 16.467156727579003 Q3.03481851854635 15.934313455158 2.05025253169417 14.9497474683058 Q1.06568654484199 13.9651814814537 0.532843272420993 12.67878402655563 Q0.0 11.39238657165761 0.0 10.0 Q0.0 8.6076134283424 0.532843272420992 7.32121597344437 Q1.06568654484198 6.03481851854635 2.05025253169417 5.05025253169417 Q3.03481851854635 4.06568654484199 4.32121597344437 3.532843272420994 Q5.60761342834239 3.0 7.0 3.0 Q8.39238657165761 3.0 9.67878402655563 3.532843272420994 Q10.9651814814536 4.06568654484199 11.9497474683058 5.05025253169417 Q12.934313455158 6.03481851854635 13.467156727579 7.32121597344437 Q14.0 8.60761342834239 14.0 10.0z" stroke-width="1.0" stroke-linejoin="round" stroke="#999999"/><g transform="translate(16.0 0.0)"><clipPath id="id36"><path d="M0 0 L74.0 0 L74.0 20.0 L0 20.0z"/></clipPath><text font-size="12" clip-path="url(#id36)" text-decoration="none" fill="#000000" font-family="Arial,Arial" font-style="normal" font-weight="normal"><tspan x="2.0" xml:space="preserve" y="13.0" textLength="27.0">Pcap</tspan></text></g></g><g transform="translate(676.0 298.0)"><path fill="#999999" fill-opacity="1.0" d="M10.0 0.0 L230.0 0.0 Q240.0 0.0 240.0 10.0 L240.0 30.0 L0.0 30.0 L0.0 10.0 Q0.0 0.0 10.0 0.0 L10.0 0.0z" stroke-width="1.0" stroke-linejoin="round" stroke="#999999"/><g transform="translate(5.0 0.0)"><clipPath id="id37"><path d="M0 0 L230.0 0 L230.0 30.0 L0 30.0z"/></clipPath><text font-size="14" clip-path="url(#id37)" text-decoration="none" fill="#ffffff" font-family="Arial,Arial" font-style="normal" font-weight="bold"><tspan x="2.0" xml:space="preserve" y="25.0" textLength="138.0">Selecciona una traza</tspan></text></g><path fill="#ffffff" fill-opacity="1.0" d="M240.0 30.0 L240.0 398.0 Q240.0 408.0 230.0 408.0 L10.0 408.0 Q0.0 408.0 0.0 398.0 L0.0 30.0 L240.0 30.0z" stroke-width="1.0" stroke-linejoin="round" stroke="#999999"/><g transform="translate(5.0 35.0)"><clipPath id="id38"><path d="M0 0 L230.0 0 L230.0 368.0 L0 368.0z"/></clipPath><text font-size="12" clip-path="url(#id38)" text-decoration="none" fill="#000000" font-family="Arial,Arial" font-style="normal" font-weight="normal"/></g></g><g transform="translate(693.0 606.25)"><path fill="url(#id39)" d="M0.0 0.0 L207.00000000000003 0.0 L207.00000000000003 25.0 L0.0 25.0 L0.0 0.0z" stroke-width="1.0" stroke-linejoin="round" stroke="#666666"/><g transform="translate(0.0 0.0)"><clipPath id="id40"><path d="M0 0 L207.0 0 L207.0 25.0 L0 25.0z"/></clipPath><text font-size="12" clip-path="url(#id40)" text-decoration="none" fill="#000000" font-family="Arial,Arial" font-style="normal" font-weight="normal"><tspan x="87.0" xml:space="preserve" y="16.5" textLength="33.0">Borrar</tspan></text></g></g><g transform="translate(692.5 394.0)"><path fill="#ffffff" fill-opacity="1.0" d="M3.0 0.0 L179.0 0.0 Q182.0 0.0 182.0 3.0 L182.0 17.0 Q182.0 20.0 179.0 20.0 L3.0 20.0 Q0.0 20.0 0.0 17.0 L0.0 3.0 Q0.0 0.0 3.0 0.0z" stroke-width="1.0" stroke-linejoin="round" stroke="#999999"/><g transform="translate(2.0 0.0)"><clipPath id="id41"><path d="M0 0 L178.0 0 L178.0 20.0 L0 20.0z"/></clipPath><text font-size="12" clip-path="url(#id41)" text-decoration="none" fill="#000000" font-family="Arial,Arial" font-style="normal" font-weight="normal"><tspan x="2.0" xml:space="preserve" y="14.0" textLength="160.0">Nombre de la traza convertida</tspan></text></g></g><g transform="translate(862.0 394.0)"><path fill="url(#id42)" d="M0.0 0.0 L38.0 0.0 L38.0 20.0 L0.0 20.0 L0.0 0.0z" stroke-width="1.0" stroke-linejoin="round" stroke="#666666"/><g transform="translate(0.0 0.0)"><clipPath id="id43"><path d="M0 0 L38.0 0 L38.0 20.0 L0 20.0z"/></clipPath><text font-size="12" clip-path="url(#id43)" text-decoration="none" fill="#000000" font-family="Arial,Arial" font-style="normal" font-weight="normal"><tspan x="10.0" xml:space="preserve" y="14.0" textLength="17.0">OK</tspan></text></g></g><g transform="translate(692.5 368.0)"><g transform="translate(0.0 0.0)"><clipPath id="id44"><path d="M0 0 L120.0 0 L120.0 18.0 L0 18.0z"/></clipPath><text font-size="14" clip-path="url(#id44)" text-decoration="none" fill="#000000" font-family="Arial,Arial" font-style="normal" font-weight="bold"><tspan x="2.0" xml:space="preserve" y="14.0" textLength="62.0">Convertir</tspan></text></g></g><g transform="translate(693.0 501.0)"><path fill="#ffffff" fill-opacity="1.0" d="M3.0 0.0 L179.0 0.0 Q182.0 0.0 182.0 3.0 L182.0 17.0 Q182.0 20.0 179.0 20.0 L3.0 20.0 Q0.0 20.0 0.0 17.0 L0.0 3.0 Q0.0 0.0 3.0 0.0z" stroke-width="1.0" stroke-linejoin="round" stroke="#999999"/><g transform="translate(2.0 0.0)"><clipPath id="id45"><path d="M0 0 L178.0 0 L178.0 20.0 L0 20.0z"/></clipPath><text font-size="12" clip-path="url(#id45)" text-decoration="none" fill="#000000" font-family="Arial,Arial" font-style="normal" font-weight="normal"><tspan x="2.0" xml:space="preserve" y="14.0" textLength="78.0">Nuevo nombre</tspan></text></g></g><g transform="translate(862.0 501.0)"><path fill="url(#id46)" d="M0.0 0.0 L38.0 0.0 L38.0 20.0 L0.0 20.0 L0.0 0.0z" stroke-width="1.0" stroke-linejoin="round" stroke="#666666"/><g transform="translate(0.0 0.0)"><clipPath id="id47"><path d="M0 0 L38.0 0 L38.0 20.0 L0 20.0z"/></clipPath><text font-size="12" clip-path="url(#id47)" text-decoration="none" fill="#000000" font-family="Arial,Arial" font-style="normal" font-weight="normal"><tspan x="10.0" xml:space="preserve" y="14.0" textLength="17.0">OK</tspan></text></g></g><g transform="translate(693.0 475.0)"><g transform="translate(0.0 0.0)"><clipPath id="id48"><path d="M0 0 L120.0 0 L120.0 18.0 L0 18.0z"/></clipPath><text font-size="14" clip-path="url(#id48)" text-decoration="none" fill="#000000" font-family="Arial,Arial" font-style="normal" font-weight="bold"><tspan x="2.0" xml:space="preserve" y="14.0" textLength="74.0">Renombrar</tspan></text></g></g></g></svg>