<?xml version="1.0" encoding="UTF-8" standalone="no"?>
<!DOCTYPE svg PUBLIC "-//W3C//DTD SVG 1.1//EN"
 "http://www.w3.org/Graphics/SVG/1.1/DTD/svg11.dtd">
<!-- Generated by graphviz version 2.38.0 (20140413.2041)
 -->
<!-- Title: G Pages: 1 -->
<svg width="540pt" height="888pt"
 viewBox="0.00 0.00 540.00 888.00" xmlns="http://www.w3.org/2000/svg" xmlns:xlink="http://www.w3.org/1999/xlink">
<g id="graph0" class="graph" transform="scale(1 1) rotate(0) translate(4 884)">
<title>G</title>
<polygon fill="white" stroke="none" points="-4,4 -4,-884 536,-884 536,4 -4,4"/>
<g id="clust1" class="cluster"><title>cluster_Global</title>
<path fill="none" stroke="gray" d="M20,-8C20,-8 512,-8 512,-8 518,-8 524,-14 524,-20 524,-20 524,-860 524,-860 524,-866 518,-872 512,-872 512,-872 20,-872 20,-872 14,-872 8,-866 8,-860 8,-860 8,-20 8,-20 8,-14 14,-8 20,-8"/>
<text text-anchor="middle" x="266" y="-859.2" font-family="Times,serif" font-size="11.00" fill="gray">Global</text>
</g>
<g id="clust2" class="cluster"><title>cluster_\App</title>
<path fill="none" stroke="gray" d="M176,-16C176,-16 504,-16 504,-16 510,-16 516,-22 516,-28 516,-28 516,-832 516,-832 516,-838 510,-844 504,-844 504,-844 176,-844 176,-844 170,-844 164,-838 164,-832 164,-832 164,-28 164,-28 164,-22 170,-16 176,-16"/>
<text text-anchor="middle" x="340" y="-831.2" font-family="Times,serif" font-size="11.00" fill="gray">App</text>
</g>
<g id="clust3" class="cluster"><title>cluster_\App\Common</title>
<path fill="none" stroke="gray" d="M184,-340C184,-340 280,-340 280,-340 286,-340 292,-346 292,-352 292,-352 292,-508 292,-508 292,-514 286,-520 280,-520 280,-520 184,-520 184,-520 178,-520 172,-514 172,-508 172,-508 172,-352 172,-352 172,-346 178,-340 184,-340"/>
<text text-anchor="middle" x="232" y="-507.2" font-family="Times,serif" font-size="11.00" fill="gray">Common</text>
</g>
<g id="clust4" class="cluster"><title>cluster_\Core</title>
<path fill="none" stroke="gray" d="M28,-232C28,-232 104,-232 104,-232 110,-232 116,-238 116,-244 116,-244 116,-562 116,-562 116,-568 110,-574 104,-574 104,-574 28,-574 28,-574 22,-574 16,-568 16,-562 16,-562 16,-244 16,-244 16,-238 22,-232 28,-232"/>
<text text-anchor="middle" x="66" y="-561.2" font-family="Times,serif" font-size="11.00" fill="gray">Core</text>
</g>
<!-- \\App\\Common\\appModel -->
<g id="node1" class="node"><title>\\App\\Common\\appModel</title>
<polygon fill="none" stroke="black" points="274,-438 190,-438 190,-402 274,-402 274,-438"/>
<text text-anchor="start" x="198" y="-423.2" font-family="Courier,monospace" font-size="11.00">«abstract»</text>
<text text-anchor="start" x="204.5" y="-411.2" font-family="Courier,monospace" font-size="11.00">appModel</text>
</g>
<!-- \\Core\\Model -->
<g id="node20" class="node"><title>\\Core\\Model</title>
<polygon fill="none" stroke="black" points="108,-438 24,-438 24,-402 108,-402 108,-438"/>
<text text-anchor="start" x="32" y="-423.2" font-family="Courier,monospace" font-size="11.00">«abstract»</text>
<text text-anchor="start" x="49" y="-411.2" font-family="Courier,monospace" font-size="11.00">Model</text>
</g>
<!-- \\App\\Common\\appModel&#45;&gt;\\Core\\Model -->
<g id="edge1" class="edge"><title>\\App\\Common\\appModel&#45;&gt;\\Core\\Model</title>
<path fill="none" stroke="black" d="M189.616,-420C167.974,-420 141.283,-420 118.335,-420"/>
<polygon fill="none" stroke="black" points="118.087,-416.5 108.087,-420 118.087,-423.5 118.087,-416.5"/>
</g>
<!-- \\App\\Common\\appController -->
<g id="node2" class="node"><title>\\App\\Common\\appController</title>
<polygon fill="none" stroke="black" points="284,-384 180,-384 180,-348 284,-348 284,-384"/>
<text text-anchor="start" x="198" y="-369.2" font-family="Courier,monospace" font-size="11.00">«abstract»</text>
<text text-anchor="start" x="188" y="-357.2" font-family="Courier,monospace" font-size="11.00">appController</text>
</g>
<!-- \\Core\\Controller -->
<g id="node21" class="node"><title>\\Core\\Controller</title>
<polygon fill="none" stroke="black" points="108,-276 24,-276 24,-240 108,-240 108,-276"/>
<text text-anchor="start" x="32" y="-261.2" font-family="Courier,monospace" font-size="11.00">«abstract»</text>
<text text-anchor="start" x="32" y="-249.2" font-family="Courier,monospace" font-size="11.00">Controller</text>
</g>
<!-- \\App\\Common\\appController&#45;&gt;\\Core\\Controller -->
<g id="edge14" class="edge"><title>\\App\\Common\\appController&#45;&gt;\\Core\\Controller</title>
<path fill="none" stroke="black" d="M206.854,-347.82C183.942,-330.853 148.305,-305.192 116,-285 114.059,-283.787 112.061,-282.569 110.031,-281.356"/>
<polygon fill="none" stroke="black" points="111.424,-278.117 101.021,-276.112 107.903,-284.167 111.424,-278.117"/>
</g>
<!-- \\App\\Common\\appView -->
<g id="node3" class="node"><title>\\App\\Common\\appView</title>
<polygon fill="none" stroke="black" points="274,-492 190,-492 190,-456 274,-456 274,-492"/>
<text text-anchor="start" x="198" y="-477.2" font-family="Courier,monospace" font-size="11.00">«abstract»</text>
<text text-anchor="start" x="208" y="-465.2" font-family="Courier,monospace" font-size="11.00">appView</text>
</g>
<!-- \\Core\\View -->
<g id="node24" class="node"><title>\\Core\\View</title>
<polygon fill="none" stroke="black" points="108,-492 24,-492 24,-456 108,-456 108,-492"/>
<text text-anchor="start" x="32" y="-477.2" font-family="Courier,monospace" font-size="11.00">«abstract»</text>
<text text-anchor="start" x="52" y="-465.2" font-family="Courier,monospace" font-size="11.00">View</text>
</g>
<!-- \\App\\Common\\appView&#45;&gt;\\Core\\View -->
<g id="edge15" class="edge"><title>\\App\\Common\\appView&#45;&gt;\\Core\\View</title>
<path fill="none" stroke="black" d="M189.616,-474C167.974,-474 141.283,-474 118.335,-474"/>
<polygon fill="none" stroke="black" points="118.087,-470.5 108.087,-474 118.087,-477.5 118.087,-470.5"/>
</g>
<!-- \\App\\capturesView -->
<g id="node4" class="node"><title>\\App\\capturesView</title>
<polygon fill="none" stroke="black" points="481,-816 383,-816 383,-780 481,-780 481,-816"/>
<text text-anchor="middle" x="432" y="-795.2" font-family="Courier,monospace" font-size="11.00">capturesView</text>
</g>
<!-- \\App\\capturesView&#45;&gt;\\App\\Common\\appView -->
<g id="edge2" class="edge"><title>\\App\\capturesView&#45;&gt;\\App\\Common\\appView</title>
<path fill="none" stroke="black" d="M382.802,-787.339C373.057,-783.448 363.51,-778.164 356,-771 276.548,-695.204 246.569,-560.479 236.948,-502.18"/>
<polygon fill="none" stroke="black" points="240.392,-501.55 235.381,-492.215 233.477,-502.638 240.392,-501.55"/>
</g>
<!-- \\App\\statusModel -->
<g id="node5" class="node"><title>\\App\\statusModel</title>
<polygon fill="none" stroke="black" points="477.5,-546 386.5,-546 386.5,-510 477.5,-510 477.5,-546"/>
<text text-anchor="middle" x="432" y="-525.2" font-family="Courier,monospace" font-size="11.00">statusModel</text>
</g>
<!-- \\App\\statusModel&#45;&gt;\\App\\Common\\appModel -->
<g id="edge3" class="edge"><title>\\App\\statusModel&#45;&gt;\\App\\Common\\appModel</title>
<path fill="none" stroke="black" d="M386.206,-514.815C375.965,-511.007 365.35,-506.393 356,-501 323.762,-482.404 323.433,-466.927 292,-447 289.106,-445.165 286.066,-443.385 282.957,-441.673"/>
<polygon fill="none" stroke="black" points="284.556,-438.559 274.071,-437.037 281.318,-444.765 284.556,-438.559"/>
</g>
<!-- \\App\\statusView -->
<g id="node6" class="node"><title>\\App\\statusView</title>
<polygon fill="none" stroke="black" points="474,-762 390,-762 390,-726 474,-726 474,-762"/>
<text text-anchor="middle" x="432" y="-741.2" font-family="Courier,monospace" font-size="11.00">statusView</text>
</g>
<!-- \\App\\statusView&#45;&gt;\\App\\Common\\appView -->
<g id="edge4" class="edge"><title>\\App\\statusView&#45;&gt;\\App\\Common\\appView</title>
<path fill="none" stroke="black" d="M389.841,-735.337C377.908,-731.291 365.539,-725.432 356,-717 288.528,-657.357 253.372,-551.964 239.792,-501.904"/>
<polygon fill="none" stroke="black" points="243.142,-500.881 237.218,-492.098 236.371,-502.659 243.142,-500.881"/>
</g>
<!-- \\App\\managerView -->
<g id="node7" class="node"><title>\\App\\managerView</title>
<polygon fill="none" stroke="black" points="477.5,-708 386.5,-708 386.5,-672 477.5,-672 477.5,-708"/>
<text text-anchor="middle" x="432" y="-687.2" font-family="Courier,monospace" font-size="11.00">managerView</text>
</g>
<!-- \\App\\managerView&#45;&gt;\\App\\Common\\appView -->
<g id="edge5" class="edge"><title>\\App\\managerView&#45;&gt;\\App\\Common\\appView</title>
<path fill="none" stroke="black" d="M386.486,-679.299C375.789,-675.346 364.897,-670.044 356,-663 300.282,-618.884 261.736,-542.298 244.025,-501.475"/>
<polygon fill="none" stroke="black" points="247.195,-499.986 240.071,-492.144 240.75,-502.717 247.195,-499.986"/>
</g>
<!-- \\App\\managerController -->
<g id="node8" class="node"><title>\\App\\managerController</title>
<polygon fill="none" stroke="black" points="497.5,-276 366.5,-276 366.5,-240 497.5,-240 497.5,-276"/>
<text text-anchor="middle" x="432" y="-255.2" font-family="Courier,monospace" font-size="11.00">managerController</text>
</g>
<!-- \\App\\managerController&#45;&gt;\\App\\Common\\appController -->
<g id="edge6" class="edge"><title>\\App\\managerController&#45;&gt;\\App\\Common\\appController</title>
<path fill="none" stroke="black" d="M375.886,-276.136C369.085,-278.87 362.312,-281.842 356,-285 323.478,-301.274 289.126,-324.467 265.017,-341.868"/>
<polygon fill="none" stroke="black" points="262.954,-339.041 256.936,-347.761 267.078,-344.697 262.954,-339.041"/>
</g>
<!-- \\App\\capturesModel -->
<g id="node9" class="node"><title>\\App\\capturesModel</title>
<polygon fill="none" stroke="black" points="484,-492 380,-492 380,-456 484,-456 484,-492"/>
<text text-anchor="middle" x="432" y="-471.2" font-family="Courier,monospace" font-size="11.00">capturesModel</text>
</g>
<!-- \\App\\capturesModel&#45;&gt;\\App\\Common\\appModel -->
<g id="edge7" class="edge"><title>\\App\\capturesModel&#45;&gt;\\App\\Common\\appModel</title>
<path fill="none" stroke="black" d="M379.753,-460.023C350.207,-451.966 313.2,-441.873 283.741,-433.838"/>
<polygon fill="none" stroke="black" points="284.63,-430.453 274.061,-431.198 282.788,-437.206 284.63,-430.453"/>
</g>
<!-- \\App\\settingsController -->
<g id="node10" class="node"><title>\\App\\settingsController</title>
<polygon fill="none" stroke="black" points="501,-222 363,-222 363,-186 501,-186 501,-222"/>
<text text-anchor="middle" x="432" y="-201.2" font-family="Courier,monospace" font-size="11.00">settingsController</text>
</g>
<!-- \\App\\settingsController&#45;&gt;\\App\\Common\\appController -->
<g id="edge8" class="edge"><title>\\App\\settingsController&#45;&gt;\\App\\Common\\appController</title>
<path fill="none" stroke="black" d="M371.915,-222.108C366.351,-224.74 360.949,-227.696 356,-231 311.84,-260.485 272.82,-309.166 251.112,-339.31"/>
<polygon fill="none" stroke="black" points="248.124,-337.474 245.202,-347.658 253.837,-341.519 248.124,-337.474"/>
</g>
<!-- \\App\\settingsView -->
<g id="node11" class="node"><title>\\App\\settingsView</title>
<polygon fill="none" stroke="black" points="481,-654 383,-654 383,-618 481,-618 481,-654"/>
<text text-anchor="middle" x="432" y="-633.2" font-family="Courier,monospace" font-size="11.00">settingsView</text>
</g>
<!-- \\App\\settingsView&#45;&gt;\\App\\Common\\appView -->
<g id="edge9" class="edge"><title>\\App\\settingsView&#45;&gt;\\App\\Common\\appView</title>
<path fill="none" stroke="black" d="M382.909,-622.627C373.579,-618.963 364.172,-614.456 356,-609 311.84,-579.515 272.82,-530.834 251.112,-500.69"/>
<polygon fill="none" stroke="black" points="253.837,-498.481 245.202,-492.342 248.124,-502.526 253.837,-498.481"/>
</g>
<!-- \\App\\capturesController -->
<g id="node12" class="node"><title>\\App\\capturesController</title>
<polygon fill="none" stroke="black" points="501,-168 363,-168 363,-132 501,-132 501,-168"/>
<text text-anchor="middle" x="432" y="-147.2" font-family="Courier,monospace" font-size="11.00">capturesController</text>
</g>
<!-- \\App\\capturesController&#45;&gt;\\App\\Common\\appController -->
<g id="edge10" class="edge"><title>\\App\\capturesController&#45;&gt;\\App\\Common\\appController</title>
<path fill="none" stroke="black" d="M369.813,-168.089C364.914,-170.694 360.231,-173.65 356,-177 300.282,-221.116 261.736,-297.702 244.025,-338.525"/>
<polygon fill="none" stroke="black" points="240.75,-337.283 240.071,-347.856 247.195,-340.014 240.75,-337.283"/>
</g>
<!-- \\App\\managerModel -->
<g id="node13" class="node"><title>\\App\\managerModel</title>
<polygon fill="none" stroke="black" points="481,-438 383,-438 383,-402 481,-402 481,-438"/>
<text text-anchor="middle" x="432" y="-417.2" font-family="Courier,monospace" font-size="11.00">managerModel</text>
</g>
<!-- \\App\\managerModel&#45;&gt;\\App\\Common\\appModel -->
<g id="edge11" class="edge"><title>\\App\\managerModel&#45;&gt;\\App\\Common\\appModel</title>
<path fill="none" stroke="black" d="M382.817,-420C353.019,-420 314.795,-420 284.415,-420"/>
<polygon fill="none" stroke="black" points="284.023,-416.5 274.023,-420 284.023,-423.5 284.023,-416.5"/>
</g>
<!-- \\App\\settingsModel -->
<g id="node14" class="node"><title>\\App\\settingsModel</title>
<polygon fill="none" stroke="black" points="484,-384 380,-384 380,-348 484,-348 484,-384"/>
<text text-anchor="middle" x="432" y="-363.2" font-family="Courier,monospace" font-size="11.00">settingsModel</text>
</g>
<!-- \\App\\settingsModel&#45;&gt;\\App\\Common\\appModel -->
<g id="edge12" class="edge"><title>\\App\\settingsModel&#45;&gt;\\App\\Common\\appModel</title>
<path fill="none" stroke="black" d="M379.753,-379.977C350.207,-388.034 313.2,-398.127 283.741,-406.162"/>
<polygon fill="none" stroke="black" points="282.788,-402.794 274.061,-408.802 284.63,-409.547 282.788,-402.794"/>
</g>
<!-- \\App\\statusController -->
<g id="node15" class="node"><title>\\App\\statusController</title>
<polygon fill="none" stroke="black" points="494.5,-114 369.5,-114 369.5,-78 494.5,-78 494.5,-114"/>
<text text-anchor="middle" x="432" y="-93.2" font-family="Courier,monospace" font-size="11.00">statusController</text>
</g>
<!-- \\App\\statusController&#45;&gt;\\App\\Common\\appController -->
<g id="edge13" class="edge"><title>\\App\\statusController&#45;&gt;\\App\\Common\\appController</title>
<path fill="none" stroke="black" d="M369.408,-113.606C364.596,-116.313 360.044,-119.425 356,-123 288.528,-182.643 253.372,-288.036 239.792,-338.096"/>
<polygon fill="none" stroke="black" points="236.371,-337.341 237.218,-347.902 243.142,-339.119 236.371,-337.341"/>
</g>
<!-- \\App\\statisticsController -->
<g id="node16" class="node"><title>\\App\\statisticsController</title>
<polygon fill="none" stroke="black" points="508,-60 356,-60 356,-24 508,-24 508,-60"/>
<text text-anchor="middle" x="432" y="-39.2" font-family="Courier,monospace" font-size="11.00">statisticsController</text>
</g>
<!-- \\App\\statisticsController&#45;&gt;\\App\\Common\\appController -->
<g id="edge16" class="edge"><title>\\App\\statisticsController&#45;&gt;\\App\\Common\\appController</title>
<path fill="none" stroke="black" d="M367.658,-60.1489C363.453,-62.7228 359.505,-65.6566 356,-69 276.548,-144.796 246.569,-279.521 236.948,-337.82"/>
<polygon fill="none" stroke="black" points="233.477,-337.362 235.381,-347.785 240.392,-338.45 233.477,-337.362"/>
</g>
<!-- \\App\\statisticsView -->
<g id="node17" class="node"><title>\\App\\statisticsView</title>
<polygon fill="none" stroke="black" points="487.5,-600 376.5,-600 376.5,-564 487.5,-564 487.5,-600"/>
<text text-anchor="middle" x="432" y="-579.2" font-family="Courier,monospace" font-size="11.00">statisticsView</text>
</g>
<!-- \\App\\statisticsView&#45;&gt;\\App\\Common\\appView -->
<g id="edge17" class="edge"><title>\\App\\statisticsView&#45;&gt;\\App\\Common\\appView</title>
<path fill="none" stroke="black" d="M376.286,-564.024C369.351,-561.246 362.436,-558.22 356,-555 323.478,-538.726 289.126,-515.533 265.017,-498.132"/>
<polygon fill="none" stroke="black" points="267.078,-495.303 256.936,-492.239 262.954,-500.959 267.078,-495.303"/>
</g>
<!-- \\App\\statisticsModel -->
<g id="node18" class="node"><title>\\App\\statisticsModel</title>
<polygon fill="none" stroke="black" points="491,-330 373,-330 373,-294 491,-294 491,-330"/>
<text text-anchor="middle" x="432" y="-309.2" font-family="Courier,monospace" font-size="11.00">statisticsModel</text>
</g>
<!-- \\App\\statisticsModel&#45;&gt;\\App\\Common\\appModel -->
<g id="edge18" class="edge"><title>\\App\\statisticsModel&#45;&gt;\\App\\Common\\appModel</title>
<path fill="none" stroke="black" d="M373.922,-330.106C367.728,-332.783 361.634,-335.75 356,-339 323.762,-357.596 323.433,-373.073 292,-393 289.106,-394.835 286.066,-396.615 282.957,-398.327"/>
<polygon fill="none" stroke="black" points="281.318,-395.235 274.071,-402.963 284.556,-401.441 281.318,-395.235"/>
</g>
<!-- \\Core\\Logger -->
<g id="node19" class="node"><title>\\Core\\Logger</title>
<polygon fill="none" stroke="black" points="94.5,-546 37.5,-546 37.5,-510 94.5,-510 94.5,-546"/>
<text text-anchor="middle" x="66" y="-525.2" font-family="Courier,monospace" font-size="11.00">Logger</text>
</g>
<!-- \\Core\\Router -->
<g id="node22" class="node"><title>\\Core\\Router</title>
<polygon fill="none" stroke="black" points="94.5,-384 37.5,-384 37.5,-348 94.5,-348 94.5,-384"/>
<text text-anchor="middle" x="66" y="-363.2" font-family="Courier,monospace" font-size="11.00">Router</text>
</g>
<!-- \\Core\\Config -->
<g id="node23" class="node"><title>\\Core\\Config</title>
<polygon fill="none" stroke="black" points="94.5,-330 37.5,-330 37.5,-294 94.5,-294 94.5,-330"/>
<text text-anchor="middle" x="66" y="-309.2" font-family="Courier,monospace" font-size="11.00">Config</text>
</g>
</g>
</svg>
