<?xml version="1.0" encoding="UTF-8" standalone="no"?>
<!DOCTYPE svg PUBLIC "-//W3C//DTD SVG 1.1//EN"
 "http://www.w3.org/Graphics/SVG/1.1/DTD/svg11.dtd">
<!-- Generated by graphviz version 2.38.0 (20140413.2041)
 -->
<!-- Title: G Pages: 1 -->
<svg width="526pt" height="402pt"
 viewBox="0.00 0.00 526.00 402.00" xmlns="http://www.w3.org/2000/svg" xmlns:xlink="http://www.w3.org/1999/xlink">
<g id="graph0" class="graph" transform="scale(1 1) rotate(0) translate(4 398)">
<title>G</title>
<polygon fill="white" stroke="none" points="-4,4 -4,-398 522,-398 522,4 -4,4"/>
<g id="clust1" class="cluster"><title>cluster_Global</title>
<path fill="none" stroke="gray" d="M20,-8C20,-8 498,-8 498,-8 504,-8 510,-14 510,-20 510,-20 510,-374 510,-374 510,-380 504,-386 498,-386 498,-386 20,-386 20,-386 14,-386 8,-380 8,-374 8,-374 8,-20 8,-20 8,-14 14,-8 20,-8"/>
<text text-anchor="middle" x="259" y="-373.2" font-family="Times,serif" font-size="11.00" fill="gray">Global</text>
</g>
<g id="clust2" class="cluster"><title>cluster_\Core</title>
<path fill="none" stroke="gray" d="M28,-16C28,-16 104,-16 104,-16 110,-16 116,-22 116,-28 116,-28 116,-346 116,-346 116,-352 110,-358 104,-358 104,-358 28,-358 28,-358 22,-358 16,-352 16,-346 16,-346 16,-28 16,-28 16,-22 22,-16 28,-16"/>
<text text-anchor="middle" x="66" y="-345.2" font-family="Times,serif" font-size="11.00" fill="gray">Core</text>
</g>
<g id="clust3" class="cluster"><title>cluster_\App</title>
<path fill="none" stroke="gray" d="M176,-16C176,-16 490,-16 490,-16 496,-16 502,-22 502,-28 502,-28 502,-346 502,-346 502,-352 496,-358 490,-358 490,-358 176,-358 176,-358 170,-358 164,-352 164,-346 164,-346 164,-28 164,-28 164,-22 170,-16 176,-16"/>
<text text-anchor="middle" x="333" y="-345.2" font-family="Times,serif" font-size="11.00" fill="gray">App</text>
</g>
<g id="clust4" class="cluster"><title>cluster_\App\Common</title>
<path fill="none" stroke="gray" d="M184,-124C184,-124 280,-124 280,-124 286,-124 292,-130 292,-136 292,-136 292,-292 292,-292 292,-298 286,-304 280,-304 280,-304 184,-304 184,-304 178,-304 172,-298 172,-292 172,-292 172,-136 172,-136 172,-130 178,-124 184,-124"/>
<text text-anchor="middle" x="232" y="-291.2" font-family="Times,serif" font-size="11.00" fill="gray">Common</text>
</g>
<!-- \\Core\\Model -->
<g id="node1" class="node"><title>\\Core\\Model</title>
<polygon fill="none" stroke="black" points="108,-276 24,-276 24,-240 108,-240 108,-276"/>
<text text-anchor="start" x="32" y="-261.2" font-family="Courier,monospace" font-size="11.00">«abstract»</text>
<text text-anchor="start" x="49" y="-249.2" font-family="Courier,monospace" font-size="11.00">Model</text>
</g>
<!-- \\Core\\View -->
<g id="node2" class="node"><title>\\Core\\View</title>
<polygon fill="none" stroke="black" points="108,-330 24,-330 24,-294 108,-294 108,-330"/>
<text text-anchor="start" x="32" y="-315.2" font-family="Courier,monospace" font-size="11.00">«abstract»</text>
<text text-anchor="start" x="52" y="-303.2" font-family="Courier,monospace" font-size="11.00">View</text>
</g>
<!-- \\Core\\Router -->
<g id="node3" class="node"><title>\\Core\\Router</title>
<polygon fill="none" stroke="black" points="94.5,-222 37.5,-222 37.5,-186 94.5,-186 94.5,-222"/>
<text text-anchor="middle" x="66" y="-201.2" font-family="Courier,monospace" font-size="11.00">Router</text>
</g>
<!-- \\Core\\Logger -->
<g id="node4" class="node"><title>\\Core\\Logger</title>
<polygon fill="none" stroke="black" points="94.5,-168 37.5,-168 37.5,-132 94.5,-132 94.5,-168"/>
<text text-anchor="middle" x="66" y="-147.2" font-family="Courier,monospace" font-size="11.00">Logger</text>
</g>
<!-- \\Core\\Config -->
<g id="node5" class="node"><title>\\Core\\Config</title>
<polygon fill="none" stroke="black" points="94.5,-114 37.5,-114 37.5,-78 94.5,-78 94.5,-114"/>
<text text-anchor="middle" x="66" y="-93.2" font-family="Courier,monospace" font-size="11.00">Config</text>
</g>
<!-- \\Core\\Controller -->
<g id="node6" class="node"><title>\\Core\\Controller</title>
<polygon fill="none" stroke="black" points="108,-60 24,-60 24,-24 108,-24 108,-60"/>
<text text-anchor="start" x="32" y="-45.2" font-family="Courier,monospace" font-size="11.00">«abstract»</text>
<text text-anchor="start" x="32" y="-33.2" font-family="Courier,monospace" font-size="11.00">Controller</text>
</g>
<!-- \\App\\Common\\appView -->
<g id="node7" class="node"><title>\\App\\Common\\appView</title>
<polygon fill="none" stroke="black" points="274,-276 190,-276 190,-240 274,-240 274,-276"/>
<text text-anchor="start" x="198" y="-261.2" font-family="Courier,monospace" font-size="11.00">«abstract»</text>
<text text-anchor="start" x="208" y="-249.2" font-family="Courier,monospace" font-size="11.00">appView</text>
</g>
<!-- \\App\\Common\\appView&#45;&gt;\\Core\\View -->
<g id="edge1" class="edge"><title>\\App\\Common\\appView&#45;&gt;\\Core\\View</title>
<path fill="none" stroke="black" d="M189.616,-271.626C167.779,-278.817 140.802,-287.699 117.716,-295.301"/>
<polygon fill="none" stroke="black" points="116.49,-292.02 108.087,-298.472 118.68,-298.668 116.49,-292.02"/>
</g>
<!-- \\App\\Common\\appController -->
<g id="node8" class="node"><title>\\App\\Common\\appController</title>
<polygon fill="none" stroke="black" points="284,-168 180,-168 180,-132 284,-132 284,-168"/>
<text text-anchor="start" x="198" y="-153.2" font-family="Courier,monospace" font-size="11.00">«abstract»</text>
<text text-anchor="start" x="188" y="-141.2" font-family="Courier,monospace" font-size="11.00">appController</text>
</g>
<!-- \\App\\Common\\appController&#45;&gt;\\Core\\Controller -->
<g id="edge2" class="edge"><title>\\App\\Common\\appController&#45;&gt;\\Core\\Controller</title>
<path fill="none" stroke="black" d="M206.854,-131.82C183.942,-114.853 148.305,-89.192 116,-69 114.059,-67.787 112.061,-66.5685 110.031,-65.3559"/>
<polygon fill="none" stroke="black" points="111.424,-62.117 101.021,-60.1117 107.903,-68.1669 111.424,-62.117"/>
</g>
<!-- \\App\\Common\\appModel -->
<g id="node9" class="node"><title>\\App\\Common\\appModel</title>
<polygon fill="none" stroke="black" points="274,-222 190,-222 190,-186 274,-186 274,-222"/>
<text text-anchor="start" x="198" y="-207.2" font-family="Courier,monospace" font-size="11.00">«abstract»</text>
<text text-anchor="start" x="204.5" y="-195.2" font-family="Courier,monospace" font-size="11.00">appModel</text>
</g>
<!-- \\App\\Common\\appModel&#45;&gt;\\Core\\Model -->
<g id="edge3" class="edge"><title>\\App\\Common\\appModel&#45;&gt;\\Core\\Model</title>
<path fill="none" stroke="black" d="M189.616,-217.626C167.779,-224.817 140.802,-233.699 117.716,-241.301"/>
<polygon fill="none" stroke="black" points="116.49,-238.02 108.087,-244.472 118.68,-244.668 116.49,-238.02"/>
</g>
<!-- \\App\\settingsController -->
<g id="node10" class="node"><title>\\App\\settingsController</title>
<polygon fill="none" stroke="black" points="494,-114 356,-114 356,-78 494,-78 494,-114"/>
<text text-anchor="middle" x="425" y="-93.2" font-family="Courier,monospace" font-size="11.00">settingsController</text>
</g>
<!-- \\App\\settingsController&#45;&gt;\\App\\Common\\appController -->
<g id="edge4" class="edge"><title>\\App\\settingsController&#45;&gt;\\App\\Common\\appController</title>
<path fill="none" stroke="black" d="M360.134,-114.056C338.789,-120.091 315.066,-126.798 293.949,-132.768"/>
<polygon fill="none" stroke="black" points="292.802,-129.455 284.132,-135.544 294.707,-136.191 292.802,-129.455"/>
</g>
<!-- \\App\\settingsView -->
<g id="node11" class="node"><title>\\App\\settingsView</title>
<polygon fill="none" stroke="black" points="474,-330 376,-330 376,-294 474,-294 474,-330"/>
<text text-anchor="middle" x="425" y="-309.2" font-family="Courier,monospace" font-size="11.00">settingsView</text>
</g>
<!-- \\App\\settingsView&#45;&gt;\\App\\Common\\appView -->
<g id="edge5" class="edge"><title>\\App\\settingsView&#45;&gt;\\App\\Common\\appView</title>
<path fill="none" stroke="black" d="M375.803,-298.374C347.727,-290.436 312.355,-280.436 283.839,-272.373"/>
<polygon fill="none" stroke="black" points="284.637,-268.962 274.062,-269.609 282.733,-275.698 284.637,-268.962"/>
</g>
<!-- \\App\\settingsModel -->
<g id="node12" class="node"><title>\\App\\settingsModel</title>
<polygon fill="none" stroke="black" points="477,-222 373,-222 373,-186 477,-186 477,-222"/>
<text text-anchor="middle" x="425" y="-201.2" font-family="Courier,monospace" font-size="11.00">settingsModel</text>
</g>
<!-- \\App\\settingsModel&#45;&gt;\\App\\Common\\appModel -->
<g id="edge6" class="edge"><title>\\App\\settingsModel&#45;&gt;\\App\\Common\\appModel</title>
<path fill="none" stroke="black" d="M372.816,-204C345.38,-204 311.675,-204 284.232,-204"/>
<polygon fill="none" stroke="black" points="284.048,-200.5 274.048,-204 284.048,-207.5 284.048,-200.5"/>
</g>
<!-- \\App\\statusView -->
<g id="node13" class="node"><title>\\App\\statusView</title>
<polygon fill="none" stroke="black" points="467,-276 383,-276 383,-240 467,-240 467,-276"/>
<text text-anchor="middle" x="425" y="-255.2" font-family="Courier,monospace" font-size="11.00">statusView</text>
</g>
<!-- \\App\\statusView&#45;&gt;\\App\\Common\\appView -->
<g id="edge7" class="edge"><title>\\App\\statusView&#45;&gt;\\App\\Common\\appView</title>
<path fill="none" stroke="black" d="M382.556,-258C353.674,-258 314.957,-258 284.152,-258"/>
<polygon fill="none" stroke="black" points="284.035,-254.5 274.035,-258 284.035,-261.5 284.035,-254.5"/>
</g>
<!-- \\App\\statusController -->
<g id="node14" class="node"><title>\\App\\statusController</title>
<polygon fill="none" stroke="black" points="487.5,-60 362.5,-60 362.5,-24 487.5,-24 487.5,-60"/>
<text text-anchor="middle" x="425" y="-39.2" font-family="Courier,monospace" font-size="11.00">statusController</text>
</g>
<!-- \\App\\statusController&#45;&gt;\\App\\Common\\appController -->
<g id="edge8" class="edge"><title>\\App\\statusController&#45;&gt;\\App\\Common\\appController</title>
<path fill="none" stroke="black" d="M374.8,-60.1412C368.384,-62.9109 361.971,-65.8903 356,-69 324.089,-85.6199 290.095,-108.443 265.95,-125.627"/>
<polygon fill="none" stroke="black" points="263.602,-123.005 257.523,-131.682 267.686,-128.69 263.602,-123.005"/>
</g>
<!-- \\App\\statusModel -->
<g id="node15" class="node"><title>\\App\\statusModel</title>
<polygon fill="none" stroke="black" points="470.5,-168 379.5,-168 379.5,-132 470.5,-132 470.5,-168"/>
<text text-anchor="middle" x="425" y="-147.2" font-family="Courier,monospace" font-size="11.00">statusModel</text>
</g>
<!-- \\App\\statusModel&#45;&gt;\\App\\Common\\appModel -->
<g id="edge9" class="edge"><title>\\App\\statusModel&#45;&gt;\\App\\Common\\appModel</title>
<path fill="none" stroke="black" d="M379.219,-162.661C350.689,-170.727 313.651,-181.198 283.991,-189.584"/>
<polygon fill="none" stroke="black" points="282.909,-186.252 274.238,-192.341 284.813,-192.988 282.909,-186.252"/>
</g>
</g>
</svg>
