<?xml version="1.0" encoding="utf-8"?>
<svg contentScriptType="text/ecmascript" xmlns:xlink="http://www.w3.org/1999/xlink" zoomAndPan="magnify" contentStyleType="text/css" viewBox="365.25174999999996 94.0 685.9767510000001 530.295501" xmlns:cacoo="http://cacoo.com/" preserveAspectRatio="xMidYMin meet" xmlns="http://www.w3.org/2000/svg" version="1.1"><defs><marker refX="14.0" refY="7.0" markerUnits="userSpaceOnUse" orient="auto" id="id0" markerHeight="14.0" viewBox="0 0 14.0 14.0" preserveAspectRatio="xMidYMid meet" markerWidth="14.0" overflow="visible"><path fill="#000000" d="M0 0 L14.0 7.0 L0 14.0z" stroke-width="1.0" stroke-linejoin="round" stroke-linecap="round" stroke="#000000"/></marker><filter xlink:actuate="onLoad" xlink:type="simple" id="id1" xlink:show="other" filterUnits="userSpaceOnUse" xmlns:xlink="http://www.w3.org/1999/xlink"><feGaussianBlur stdDeviation="3.0" result="blur" in="SourceAlpha"/><feOffset dx="-1.3322676295501878E-15" dy="5.65685424949238" result="offsetBlur" in="blur"/><feComponentTransfer result="componentOffsetBlur" in="offsetBlur"><feFuncR type="linear" intercept="0.0" slope="0"/><feFuncG type="linear" intercept="0.0" slope="0"/><feFuncB type="linear" intercept="0.0" slope="0"/><feFuncA type="linear" intercept="0" slope="0.4"/></feComponentTransfer></filter><marker refX="14.0" refY="7.0" markerUnits="userSpaceOnUse" orient="auto" id="id4" markerHeight="14.0" viewBox="0 0 14.0 14.0" preserveAspectRatio="xMidYMid meet" markerWidth="14.0" overflow="visible"><path fill="#000000" d="M0 0 L14.0 7.0 L0 14.0z" stroke-width="1.0" stroke-linejoin="round" stroke-linecap="round" stroke="#000000"/></marker><filter xlink:actuate="onLoad" xlink:type="simple" id="id5" xlink:show="other" filterUnits="userSpaceOnUse" xmlns:xlink="http://www.w3.org/1999/xlink"><feGaussianBlur stdDeviation="3.0" result="blur" in="SourceAlpha"/><feOffset dx="5.65685424949238" dy="1.3322676295501878E-15" result="offsetBlur" in="blur"/><feComponentTransfer result="componentOffsetBlur" in="offsetBlur"><feFuncR type="linear" intercept="0.0" slope="0"/><feFuncG type="linear" intercept="0.0" slope="0"/><feFuncB type="linear" intercept="0.0" slope="0"/><feFuncA type="linear" intercept="0" slope="0.4"/></feComponentTransfer></filter><linearGradient x1="0%" xmlns:xlink="http://www.w3.org/1999/xlink" y1="0%" x2="0%" y2="100%" xlink:type="simple" xlink:actuate="onLoad" id="id8" xlink:show="other"><stop stop-opacity="1.0" stop-color="#cce3df" offset="0%"/><stop stop-opacity="1.0" stop-color="#67ab9f" offset="100%"/></linearGradient><marker refX="14.0" refY="7.0" markerUnits="userSpaceOnUse" orient="auto" id="id10" markerHeight="14.0" viewBox="0 0 14.0 14.0" preserveAspectRatio="xMidYMid meet" markerWidth="14.0" overflow="visible"><path fill="none" d="M0 0 L14.0 7.0 L0 14.0" stroke-width="1.0" stroke-linejoin="round" stroke-linecap="round" stroke="#000000"/></marker><filter xlink:actuate="onLoad" xlink:type="simple" id="id11" xlink:show="other" filterUnits="userSpaceOnUse" xmlns:xlink="http://www.w3.org/1999/xlink"><feGaussianBlur stdDeviation="3.0" result="blur" in="SourceAlpha"/><feOffset dx="-4.000000000000001" dy="3.999999999999999" result="offsetBlur" in="blur"/><feComponentTransfer result="componentOffsetBlur" in="offsetBlur"><feFuncR type="linear" intercept="0.0" slope="0"/><feFuncG type="linear" intercept="0.0" slope="0"/><feFuncB type="linear" intercept="0.0" slope="0"/><feFuncA type="linear" intercept="0" slope="0.4"/></feComponentTransfer></filter><linearGradient x1="0%" xmlns:xlink="http://www.w3.org/1999/xlink" y1="0%" x2="0%" y2="100%" xlink:type="simple" xlink:actuate="onLoad" id="id14" xlink:show="other"><stop stop-opacity="1.0" stop-color="#fadcec" offset="0%"/><stop stop-opacity="1.0" stop-color="#d57ba8" offset="100%"/></linearGradient><filter xlink:actuate="onLoad" xlink:type="simple" id="id16" xlink:show="other" filterUnits="userSpaceOnUse" xmlns:xlink="http://www.w3.org/1999/xlink"><feGaussianBlur stdDeviation="3.0" result="blur" in="SourceAlpha"/><feOffset dx="4.0" dy="4.0" result="offsetBlur" in="blur"/><feComponentTransfer result="componentOffsetBlur" in="offsetBlur"><feFuncR type="linear" intercept="0.0" slope="0"/><feFuncG type="linear" intercept="0.0" slope="0"/><feFuncB type="linear" intercept="0.0" slope="0"/><feFuncA type="linear" intercept="0" slope="0.4"/></feComponentTransfer></filter><linearGradient x1="0%" xmlns:xlink="http://www.w3.org/1999/xlink" y1="0%" x2="0%" y2="100%" xlink:type="simple" xlink:actuate="onLoad" id="id19" xlink:show="other"><stop stop-opacity="1.0" stop-color="#e1d5e7" offset="0%"/><stop stop-opacity="1.0" stop-color="#a680b8" offset="94%"/></linearGradient><linearGradient x1="0%" xmlns:xlink="http://www.w3.org/1999/xlink" y1="0%" x2="0%" y2="100%" xlink:type="simple" xlink:actuate="onLoad" id="id20" xlink:show="other"><stop stop-opacity="1.0" stop-color="#e1d5e7" offset="0%"/><stop stop-opacity="1.0" stop-color="#a680b8" offset="94%"/></linearGradient><linearGradient x1="0%" xmlns:xlink="http://www.w3.org/1999/xlink" y1="0%" x2="0%" y2="100%" xlink:type="simple" xlink:actuate="onLoad" id="id21" xlink:show="other"><stop stop-opacity="1.0" stop-color="#e1d5e7" offset="0%"/><stop stop-opacity="1.0" stop-color="#a680b8" offset="94%"/></linearGradient><marker refX="14.0" refY="7.0" markerUnits="userSpaceOnUse" orient="auto" id="id23" markerHeight="14.0" viewBox="0 0 14.0 14.0" preserveAspectRatio="xMidYMid meet" markerWidth="14.0" overflow="visible"><path fill="#000000" d="M0 0 L14.0 7.0 L0 14.0z" stroke-width="1.0" stroke-linejoin="round" stroke-linecap="round" stroke="#000000"/></marker><filter xlink:actuate="onLoad" xlink:type="simple" id="id24" xlink:show="other" filterUnits="userSpaceOnUse" xmlns:xlink="http://www.w3.org/1999/xlink"><feGaussianBlur stdDeviation="3.0" result="blur" in="SourceAlpha"/><feOffset dx="4.0" dy="4.0" result="offsetBlur" in="blur"/><feComponentTransfer result="componentOffsetBlur" in="offsetBlur"><feFuncR type="linear" intercept="0.0" slope="0"/><feFuncG type="linear" intercept="0.0" slope="0"/><feFuncB type="linear" intercept="0.0" slope="0"/><feFuncA type="linear" intercept="0" slope="0.4"/></feComponentTransfer></filter><linearGradient xlink:actuate="onLoad" xlink:type="simple" id="id27" xlink:show="other" xmlns:xlink="http://www.w3.org/1999/xlink"><stop stop-opacity="1.0" stop-color="#e0e0e0" offset="0%"/><stop stop-opacity="1.0" stop-color="#bababa" offset="100%"/></linearGradient><linearGradient xlink:actuate="onLoad" xlink:type="simple" id="id28" xlink:show="other" xmlns:xlink="http://www.w3.org/1999/xlink"><stop stop-opacity="1.0" stop-color="#d6d6d6" offset="0%"/><stop stop-opacity="1.0" stop-color="#afafaf" offset="100%"/></linearGradient><linearGradient xlink:actuate="onLoad" xlink:type="simple" id="id29" xlink:show="other" xmlns:xlink="http://www.w3.org/1999/xlink"><stop stop-opacity="1.0" stop-color="#e0e0e0" offset="0%"/><stop stop-opacity="1.0" stop-color="#bababa" offset="100%"/></linearGradient><linearGradient xlink:actuate="onLoad" xlink:type="simple" id="id30" xlink:show="other" xmlns:xlink="http://www.w3.org/1999/xlink"><stop stop-opacity="1.0" stop-color="#e0e0e0" offset="0%"/><stop stop-opacity="1.0" stop-color="#bababa" offset="100%"/></linearGradient><linearGradient x1="0%" xmlns:xlink="http://www.w3.org/1999/xlink" y1="0%" x2="0%" y2="100%" xlink:type="simple" xlink:actuate="onLoad" id="id31" xlink:show="other"><stop stop-opacity="1.0" stop-color="#fff20d" offset="0%"/><stop stop-opacity="1.0" stop-color="#ffcc33" offset="100%"/></linearGradient><linearGradient xlink:actuate="onLoad" xlink:type="simple" id="id32" xlink:show="other" xmlns:xlink="http://www.w3.org/1999/xlink"><stop stop-opacity="1.0" stop-color="#d3d3d3" offset="0%"/><stop stop-opacity="1.0" stop-color="#dddddd" offset="100%"/></linearGradient><linearGradient xlink:actuate="onLoad" xlink:type="simple" id="id33" xlink:show="other" xmlns:xlink="http://www.w3.org/1999/xlink"><stop stop-opacity="1.0" stop-color="#d3d3d3" offset="0%"/><stop stop-opacity="1.0" stop-color="#dddddd" offset="100%"/></linearGradient><linearGradient xlink:actuate="onLoad" xlink:type="simple" id="id34" xlink:show="other" xmlns:xlink="http://www.w3.org/1999/xlink"><stop stop-opacity="1.0" stop-color="#d3d3d3" offset="0%"/><stop stop-opacity="1.0" stop-color="#dddddd" offset="100%"/></linearGradient><linearGradient xlink:actuate="onLoad" xlink:type="simple" id="id36" xlink:show="other" xmlns:xlink="http://www.w3.org/1999/xlink"><stop stop-opacity="1.0" stop-color="#e0e0e0" offset="0%"/><stop stop-opacity="1.0" stop-color="#bababa" offset="100%"/></linearGradient><linearGradient xlink:actuate="onLoad" xlink:type="simple" id="id37" xlink:show="other" xmlns:xlink="http://www.w3.org/1999/xlink"><stop stop-opacity="1.0" stop-color="#d6d6d6" offset="0%"/><stop stop-opacity="1.0" stop-color="#afafaf" offset="100%"/></linearGradient><linearGradient xlink:actuate="onLoad" xlink:type="simple" id="id38" xlink:show="other" xmlns:xlink="http://www.w3.org/1999/xlink"><stop stop-opacity="1.0" stop-color="#e0e0e0" offset="0%"/><stop stop-opacity="1.0" stop-color="#bababa" offset="100%"/></linearGradient><linearGradient xlink:actuate="onLoad" xlink:type="simple" id="id39" xlink:show="other" xmlns:xlink="http://www.w3.org/1999/xlink"><stop stop-opacity="1.0" stop-color="#e0e0e0" offset="0%"/><stop stop-opacity="1.0" stop-color="#bababa" offset="100%"/></linearGradient><linearGradient x1="0%" xmlns:xlink="http://www.w3.org/1999/xlink" y1="0%" x2="0%" y2="100%" xlink:type="simple" xlink:actuate="onLoad" id="id40" xlink:show="other"><stop stop-opacity="1.0" stop-color="#fff20d" offset="0%"/><stop stop-opacity="1.0" stop-color="#ffcc33" offset="100%"/></linearGradient><linearGradient xlink:actuate="onLoad" xlink:type="simple" id="id41" xlink:show="other" xmlns:xlink="http://www.w3.org/1999/xlink"><stop stop-opacity="1.0" stop-color="#d3d3d3" offset="0%"/><stop stop-opacity="1.0" stop-color="#dddddd" offset="100%"/></linearGradient><linearGradient xlink:actuate="onLoad" xlink:type="simple" id="id42" xlink:show="other" xmlns:xlink="http://www.w3.org/1999/xlink"><stop stop-opacity="1.0" stop-color="#d3d3d3" offset="0%"/><stop stop-opacity="1.0" stop-color="#dddddd" offset="100%"/></linearGradient><linearGradient xlink:actuate="onLoad" xlink:type="simple" id="id43" xlink:show="other" xmlns:xlink="http://www.w3.org/1999/xlink"><stop stop-opacity="1.0" stop-color="#d3d3d3" offset="0%"/><stop stop-opacity="1.0" stop-color="#dddddd" offset="100%"/></linearGradient><linearGradient xlink:actuate="onLoad" xlink:type="simple" id="id44" xlink:show="other" xmlns:xlink="http://www.w3.org/1999/xlink"><stop stop-opacity="1.0" stop-color="#e0e0e0" offset="0%"/><stop stop-opacity="1.0" stop-color="#bababa" offset="100%"/></linearGradient><linearGradient xlink:actuate="onLoad" xlink:type="simple" id="id45" xlink:show="other" xmlns:xlink="http://www.w3.org/1999/xlink"><stop stop-opacity="1.0" stop-color="#d6d6d6" offset="0%"/><stop stop-opacity="1.0" stop-color="#afafaf" offset="100%"/></linearGradient><linearGradient xlink:actuate="onLoad" xlink:type="simple" id="id46" xlink:show="other" xmlns:xlink="http://www.w3.org/1999/xlink"><stop stop-opacity="1.0" stop-color="#e0e0e0" offset="0%"/><stop stop-opacity="1.0" stop-color="#bababa" offset="100%"/></linearGradient><linearGradient xlink:actuate="onLoad" xlink:type="simple" id="id47" xlink:show="other" xmlns:xlink="http://www.w3.org/1999/xlink"><stop stop-opacity="1.0" stop-color="#e0e0e0" offset="0%"/><stop stop-opacity="1.0" stop-color="#bababa" offset="100%"/></linearGradient><linearGradient x1="0%" xmlns:xlink="http://www.w3.org/1999/xlink" y1="0%" x2="0%" y2="100%" xlink:type="simple" xlink:actuate="onLoad" id="id48" xlink:show="other"><stop stop-opacity="1.0" stop-color="#fff20d" offset="0%"/><stop stop-opacity="1.0" stop-color="#ffcc33" offset="100%"/></linearGradient><linearGradient xlink:actuate="onLoad" xlink:type="simple" id="id49" xlink:show="other" xmlns:xlink="http://www.w3.org/1999/xlink"><stop stop-opacity="1.0" stop-color="#d3d3d3" offset="0%"/><stop stop-opacity="1.0" stop-color="#dddddd" offset="100%"/></linearGradient><linearGradient xlink:actuate="onLoad" xlink:type="simple" id="id50" xlink:show="other" xmlns:xlink="http://www.w3.org/1999/xlink"><stop stop-opacity="1.0" stop-color="#d3d3d3" offset="0%"/><stop stop-opacity="1.0" stop-color="#dddddd" offset="100%"/></linearGradient><linearGradient xlink:actuate="onLoad" xlink:type="simple" id="id51" xlink:show="other" xmlns:xlink="http://www.w3.org/1999/xlink"><stop stop-opacity="1.0" stop-color="#d3d3d3" offset="0%"/><stop stop-opacity="1.0" stop-color="#dddddd" offset="100%"/></linearGradient><marker refX="14.0" refY="7.0" markerUnits="userSpaceOnUse" orient="auto" id="id53" markerHeight="14.0" viewBox="0 0 14.0 14.0" preserveAspectRatio="xMidYMid meet" markerWidth="14.0" overflow="visible"><path fill="#000000" d="M0 0 L14.0 7.0 L0 14.0z" stroke-width="1.0" stroke-linejoin="round" stroke-linecap="round" stroke="#000000"/></marker><filter xlink:actuate="onLoad" xlink:type="simple" id="id54" xlink:show="other" filterUnits="userSpaceOnUse" xmlns:xlink="http://www.w3.org/1999/xlink"><feGaussianBlur stdDeviation="3.0" result="blur" in="SourceAlpha"/><feOffset dx="4.0" dy="4.0" result="offsetBlur" in="blur"/><feComponentTransfer result="componentOffsetBlur" in="offsetBlur"><feFuncR type="linear" intercept="0.0" slope="0"/><feFuncG type="linear" intercept="0.0" slope="0"/><feFuncB type="linear" intercept="0.0" slope="0"/><feFuncA type="linear" intercept="0" slope="0.4"/></feComponentTransfer></filter><filter xlink:actuate="onLoad" xlink:type="simple" id="id58" xlink:show="other" filterUnits="userSpaceOnUse" xmlns:xlink="http://www.w3.org/1999/xlink"><feGaussianBlur stdDeviation="3.0" result="blur" in="SourceAlpha"/><feOffset dx="4.0" dy="4.0" result="offsetBlur" in="blur"/><feComponentTransfer result="componentOffsetBlur" in="offsetBlur"><feFuncR type="linear" intercept="0.0" slope="0"/><feFuncG type="linear" intercept="0.0" slope="0"/><feFuncB type="linear" intercept="0.0" slope="0"/><feFuncA type="linear" intercept="0" slope="0.4"/></feComponentTransfer></filter><filter xlink:actuate="onLoad" xlink:type="simple" id="id60" xlink:show="other" filterUnits="userSpaceOnUse" xmlns:xlink="http://www.w3.org/1999/xlink"><feGaussianBlur stdDeviation="3.0" result="blur" in="SourceAlpha"/><feOffset dx="4.0" dy="4.0" result="offsetBlur" in="blur"/><feComponentTransfer result="componentOffsetBlur" in="offsetBlur"><feFuncR type="linear" intercept="0.0" slope="0"/><feFuncG type="linear" intercept="0.0" slope="0"/><feFuncB type="linear" intercept="0.0" slope="0"/><feFuncA type="linear" intercept="0" slope="0.4"/></feComponentTransfer></filter><linearGradient x1="0%" xmlns:xlink="http://www.w3.org/1999/xlink" y1="0%" x2="0%" y2="100%" xlink:type="simple" xlink:actuate="onLoad" id="id63" xlink:show="other"><stop stop-opacity="1.0" stop-color="#b6e3dd" offset="0%"/><stop stop-opacity="1.0" stop-color="#50ab9c" offset="100%"/></linearGradient><linearGradient x1="0%" xmlns:xlink="http://www.w3.org/1999/xlink" y1="0%" x2="0%" y2="100%" xlink:type="simple" xlink:actuate="onLoad" id="id65" xlink:show="other"><stop stop-opacity="1.0" stop-color="#b6e3dd" offset="0%"/><stop stop-opacity="1.0" stop-color="#50ab9c" offset="100%"/></linearGradient><linearGradient x1="0%" xmlns:xlink="http://www.w3.org/1999/xlink" y1="0%" x2="0%" y2="100%" xlink:type="simple" xlink:actuate="onLoad" id="id67" xlink:show="other"><stop stop-opacity="1.0" stop-color="#b6e3dd" offset="0%"/><stop stop-opacity="1.0" stop-color="#50ab9c" offset="100%"/></linearGradient><filter xlink:actuate="onLoad" xlink:type="simple" id="id69" xlink:show="other" filterUnits="userSpaceOnUse" xmlns:xlink="http://www.w3.org/1999/xlink"><feGaussianBlur stdDeviation="3.0" result="blur" in="SourceAlpha"/><feOffset dx="4.0" dy="4.0" result="offsetBlur" in="blur"/><feComponentTransfer result="componentOffsetBlur" in="offsetBlur"><feFuncR type="linear" intercept="0.0" slope="0"/><feFuncG type="linear" intercept="0.0" slope="0"/><feFuncB type="linear" intercept="0.0" slope="0"/><feFuncA type="linear" intercept="0" slope="0.4"/></feComponentTransfer></filter><linearGradient x1="0%" xmlns:xlink="http://www.w3.org/1999/xlink" y1="0%" x2="0%" y2="100%" xlink:type="simple" xlink:actuate="onLoad" id="id71" xlink:show="other"><stop stop-opacity="1.0" stop-color="#d0d0f0" offset="0%"/><stop stop-opacity="1.0" stop-color="#8986dc" offset="100%"/></linearGradient><filter xlink:actuate="onLoad" xlink:type="simple" id="id73" xlink:show="other" filterUnits="userSpaceOnUse" xmlns:xlink="http://www.w3.org/1999/xlink"><feGaussianBlur stdDeviation="3.0" result="blur" in="SourceAlpha"/><feOffset dx="4.0" dy="4.0" result="offsetBlur" in="blur"/><feComponentTransfer result="componentOffsetBlur" in="offsetBlur"><feFuncR type="linear" intercept="0.0" slope="0"/><feFuncG type="linear" intercept="0.0" slope="0"/><feFuncB type="linear" intercept="0.0" slope="0"/><feFuncA type="linear" intercept="0" slope="0.4"/></feComponentTransfer></filter><filter xlink:actuate="onLoad" xlink:type="simple" id="id77" xlink:show="other" filterUnits="userSpaceOnUse" xmlns:xlink="http://www.w3.org/1999/xlink"><feGaussianBlur stdDeviation="3.0" result="blur" in="SourceAlpha"/><feOffset dx="4.0" dy="4.0" result="offsetBlur" in="blur"/><feComponentTransfer result="componentOffsetBlur" in="offsetBlur"><feFuncR type="linear" intercept="0.0" slope="0"/><feFuncG type="linear" intercept="0.0" slope="0"/><feFuncB type="linear" intercept="0.0" slope="0"/><feFuncA type="linear" intercept="0" slope="0.4"/></feComponentTransfer></filter><filter xlink:actuate="onLoad" xlink:type="simple" id="id79" xlink:show="other" filterUnits="userSpaceOnUse" xmlns:xlink="http://www.w3.org/1999/xlink"><feGaussianBlur stdDeviation="3.0" result="blur" in="SourceAlpha"/><feOffset dx="4.0" dy="4.0" result="offsetBlur" in="blur"/><feComponentTransfer result="componentOffsetBlur" in="offsetBlur"><feFuncR type="linear" intercept="0.0" slope="0"/><feFuncG type="linear" intercept="0.0" slope="0"/><feFuncB type="linear" intercept="0.0" slope="0"/><feFuncA type="linear" intercept="0" slope="0.4"/></feComponentTransfer></filter><linearGradient x1="0%" xmlns:xlink="http://www.w3.org/1999/xlink" y1="0%" x2="0%" y2="100%" xlink:type="simple" xlink:actuate="onLoad" id="id82" xlink:show="other"><stop stop-opacity="1.0" stop-color="#e4e4e4" offset="0%"/><stop stop-opacity="1.0" stop-color="#bababa" offset="100%"/></linearGradient><linearGradient x1="0%" xmlns:xlink="http://www.w3.org/1999/xlink" y1="0%" x2="0%" y2="100%" xlink:type="simple" xlink:actuate="onLoad" id="id83" xlink:show="other"><stop stop-opacity="1.0" stop-color="#b6d991" offset="0%"/><stop stop-opacity="1.0" stop-color="#82b749" offset="100%"/></linearGradient><linearGradient x1="0%" xmlns:xlink="http://www.w3.org/1999/xlink" y1="0%" x2="0%" y2="100%" xlink:type="simple" xlink:actuate="onLoad" id="id85" xlink:show="other"><stop stop-opacity="1.0" stop-color="#b6d991" offset="0%"/><stop stop-opacity="1.0" stop-color="#82b749" offset="100%"/></linearGradient><linearGradient x1="0%" xmlns:xlink="http://www.w3.org/1999/xlink" y1="0%" x2="0%" y2="100%" xlink:type="simple" xlink:actuate="onLoad" id="id87" xlink:show="other"><stop stop-opacity="1.0" stop-color="#b6d991" offset="0%"/><stop stop-opacity="1.0" stop-color="#82b749" offset="100%"/></linearGradient><linearGradient xlink:actuate="onLoad" xlink:type="simple" id="id90" xlink:show="other" xmlns:xlink="http://www.w3.org/1999/xlink"><stop stop-opacity="1.0" stop-color="#ffffff" offset="0%"/><stop stop-opacity="1.0" stop-color="#cccccc" offset="100%"/></linearGradient><linearGradient xlink:actuate="onLoad" xlink:type="simple" id="id91" xlink:show="other" xmlns:xlink="http://www.w3.org/1999/xlink"><stop stop-opacity="1.0" stop-color="#ffffff" offset="0%"/><stop stop-opacity="1.0" stop-color="#cccccc" offset="100%"/></linearGradient><linearGradient xlink:actuate="onLoad" xlink:type="simple" id="id93" xlink:show="other" xmlns:xlink="http://www.w3.org/1999/xlink"><stop stop-opacity="1.0" stop-color="#ffffff" offset="0%"/><stop stop-opacity="1.0" stop-color="#cccccc" offset="100%"/></linearGradient><linearGradient xlink:actuate="onLoad" xlink:type="simple" id="id94" xlink:show="other" xmlns:xlink="http://www.w3.org/1999/xlink"><stop stop-opacity="1.0" stop-color="#ffffff" offset="0%"/><stop stop-opacity="1.0" stop-color="#cccccc" offset="100%"/></linearGradient><marker refX="14.0" refY="7.0" markerUnits="userSpaceOnUse" orient="auto" id="id97" markerHeight="14.0" viewBox="0 0 14.0 14.0" preserveAspectRatio="xMidYMid meet" markerWidth="14.0" overflow="visible"><path fill="#000000" d="M0 0 L14.0 7.0 L0 14.0z" stroke-width="1.0" stroke-linejoin="round" stroke-linecap="round" stroke="#000000"/></marker><filter xlink:actuate="onLoad" xlink:type="simple" id="id98" xlink:show="other" filterUnits="userSpaceOnUse" xmlns:xlink="http://www.w3.org/1999/xlink"><feGaussianBlur stdDeviation="3.0" result="blur" in="SourceAlpha"/><feOffset dx="4.0" dy="-3.9999999999999996" result="offsetBlur" in="blur"/><feComponentTransfer result="componentOffsetBlur" in="offsetBlur"><feFuncR type="linear" intercept="0.0" slope="0"/><feFuncG type="linear" intercept="0.0" slope="0"/><feFuncB type="linear" intercept="0.0" slope="0"/><feFuncA type="linear" intercept="0" slope="0.4"/></feComponentTransfer></filter><marker refX="14.0" refY="7.0" markerUnits="userSpaceOnUse" orient="auto" id="id101" markerHeight="14.0" viewBox="0 0 14.0 14.0" preserveAspectRatio="xMidYMid meet" markerWidth="14.0" overflow="visible"><path fill="#000000" d="M0 0 L14.0 7.0 L0 14.0z" stroke-width="1.0" stroke-linejoin="round" stroke-linecap="round" stroke="#000000"/></marker><filter xlink:actuate="onLoad" xlink:type="simple" id="id102" xlink:show="other" filterUnits="userSpaceOnUse" xmlns:xlink="http://www.w3.org/1999/xlink"><feGaussianBlur stdDeviation="3.0" result="blur" in="SourceAlpha"/><feOffset dx="4.0" dy="-3.9999999999999996" result="offsetBlur" in="blur"/><feComponentTransfer result="componentOffsetBlur" in="offsetBlur"><feFuncR type="linear" intercept="0.0" slope="0"/><feFuncG type="linear" intercept="0.0" slope="0"/><feFuncB type="linear" intercept="0.0" slope="0"/><feFuncA type="linear" intercept="0" slope="0.4"/></feComponentTransfer></filter><marker refX="0.0" refY="7.0" markerUnits="userSpaceOnUse" orient="auto" id="id105" markerHeight="14.0" viewBox="0 0 14.0 14.0" preserveAspectRatio="xMidYMid meet" markerWidth="14.0" overflow="visible"><path fill="none" d="M14.0 0 L0 7.0 L14.0 14.0" stroke-width="1.0" stroke-linejoin="round" stroke-linecap="round" stroke="#000000"/></marker><filter xlink:actuate="onLoad" xlink:type="simple" id="id106" xlink:show="other" filterUnits="userSpaceOnUse" xmlns:xlink="http://www.w3.org/1999/xlink"><feGaussianBlur stdDeviation="3.0" result="blur" in="SourceAlpha"/><feOffset dx="4.0" dy="-3.9999999999999996" result="offsetBlur" in="blur"/><feComponentTransfer result="componentOffsetBlur" in="offsetBlur"><feFuncR type="linear" intercept="0.0" slope="0"/><feFuncG type="linear" intercept="0.0" slope="0"/><feFuncB type="linear" intercept="0.0" slope="0"/><feFuncA type="linear" intercept="0" slope="0.4"/></feComponentTransfer></filter></defs><g><g transform="translate(913.8525664663036 253.0) rotate(315.0 29.200933533696798 10.000000000000028)"><use xlink:href="#id2" xlink:actuate="onLoad" xlink:type="simple" xlink:show="embed" xmlns:xlink="http://www.w3.org/1999/xlink" filter="url(#id1)"/></g><g transform="translate(927.6775664663032 336.0) rotate(404.99999999999994 29.200933533696798 10.0)"><use xlink:href="#id6" xlink:actuate="onLoad" xlink:type="simple" xlink:show="embed" xmlns:xlink="http://www.w3.org/1999/xlink" filter="url(#id5)"/></g><g transform="translate(452.2125000000001 434.0750000000001) rotate(270.0 27.362500000000097 10.0)"><use xlink:href="#id12" xlink:actuate="onLoad" xlink:type="simple" xlink:show="embed" xmlns:xlink="http://www.w3.org/1999/xlink" filter="url(#id11)"/></g><g transform="translate(380.25174999999996 452.0)"><g transform="translate(370.0 0.2999999999999545)"><use xlink:href="#id17" xlink:actuate="onLoad" xlink:type="simple" xlink:show="embed" xmlns:xlink="http://www.w3.org/1999/xlink" filter="url(#id16)"/></g><g transform="translate(131.0 0.0)"><use xlink:href="#id25" xlink:actuate="onLoad" xlink:type="simple" xlink:show="embed" xmlns:xlink="http://www.w3.org/1999/xlink" filter="url(#id24)"/></g><g transform="translate(111.0 27.604499999999916)"><use xlink:href="#id55" xlink:actuate="onLoad" xlink:type="simple" xlink:show="embed" xmlns:xlink="http://www.w3.org/1999/xlink" filter="url(#id54)"/></g></g><g transform="translate(415.0 315.0)"><g transform="translate(0.0 0.0)"><use xlink:href="#id59" xlink:actuate="onLoad" xlink:type="simple" xlink:show="embed" xmlns:xlink="http://www.w3.org/1999/xlink" filter="url(#id58)"/><use xlink:href="#id61" xlink:actuate="onLoad" xlink:type="simple" xlink:show="embed" xmlns:xlink="http://www.w3.org/1999/xlink" filter="url(#id60)"/></g></g><g transform="translate(643.75175 299.0)"><use xlink:href="#id70" xlink:actuate="onLoad" xlink:type="simple" xlink:show="embed" xmlns:xlink="http://www.w3.org/1999/xlink" filter="url(#id69)"/></g><g transform="translate(643.75175 159.0)"><use xlink:href="#id74" xlink:actuate="onLoad" xlink:type="simple" xlink:show="embed" xmlns:xlink="http://www.w3.org/1999/xlink" filter="url(#id73)"/></g><g transform="translate(415.0 182.0)"><use xlink:href="#id78" xlink:actuate="onLoad" xlink:type="simple" xlink:show="embed" xmlns:xlink="http://www.w3.org/1999/xlink" filter="url(#id77)"/><use xlink:href="#id80" xlink:actuate="onLoad" xlink:type="simple" xlink:show="embed" xmlns:xlink="http://www.w3.org/1999/xlink" filter="url(#id79)"/></g><g transform="translate(442.3259222658164 428.0) rotate(90.0 21.325000000000045 10.0)"><use xlink:href="#id99" xlink:actuate="onLoad" xlink:type="simple" xlink:show="embed" xmlns:xlink="http://www.w3.org/1999/xlink" filter="url(#id98)"/></g><g transform="translate(797.4453125250001 424.44531252499996) rotate(90.0 17.55468747499998 10.0)"><use xlink:href="#id103" xlink:actuate="onLoad" xlink:type="simple" xlink:show="embed" xmlns:xlink="http://www.w3.org/1999/xlink" filter="url(#id102)"/></g><g transform="translate(851.8956875250001 425.01718752500005) rotate(90.0 16.982812474999946 10.0)"><use xlink:href="#id107" xlink:actuate="onLoad" xlink:type="simple" xlink:show="embed" xmlns:xlink="http://www.w3.org/1999/xlink" filter="url(#id106)"/></g></g><g><g transform="translate(913.8525664663036 253.0) rotate(315.0 29.200933533696798 10.000000000000028)"><path fill="none" stroke-linejoin="round" id="id2" d="M0.0 20.00000000000003 L58.4018670673937 20.00000000000003" stroke="#000000" stroke-width="1.0" marker-end="url(#id0)"/><g transform="translate(0.0 0.0)"><clipPath id="id3"><path d="M0 0 L58.401867067393596 0 L58.401867067393596 20.000000000000057 L0 20.000000000000057z"/></clipPath><text font-size="10" clip-path="url(#id3)" text-decoration="none" fill="#000000" font-family="Arial,Arial" font-style="normal" font-weight="normal"/></g></g><g transform="translate(927.6775664663032 336.0) rotate(404.99999999999994 29.200933533696798 10.0)"><path fill="none" stroke-linejoin="round" id="id6" d="M0.0 19.99999999999997 L58.401867067393766 19.99999999999997" stroke="#000000" stroke-width="1.0" marker-end="url(#id4)"/><g transform="translate(0.0 0.0)"><clipPath id="id7"><path d="M0 0 L58.401867067393596 0 L58.401867067393596 20.0 L0 20.0z"/></clipPath><text font-size="10" clip-path="url(#id7)" text-decoration="none" fill="#000000" font-family="Arial,Arial" font-style="normal" font-weight="normal"/></g></g><g transform="translate(850.0 287.0) rotate(270.0 55.0 25.0)"><path fill="url(#id8)" d="M109.99999999999997 0.0 L0.0 0.0 L0.0 35.0 L15.0 50.0 L94.99999999999997 50.0 L109.99999999999997 35.0 L109.99999999999997 0.0z" stroke-width="1.0" stroke-linejoin="round" stroke="#358f7f"/><g transform="translate(5.0 5.0)"><clipPath id="id9"><path d="M0 0 L100.0 0 L100.0 40.0 L0 40.0z"/></clipPath><text font-size="14" clip-path="url(#id9)" text-decoration="none" fill="#000000" font-family="Arial,Arial" font-style="normal" font-weight="bold"/></g></g><g transform="translate(452.2125000000001 434.0750000000001) rotate(270.0 27.362500000000097 10.0)"><path fill="none" stroke-linejoin="round" stroke-dasharray="3.0 1.0" id="id12" d="M0.0 20.0 L54.72500000000017 20.0" stroke="#000000" stroke-width="1.0" marker-end="url(#id10)"/><g transform="translate(0.0 0.0)"><clipPath id="id13"><path d="M0 0 L54.72500000000019 0 L54.72500000000019 20.0 L0 20.0z"/></clipPath><text font-size="10" clip-path="url(#id13)" text-decoration="none" fill="#000000" font-family="Arial,Arial" font-style="normal" font-weight="normal"/></g></g><g transform="translate(850.0 109.0)"><path fill="url(#id14)" d="M170.99999999999991 43.0 Q170.99999999999991 50.0 163.99999999999991 50.0 L7.0 50.0 Q0.0 50.0 0.0 43.0 L0.0 7.0 Q0.0 0.0 7.0 0.0 L163.99999999999991 0.0 Q170.99999999999991 0.0 170.99999999999991 7.0 L170.99999999999991 43.0 L170.99999999999991 43.0z" stroke-width="1.0" stroke-linejoin="round" stroke="#cc6699"/><g transform="translate(5.0 5.0)"><clipPath id="id15"><path d="M0 0 L161.0 0 L161.0 40.0 L0 40.0z"/></clipPath><text font-size="14" clip-path="url(#id15)" text-decoration="none" fill="#000000" font-family="Arial,Arial" font-style="normal" font-weight="bold"><tspan x="17.0" xml:space="preserve" y="25.0" textLength="126.0">FPGA Web Service</tspan></text></g></g><g transform="translate(380.25174999999996 452.0)"><g transform="translate(370.0 0.2999999999999545)"><path fill-opacity="1.0" fill="#ffffff" stroke-linejoin="round" id="id17" d="M0.0 0.0 L160.99999999999983 0.0 L160.99999999999983 156.99550100000002 L0.0 156.99550100000002 L0.0 0.0z" stroke="#000000" stroke-width="1.0"/><g transform="translate(5.0 5.0)"><clipPath id="id18"><path d="M0 0 L151.0 0 L151.0 146.995501 L0 146.995501z"/></clipPath><text font-size="12" clip-path="url(#id18)" text-decoration="none" fill="#000000" font-family="Times" font-style="normal" font-weight="normal"/></g></g><g transform="translate(400.0 97.29999999999995)"><path fill="url(#id19)" d="M100.99999999999991 0.0 L16.833333333333336 0.0 L16.833333333333336 40.44000000000004 Q37.874999999999986 50.44000000000004 58.91666666666663 40.44000000000004 Q79.95833333333326 30.44000000000004 100.99999999999991 30.44000000000004 L100.99999999999991 0.0z" stroke-width="1.0" stroke-linejoin="round" stroke="#8856a1"/><path fill="url(#id20)" d="M92.58333333333333 5.930000000000005 L8.416666666666668 5.930000000000005 L8.416666666666668 46.37000000000009 Q29.458333333333336 56.37000000000009 50.5 46.37000000000009 Q71.54166666666664 36.37000000000009 92.58333333333333 36.37000000000009 L92.58333333333333 5.930000000000005z" stroke-width="1.0" stroke-linejoin="round" stroke="#8856a1"/><path fill="url(#id21)" d="M84.16666666666666 11.86000000000001 L0.0 11.86000000000001 L0.0 52.30000000000007 Q21.041666666666664 62.30000000000007 42.08333333333333 52.30000000000007 Q63.12499999999997 42.30000000000007 84.16666666666666 42.30000000000007 L84.16666666666666 11.86000000000001z" stroke-width="1.0" stroke-linejoin="round" stroke="#8856a1"/><g transform="translate(0.0 11.86000000000001)"><clipPath id="id22"><path d="M0 0 L84.16666666666666 0 L84.16666666666666 32.43999999999994 L0 32.43999999999994z"/></clipPath><text font-size="14" clip-path="url(#id22)" text-decoration="none" fill="#000000" font-family="Arial,Arial" font-style="normal" font-weight="bold"><tspan x="20.0" xml:space="preserve" y="21.21999999999997" textLength="44.0">Trazas</tspan></text></g></g><g transform="translate(131.0 0.0)"><path fill="none" stroke-linejoin="round" id="id25" d="M0.0 20.0 L238.9999999999999 20.0" stroke="#000000" stroke-width="1.0" marker-end="url(#id23)"/><g transform="translate(0.0 0.0)"><clipPath id="id26"><path d="M0 0 L239.0 0 L239.0 20.0 L0 20.0z"/></clipPath><text font-size="12" clip-path="url(#id26)" text-decoration="none" fill="#000000" font-family="Arial,Arial" font-style="normal" font-weight="normal"><tspan x="98.0" xml:space="preserve" y="13.0" textLength="42.0">Captura</tspan></text></g></g><g transform="translate(376.0 5.2999999999999545)"><g transform="translate(0.0 0.0)"><path fill="url(#id27)" d="M25.625 65.736 Q25.625 67.007004 22.479 67.007004 Q19.333 67.007004 19.333 65.736 L19.333 25.715 L25.625999299999997 25.715 L25.625999299999997 65.736 L25.625 65.736z" stroke-width="1.0" stroke-linejoin="round" stroke="#8a8d94"/><path fill="url(#id28)" d="M25.625 25.7149999 Q25.625 26.9859998 22.479 26.9859998 Q19.333 26.9859998 19.333 25.7149999 Q19.333 24.444 22.479 24.444 Q25.625 24.444 25.625 25.7149999 L25.625 25.7149999z" stroke-width="1.0" stroke-linejoin="round" stroke="#757a8a"/><path fill="url(#id29)" d="M2.4690000999999997 66.9800036 Q1.1980001 66.9800036 1.1980001 63.834 Q1.1980001 60.688 2.4690000999999997 60.688 L42.4900001 60.688 L42.4900001 66.981003 L2.4690000999999997 66.981003 L2.4690000999999997 66.9800036z" stroke-width="1.0" stroke-linejoin="round" stroke="#8a8d94"/><path fill="url(#id30)" d="M42.4899999 66.9800036 Q41.219 66.9800036 41.219 63.834 Q41.219 60.688 42.4899999 60.688 Q43.7609998 60.688 43.7609998 63.834 Q43.7609998 66.979996 42.4899999 66.979996 L42.4899999 66.9800036z" stroke-width="1.0" stroke-linejoin="round" stroke="#8a8d94"/><path fill="url(#id31)" d="M26.718 63.8529967 Q26.718 60.414997 28.108 60.414997 L16.603999899999998 60.414997 Q15.215 60.414997 15.215 63.8529967 Q15.215 67.2910003 16.603999899999998 67.2910003 L28.108 67.2910003 Q26.718 67.2910003 26.718 63.8529967 L26.718 63.8529967z" stroke="none"/><path fill="#ffffff" fill-opacity="1.0" d="M15.82900095 61.467 L27.128000999999998 61.467 L26.728001 62.801999099999996 L15.296 62.801999099999996 L15.82899904 61.467 L15.82900095 61.467z" stroke="none"/><path fill="none" d="M26.718 63.8529967 Q26.718 60.414997 28.108 60.414997 L16.603999899999998 60.414997 Q15.215 60.414997 15.215 63.8529967 Q15.215 67.2910003 16.603999899999998 67.2910003 L28.108 67.2910003 Q26.718 67.2910003 26.718 63.8529967 L26.718 63.8529967z" stroke-width="1.0" stroke-linejoin="round" stroke="#8a8d94"/><path fill="url(#id32)" d="M44.84 43.879002 Q44.84 46.750023 38.273624 48.780003 Q31.70718 50.810001 22.42 50.810001 Q13.133397 50.810001 6.5667496 48.780003 Q0.0 46.7499695 0.0 43.879002 L0.0 33.689003 L44.84 33.689003 L44.84 43.879002 L44.84 43.879002z" stroke="none"/><path fill="#f2f2f2" fill-opacity="1.0" d="M6.504 48.759999 Q9.9719608 49.839703 14.562999999999999 50.370999 L14.562999999999999 33.688 L6.504 33.688 L6.504 48.759999 L6.504 48.759999z" stroke="none"/><path fill="none" d="M44.84 43.879002 Q44.84 46.750023 38.273624 48.780003 Q31.70718 50.810001 22.42 50.810001 Q13.133397 50.810001 6.5667496 48.780003 Q0.0 46.7499695 0.0 43.879002 L0.0 33.689003 L44.84 33.689003 L44.84 43.879002 L44.84 43.879002z" stroke-width="1.0" stroke-linejoin="round" stroke="#8a8d94"/><path fill="#a1a6af" fill-opacity="1.0" d="M44.84 34.0960003 Q44.84 36.967022 38.273624 38.997001 Q31.70718 41.027 22.42 41.027 Q13.133397 41.027 6.5667496 38.997001 Q0.0 36.966968 0.0 34.0960003 Q0.0 31.226281800000002 6.5667505 29.1962505 Q13.134207 27.166 22.42 27.166 Q31.706371 27.166 38.27363 29.1962505 Q44.84 31.226228300000002 44.84 34.0960003 L44.84 34.0960003z" stroke-width="1.0" stroke-linejoin="round" stroke="#8a8d94"/><path fill="#5f98f4" fill-opacity="1.0" d="M42.530998000000004 33.449002 Q42.530998000000004 35.91803 36.640625 37.664001999999996 Q30.750148 39.41 22.419998 39.41 Q14.090423999999999 39.41 8.199749 37.664001999999996 Q2.308998 35.917977 2.308998 33.449002 L2.308998 24.681002 L42.531998 24.681002 L42.531998 33.449002 L42.530998000000004 33.449002z" stroke-width="1.0" stroke-linejoin="round" stroke="#4f77b2"/><path fill="#5f98f4" fill-opacity="1.0" d="M42.530998000000004 25.0310004 Q42.530998000000004 27.500702 36.640625 29.246876 Q30.750412 30.993000000000002 22.419998 30.993000000000002 Q14.090164000000001 30.993000000000002 8.199749 29.246876 Q2.308998 27.500650999999998 2.308998 25.0310004 Q2.308998 22.5614455 8.199749 20.8156245 Q14.089844 19.07 22.419998 19.07 Q30.750732 19.07 36.640625 20.8156245 Q42.530998000000004 22.561394 42.530998000000004 25.0310004 L42.530998000000004 25.0310004z" stroke-width="1.0" stroke-linejoin="round" stroke="#4f77b2"/><path fill="url(#id33)" d="M44.84 30.297001 Q44.84 33.166866 38.273624 35.197250000000004 Q31.706062 37.228 22.42 37.228 Q13.133956 37.228 6.5667496 35.197624000000005 Q0.0 33.167392 0.0 30.297001 L0.0 20.107002 L44.84 20.107002 L44.84 30.297001 L44.84 30.297001z" stroke="none"/><path fill="#f2f2f2" fill-opacity="1.0" d="M6.504 35.175998 Q9.987254 36.260467000000006 14.562999999999999 36.786998 L14.562999999999999 20.106 L6.504 20.106 L6.504 35.175002 L6.504 35.175998z" stroke="none"/><path fill="none" d="M44.84 30.297001 Q44.84 33.166866 38.273624 35.197250000000004 Q31.706062 37.228 22.42 37.228 Q13.133956 37.228 6.5667496 35.197624000000005 Q0.0 33.167392 0.0 30.297001 L0.0 20.107002 L44.84 20.107002 L44.84 30.297001 L44.84 30.297001z" stroke-width="1.0" stroke-linejoin="round" stroke="#8a8d94"/><path fill="#a1a6af" fill-opacity="1.0" d="M44.84 20.5140003 Q44.84 23.383868 38.273624 25.41425 Q31.706062 27.445 22.42 27.445 Q13.133956 27.445 6.5667496 25.414626 Q0.0 23.38439 0.0 20.5140003 Q0.0 17.643128 6.5667505 15.613501 Q13.133088 13.584 22.42 13.584 Q31.707489 13.584 38.27363 15.613499 Q44.84 17.6430744 44.84 20.5140003 L44.84 20.5140003z" stroke-width="1.0" stroke-linejoin="round" stroke="#8a8d94"/><path fill="#5f98f4" fill-opacity="1.0" d="M42.530998000000004 19.809 Q42.530998000000004 22.278700999999998 36.640625 24.024875 Q30.750412 25.771 22.419998 25.771 Q14.090164000000001 25.771 8.199749 24.024875 Q2.308998 22.27865 2.308998 19.809 L2.308998 11.041 L42.531998 11.041 L42.531998 19.809 L42.530998000000004 19.809z" stroke-width="1.0" stroke-linejoin="round" stroke="#4f77b2"/><path fill="#5f98f4" fill-opacity="1.0" d="M42.530998000000004 11.391 Q42.530998000000004 13.860700999999999 36.640625 15.606874999999999 Q30.750412 17.353001 22.419998 17.353001 Q14.090164000000001 17.353001 8.199749 15.606877 Q2.308998 13.860651999999998 2.308998 11.391001 Q2.308998 8.922023 8.199749 7.1760008 Q14.090426 5.430001 22.419998 5.430001 Q30.750148 5.430001 36.640625 7.1760008 Q42.530998000000004 8.9219715 42.530998000000004 11.391001 L42.530998000000004 11.391z" stroke-width="1.0" stroke-linejoin="round" stroke="#4f77b2"/><path fill="url(#id34)" d="M44.84 16.714001 Q44.84 19.584446 38.273624 21.614626 Q31.70662 23.645001999999998 22.42 23.645001999999998 Q13.133956 23.645001999999998 6.5667496 21.614626 Q0.0 19.584391 0.0 16.714001 L0.0 6.523 L44.84 6.523 L44.84 16.713 L44.84 16.714001z" stroke="none"/><path fill="#f2f2f2" fill-opacity="1.0" d="M6.504 21.594 Q9.9796207 22.676091 14.562999999999999 23.205 L14.562999999999999 6.523 L6.504 6.523 L6.504 21.592999 L6.504 21.594z" stroke="none"/><path fill="none" d="M44.84 16.714001 Q44.84 19.584446 38.273624 21.614626 Q31.70662 23.645001999999998 22.42 23.645001999999998 Q13.133956 23.645001999999998 6.5667496 21.614626 Q0.0 19.584391 0.0 16.714001 L0.0 6.523 L44.84 6.523 L44.84 16.713 L44.84 16.714001z" stroke-width="1.0" stroke-linejoin="round" stroke="#8a8d94"/><path fill="#cccccc" fill-opacity="1.0" d="M44.84 6.931 Q44.84 9.801253 38.273624 11.830626 Q31.707237 13.860001 22.42 13.860001 Q13.133338 13.860001 6.5667496 11.830626 Q0.0 9.801201 0.0 6.9310007 Q0.0 4.06061 6.5667505 2.0303755 Q13.133957 0.0 22.42 0.0 Q31.70662 0.0 38.27363 2.030375 Q44.84 4.060555 44.84 6.931 L44.84 6.931z" stroke-width="1.0" stroke-linejoin="round" stroke="#8a8d94"/></g><g transform="translate(5.0 68.60899999999992)"><clipPath id="id35"><path d="M0 0 L150.0 0 L150.0 16.0 L0 16.0z"/></clipPath><text font-size="12" clip-path="url(#id35)" text-decoration="none" fill="#000000" font-family="Arial,Arial" font-style="normal" font-weight="bold"><tspan x="2.0" xml:space="preserve" y="13.0" textLength="135.0">Almacenamiento / RAID</tspan></text></g><g transform="translate(52.57999999999993 0.0)"><path fill="url(#id36)" d="M25.625 65.736 Q25.625 67.007004 22.479 67.007004 Q19.333 67.007004 19.333 65.736 L19.333 25.715 L25.625999299999997 25.715 L25.625999299999997 65.736 L25.625 65.736z" stroke-width="1.0" stroke-linejoin="round" stroke="#8a8d94"/><path fill="url(#id37)" d="M25.625 25.7149999 Q25.625 26.9859998 22.479 26.9859998 Q19.333 26.9859998 19.333 25.7149999 Q19.333 24.444 22.479 24.444 Q25.625 24.444 25.625 25.7149999 L25.625 25.7149999z" stroke-width="1.0" stroke-linejoin="round" stroke="#757a8a"/><path fill="url(#id38)" d="M2.4690000999999997 66.9800036 Q1.1980001 66.9800036 1.1980001 63.834 Q1.1980001 60.688 2.4690000999999997 60.688 L42.4900001 60.688 L42.4900001 66.981003 L2.4690000999999997 66.981003 L2.4690000999999997 66.9800036z" stroke-width="1.0" stroke-linejoin="round" stroke="#8a8d94"/><path fill="url(#id39)" d="M42.4899999 66.9800036 Q41.219 66.9800036 41.219 63.834 Q41.219 60.688 42.4899999 60.688 Q43.7609998 60.688 43.7609998 63.834 Q43.7609998 66.979996 42.4899999 66.979996 L42.4899999 66.9800036z" stroke-width="1.0" stroke-linejoin="round" stroke="#8a8d94"/><path fill="url(#id40)" d="M26.718 63.8529967 Q26.718 60.414997 28.108 60.414997 L16.603999899999998 60.414997 Q15.215 60.414997 15.215 63.8529967 Q15.215 67.2910003 16.603999899999998 67.2910003 L28.108 67.2910003 Q26.718 67.2910003 26.718 63.8529967 L26.718 63.8529967z" stroke="none"/><path fill="#ffffff" fill-opacity="1.0" d="M15.82900095 61.467 L27.128000999999998 61.467 L26.728001 62.801999099999996 L15.296 62.801999099999996 L15.82899904 61.467 L15.82900095 61.467z" stroke="none"/><path fill="none" d="M26.718 63.8529967 Q26.718 60.414997 28.108 60.414997 L16.603999899999998 60.414997 Q15.215 60.414997 15.215 63.8529967 Q15.215 67.2910003 16.603999899999998 67.2910003 L28.108 67.2910003 Q26.718 67.2910003 26.718 63.8529967 L26.718 63.8529967z" stroke-width="1.0" stroke-linejoin="round" stroke="#8a8d94"/><path fill="url(#id41)" d="M44.84 43.879002 Q44.84 46.750023 38.273624 48.780003 Q31.70718 50.810001 22.42 50.810001 Q13.133397 50.810001 6.5667496 48.780003 Q0.0 46.7499695 0.0 43.879002 L0.0 33.689003 L44.84 33.689003 L44.84 43.879002 L44.84 43.879002z" stroke="none"/><path fill="#f2f2f2" fill-opacity="1.0" d="M6.504 48.759999 Q9.9719608 49.839703 14.562999999999999 50.370999 L14.562999999999999 33.688 L6.504 33.688 L6.504 48.759999 L6.504 48.759999z" stroke="none"/><path fill="none" d="M44.84 43.879002 Q44.84 46.750023 38.273624 48.780003 Q31.70718 50.810001 22.42 50.810001 Q13.133397 50.810001 6.5667496 48.780003 Q0.0 46.7499695 0.0 43.879002 L0.0 33.689003 L44.84 33.689003 L44.84 43.879002 L44.84 43.879002z" stroke-width="1.0" stroke-linejoin="round" stroke="#8a8d94"/><path fill="#a1a6af" fill-opacity="1.0" d="M44.84 34.0960003 Q44.84 36.967022 38.273624 38.997001 Q31.70718 41.027 22.42 41.027 Q13.133397 41.027 6.5667496 38.997001 Q0.0 36.966968 0.0 34.0960003 Q0.0 31.226281800000002 6.5667505 29.1962505 Q13.134207 27.166 22.42 27.166 Q31.706371 27.166 38.27363 29.1962505 Q44.84 31.226228300000002 44.84 34.0960003 L44.84 34.0960003z" stroke-width="1.0" stroke-linejoin="round" stroke="#8a8d94"/><path fill="#5f98f4" fill-opacity="1.0" d="M42.530998000000004 33.449002 Q42.530998000000004 35.91803 36.640625 37.664001999999996 Q30.750148 39.41 22.419998 39.41 Q14.090423999999999 39.41 8.199749 37.664001999999996 Q2.308998 35.917977 2.308998 33.449002 L2.308998 24.681002 L42.531998 24.681002 L42.531998 33.449002 L42.530998000000004 33.449002z" stroke-width="1.0" stroke-linejoin="round" stroke="#4f77b2"/><path fill="#5f98f4" fill-opacity="1.0" d="M42.530998000000004 25.0310004 Q42.530998000000004 27.500702 36.640625 29.246876 Q30.750412 30.993000000000002 22.419998 30.993000000000002 Q14.090164000000001 30.993000000000002 8.199749 29.246876 Q2.308998 27.500650999999998 2.308998 25.0310004 Q2.308998 22.5614455 8.199749 20.8156245 Q14.089844 19.07 22.419998 19.07 Q30.750732 19.07 36.640625 20.8156245 Q42.530998000000004 22.561394 42.530998000000004 25.0310004 L42.530998000000004 25.0310004z" stroke-width="1.0" stroke-linejoin="round" stroke="#4f77b2"/><path fill="url(#id42)" d="M44.84 30.297001 Q44.84 33.166866 38.273624 35.197250000000004 Q31.706062 37.228 22.42 37.228 Q13.133956 37.228 6.5667496 35.197624000000005 Q0.0 33.167392 0.0 30.297001 L0.0 20.107002 L44.84 20.107002 L44.84 30.297001 L44.84 30.297001z" stroke="none"/><path fill="#f2f2f2" fill-opacity="1.0" d="M6.504 35.175998 Q9.987254 36.260467000000006 14.562999999999999 36.786998 L14.562999999999999 20.106 L6.504 20.106 L6.504 35.175002 L6.504 35.175998z" stroke="none"/><path fill="none" d="M44.84 30.297001 Q44.84 33.166866 38.273624 35.197250000000004 Q31.706062 37.228 22.42 37.228 Q13.133956 37.228 6.5667496 35.197624000000005 Q0.0 33.167392 0.0 30.297001 L0.0 20.107002 L44.84 20.107002 L44.84 30.297001 L44.84 30.297001z" stroke-width="1.0" stroke-linejoin="round" stroke="#8a8d94"/><path fill="#a1a6af" fill-opacity="1.0" d="M44.84 20.5140003 Q44.84 23.383868 38.273624 25.41425 Q31.706062 27.445 22.42 27.445 Q13.133956 27.445 6.5667496 25.414626 Q0.0 23.38439 0.0 20.5140003 Q0.0 17.643128 6.5667505 15.613501 Q13.133088 13.584 22.42 13.584 Q31.707489 13.584 38.27363 15.613499 Q44.84 17.6430744 44.84 20.5140003 L44.84 20.5140003z" stroke-width="1.0" stroke-linejoin="round" stroke="#8a8d94"/><path fill="#5f98f4" fill-opacity="1.0" d="M42.530998000000004 19.809 Q42.530998000000004 22.278700999999998 36.640625 24.024875 Q30.750412 25.771 22.419998 25.771 Q14.090164000000001 25.771 8.199749 24.024875 Q2.308998 22.27865 2.308998 19.809 L2.308998 11.041 L42.531998 11.041 L42.531998 19.809 L42.530998000000004 19.809z" stroke-width="1.0" stroke-linejoin="round" stroke="#4f77b2"/><path fill="#5f98f4" fill-opacity="1.0" d="M42.530998000000004 11.391 Q42.530998000000004 13.860700999999999 36.640625 15.606874999999999 Q30.750412 17.353001 22.419998 17.353001 Q14.090164000000001 17.353001 8.199749 15.606877 Q2.308998 13.860651999999998 2.308998 11.391001 Q2.308998 8.922023 8.199749 7.1760008 Q14.090426 5.430001 22.419998 5.430001 Q30.750148 5.430001 36.640625 7.1760008 Q42.530998000000004 8.9219715 42.530998000000004 11.391001 L42.530998000000004 11.391z" stroke-width="1.0" stroke-linejoin="round" stroke="#4f77b2"/><path fill="url(#id43)" d="M44.84 16.714001 Q44.84 19.584446 38.273624 21.614626 Q31.70662 23.645001999999998 22.42 23.645001999999998 Q13.133956 23.645001999999998 6.5667496 21.614626 Q0.0 19.584391 0.0 16.714001 L0.0 6.523 L44.84 6.523 L44.84 16.713 L44.84 16.714001z" stroke="none"/><path fill="#f2f2f2" fill-opacity="1.0" d="M6.504 21.594 Q9.9796207 22.676091 14.562999999999999 23.205 L14.562999999999999 6.523 L6.504 6.523 L6.504 21.592999 L6.504 21.594z" stroke="none"/><path fill="none" d="M44.84 16.714001 Q44.84 19.584446 38.273624 21.614626 Q31.70662 23.645001999999998 22.42 23.645001999999998 Q13.133956 23.645001999999998 6.5667496 21.614626 Q0.0 19.584391 0.0 16.714001 L0.0 6.523 L44.84 6.523 L44.84 16.713 L44.84 16.714001z" stroke-width="1.0" stroke-linejoin="round" stroke="#8a8d94"/><path fill="#cccccc" fill-opacity="1.0" d="M44.84 6.931 Q44.84 9.801253 38.273624 11.830626 Q31.707237 13.860001 22.42 13.860001 Q13.133338 13.860001 6.5667496 11.830626 Q0.0 9.801201 0.0 6.9310007 Q0.0 4.06061 6.5667505 2.0303755 Q13.133957 0.0 22.42 0.0 Q31.70662 0.0 38.27363 2.030375 Q44.84 4.060555 44.84 6.931 L44.84 6.931z" stroke-width="1.0" stroke-linejoin="round" stroke="#8a8d94"/></g><g transform="translate(105.15999999999997 0.0)"><path fill="url(#id44)" d="M25.625 65.736 Q25.625 67.007004 22.479 67.007004 Q19.333 67.007004 19.333 65.736 L19.333 25.715 L25.625999299999997 25.715 L25.625999299999997 65.736 L25.625 65.736z" stroke-width="1.0" stroke-linejoin="round" stroke="#8a8d94"/><path fill="url(#id45)" d="M25.625 25.7149999 Q25.625 26.9859998 22.479 26.9859998 Q19.333 26.9859998 19.333 25.7149999 Q19.333 24.444 22.479 24.444 Q25.625 24.444 25.625 25.7149999 L25.625 25.7149999z" stroke-width="1.0" stroke-linejoin="round" stroke="#757a8a"/><path fill="url(#id46)" d="M2.4690000999999997 66.9800036 Q1.1980001 66.9800036 1.1980001 63.834 Q1.1980001 60.688 2.4690000999999997 60.688 L42.4900001 60.688 L42.4900001 66.981003 L2.4690000999999997 66.981003 L2.4690000999999997 66.9800036z" stroke-width="1.0" stroke-linejoin="round" stroke="#8a8d94"/><path fill="url(#id47)" d="M42.4899999 66.9800036 Q41.219 66.9800036 41.219 63.834 Q41.219 60.688 42.4899999 60.688 Q43.7609998 60.688 43.7609998 63.834 Q43.7609998 66.979996 42.4899999 66.979996 L42.4899999 66.9800036z" stroke-width="1.0" stroke-linejoin="round" stroke="#8a8d94"/><path fill="url(#id48)" d="M26.718 63.8529967 Q26.718 60.414997 28.108 60.414997 L16.603999899999998 60.414997 Q15.215 60.414997 15.215 63.8529967 Q15.215 67.2910003 16.603999899999998 67.2910003 L28.108 67.2910003 Q26.718 67.2910003 26.718 63.8529967 L26.718 63.8529967z" stroke="none"/><path fill="#ffffff" fill-opacity="1.0" d="M15.82900095 61.467 L27.128000999999998 61.467 L26.728001 62.801999099999996 L15.296 62.801999099999996 L15.82899904 61.467 L15.82900095 61.467z" stroke="none"/><path fill="none" d="M26.718 63.8529967 Q26.718 60.414997 28.108 60.414997 L16.603999899999998 60.414997 Q15.215 60.414997 15.215 63.8529967 Q15.215 67.2910003 16.603999899999998 67.2910003 L28.108 67.2910003 Q26.718 67.2910003 26.718 63.8529967 L26.718 63.8529967z" stroke-width="1.0" stroke-linejoin="round" stroke="#8a8d94"/><path fill="url(#id49)" d="M44.84 43.879002 Q44.84 46.750023 38.273624 48.780003 Q31.70718 50.810001 22.42 50.810001 Q13.133397 50.810001 6.5667496 48.780003 Q0.0 46.7499695 0.0 43.879002 L0.0 33.689003 L44.84 33.689003 L44.84 43.879002 L44.84 43.879002z" stroke="none"/><path fill="#f2f2f2" fill-opacity="1.0" d="M6.504 48.759999 Q9.9719608 49.839703 14.562999999999999 50.370999 L14.562999999999999 33.688 L6.504 33.688 L6.504 48.759999 L6.504 48.759999z" stroke="none"/><path fill="none" d="M44.84 43.879002 Q44.84 46.750023 38.273624 48.780003 Q31.70718 50.810001 22.42 50.810001 Q13.133397 50.810001 6.5667496 48.780003 Q0.0 46.7499695 0.0 43.879002 L0.0 33.689003 L44.84 33.689003 L44.84 43.879002 L44.84 43.879002z" stroke-width="1.0" stroke-linejoin="round" stroke="#8a8d94"/><path fill="#a1a6af" fill-opacity="1.0" d="M44.84 34.0960003 Q44.84 36.967022 38.273624 38.997001 Q31.70718 41.027 22.42 41.027 Q13.133397 41.027 6.5667496 38.997001 Q0.0 36.966968 0.0 34.0960003 Q0.0 31.226281800000002 6.5667505 29.1962505 Q13.134207 27.166 22.42 27.166 Q31.706371 27.166 38.27363 29.1962505 Q44.84 31.226228300000002 44.84 34.0960003 L44.84 34.0960003z" stroke-width="1.0" stroke-linejoin="round" stroke="#8a8d94"/><path fill="#5f98f4" fill-opacity="1.0" d="M42.530998000000004 33.449002 Q42.530998000000004 35.91803 36.640625 37.664001999999996 Q30.750148 39.41 22.419998 39.41 Q14.090423999999999 39.41 8.199749 37.664001999999996 Q2.308998 35.917977 2.308998 33.449002 L2.308998 24.681002 L42.531998 24.681002 L42.531998 33.449002 L42.530998000000004 33.449002z" stroke-width="1.0" stroke-linejoin="round" stroke="#4f77b2"/><path fill="#5f98f4" fill-opacity="1.0" d="M42.530998000000004 25.0310004 Q42.530998000000004 27.500702 36.640625 29.246876 Q30.750412 30.993000000000002 22.419998 30.993000000000002 Q14.090164000000001 30.993000000000002 8.199749 29.246876 Q2.308998 27.500650999999998 2.308998 25.0310004 Q2.308998 22.5614455 8.199749 20.8156245 Q14.089844 19.07 22.419998 19.07 Q30.750732 19.07 36.640625 20.8156245 Q42.530998000000004 22.561394 42.530998000000004 25.0310004 L42.530998000000004 25.0310004z" stroke-width="1.0" stroke-linejoin="round" stroke="#4f77b2"/><path fill="url(#id50)" d="M44.84 30.297001 Q44.84 33.166866 38.273624 35.197250000000004 Q31.706062 37.228 22.42 37.228 Q13.133956 37.228 6.5667496 35.197624000000005 Q0.0 33.167392 0.0 30.297001 L0.0 20.107002 L44.84 20.107002 L44.84 30.297001 L44.84 30.297001z" stroke="none"/><path fill="#f2f2f2" fill-opacity="1.0" d="M6.504 35.175998 Q9.987254 36.260467000000006 14.562999999999999 36.786998 L14.562999999999999 20.106 L6.504 20.106 L6.504 35.175002 L6.504 35.175998z" stroke="none"/><path fill="none" d="M44.84 30.297001 Q44.84 33.166866 38.273624 35.197250000000004 Q31.706062 37.228 22.42 37.228 Q13.133956 37.228 6.5667496 35.197624000000005 Q0.0 33.167392 0.0 30.297001 L0.0 20.107002 L44.84 20.107002 L44.84 30.297001 L44.84 30.297001z" stroke-width="1.0" stroke-linejoin="round" stroke="#8a8d94"/><path fill="#a1a6af" fill-opacity="1.0" d="M44.84 20.5140003 Q44.84 23.383868 38.273624 25.41425 Q31.706062 27.445 22.42 27.445 Q13.133956 27.445 6.5667496 25.414626 Q0.0 23.38439 0.0 20.5140003 Q0.0 17.643128 6.5667505 15.613501 Q13.133088 13.584 22.42 13.584 Q31.707489 13.584 38.27363 15.613499 Q44.84 17.6430744 44.84 20.5140003 L44.84 20.5140003z" stroke-width="1.0" stroke-linejoin="round" stroke="#8a8d94"/><path fill="#5f98f4" fill-opacity="1.0" d="M42.530998000000004 19.809 Q42.530998000000004 22.278700999999998 36.640625 24.024875 Q30.750412 25.771 22.419998 25.771 Q14.090164000000001 25.771 8.199749 24.024875 Q2.308998 22.27865 2.308998 19.809 L2.308998 11.041 L42.531998 11.041 L42.531998 19.809 L42.530998000000004 19.809z" stroke-width="1.0" stroke-linejoin="round" stroke="#4f77b2"/><path fill="#5f98f4" fill-opacity="1.0" d="M42.530998000000004 11.391 Q42.530998000000004 13.860700999999999 36.640625 15.606874999999999 Q30.750412 17.353001 22.419998 17.353001 Q14.090164000000001 17.353001 8.199749 15.606877 Q2.308998 13.860651999999998 2.308998 11.391001 Q2.308998 8.922023 8.199749 7.1760008 Q14.090426 5.430001 22.419998 5.430001 Q30.750148 5.430001 36.640625 7.1760008 Q42.530998000000004 8.9219715 42.530998000000004 11.391001 L42.530998000000004 11.391z" stroke-width="1.0" stroke-linejoin="round" stroke="#4f77b2"/><path fill="url(#id51)" d="M44.84 16.714001 Q44.84 19.584446 38.273624 21.614626 Q31.70662 23.645001999999998 22.42 23.645001999999998 Q13.133956 23.645001999999998 6.5667496 21.614626 Q0.0 19.584391 0.0 16.714001 L0.0 6.523 L44.84 6.523 L44.84 16.713 L44.84 16.714001z" stroke="none"/><path fill="#f2f2f2" fill-opacity="1.0" d="M6.504 21.594 Q9.9796207 22.676091 14.562999999999999 23.205 L14.562999999999999 6.523 L6.504 6.523 L6.504 21.592999 L6.504 21.594z" stroke="none"/><path fill="none" d="M44.84 16.714001 Q44.84 19.584446 38.273624 21.614626 Q31.70662 23.645001999999998 22.42 23.645001999999998 Q13.133956 23.645001999999998 6.5667496 21.614626 Q0.0 19.584391 0.0 16.714001 L0.0 6.523 L44.84 6.523 L44.84 16.713 L44.84 16.714001z" stroke-width="1.0" stroke-linejoin="round" stroke="#8a8d94"/><path fill="#cccccc" fill-opacity="1.0" d="M44.84 6.931 Q44.84 9.801253 38.273624 11.830626 Q31.707237 13.860001 22.42 13.860001 Q13.133338 13.860001 6.5667496 11.830626 Q0.0 9.801201 0.0 6.9310007 Q0.0 4.06061 6.5667505 2.0303755 Q13.133957 0.0 22.42 0.0 Q31.70662 0.0 38.27363 2.030375 Q44.84 4.060555 44.84 6.931 L44.84 6.931z" stroke-width="1.0" stroke-linejoin="round" stroke="#8a8d94"/></g></g><g transform="translate(0.0 4.2999999999999545)"><g transform="translate(4.469473547352648 0.0)"><path fill="#949ba8" fill-opacity="1.0" d="M125.89040101390073 15.807088728672024 L80.90470408984037 45.26268792434821 L0.34631675330722567 28.90596121238112 L47.08063097803825 0.0 L125.88898877948357 15.807088728672024 L125.89040101390073 15.807088728672024z" stroke="none"/><path fill="#828999" fill-opacity="1.0" d="M-3.226397339269109E-14 29.348169953486686 L80.90470979555126 45.84855204745135 L80.90470979555126 60.69002677365273 L-3.226397339269109E-14 43.94105716079329 L-3.226397339269109E-14 29.348169953486686 L-3.226397339269109E-14 29.348169953486686z" stroke="none"/><path fill="#757a8a" fill-opacity="1.0" d="M126.43685060186131 15.8070892338393 L80.01195055093875 44.663085350017155 L80.90471206648097 60.35774562920618 L126.53052645264734 30.40997060303397 L126.43685060186131 15.805839551437264 L126.43685060186131 15.8070892338393z" stroke="none"/><path fill="#a8acb2" fill-opacity="1.0" d="M82.62068106222299 46.013443442439865 L126.26795020423191 16.531610775327355 L125.8691252695103 15.593478172350574 L80.84935588372315 43.87984872546722 Q80.23478552932374 44.28208254588319 79.28951103502817 44.12468621430324 Q79.0802306683857 44.09033883705624 66.67690932533013 41.70615916679044 Q61.374103925371294 40.68684678252911 54.001597310855125 39.26863338271415 Q47.56024142713193 38.02953825741441 39.52287046166176 36.48284448064977 Q32.76345525856741 35.18207872444708 25.072684941005626 33.70174374074744 Q18.993264158098274 32.53156447431225 12.48299407348014 31.27826495467604 Q7.942944288546723 30.404254368007695 3.5857489127490267 29.565359402585734 Q1.4389578664528315 29.15203288832508 0.2128996608773526 28.915955879436446 L0.2128996608773526 29.694192047515624 Q1.4473405777002173 29.94670198292755 3.6085578469505717 30.38881078985434 Q7.933360255479559 31.27351183529777 12.564872444391439 32.22102401045948 Q19.053950496765836 33.5485558872714 25.235854079764195 34.813372821012116 Q32.94546175932041 36.390755134903145 39.7755113925696 37.78839458566158 Q47.824914027541475 39.43554469729128 54.337858131900234 40.76862791773447 Q61.780401638189716 42.291978319513134 67.07689953086228 43.37660643384844 Q79.53474873506175 45.92776112673034 79.70111704605777 45.96597720587339 Q80.18368961071319 46.075906051709644 80.29865968558019 46.629287819177286 L80.29865968558019 60.491406344148416 L80.90470979555124 60.36024273449846 Q82.08843191002951 60.16037687529109 82.08843191002951 58.532696440042386 Q82.08843191002951 46.77669073287914 82.08843191002951 46.77669073287914 Q82.06714194394179 46.250785867867314 82.62068106222299 46.01594054773215 L82.62068106222299 46.013443442439865z" stroke="none"/><path fill="none" d="M47.62423480719847 0.0 L0.2128996608773526 28.91595463025921 L0.2128996608773526 43.663743562207955 L81.10909346999357 60.73250379634356 L126.5305264526474 30.411223527800427 L126.5305264526474 15.71215125883015 L47.62423480719847 0.0 L47.62423480719847 0.0z" stroke-width="1.0" stroke-linejoin="round" stroke="#757575"/><path fill="none" d="M85.76308005677318 42.041059835898295 L85.76308005677318 42.041059835898295z" stroke-width="1.0" stroke-linejoin="round" stroke="#aaaaaa"/><path fill="#9ccc29" fill-opacity="1.0" d="M62.60811293974879 45.52001843470907 L62.60811293974879 49.19010077568519 L76.55729730110399 52.079447469853086 L76.55729730110399 48.36564405057804 L62.60811293974879 45.52126692577078 L62.60811293974879 45.52001843470907z" stroke-width="1.0" stroke-linejoin="round" stroke="#6d7384"/><path fill="#6d7384" fill-opacity="1.0" d="M2.963563279413165 40.51581255848865 L77.16193375732684 55.87694563893943 L77.16193375732684 53.58595583956408 L2.963563279413165 38.452173640428505 L2.963563279413165 40.51581255848865 L2.963563279413165 40.51581255848865z" stroke="none"/><path fill="#6d7384" fill-opacity="1.0" d="M59.94686717878149 46.334480742596334 L2.963563279413165 34.71213699955258 L2.963563279413165 36.77577829104947 L59.94686717878149 48.57425927205541 L59.94686717878149 46.33448573930527 L59.94686717878149 46.334480742596334z" stroke="none"/></g><g transform="translate(0.0 48.104572379316934)"><clipPath id="id52"><path d="M0 0 L63.265263226323796 0 L63.265263226323796 31.22942837068304 L0 31.22942837068304z"/></clipPath><text font-size="12" clip-path="url(#id52)" text-decoration="none" fill="#000000" font-family="Arial,Arial" font-style="normal" font-weight="bold"><tspan x="2.0" xml:space="preserve" y="13.0" textLength="33.0">FPGA</tspan></text></g></g><g transform="translate(111.0 27.604499999999916)"><path fill="none" stroke-linejoin="round" id="id55" d="M258.99999999999994 20.0 L0.0 20.0" stroke="#000000" stroke-width="1.0" marker-end="url(#id53)"/><g transform="translate(0.0 0.0)"><clipPath id="id56"><path d="M0 0 L259.0 0 L259.0 20.0 L0 20.0z"/></clipPath><text font-size="12" clip-path="url(#id56)" text-decoration="none" fill="#000000" font-family="Times" font-style="normal" font-weight="normal"/></g></g><g transform="translate(215.0 49.299999999999955)"><clipPath id="id57"><path d="M0 0 L85.0 0 L85.0 17.0 L0 17.0z"/></clipPath><text font-size="12" clip-path="url(#id57)" text-decoration="none" fill="#000000" font-family="Arial,Arial" font-style="normal" font-weight="normal"><tspan x="2.0" xml:space="preserve" y="13.0" textLength="74.0">Reproduccin</tspan></text></g></g><g transform="translate(415.0 315.0)"><g transform="translate(0.0 0.0)"><path fill-opacity="1.0" fill="#ffffff" stroke-linejoin="round" id="id59" d="M0.0 0.0 L185.55140000000014 0.0 L185.55140000000014 25.0 L0.0 25.0 L0.0 0.0z" stroke="#000000" stroke-width="1.0"/><path fill-opacity="1.0" fill="#ffffff" stroke-linejoin="round" id="id61" d="M0.0 25.0 L463.8785000000001 25.0 L463.8785000000001 101.26250019999998 L0.0 101.26250019999998 L0.0 25.0z" stroke="#000000" stroke-width="1.0"/><g transform="translate(0.0 0.0)"><clipPath id="id62"><path d="M0 0 L185.55140000000014 0 L185.55140000000014 25.0 L0 25.0z"/></clipPath><text font-size="12" clip-path="url(#id62)" text-decoration="none" fill="#000000" font-family="Arial,Arial" font-style="normal" font-weight="bold"><tspan x="68.0" xml:space="preserve" y="16.5" textLength="49.0">Mdulos</tspan></text></g></g><g transform="translate(317.1159706060337 39.200000000000045)"><path fill="url(#id63)" d="M128.12601772489128 50.0 L0.0 50.0 L0.0 0.0 L128.12601772489128 0.0 L128.12601772489128 50.0 L128.12601772489128 50.0z" stroke-width="1.0" stroke-linejoin="round" stroke="#3b9684"/><g transform="translate(5.0 5.0)"><clipPath id="id64"><path d="M0 0 L118.12601772489126 0 L118.12601772489126 40.0 L0 40.0z"/></clipPath><text font-size="14" clip-path="url(#id64)" text-decoration="none" fill="#000000" font-family="Arial,Arial" font-style="normal" font-weight="bold"><tspan x="29.0" xml:space="preserve" y="25.0" textLength="60.0">Captures</tspan></text></g></g><g transform="translate(166.85909527411573 39.200000000000045)"><path fill="url(#id65)" d="M128.1260177248911 50.0 L0.0 50.0 L0.0 0.0 L128.1260177248911 0.0 L128.1260177248911 50.0 L128.1260177248911 50.0z" stroke-width="1.0" stroke-linejoin="round" stroke="#3b9684"/><g transform="translate(5.0 5.0)"><clipPath id="id66"><path d="M0 0 L118.12601772489111 0 L118.12601772489111 40.0 L0 40.0z"/></clipPath><text font-size="14" clip-path="url(#id66)" text-decoration="none" fill="#000000" font-family="Arial,Arial" font-style="normal" font-weight="bold"><tspan x="28.0" xml:space="preserve" y="25.0" textLength="62.0">Statistics</tspan></text></g></g><g transform="translate(17.47172968975798 39.200000000000045)"><path fill="url(#id67)" d="M128.12601772489126 50.0 L0.0 50.0 L0.0 0.0 L128.12601772489126 0.0 L128.12601772489126 50.0 L128.12601772489126 50.0z" stroke-width="1.0" stroke-linejoin="round" stroke="#3b9684"/><g transform="translate(5.0 5.0)"><clipPath id="id68"><path d="M0 0 L118.12601772489117 0 L118.12601772489117 40.0 L0 40.0z"/></clipPath><text font-size="14" clip-path="url(#id68)" text-decoration="none" fill="#000000" font-family="Arial,Arial" font-style="normal" font-weight="bold"><tspan x="30.0" xml:space="preserve" y="25.0" textLength="57.0">Manager</tspan></text></g></g></g><g transform="translate(643.75175 299.0)"><path fill-opacity="1.0" fill="#000000" stroke-linejoin="round" id="id70" d="M0.0 0.0 L4.0 0.0 L4.0 40.0 L0.0 40.0 L0.0 0.0z" stroke="#000000" stroke-width="1.0"/></g><g transform="translate(590.75175 109.0)"><path fill="url(#id71)" d="M98.0 0.0 L110.0 25.0 L98.0 50.0 L12.0 50.0 L0.0 25.0 L12.0 0.0 L98.0 0.0z" stroke-width="1.0" stroke-linejoin="round" stroke="#7d79c4"/><g transform="translate(12.0 5.0)"><clipPath id="id72"><path d="M0 0 L86.0 0 L86.0 40.0 L0 40.0z"/></clipPath><text font-size="14" clip-path="url(#id72)" text-decoration="none" fill="#000000" font-family="Arial,Arial" font-style="normal" font-weight="bold"><tspan x="6.0" xml:space="preserve" y="25.0" textLength="73.0">Supervisor</tspan></text></g></g><g transform="translate(643.75175 159.0)"><path fill-opacity="1.0" fill="#000000" stroke-linejoin="round" id="id74" d="M0.0 0.0 L4.0 0.0 L4.0 47.54050035000001 L0.0 47.54050035000001 L0.0 0.0z" stroke="#000000" stroke-width="1.0"/></g><g transform="translate(886.228501 299.0)"><clipPath id="id75"><path d="M0 0 L150.0 0 L150.0 40.0 L0 40.0z"/></clipPath><text font-size="14" clip-path="url(#id75)" text-decoration="none" fill="#000000" font-family="Arial,Arial" font-style="normal" font-weight="bold"><tspan x="2.0" xml:space="preserve" y="15.0" textLength="33.0">Logs</tspan></text></g><g transform="translate(919.0 368.0)"><clipPath id="id76"><path d="M0 0 L58.84999999999991 0 L58.84999999999991 18.0 L0 18.0z"/></clipPath><text font-size="12" clip-path="url(#id76)" text-decoration="none" fill="#000000" font-family="Arial,Arial" font-style="normal" font-weight="normal"><tspan x="2.0" xml:space="preserve" y="13.0" textLength="39.0">Errores</tspan></text></g><g transform="translate(415.0 182.0)"><path fill-opacity="1.0" fill="#ffffff" stroke-linejoin="round" id="id78" d="M0.0 0.0 L185.9259948994605 0.0 L185.9259948994605 25.0 L0.0 25.0 L0.0 0.0z" stroke="#000000" stroke-width="1.0"/><path fill-opacity="1.0" fill="#ffffff" stroke-linejoin="round" id="id80" d="M0.0 25.0 L464.8149872486515 25.0 L464.8149872486515 116.82499949999999 L0.0 116.82499949999999 L0.0 25.0z" stroke="#000000" stroke-width="1.0"/><g transform="translate(0.0 0.0)"><clipPath id="id81"><path d="M0 0 L185.9259948994605 0 L185.9259948994605 25.0 L0 25.0z"/></clipPath><text font-size="12" clip-path="url(#id81)" text-decoration="none" fill="#000000" font-family="Arial,Arial" font-style="normal" font-weight="bold"><tspan x="38.0" xml:space="preserve" y="16.5" textLength="110.0">Grupo de procesos</tspan></text></g></g><g transform="translate(426.297614382295 217.0)"><path fill="#949ba8" fill-opacity="1.0" d="M50.6357199484747 3.54 L23.42346383714218 74.999 L0.07730186461004845 19.603 L25.809780813114227 0.0 L50.6357199484747 3.54 L50.6357199484747 3.54z" stroke="none"/><path fill="#757a8a" fill-opacity="1.0" d="M50.96400078372097 3.5400000000000205 L24.333014788031996 23.802001000000022 L23.67845850809222 74.86500000000002 L50.83148735163269 54.42799700000002 L50.96400078372097 3.5400000000000205 L50.96400078372097 3.5400000000000205z" stroke="none"/><path fill="#8e9098" fill-opacity="1.0" d="M0.21283106251590192 19.901999999999987 L23.6784585181314 23.84900049999999 L23.492734311163773 75.03199699999999 L0.21584278394114478 71.19599999999998 L0.21283106251590192 19.901999999999987 L0.21283106251590192 19.901999999999987z" stroke="none"/><path fill="#9ea4ad" fill-opacity="1.0" d="M24.706472648357042 24.028000099999982 L50.86059802157922 4.0319999999999805 L50.62166504757235 3.3960000999999806 L24.725547129475242 22.43900009999998 Q23.278898324668962 22.85400009999998 22.711683491417368 22.74599809999998 Q22.586394268072592 22.72227709999998 19.009241373170678 22.22704509999998 Q16.148500891066703 21.830996099999982 11.219183127697404 21.15262609999998 Q7.7023658283325185 20.66864409999998 3.497453689269741 20.09114009999998 Q2.184381066326043 19.91080709999998 0.9609456544611086 19.74287809999998 Q0.3491759755871948 19.65890709999998 0.0 19.61100009999998 Q0.3541955758814567 20.19509309999998 0.9746025211385094 20.29865509999998 Q2.215416351417411 20.50577609999998 3.546473298687397 20.72811009999998 Q7.805855329167339 21.43957709999998 11.370398586562043 22.03637509999998 Q16.36067537982492 22.87187609999998 19.24853475447867 23.35870409999998 Q22.858252808249638 23.96721809999998 22.9576439058362 23.993000099999982 Q23.246772882785685 24.06800009999998 23.3160433668465 24.44400009999998 L23.3160433668465 74.81100009999999 L23.87924352378274 75.25600009999998 Q24.3882309936209 74.46900009999997 24.3882309936209 73.36200009999997 Q24.3882309936209 72.29380009999998 24.388642600845028 69.44609009999998 Q24.388812263334973 68.27874409999998 24.389091353111336 66.51542009999997 Q24.389232905839634 65.62301009999999 24.389642505223645 63.08774209999998 Q24.39002299092595 60.72865709999998 24.39025288861943 59.27667209999998 Q24.39060124887985 57.06177509999998 24.39087732689603 55.19581009999998 Q24.39157806309711 50.45579509999998 24.391995693841597 46.67913409999998 Q24.392506689151553 42.05046009999998 24.392643222279556 38.44657009999998 Q24.392799833808738 34.30320709999998 24.392466532349196 31.40696009999998 Q24.391689498223645 24.65121909999998 24.3882309936209 24.54200809999998 Q24.37618495683473 24.18600709999998 24.706472648357042 24.027008099999982 L24.706472648357042 24.028000099999982z" stroke="none"/><path fill="none" d="M26.589826678764098 21.331999999999994 L26.589826678764098 21.331999999999994z" stroke-width="1.0" stroke-linejoin="round" stroke="#aaaaaa"/><path fill="none" d="M26.589826678764098 40.66300000000001 L26.589826678764098 40.66300000000001z" stroke-width="1.0" stroke-linejoin="round" stroke="#757575"/><path fill="none" d="M26.13806265228054 0.0 L0.0 19.611 L0.0 71.359 L23.800936755272197 75.118004 L51.02022131093675 54.436005 L51.02022131093675 3.477 L26.13806265228054 0.0 L26.13806265228054 0.0z" stroke-width="1.0" stroke-linejoin="round" stroke="#757575"/><path fill="url(#id82)" d="M3.384214510360031 42.980999999999995 L3.351085156449263 50.611000999999995 L19.824409402157947 53.166000999999994 L19.85854268415893 45.5360003 L3.384214749293005 42.980999999999995 L3.384214510360031 42.980999999999995z" stroke="none"/><path fill="#757a8a" fill-opacity="1.0" d="M3.2667558614664687 63.80999800000001 L19.741084037273207 66.3659978 L19.73004091662583 68.24499560000001 L3.2567166709171453 65.6890034 L3.2667558614664687 63.81000562939451 L3.2667558614664687 63.80999800000001z" stroke="none"/><path fill="#757a8a" fill-opacity="1.0" d="M3.2667558614664687 67.67199999999997 L19.741084037273207 70.22700029999997 L19.73004091662583 72.10599799999997 L3.2567166709171453 69.55100539999997 L3.2667558614664687 67.67200762939447 L3.2667558614664687 67.67199999999997z" stroke="none"/><path fill="#757a8a" fill-opacity="1.0" d="M3.2898460961061815 59.948001814697285 L19.764174198626755 62.50400159999998 L19.753131077979383 64.38200369999998 L3.2808107523295464 61.826999599999986 L3.29084994287887 59.947997999999984 L3.2898460961061815 59.948001814697285z" stroke="none"/><path fill="#757a8a" fill-opacity="1.0" d="M3.313940344169393 56.08600000000001 L19.78826828003924 58.641000300000016 L19.77722515939186 60.52000200000001 L3.303900913683176 57.965001600000015 L3.313940104232499 56.08600000000001 L3.313940344169393 56.08600000000001z" stroke="none"/><path fill="#757a8a" fill-opacity="1.0" d="M3.337030181256834 52.22399999999999 L19.811357638256812 54.77999979999999 L19.801318437668286 56.65799799999999 L3.3269902719007485 54.10199839999999 L3.337029462450072 52.22399999999999 L3.337030181256834 52.22399999999999z" stroke="none"/><path fill="#757a8a" fill-opacity="1.0" d="M3.4083085516156424 39.488999999999976 L19.882636966355356 42.04400029999998 L19.87259776576683 43.923001999999975 L3.3982695999992933 41.36800159999998 L3.4083087905486167 39.488999999999976 L3.4083085516156424 39.488999999999976z" stroke="none"/><path fill="#757a8a" fill-opacity="1.0" d="M3.4324026450751743 35.625999999999976 L19.905727930845043 38.180000899999975 L19.895688730256516 40.05900249999998 L3.421360564488979 37.504002199999974 L3.4324036028149103 35.62600381469728 L3.4324026450751743 35.625999999999976z" stroke="none"/><path fill="#757a8a" fill-opacity="1.0" d="M3.4554927983974006 31.764999999999986 L19.92881688749456 34.32000029999999 L19.918777686906033 36.196998999999984 L3.444449521138495 33.64199889999998 L3.4554925594644263 31.764999999999986 L3.4554927983974006 31.764999999999986z" stroke="none"/><path fill="#757a8a" fill-opacity="1.0" d="M3.4795870805938587 27.901999999999987 L19.952911169691017 30.457000299999986 L19.94287196910249 32.336001999999986 L3.468543803334953 29.781001599999986 L3.4795868416608844 27.902001907348588 L3.4795870805938587 27.901999999999987z" stroke="none"/><path fill="#757a8a" fill-opacity="1.0" d="M3.4795870805938587 24.04000000000002 L19.952911169691017 26.59500030000002 L19.94287196910249 28.47400000000002 L3.468543803334953 25.918999700000022 L3.4795868416608844 24.04000000000002 L3.4795870805938587 24.04000000000002z" stroke="none"/><path fill="#9ccc29" fill-opacity="1.0" d="M4.72243993358796 47.78200180000001 L8.634716225405308 48.39000350000001 L8.634716225405308 46.50900300000001 L4.72243945488157 45.90300400000001 L4.72243945488157 47.78200560000001 L4.72243993358796 47.78200180000001z" stroke-width="1.0" stroke-linejoin="round" stroke="#6d7384"/><path fill="none" d="M54.60622376115747 25.857000000000028 L54.60622376115747 25.857000000000028z" stroke-width="1.0" stroke-linejoin="round" stroke="#aaaaaa"/><path fill="none" d="M54.60622376115747 45.18799999999999 L54.60622376115747 45.18799999999999z" stroke-width="1.0" stroke-linejoin="round" stroke="#757575"/><path fill="#757a8a" fill-opacity="1.0" d="M31.423701992036 44.01400000000001 L47.89802792006573 46.56900030000001 L47.88698680725847 48.44800200000001 L31.413662561549785 45.89200220000001 L31.423701992036 44.01400381469731 L31.423701992036 44.01400000000001z" stroke="none"/><path fill="#757a8a" fill-opacity="1.0" d="M31.44679215338963 40.15199999999999 L47.9211220970996 42.706000899999985 L47.9100769686121 44.58500249999999 L31.436752722903414 42.02999839999999 L31.44679215338963 40.15199999999999 L31.44679215338963 40.15199999999999z" stroke="none"/><path fill="#757a8a" fill-opacity="1.0" d="M31.470885137517417 36.29000000000002 L47.94521316675183 38.845000300000024 L47.93416803826433 40.72299870000002 L31.460843792555647 38.16699890000002 L31.470883223041863 36.29000000000002 L31.470885137517417 36.29000000000002z" stroke="none"/><path fill="#757a8a" fill-opacity="1.0" d="M31.493976210430464 32.428 L47.9683023241854 34.9830003 L47.957257195697906 36.862002 L31.48393294998922 34.3070016 L31.493972380475437 32.428 L31.493976210430464 32.428z" stroke="none"/><path fill="#757a8a" fill-opacity="1.0" d="M31.493976947307807 28.564999999999998 L47.96830332810548 31.120000299999997 L47.95826513143702 32.9999995 L31.48494088572833 30.444999199999998 L31.494980316214548 28.565999450699998 L31.493976947307807 28.564999999999998z" stroke="none"/></g><g transform="translate(481.0042301493379 210.0)"><g transform="translate(0.0 9.365499849999992)"><path fill="url(#id83)" d="M41.913662457086794 70.00000000000001 L0.0 35.00000000000001 L41.913662457086794 0.0 L83.82732491417359 35.00000000000001 L41.913662457086794 70.00000000000001 L41.913662457086794 70.00000000000001z" stroke-width="1.0" stroke-linejoin="round" stroke="#638933"/><g transform="translate(7.5444592422756225 16.14410247802735)"><clipPath id="id84"><path d="M0 0 L68.73840642962242 0 L68.73840642962242 38.49999999999999 L0 38.49999999999999z"/></clipPath><text font-size="14" clip-path="url(#id84)" text-decoration="none" fill="#000000" font-family="Arial,Arial" font-style="normal" font-weight="normal"><tspan x="3.0" xml:space="preserve" y="24.249999999999996" textLength="63.0">Proceso 1</tspan></text></g></g><g transform="translate(83.57985861966655 9.365499849999992)"><path fill="url(#id85)" d="M41.913662457086794 70.00000000000001 L0.0 35.00000000000001 L41.913662457086794 0.0 L83.82732491417359 35.00000000000001 L41.913662457086794 70.00000000000001 L41.913662457086794 70.00000000000001z" stroke-width="1.0" stroke-linejoin="round" stroke="#638933"/><g transform="translate(7.5444592422756225 16.14410247802735)"><clipPath id="id86"><path d="M0 0 L68.73840642962242 0 L68.73840642962242 38.49999999999999 L0 38.49999999999999z"/></clipPath><text font-size="14" clip-path="url(#id86)" text-decoration="none" fill="#000000" font-family="Arial,Arial" font-style="normal" font-weight="normal"><tspan x="3.0" xml:space="preserve" y="24.249999999999996" textLength="63.0">Proceso 2</tspan></text></g></g><g transform="translate(304.9442315966161 9.365499849999992)"><path fill="url(#id87)" d="M41.913662457086815 70.00000000000001 L0.0 35.00000000000001 L41.913662457086815 0.0 L83.82732491417363 35.00000000000001 L41.913662457086815 70.00000000000001 L41.913662457086815 70.00000000000001z" stroke-width="1.0" stroke-linejoin="round" stroke="#638933"/><g transform="translate(7.544459242275628 16.14410247802735)"><clipPath id="id88"><path d="M0 0 L68.73840642962247 0 L68.73840642962247 38.49999999999999 L0 38.49999999999999z"/></clipPath><text font-size="14" clip-path="url(#id88)" text-decoration="none" fill="#000000" font-family="Arial,Arial" font-style="normal" font-weight="normal"><tspan x="3.0" xml:space="preserve" y="24.249999999999996" textLength="63.0">Proceso n</tspan></text></g></g><g transform="translate(198.02674532883776 0.0)"><clipPath id="id89"><path d="M0 0 L247.7172745218245 0 L247.7172745218245 88.36549984999999 L0 88.36549984999999z"/></clipPath><text font-size="50" clip-path="url(#id89)" text-decoration="none" fill="#000000" font-family="Arial,Arial" font-style="normal" font-weight="bold"><tspan x="2.0" xml:space="preserve" y="47.0" textLength="69.0">. . .</tspan></text></g></g><g transform="translate(960.0 345.0)"><g transform="translate(11.510999999999967 0.0)"><path fill="url(#id90)" d="M41.48900000000001 14.078 L27.374000000000006 0.0 L1.0000000000000002 0.0 Q0.0 0.0 0.0 1.0 L0.0 51.33 Q0.0 52.33 1.0000000000000002 52.33 L40.48900000000001 52.33 Q41.48900000000001 52.33 41.48900000000001 51.33 L41.48900000000001 14.078 L41.48900000000001 14.078z" stroke-width="1.0" stroke-linejoin="round" stroke="#000000"/><path fill="url(#id91)" d="M41.48899900000001 14.24 L28.397000000000006 14.24 Q27.397000000000006 14.24 27.397000000000006 13.24 L27.397000000000006 0.097 L41.48899900000001 14.24 L41.48899900000001 14.24z" stroke-width="1.0" stroke-linejoin="round" stroke="#000000"/></g><g transform="translate(0.0 52.33000000000004)"><clipPath id="id92"><path d="M0 0 L70.0 0 L70.0 20.31999899999994 L0 20.31999899999994z"/></clipPath><text font-size="12" clip-path="url(#id92)" text-decoration="none" fill="#000000" font-family="Arial,Arial" font-style="normal" font-weight="normal"><tspan x="2.0" xml:space="preserve" y="13.0" textLength="61.0">fpga-api.err</tspan></text></g></g><g transform="translate(960.0 223.0)"><g transform="translate(11.510999999999967 0.0)"><path fill="url(#id93)" d="M41.48899999999999 14.078 L27.37399999999999 0.0 L0.9999999999999998 0.0 Q0.0 0.0 0.0 1.0 L0.0 51.33 Q0.0 52.33 0.9999999999999998 52.33 L40.48899999999999 52.33 Q41.48899999999999 52.33 41.48899999999999 51.33 L41.48899999999999 14.078 L41.48899999999999 14.078z" stroke-width="1.0" stroke-linejoin="round" stroke="#000000"/><path fill="url(#id94)" d="M41.488998999999986 14.24 L28.39699999999999 14.24 Q27.39699999999999 14.24 27.39699999999999 13.24 L27.39699999999999 0.097 L41.488998999999986 14.24 L41.488998999999986 14.24z" stroke-width="1.0" stroke-linejoin="round" stroke="#000000"/></g><g transform="translate(0.0 52.33000000000004)"><clipPath id="id95"><path d="M0 0 L69.99999999999999 0 L69.99999999999999 20.31999899999994 L0 20.31999899999994z"/></clipPath><text font-size="12" clip-path="url(#id95)" text-decoration="none" fill="#000000" font-family="Arial,Arial" font-style="normal" font-weight="normal"><tspan x="2.0" xml:space="preserve" y="13.0" textLength="62.0">fpga-api.log</tspan></text></g></g><g transform="translate(913.6285000000005 235.0)"><clipPath id="id96"><path d="M0 0 L58.84999999999991 0 L58.84999999999991 18.0 L0 18.0z"/></clipPath><text font-size="12" clip-path="url(#id96)" text-decoration="none" fill="#000000" font-family="Arial,Arial" font-style="normal" font-weight="normal"><tspan x="2.0" xml:space="preserve" y="13.0" textLength="43.0">Eventos</tspan></text></g><g transform="translate(442.3259222658164 428.0) rotate(90.0 21.325000000000045 10.0)"><path fill="none" stroke-linejoin="round" id="id99" d="M0.0 20.0 L42.65000000000003 20.0" stroke="#000000" stroke-width="1.0" marker-end="url(#id97)"/><g transform="translate(0.0 0.0)"><clipPath id="id100"><path d="M0 0 L42.65000000000009 0 L42.65000000000009 20.0 L0 20.0z"/></clipPath><text font-size="10" clip-path="url(#id100)" text-decoration="none" fill="#000000" font-family="Arial,Arial" font-style="normal" font-weight="normal"/></g></g><g transform="translate(797.4453125250001 424.44531252499996) rotate(90.0 17.55468747499998 10.0)"><path fill="none" stroke-linejoin="round" id="id103" d="M0.0 20.0 L35.109374949999925 20.0" stroke="#000000" stroke-width="1.0" marker-end="url(#id101)"/><g transform="translate(0.0 0.0)"><clipPath id="id104"><path d="M0 0 L35.10937494999996 0 L35.10937494999996 20.0 L0 20.0z"/></clipPath><text font-size="10" clip-path="url(#id104)" text-decoration="none" fill="#000000" font-family="Arial,Arial" font-style="normal" font-weight="normal"/></g></g><g transform="translate(851.8956875250001 425.01718752500005) rotate(90.0 16.982812474999946 10.0)"><path fill="none" stroke-linejoin="round" stroke-dasharray="3.0 1.0" id="id107" d="M0.0 20.0 L33.96562494999987 20.0" stroke="#000000" marker-start="url(#id105)" stroke-width="1.0"/><g transform="translate(0.0 0.0)"><clipPath id="id108"><path d="M0 0 L33.96562494999989 0 L33.96562494999989 20.0 L0 20.0z"/></clipPath><text font-size="12" clip-path="url(#id108)" text-decoration="none" fill="#000000" font-family="Times" font-style="normal" font-weight="normal"/></g></g></g></svg>