<?xml version="1.0" encoding="utf-8"?>
<svg contentScriptType="text/ecmascript" xmlns:xlink="http://www.w3.org/1999/xlink" zoomAndPan="magnify" contentStyleType="text/css" viewBox="157.0 155.0 1038.1154499151105 474.0" xmlns:cacoo="http://cacoo.com/" preserveAspectRatio="xMidYMin meet" xmlns="http://www.w3.org/2000/svg" version="1.1"><defs><linearGradient x1="0%" xmlns:xlink="http://www.w3.org/1999/xlink" y1="0%" x2="0%" y2="100%" xlink:type="simple" xlink:actuate="onLoad" id="id0" xlink:show="other"><stop stop-opacity="1.0" stop-color="#cce3df" offset="0%"/><stop stop-opacity="1.0" stop-color="#67ab9f" offset="100%"/></linearGradient><filter xlink:actuate="onLoad" xlink:type="simple" id="id2" xlink:show="other" filterUnits="userSpaceOnUse" xmlns:xlink="http://www.w3.org/1999/xlink"><feGaussianBlur stdDeviation="3.0" result="blur" in="SourceAlpha"/><feOffset dx="4.0" dy="4.0" result="offsetBlur" in="blur"/><feComponentTransfer result="componentOffsetBlur" in="offsetBlur"><feFuncR type="linear" intercept="0.0" slope="0"/><feFuncG type="linear" intercept="0.0" slope="0"/><feFuncB type="linear" intercept="0.0" slope="0"/><feFuncA type="linear" intercept="0" slope="0.4"/></feComponentTransfer></filter><filter xlink:actuate="onLoad" xlink:type="simple" id="id4" xlink:show="other" filterUnits="userSpaceOnUse" xmlns:xlink="http://www.w3.org/1999/xlink"><feGaussianBlur stdDeviation="3.0" result="blur" in="SourceAlpha"/><feOffset dx="-4.000000000000001" dy="3.999999999999999" result="offsetBlur" in="blur"/><feComponentTransfer result="componentOffsetBlur" in="offsetBlur"><feFuncR type="linear" intercept="0.0" slope="0"/><feFuncG type="linear" intercept="0.0" slope="0"/><feFuncB type="linear" intercept="0.0" slope="0"/><feFuncA type="linear" intercept="0" slope="0.4"/></feComponentTransfer></filter><linearGradient x1="0%" xmlns:xlink="http://www.w3.org/1999/xlink" y1="0%" x2="0%" y2="100%" xlink:type="simple" xlink:actuate="onLoad" id="id6" xlink:show="other"><stop stop-opacity="1.0" stop-color="#e2eeff" offset="0%"/><stop stop-opacity="1.0" stop-color="#65a1fb" offset="100%"/></linearGradient><marker refX="14.0" refY="7.0" markerUnits="userSpaceOnUse" orient="auto" id="id8" markerHeight="14.0" viewBox="0 0 14.0 14.0" preserveAspectRatio="xMidYMid meet" markerWidth="14.0" overflow="visible"><path fill="#000000" d="M0 0 L14.0 7.0 L0 14.0z" stroke-width="1.0" stroke-linejoin="round" stroke-linecap="round" stroke="#000000"/></marker><filter xlink:actuate="onLoad" xlink:type="simple" id="id9" xlink:show="other" filterUnits="userSpaceOnUse" xmlns:xlink="http://www.w3.org/1999/xlink"><feGaussianBlur stdDeviation="3.0" result="blur" in="SourceAlpha"/><feOffset dx="-3.9999999999999996" dy="-4.000000000000001" result="offsetBlur" in="blur"/><feComponentTransfer result="componentOffsetBlur" in="offsetBlur"><feFuncR type="linear" intercept="0.0" slope="0"/><feFuncG type="linear" intercept="0.0" slope="0"/><feFuncB type="linear" intercept="0.0" slope="0"/><feFuncA type="linear" intercept="0" slope="0.4"/></feComponentTransfer></filter><linearGradient x1="0%" xmlns:xlink="http://www.w3.org/1999/xlink" y1="0%" x2="0%" y2="100%" xlink:type="simple" xlink:actuate="onLoad" id="id14" xlink:show="other"><stop stop-opacity="1.0" stop-color="#d0d0f0" offset="0%"/><stop stop-opacity="1.0" stop-color="#8986dc" offset="100%"/></linearGradient><marker refX="14.0" refY="7.0" markerUnits="userSpaceOnUse" orient="auto" id="id16" markerHeight="14.0" viewBox="0 0 14.0 14.0" preserveAspectRatio="xMidYMid meet" markerWidth="14.0" overflow="visible"><path fill="#000000" d="M0 0 L14.0 7.0 L0 14.0z" stroke-width="1.0" stroke-linejoin="round" stroke-linecap="round" stroke="#000000"/></marker><filter xlink:actuate="onLoad" xlink:type="simple" id="id17" xlink:show="other" filterUnits="userSpaceOnUse" xmlns:xlink="http://www.w3.org/1999/xlink"><feGaussianBlur stdDeviation="3.0" result="blur" in="SourceAlpha"/><feOffset dx="4.0" dy="4.0" result="offsetBlur" in="blur"/><feComponentTransfer result="componentOffsetBlur" in="offsetBlur"><feFuncR type="linear" intercept="0.0" slope="0"/><feFuncG type="linear" intercept="0.0" slope="0"/><feFuncB type="linear" intercept="0.0" slope="0"/><feFuncA type="linear" intercept="0" slope="0.4"/></feComponentTransfer></filter><filter xlink:actuate="onLoad" xlink:type="simple" id="id20" xlink:show="other" filterUnits="userSpaceOnUse" xmlns:xlink="http://www.w3.org/1999/xlink"><feGaussianBlur stdDeviation="3.0" result="blur" in="SourceAlpha"/><feOffset dx="4.0" dy="4.0" result="offsetBlur" in="blur"/><feComponentTransfer result="componentOffsetBlur" in="offsetBlur"><feFuncR type="linear" intercept="0.0" slope="0"/><feFuncG type="linear" intercept="0.0" slope="0"/><feFuncB type="linear" intercept="0.0" slope="0"/><feFuncA type="linear" intercept="0" slope="0.4"/></feComponentTransfer></filter><linearGradient xlink:actuate="onLoad" xlink:type="simple" id="id23" xlink:show="other" xmlns:xlink="http://www.w3.org/1999/xlink"><stop stop-opacity="1.0" stop-color="#ffffff" offset="0%"/><stop stop-opacity="1.0" stop-color="#cccccc" offset="100%"/></linearGradient><linearGradient x1="0%" xmlns:xlink="http://www.w3.org/1999/xlink" y1="0%" x2="0%" y2="100%" xlink:type="simple" xlink:actuate="onLoad" id="id24" xlink:show="other"><stop stop-opacity="1.0" stop-color="#cccccc" offset="0%"/><stop stop-opacity="1.0" stop-color="#ffffff" offset="100%"/></linearGradient><marker refX="14.0" refY="7.0" markerUnits="userSpaceOnUse" orient="auto" id="id26" markerHeight="14.0" viewBox="0 0 14.0 14.0" preserveAspectRatio="xMidYMid meet" markerWidth="14.0" overflow="visible"><path fill="#000000" d="M0 0 L14.0 7.0 L0 14.0z" stroke-width="1.0" stroke-linejoin="round" stroke-linecap="round" stroke="#000000"/></marker><filter xlink:actuate="onLoad" xlink:type="simple" id="id27" xlink:show="other" filterUnits="userSpaceOnUse" xmlns:xlink="http://www.w3.org/1999/xlink"><feGaussianBlur stdDeviation="3.0" result="blur" in="SourceAlpha"/><feOffset dx="-4.000000000000001" dy="3.999999999999999" result="offsetBlur" in="blur"/><feComponentTransfer result="componentOffsetBlur" in="offsetBlur"><feFuncR type="linear" intercept="0.0" slope="0"/><feFuncG type="linear" intercept="0.0" slope="0"/><feFuncB type="linear" intercept="0.0" slope="0"/><feFuncA type="linear" intercept="0" slope="0.4"/></feComponentTransfer></filter><linearGradient x1="0%" xmlns:xlink="http://www.w3.org/1999/xlink" y1="0%" x2="0%" y2="100%" xlink:type="simple" xlink:actuate="onLoad" id="id31" xlink:show="other"><stop stop-opacity="1.0" stop-color="#e1d5e7" offset="0%"/><stop stop-opacity="1.0" stop-color="#a680b8" offset="97%"/></linearGradient><linearGradient xlink:actuate="onLoad" xlink:type="simple" id="id33" xlink:show="other" xmlns:xlink="http://www.w3.org/1999/xlink"><stop stop-opacity="1.0" stop-color="#ffffff" offset="0%"/><stop stop-opacity="1.0" stop-color="#cccccc" offset="100%"/></linearGradient><linearGradient xlink:actuate="onLoad" xlink:type="simple" id="id34" xlink:show="other" xmlns:xlink="http://www.w3.org/1999/xlink"><stop stop-opacity="1.0" stop-color="#ffffff" offset="0%"/><stop stop-opacity="1.0" stop-color="#cccccc" offset="100%"/></linearGradient><linearGradient xlink:actuate="onLoad" xlink:type="simple" id="id35" xlink:show="other" xmlns:xlink="http://www.w3.org/1999/xlink"><stop stop-opacity="1.0" stop-color="#ffffff" offset="0%"/><stop stop-opacity="1.0" stop-color="#cccccc" offset="100%"/></linearGradient><linearGradient xlink:actuate="onLoad" xlink:type="simple" id="id36" xlink:show="other" xmlns:xlink="http://www.w3.org/1999/xlink"><stop stop-opacity="1.0" stop-color="#ffffff" offset="0%"/><stop stop-opacity="1.0" stop-color="#cccccc" offset="100%"/></linearGradient><linearGradient xlink:actuate="onLoad" xlink:type="simple" id="id40" xlink:show="other" xmlns:xlink="http://www.w3.org/1999/xlink"><stop stop-opacity="1.0" stop-color="#ffffff" offset="0%"/><stop stop-opacity="1.0" stop-color="#cccccc" offset="100%"/></linearGradient><linearGradient xlink:actuate="onLoad" xlink:type="simple" id="id41" xlink:show="other" xmlns:xlink="http://www.w3.org/1999/xlink"><stop stop-opacity="1.0" stop-color="#ffffff" offset="0%"/><stop stop-opacity="1.0" stop-color="#cccccc" offset="100%"/></linearGradient><linearGradient xlink:actuate="onLoad" xlink:type="simple" id="id43" xlink:show="other" xmlns:xlink="http://www.w3.org/1999/xlink"><stop stop-opacity="1.0" stop-color="#ffffff" offset="0%"/><stop stop-opacity="1.0" stop-color="#cccccc" offset="100%"/></linearGradient><linearGradient xlink:actuate="onLoad" xlink:type="simple" id="id44" xlink:show="other" xmlns:xlink="http://www.w3.org/1999/xlink"><stop stop-opacity="1.0" stop-color="#ffffff" offset="0%"/><stop stop-opacity="1.0" stop-color="#cccccc" offset="100%"/></linearGradient><linearGradient xlink:actuate="onLoad" xlink:type="simple" id="id46" xlink:show="other" xmlns:xlink="http://www.w3.org/1999/xlink"><stop stop-opacity="1.0" stop-color="#ffffff" offset="0%"/><stop stop-opacity="1.0" stop-color="#cccccc" offset="100%"/></linearGradient><linearGradient xlink:actuate="onLoad" xlink:type="simple" id="id47" xlink:show="other" xmlns:xlink="http://www.w3.org/1999/xlink"><stop stop-opacity="1.0" stop-color="#ffffff" offset="0%"/><stop stop-opacity="1.0" stop-color="#cccccc" offset="100%"/></linearGradient><filter xlink:actuate="onLoad" xlink:type="simple" id="id48" xlink:show="other" filterUnits="userSpaceOnUse" xmlns:xlink="http://www.w3.org/1999/xlink"><feGaussianBlur stdDeviation="3.0" result="blur" in="SourceAlpha"/><feOffset dx="4.0" dy="4.0" result="offsetBlur" in="blur"/><feComponentTransfer result="componentOffsetBlur" in="offsetBlur"><feFuncR type="linear" intercept="0.0" slope="0"/><feFuncG type="linear" intercept="0.0" slope="0"/><feFuncB type="linear" intercept="0.0" slope="0"/><feFuncA type="linear" intercept="0" slope="0.4"/></feComponentTransfer></filter><linearGradient x1="0%" xmlns:xlink="http://www.w3.org/1999/xlink" y1="0%" x2="0%" y2="100%" xlink:type="simple" xlink:actuate="onLoad" id="id51" xlink:show="other"><stop stop-opacity="1.0" stop-color="#b6e3dd" offset="0%"/><stop stop-opacity="1.0" stop-color="#50ab9c" offset="100%"/></linearGradient><linearGradient x1="0%" xmlns:xlink="http://www.w3.org/1999/xlink" y1="0%" x2="0%" y2="100%" xlink:type="simple" xlink:actuate="onLoad" id="id53" xlink:show="other"><stop stop-opacity="1.0" stop-color="#b6e3dd" offset="0%"/><stop stop-opacity="1.0" stop-color="#50ab9c" offset="100%"/></linearGradient><linearGradient x1="0%" xmlns:xlink="http://www.w3.org/1999/xlink" y1="0%" x2="0%" y2="100%" xlink:type="simple" xlink:actuate="onLoad" id="id55" xlink:show="other"><stop stop-opacity="1.0" stop-color="#b6e3dd" offset="0%"/><stop stop-opacity="1.0" stop-color="#50ab9c" offset="100%"/></linearGradient><marker refX="14.0" refY="7.0" markerUnits="userSpaceOnUse" orient="auto" id="id57" markerHeight="14.0" viewBox="0 0 14.0 14.0" preserveAspectRatio="xMidYMid meet" markerWidth="14.0" overflow="visible"><path fill="#000000" d="M0 0 L14.0 7.0 L0 14.0z" stroke-width="1.0" stroke-linejoin="round" stroke-linecap="round" stroke="#000000"/></marker><filter xlink:actuate="onLoad" xlink:type="simple" id="id58" xlink:show="other" filterUnits="userSpaceOnUse" xmlns:xlink="http://www.w3.org/1999/xlink"><feGaussianBlur stdDeviation="3.0" result="blur" in="SourceAlpha"/><feOffset dx="4.440892098500626E-16" dy="-5.65685424949238" result="offsetBlur" in="blur"/><feComponentTransfer result="componentOffsetBlur" in="offsetBlur"><feFuncR type="linear" intercept="0.0" slope="0"/><feFuncG type="linear" intercept="0.0" slope="0"/><feFuncB type="linear" intercept="0.0" slope="0"/><feFuncA type="linear" intercept="0" slope="0.4"/></feComponentTransfer></filter><marker refX="14.0" refY="7.0" markerUnits="userSpaceOnUse" orient="auto" id="id61" markerHeight="14.0" viewBox="0 0 14.0 14.0" preserveAspectRatio="xMidYMid meet" markerWidth="14.0" overflow="visible"><path fill="#000000" d="M0 0 L14.0 7.0 L0 14.0z" stroke-width="1.0" stroke-linejoin="round" stroke-linecap="round" stroke="#000000"/></marker><filter xlink:actuate="onLoad" xlink:type="simple" id="id62" xlink:show="other" filterUnits="userSpaceOnUse" xmlns:xlink="http://www.w3.org/1999/xlink"><feGaussianBlur stdDeviation="3.0" result="blur" in="SourceAlpha"/><feOffset dx="5.65685424949238" dy="4.440892098500626E-16" result="offsetBlur" in="blur"/><feComponentTransfer result="componentOffsetBlur" in="offsetBlur"><feFuncR type="linear" intercept="0.0" slope="0"/><feFuncG type="linear" intercept="0.0" slope="0"/><feFuncB type="linear" intercept="0.0" slope="0"/><feFuncA type="linear" intercept="0" slope="0.4"/></feComponentTransfer></filter><marker refX="14.0" refY="7.0" markerUnits="userSpaceOnUse" orient="auto" id="id65" markerHeight="14.0" viewBox="0 0 14.0 14.0" preserveAspectRatio="xMidYMid meet" markerWidth="14.0" overflow="visible"><path fill="#000000" d="M0 0 L14.0 7.0 L0 14.0z" stroke-width="1.0" stroke-linejoin="round" stroke-linecap="round" stroke="#000000"/></marker><filter xlink:actuate="onLoad" xlink:type="simple" id="id66" xlink:show="other" filterUnits="userSpaceOnUse" xmlns:xlink="http://www.w3.org/1999/xlink"><feGaussianBlur stdDeviation="3.0" result="blur" in="SourceAlpha"/><feOffset dx="4.0" dy="4.0" result="offsetBlur" in="blur"/><feComponentTransfer result="componentOffsetBlur" in="offsetBlur"><feFuncR type="linear" intercept="0.0" slope="0"/><feFuncG type="linear" intercept="0.0" slope="0"/><feFuncB type="linear" intercept="0.0" slope="0"/><feFuncA type="linear" intercept="0" slope="0.4"/></feComponentTransfer></filter><marker refX="14.0" refY="7.0" markerUnits="userSpaceOnUse" orient="auto" id="id71" markerHeight="14.0" viewBox="0 0 14.0 14.0" preserveAspectRatio="xMidYMid meet" markerWidth="14.0" overflow="visible"><path fill="none" d="M0 0 L14.0 7.0 L0 14.0" stroke-width="1.0" stroke-linejoin="round" stroke-linecap="round" stroke="#000000"/></marker><filter xlink:actuate="onLoad" xlink:type="simple" id="id72" xlink:show="other" filterUnits="userSpaceOnUse" xmlns:xlink="http://www.w3.org/1999/xlink"><feGaussianBlur stdDeviation="3.0" result="blur" in="SourceAlpha"/><feOffset dx="4.0" dy="4.0" result="offsetBlur" in="blur"/><feComponentTransfer result="componentOffsetBlur" in="offsetBlur"><feFuncR type="linear" intercept="0.0" slope="0"/><feFuncG type="linear" intercept="0.0" slope="0"/><feFuncB type="linear" intercept="0.0" slope="0"/><feFuncA type="linear" intercept="0" slope="0.4"/></feComponentTransfer></filter><marker refX="14.0" refY="7.0" markerUnits="userSpaceOnUse" orient="auto" id="id75" markerHeight="14.0" viewBox="0 0 14.0 14.0" preserveAspectRatio="xMidYMid meet" markerWidth="14.0" overflow="visible"><path fill="none" d="M0 0 L14.0 7.0 L0 14.0" stroke-width="1.0" stroke-linejoin="round" stroke-linecap="round" stroke="#000000"/></marker><filter xlink:actuate="onLoad" xlink:type="simple" id="id76" xlink:show="other" filterUnits="userSpaceOnUse" xmlns:xlink="http://www.w3.org/1999/xlink"><feGaussianBlur stdDeviation="3.0" result="blur" in="SourceAlpha"/><feOffset dx="-1.3322676295501878E-15" dy="5.65685424949238" result="offsetBlur" in="blur"/><feComponentTransfer result="componentOffsetBlur" in="offsetBlur"><feFuncR type="linear" intercept="0.0" slope="0"/><feFuncG type="linear" intercept="0.0" slope="0"/><feFuncB type="linear" intercept="0.0" slope="0"/><feFuncA type="linear" intercept="0" slope="0.4"/></feComponentTransfer></filter><marker refX="0.0" refY="7.0" markerUnits="userSpaceOnUse" orient="auto" id="id79" markerHeight="14.0" viewBox="0 0 14.0 14.0" preserveAspectRatio="xMidYMid meet" markerWidth="14.0" overflow="visible"><path fill="none" d="M14.0 0 L0 7.0 L14.0 14.0" stroke-width="1.0" stroke-linejoin="round" stroke-linecap="round" stroke="#000000"/></marker><filter xlink:actuate="onLoad" xlink:type="simple" id="id80" xlink:show="other" filterUnits="userSpaceOnUse" xmlns:xlink="http://www.w3.org/1999/xlink"><feGaussianBlur stdDeviation="3.0" result="blur" in="SourceAlpha"/><feOffset dx="5.65685424949238" dy="4.440892098500626E-16" result="offsetBlur" in="blur"/><feComponentTransfer result="componentOffsetBlur" in="offsetBlur"><feFuncR type="linear" intercept="0.0" slope="0"/><feFuncG type="linear" intercept="0.0" slope="0"/><feFuncB type="linear" intercept="0.0" slope="0"/><feFuncA type="linear" intercept="0" slope="0.4"/></feComponentTransfer></filter><filter xlink:actuate="onLoad" xlink:type="simple" id="id83" xlink:show="other" filterUnits="userSpaceOnUse" xmlns:xlink="http://www.w3.org/1999/xlink"><feGaussianBlur stdDeviation="3.0" result="blur" in="SourceAlpha"/><feOffset dx="4.0" dy="4.0" result="offsetBlur" in="blur"/><feComponentTransfer result="componentOffsetBlur" in="offsetBlur"><feFuncR type="linear" intercept="0.0" slope="0"/><feFuncG type="linear" intercept="0.0" slope="0"/><feFuncB type="linear" intercept="0.0" slope="0"/><feFuncA type="linear" intercept="0" slope="0.4"/></feComponentTransfer></filter><marker refX="14.0" refY="7.0" markerUnits="userSpaceOnUse" orient="auto" id="id85" markerHeight="14.0" viewBox="0 0 14.0 14.0" preserveAspectRatio="xMidYMid meet" markerWidth="14.0" overflow="visible"><path fill="#000000" d="M0 0 L14.0 7.0 L0 14.0z" stroke-width="1.0" stroke-linejoin="round" stroke-linecap="round" stroke="#000000"/></marker><filter xlink:actuate="onLoad" xlink:type="simple" id="id86" xlink:show="other" filterUnits="userSpaceOnUse" xmlns:xlink="http://www.w3.org/1999/xlink"><feGaussianBlur stdDeviation="3.0" result="blur" in="SourceAlpha"/><feOffset dx="4.0" dy="4.0" result="offsetBlur" in="blur"/><feComponentTransfer result="componentOffsetBlur" in="offsetBlur"><feFuncR type="linear" intercept="0.0" slope="0"/><feFuncG type="linear" intercept="0.0" slope="0"/><feFuncB type="linear" intercept="0.0" slope="0"/><feFuncA type="linear" intercept="0" slope="0.4"/></feComponentTransfer></filter><linearGradient xlink:actuate="onLoad" xlink:type="simple" id="id89" xlink:show="other" xmlns:xlink="http://www.w3.org/1999/xlink"><stop stop-opacity="1.0" stop-color="#ffffff" offset="0%"/><stop stop-opacity="1.0" stop-color="#cccccc" offset="100%"/></linearGradient><linearGradient x1="0%" xmlns:xlink="http://www.w3.org/1999/xlink" y1="0%" x2="0%" y2="100%" xlink:type="simple" xlink:actuate="onLoad" id="id90" xlink:show="other"><stop stop-opacity="1.0" stop-color="#cccccc" offset="0%"/><stop stop-opacity="1.0" stop-color="#ffffff" offset="100%"/></linearGradient></defs><g><g transform="translate(684.0 407.0)"><use xlink:href="#id3" xlink:actuate="onLoad" xlink:type="simple" xlink:show="embed" xmlns:xlink="http://www.w3.org/1999/xlink" filter="url(#id2)"/></g><g transform="translate(407.0 295.0) rotate(270.0 22.5 2.0)"><use xlink:href="#id5" xlink:actuate="onLoad" xlink:type="simple" xlink:show="embed" xmlns:xlink="http://www.w3.org/1999/xlink" filter="url(#id4)"/></g><g transform="translate(484.0 248.0) rotate(180.0 99.99999999999994 10.0)"><use xlink:href="#id10" xlink:actuate="onLoad" xlink:type="simple" xlink:show="embed" xmlns:xlink="http://www.w3.org/1999/xlink" filter="url(#id9)"/></g><g transform="translate(218.35000000000002 229.0)"><use xlink:href="#id18" xlink:actuate="onLoad" xlink:type="simple" xlink:show="embed" xmlns:xlink="http://www.w3.org/1999/xlink" filter="url(#id17)"/></g><g transform="translate(203.0 239.0)"><use xlink:href="#id21" xlink:actuate="onLoad" xlink:type="simple" xlink:show="embed" xmlns:xlink="http://www.w3.org/1999/xlink" filter="url(#id20)"/></g><g transform="translate(897.0 460.0)"><g transform="translate(-13.175000000000182 13.175000000000068) rotate(270.0 23.175000000000125 10.0)"><use xlink:href="#id28" xlink:actuate="onLoad" xlink:type="simple" xlink:show="embed" xmlns:xlink="http://www.w3.org/1999/xlink" filter="url(#id27)"/></g></g><g transform="translate(684.0 170.0)"><use xlink:href="#id49" xlink:actuate="onLoad" xlink:type="simple" xlink:show="embed" xmlns:xlink="http://www.w3.org/1999/xlink" filter="url(#id48)"/></g><g transform="translate(699.1154499151104 186.27499999999998)"><g transform="translate(33.68370019324578 90.76409168081504) rotate(135.0 59.49245027436852 9.685908319185032)"><use xlink:href="#id59" xlink:actuate="onLoad" xlink:type="simple" xlink:show="embed" xmlns:xlink="http://www.w3.org/1999/xlink" filter="url(#id58)"/></g><g transform="translate(167.70067812193872 76.76409168081511) rotate(45.0 59.49245027436854 9.685908319185074)"><use xlink:href="#id63" xlink:actuate="onLoad" xlink:type="simple" xlink:show="embed" xmlns:xlink="http://www.w3.org/1999/xlink" filter="url(#id62)"/></g><g transform="translate(104.96434634974533 133.45000000000005)"><use xlink:href="#id67" xlink:actuate="onLoad" xlink:type="simple" xlink:show="embed" xmlns:xlink="http://www.w3.org/1999/xlink" filter="url(#id66)"/></g><g transform="translate(104.96434634974533 149.45000000000005)"><use xlink:href="#id73" xlink:actuate="onLoad" xlink:type="simple" xlink:show="embed" xmlns:xlink="http://www.w3.org/1999/xlink" filter="url(#id72)"/></g><g transform="translate(42.130372321566206 77.65159168081499) rotate(315.0 59.121250477847866 9.685908319185138)"><use xlink:href="#id77" xlink:actuate="onLoad" xlink:type="simple" xlink:show="embed" xmlns:xlink="http://www.w3.org/1999/xlink" filter="url(#id76)"/></g><g transform="translate(145.57904569815645 77.62659168081484) rotate(45.0 59.20686262102842 9.685908319185032)"><use xlink:href="#id81" xlink:actuate="onLoad" xlink:type="simple" xlink:show="embed" xmlns:xlink="http://www.w3.org/1999/xlink" filter="url(#id80)"/></g></g><g transform="translate(1152.0 332.5595)"><use xlink:href="#id84" xlink:actuate="onLoad" xlink:type="simple" xlink:show="embed" xmlns:xlink="http://www.w3.org/1999/xlink" filter="url(#id83)"/></g><use xlink:href="#id87" xlink:actuate="onLoad" xlink:type="simple" xlink:show="embed" xmlns:xlink="http://www.w3.org/1999/xlink" filter="url(#id86)"/></g><g><g transform="translate(863.0 409.0)"><path fill="url(#id0)" d="M110.0 0.0 L0.0 0.0 L0.0 35.0 L15.0 50.0 L95.0 50.0 L110.0 35.0 L110.0 0.0z" stroke-width="1.0" stroke-linejoin="round" stroke="#358f7f"/><g transform="translate(5.0 5.0)"><clipPath id="id1"><path d="M0 0 L100.0 0 L100.0 40.0 L0 40.0z"/></clipPath><text font-size="14" clip-path="url(#id1)" text-decoration="none" fill="#000000" font-family="Arial,Arial" font-style="normal" font-weight="bold"><tspan x="26.0" xml:space="preserve" y="25.0" textLength="47.0">Logger</tspan></text></g></g><g transform="translate(684.0 407.0)"><path fill-opacity="1.0" fill="#000000" stroke-linejoin="round" id="id3" d="M0.0 0.0 L380.61629881154505 0.0 L380.61629881154505 4.0 L0.0 4.0 L0.0 0.0z" stroke="#000000" stroke-width="1.0"/></g><g transform="translate(407.0 295.0) rotate(270.0 22.5 2.0)"><path fill-opacity="1.0" fill="#000000" stroke-linejoin="round" id="id5" d="M0.0 0.0 L45.0 0.0 L45.0 4.0 L0.0 4.0 L0.0 0.0z" stroke="#000000" stroke-width="1.0"/></g><g transform="translate(374.0 318.0)"><path fill="url(#id6)" d="M25.0 50.0 Q20.02719081550855 50.0 15.432914190872756 48.09698831278217 Q10.838637566236956 46.19397662556434 7.322330470336315 42.67766952966369 Q3.806023374435668 39.161362433763045 1.9030116872178304 34.56708580912725 Q0.0 29.97280918449145 0.0 25.000000000000004 Q0.0 20.02719081550855 1.9030116872178304 15.432914190872758 Q3.8060233744356537 10.838637566236963 7.322330470336308 7.322330470336315 Q10.838637566236956 3.806023374435668 15.432914190872742 1.9030116872178375 Q20.027190815508536 0.0 24.999999999999996 0.0 L85.0 0.0 Q89.97280918449147 0.0 94.56708580912726 1.9030116872178375 Q99.16136243376305 3.806023374435668 102.67766952966369 7.322330470336315 Q106.19397662556435 10.838637566236963 108.09698831278217 15.432914190872758 Q110.0 20.02719081550855 110.0 25.000000000000004 Q110.0 29.97280918449145 108.09698831278217 34.56708580912725 Q106.19397662556433 39.161362433763045 102.67766952966369 42.67766952966369 Q99.16136243376305 46.19397662556434 94.56708580912725 48.09698831278217 Q89.97280918449145 50.0 85.0 50.0 L25.0 50.0z" stroke-width="1.0" stroke-linejoin="round" stroke="#428eea"/><g transform="translate(15.0 5.0)"><clipPath id="id7"><path d="M0 0 L80.0 0 L80.0 40.0 L0 40.0z"/></clipPath><text font-size="14" clip-path="url(#id7)" text-decoration="none" fill="#000000" font-family="Arial,Arial" font-style="normal" font-weight="bold"><tspan x="18.0" xml:space="preserve" y="25.0" textLength="44.0">Config</tspan></text></g></g><g transform="translate(484.0 248.0) rotate(180.0 99.99999999999994 10.0)"><path fill="none" stroke-linejoin="round" id="id10" d="M199.99999999999997 20.0 L0.0 20.0" stroke="#000000" stroke-width="1.0" marker-end="url(#id8)"/><g transform="translate(0.0 0.0)"><clipPath id="id11"><path d="M0 0 L199.9999999999999 0 L199.9999999999999 20.0 L0 20.0z"/></clipPath><text font-size="12" clip-path="url(#id11)" text-decoration="none" fill="#000000" font-family="Times" font-style="normal" font-weight="normal"/></g></g><g transform="translate(485.0 223.0)"><clipPath id="id12"><path d="M0 0 L109.0 0 L109.0 40.0 L0 40.0z"/></clipPath><text font-size="12" clip-path="url(#id12)" text-decoration="none" fill="#000000" font-family="Arial,Arial" font-style="normal" font-weight="bold"><tspan x="2.0" xml:space="preserve" y="13.0" textLength="103.0">Elegir controlador</tspan></text></g><g transform="translate(509.5 257.0)"><clipPath id="id13"><path d="M0 0 L219.0 0 L219.0 40.0 L0 40.0z"/></clipPath><text font-size="12" clip-path="url(#id13)" text-decoration="none" fill="#000000" font-family="Arial,Arial" font-style="normal" font-weight="bold"><tspan x="2.0" xml:space="preserve" y="13.0" textLength="164.0">Delegar a una instancia MVC</tspan></text></g><g transform="translate(373.6500000000001 224.0)"><path fill="url(#id14)" d="M98.0 0.0 L110.0 25.0 L98.0 50.0 L12.0 50.0 L0.0 25.0 L12.0 0.0 L98.0 0.0z" stroke-width="1.0" stroke-linejoin="round" stroke="#7d79c4"/><g transform="translate(12.0 5.0)"><clipPath id="id15"><path d="M0 0 L86.0 0 L86.0 40.0 L0 40.0z"/></clipPath><text font-size="14" clip-path="url(#id15)" text-decoration="none" fill="#000000" font-family="Arial,Arial" font-style="normal" font-weight="bold"><tspan x="20.0" xml:space="preserve" y="25.0" textLength="45.0">Router</tspan></text></g></g><g transform="translate(218.35000000000002 229.0)"><path fill="none" stroke-linejoin="round" id="id18" d="M0.0 20.0 L155.29999999999987 20.0" stroke="#000000" stroke-width="1.0" marker-end="url(#id16)"/><g transform="translate(0.0 0.0)"><clipPath id="id19"><path d="M0 0 L155.30000000000007 0 L155.30000000000007 20.0 L0 20.0z"/></clipPath><text font-size="12" clip-path="url(#id19)" text-decoration="none" fill="#000000" font-family="Arial,Arial" font-style="normal" font-weight="normal"/></g></g><g transform="translate(203.0 239.0)"><path fill-opacity="1.0" fill="#000000" stroke-linejoin="round" id="id21" d="M20.0 10.0 Q20.0 11.98912367379658 19.238795325112868 13.826834323650898 Q18.477590650225736 15.664544973505215 17.071067811865476 17.071067811865476 Q15.664544973505215 18.477590650225736 13.826834323650898 19.238795325112868 Q11.98912367379658 20.0 10.0 20.0 Q8.01087632620342 20.0 6.173165676349103 19.238795325112868 Q4.335455026494785 18.477590650225736 2.9289321881345254 17.071067811865476 Q1.5224093497742643 15.664544973505215 0.7612046748871322 13.8268343236509 Q0.0 11.98912367379658 0.0 10.000000000000002 Q0.0 8.010876326203423 0.7612046748871322 6.173165676349104 Q1.5224093497742643 4.335455026494786 2.9289321881345227 2.9289321881345254 Q4.335455026494783 1.522409349774268 6.173165676349097 0.7612046748871357 Q8.010876326203416 0.0 9.999999999999998 0.0 Q11.98912367379658 0.0 13.8268343236509 0.761204674887134 Q15.664544973505215 1.522409349774266 17.071067811865476 2.9289321881345227 Q18.47759065022573 4.335455026494781 19.238795325112864 6.173165676349096 Q20.0 8.010876326203416 20.0 10.0z" stroke="#000000" stroke-width="1.0"/></g><g transform="translate(172.0 214.0)"><clipPath id="id22"><path d="M0 0 L88.0 0 L88.0 15.0 L0 15.0z"/></clipPath><text font-size="12" clip-path="url(#id22)" text-decoration="none" fill="#000000" font-family="Arial,Arial" font-style="normal" font-weight="bold"><tspan x="2.0" xml:space="preserve" y="13.0" textLength="81.0">Petición HTTP</tspan></text></g><g transform="translate(266.0 222.8345)"><g transform="translate(0.0 0.0)"><path fill="url(#id23)" d="M46.678003 14.078 L32.563 0.0 L6.19 0.0 Q5.19 0.0 5.19 1.0 L5.19 51.331 Q5.19 52.331 6.19 52.331 L45.678 52.331 Q46.678 52.331 46.678 51.331 L46.678 14.078 L46.678003 14.078z" stroke-width="1.0" stroke-linejoin="round" stroke="#000000"/><path fill="#969696" fill-opacity="1.0" d="M20.451 30.3490002 L14.650999800000001 32.7130005 L20.451 35.076999 L20.451 37.150999999999996 L11.845 33.6140015 L11.845 31.811 L20.451 28.273 L20.451 30.3480008 L20.451 30.3490002z" stroke="none"/><path fill="#969696" fill-opacity="1.0" d="M22.356 25.43400003 Q23.953761200000002 24.941 25.928000500000003 24.941 Q30.026999500000002 24.941 30.026999500000002 27.798999799999997 Q30.026999500000002 28.9870377 28.7107497 30.411625 Q27.345153000000003 31.889618 27.255000000000003 32.986 L24.772000400000003 32.986 Q25.869000500000002 30.6984997 26.9660006 28.4109993 Q26.9660006 27.187000299999998 25.095000300000002 27.187000299999998 Q23.6578398 27.187000299999998 22.425000244000003 27.816 L22.356999450700002 25.43499948 L24.583998700000002 34.261002 L27.440999 34.261002 L27.440999 37.016003 L24.583998700000002 37.016003 L24.583998700000002 34.261002" stroke="none"/><path fill="#969696" fill-opacity="1.0" d="M31.506 35.0779995 L37.305999 32.714000999999996 L31.506 30.3500008 L31.506 28.275 L40.111000000000004 31.813 L40.111000000000004 33.616001499999996 L31.506 37.153 L31.506 35.078998999999996 L31.506 35.0779995z" stroke="none"/><path fill="#6c6cf4" fill-opacity="1.0" d="M36.673 18.861 Q36.673 19.861 35.673 19.861 L1.0 19.861 Q0.0 19.861 0.0 18.861 L0.0 7.017 Q0.0 6.017 1.0 6.017 L35.673 6.017 Q36.673 6.017 36.673 7.017 L36.673 18.861999 L36.673 18.861z" stroke-width="1.0" stroke-linejoin="round" stroke="#000000"/><path fill="#ffffff" fill-opacity="1.0" d="M9.756999950700001 10.447999935 L11.402999900000001 10.447999935 L11.402999900000001 11.3809995 Q11.9417352 10.3289995 13.348000500000001 10.3289995 Q15.560001500000002 10.3289995 15.560001500000002 12.9379997 Q15.560001500000002 15.736 13.1990013 15.736 Q12.0246905 15.736 11.562001200000001 14.8929995 L11.5420008 17.7000007 L9.7560005 17.7000007 L9.7560005 10.44800089 L12.633999800000002 11.6979999 Q11.543000200000002 11.6979999 11.543000200000002 13.0480003 Q11.543000200000002 14.3670005 12.633999800000002 14.3670005 Q13.7159995 14.3670005 13.7159995 12.9780006 Q13.7159995 11.6980009 12.633999800000002 11.6980009" stroke="none"/><path fill="#ffffff" fill-opacity="1.0" d="M16.424 8.176 L18.2099993 8.176 L18.2099993 11.2120003 Q18.8675387 10.3289999 19.9559996 10.3289999 Q21.9300005 10.3289999 21.9300005 12.393 L21.9300005 15.617001 L20.144001199999998 15.617001 L20.144001199999998 13.117001 Q20.144001199999998 11.817000700000001 19.3210013 11.817000700000001 Q18.2100012 11.817000700000001 18.2100012 13.4340004 L18.2100012 15.617001 L16.4240019073486 15.617001 L16.4240019073486 8.176 L16.424 8.176z" stroke="none"/><path fill="#ffffff" fill-opacity="1.0" d="M23.001 10.447999935 L24.6479994 10.447999935 L24.6479994 11.3809995 Q25.186733800000003 10.3289995 26.592999000000002 10.3289995 Q28.804999000000002 10.3289995 28.804999000000002 12.9379997 Q28.804999000000002 15.736 26.443999 15.736 Q25.271061500000002 15.736 24.8069998 14.8929995 L24.7869993 17.7000007 L23.001 17.7000007 L23.001 10.44800089 L25.878000800000002 11.6979999 Q24.787001200000002 11.6979999 24.787001200000002 13.0480003 Q24.787001200000002 14.3670005 25.878000800000002 14.3670005 Q26.959000200000002 14.3670005 26.959000200000002 12.9780006 Q26.959000200000002 11.6980009 25.878000800000002 11.6980009" stroke="none"/><path fill="url(#id24)" d="M46.678003 14.144 L33.586 14.144 Q32.586 14.144 32.586 13.144 L32.586 0.0 L46.677999 14.144 L46.678003 14.144z" stroke-width="1.0" stroke-linejoin="round" stroke="#000000"/></g><g transform="translate(10.0 35.0)"><clipPath id="id25"><path d="M0 0 L35.0 0 L35.0 17.331000000000017 L0 17.331000000000017z"/></clipPath><text font-size="12" clip-path="url(#id25)" text-decoration="none" fill="#000000" font-family="Arial,Arial" font-style="italic" font-weight="normal"><tspan x="2.0" xml:space="preserve" y="13.0" textLength="28.0">index</tspan></text></g></g><g transform="translate(897.0 460.0)"><g transform="translate(-13.175000000000182 13.175000000000068) rotate(270.0 23.175000000000125 10.0)"><path fill="none" stroke-linejoin="round" id="id28" d="M46.35000000000025 20.0 L0.0 20.0" stroke="#000000" stroke-width="1.0" marker-end="url(#id26)"/><g transform="translate(0.0 0.0)"><clipPath id="id29"><path d="M0 0 L46.35000000000025 0 L46.35000000000025 20.0 L0 20.0z"/></clipPath><text font-size="12" clip-path="url(#id29)" text-decoration="none" fill="#000000" font-family="Times" font-style="normal" font-weight="normal"/></g></g><g transform="translate(25.0 10.449999999999818)"><clipPath id="id30"><path d="M0 0 L150.0 0 L150.0 40.0 L0 40.0z"/></clipPath><text font-size="12" clip-path="url(#id30)" text-decoration="none" fill="#000000" font-family="Arial,Arial" font-style="normal" font-weight="normal"><tspan x="2.0" xml:space="preserve" y="13.0" textLength="106.0">Registro de eventos</tspan></text></g></g><g transform="translate(731.0 508.0)"><g transform="translate(0.0 0.0)"><path fill="url(#id31)" d="M373.5155 0.0 L0.0 0.0 L0.0 99.0 Q93.378875 109.0 186.75775 99.0 Q280.136625 89.0 373.5155 89.0 L373.5155 0.0z" stroke-width="1.0" stroke-linejoin="round" stroke="#8856a1"/><g transform="translate(5.0 5.0)"><clipPath id="id32"><path d="M0 0 L363.5155 0 L363.5155 86.0 L0 86.0z"/></clipPath><text font-size="14" clip-path="url(#id32)" text-decoration="none" fill="#000000" font-family="Arial,Arial" font-style="normal" font-weight="normal"/></g></g><g transform="translate(16.161499999999933 10.0)"><g transform="translate(0.0 20.435000000000173)"><path fill="url(#id33)" d="M46.677 14.078 L32.562 0.0 L6.19 0.0 Q5.19 0.0 5.19 1.0 L5.19 51.33 Q5.19 52.33 6.19 52.33 L45.677 52.33 Q46.677 52.33 46.677 51.33 L46.677 14.078 L46.677 14.078z" stroke-width="1.0" stroke-linejoin="round" stroke="#000000"/><path fill="#0430ad" fill-opacity="1.0" d="M36.673 18.899 Q36.673 19.899 35.673 19.899 L1.0 19.899 Q0.0 19.899 0.0 18.899 L0.0 7.055 Q0.0 6.055 1.0 6.055 L35.673 6.055 Q36.673 6.055 36.673 7.055 L36.673 18.899999 L36.673 18.899z" stroke-width="1.0" stroke-linejoin="round" stroke="#000000"/><path fill="#ffffff" fill-opacity="1.0" d="M11.109 11.3170008 L12.159999599999999 11.3170008 L12.159999599999999 10.156000500000001 L13.9160002 9.610001 L13.9160002 11.3170008 L15.166 11.3170008 L15.166 12.5670008 L13.9160002 12.5670008 L13.9160002 14.4720005 Q13.9160002 15.4150004 14.629999999999999 15.4150004 Q14.7596662 15.4150004 15.175 15.3450007 L15.2350004 16.506001 Q14.4009254 16.605002 14.114 16.605002 Q12.1299999 16.605002 12.1299999 14.670002400000001 L12.1299999 12.566002300000001 L11.109 12.566002300000001 L11.109 11.316002300000001 L11.109 11.3170008z" stroke="none"/><path fill="#ffffff" fill-opacity="1.0" d="M17.2600005 13.857 L15.64299994 11.317 L17.7560008 11.317 L18.5200007 12.8650003 L19.3240016 11.317 L21.2790015 11.317 L19.662001 13.836999500000001 L21.388001 16.4859997 L19.235001 16.4859997 L18.372 14.8789993 L17.518 16.4859997 L15.504 16.4859997 L17.2600005 13.857 L17.2600005 13.857z" stroke="none"/><path fill="#ffffff" fill-opacity="1.0" d="M21.575 11.3170008 L22.627 11.3170008 L22.627 10.156000500000001 L24.3830006 9.610001 L24.3830006 11.3170008 L25.6330006 11.3170008 L25.6330006 12.5670008 L24.3830006 12.5670008 L24.3830006 14.4720005 Q24.3830006 15.4150004 25.0970013 15.4150004 Q25.225335299999998 15.4150004 25.643000999999998 15.3450007 L25.7030003 16.506001 Q24.8689243 16.605002 24.582 16.605002 Q22.5980007 16.605002 22.5980007 14.670002400000001 L22.5980007 12.566002300000001 L21.576001358 12.566002300000001 L21.576001358 11.316002300000001 L21.575 11.3170008z" stroke="none"/><path fill="#969696" fill-opacity="1.0" d="M11.4179999536743 37.928 L11.4179999536743 38.928 L39.667999 38.928 L39.667999 37.928 L11.417999 37.928 L11.4179999536743 37.928z" stroke="none"/><path fill="#969696" fill-opacity="1.0" d="M11.4179999536743 23.355 L11.4179999536743 24.355 L39.667999 24.355 L39.667999 23.355 L11.417999 23.355 L11.4179999536743 23.355z" stroke="none"/><path fill="#969696" fill-opacity="1.0" d="M11.4179999536743 26.27 L11.4179999536743 27.27 L39.667999 27.27 L39.667999 26.27 L11.417999 26.27 L11.4179999536743 26.27z" stroke="none"/><path fill="#969696" fill-opacity="1.0" d="M11.4179999536743 29.184 L11.4179999536743 30.184 L39.667999 30.184 L39.667999 29.184 L11.417999 29.184 L11.4179999536743 29.184z" stroke="none"/><path fill="#969696" fill-opacity="1.0" d="M11.4179999536743 32.099 L11.4179999536743 33.099 L39.667999 33.099 L39.667999 32.099 L11.417999 32.099 L11.4179999536743 32.099z" stroke="none"/><path fill="#969696" fill-opacity="1.0" d="M11.4179999536743 35.013 L11.4179999536743 36.013 L39.667999 36.013 L39.667999 35.013 L11.417999 35.013 L11.4179999536743 35.013z" stroke="none"/><path fill="#969696" fill-opacity="1.0" d="M11.4179999536743 40.842 L11.4179999536743 41.842 L39.667999 41.842 L39.667999 40.842 L11.417999 40.842 L11.4179999536743 40.842z" stroke="none"/><path fill="#969696" fill-opacity="1.0" d="M11.4179999536743 43.756 L11.4179999536743 44.756 L39.667999 44.756 L39.667999 43.756 L11.417999 43.756 L11.4179999536743 43.756z" stroke="none"/><path fill="url(#id34)" d="M46.676998 14.144 L33.586998 14.144 Q32.586998 14.144 32.586998 13.144 L32.586998 0.0 L46.676998 14.144 L46.676998 14.144z" stroke-width="1.0" stroke-linejoin="round" stroke="#000000"/></g><g transform="translate(72.67699999999996 20.435000000000173)"><path fill="url(#id35)" d="M46.677 14.078 L32.562 0.0 L6.19 0.0 Q5.19 0.0 5.19 1.0 L5.19 51.33 Q5.19 52.33 6.19 52.33 L45.677 52.33 Q46.677 52.33 46.677 51.33 L46.677 14.078 L46.677 14.078z" stroke-width="1.0" stroke-linejoin="round" stroke="#000000"/><path fill="#0430ad" fill-opacity="1.0" d="M36.673 18.899 Q36.673 19.899 35.673 19.899 L1.0 19.899 Q0.0 19.899 0.0 18.899 L0.0 7.055 Q0.0 6.055 1.0 6.055 L35.673 6.055 Q36.673 6.055 36.673 7.055 L36.673 18.899999 L36.673 18.899z" stroke-width="1.0" stroke-linejoin="round" stroke="#000000"/><path fill="#ffffff" fill-opacity="1.0" d="M11.109 11.3170008 L12.159999599999999 11.3170008 L12.159999599999999 10.156000500000001 L13.9160002 9.610001 L13.9160002 11.3170008 L15.166 11.3170008 L15.166 12.5670008 L13.9160002 12.5670008 L13.9160002 14.4720005 Q13.9160002 15.4150004 14.629999999999999 15.4150004 Q14.7596662 15.4150004 15.175 15.3450007 L15.2350004 16.506001 Q14.4009254 16.605002 14.114 16.605002 Q12.1299999 16.605002 12.1299999 14.670002400000001 L12.1299999 12.566002300000001 L11.109 12.566002300000001 L11.109 11.316002300000001 L11.109 11.3170008z" stroke="none"/><path fill="#ffffff" fill-opacity="1.0" d="M17.2600005 13.857 L15.64299994 11.317 L17.7560008 11.317 L18.5200007 12.8650003 L19.3240016 11.317 L21.2790015 11.317 L19.662001 13.836999500000001 L21.388001 16.4859997 L19.235001 16.4859997 L18.372 14.8789993 L17.518 16.4859997 L15.504 16.4859997 L17.2600005 13.857 L17.2600005 13.857z" stroke="none"/><path fill="#ffffff" fill-opacity="1.0" d="M21.575 11.3170008 L22.627 11.3170008 L22.627 10.156000500000001 L24.3830006 9.610001 L24.3830006 11.3170008 L25.6330006 11.3170008 L25.6330006 12.5670008 L24.3830006 12.5670008 L24.3830006 14.4720005 Q24.3830006 15.4150004 25.0970013 15.4150004 Q25.225335299999998 15.4150004 25.643000999999998 15.3450007 L25.7030003 16.506001 Q24.8689243 16.605002 24.582 16.605002 Q22.5980007 16.605002 22.5980007 14.670002400000001 L22.5980007 12.566002300000001 L21.576001358 12.566002300000001 L21.576001358 11.316002300000001 L21.575 11.3170008z" stroke="none"/><path fill="#969696" fill-opacity="1.0" d="M11.4179999536743 37.928 L11.4179999536743 38.928 L39.667999 38.928 L39.667999 37.928 L11.417999 37.928 L11.4179999536743 37.928z" stroke="none"/><path fill="#969696" fill-opacity="1.0" d="M11.4179999536743 23.355 L11.4179999536743 24.355 L39.667999 24.355 L39.667999 23.355 L11.417999 23.355 L11.4179999536743 23.355z" stroke="none"/><path fill="#969696" fill-opacity="1.0" d="M11.4179999536743 26.27 L11.4179999536743 27.27 L39.667999 27.27 L39.667999 26.27 L11.417999 26.27 L11.4179999536743 26.27z" stroke="none"/><path fill="#969696" fill-opacity="1.0" d="M11.4179999536743 29.184 L11.4179999536743 30.184 L39.667999 30.184 L39.667999 29.184 L11.417999 29.184 L11.4179999536743 29.184z" stroke="none"/><path fill="#969696" fill-opacity="1.0" d="M11.4179999536743 32.099 L11.4179999536743 33.099 L39.667999 33.099 L39.667999 32.099 L11.417999 32.099 L11.4179999536743 32.099z" stroke="none"/><path fill="#969696" fill-opacity="1.0" d="M11.4179999536743 35.013 L11.4179999536743 36.013 L39.667999 36.013 L39.667999 35.013 L11.417999 35.013 L11.4179999536743 35.013z" stroke="none"/><path fill="#969696" fill-opacity="1.0" d="M11.4179999536743 40.842 L11.4179999536743 41.842 L39.667999 41.842 L39.667999 40.842 L11.417999 40.842 L11.4179999536743 40.842z" stroke="none"/><path fill="#969696" fill-opacity="1.0" d="M11.4179999536743 43.756 L11.4179999536743 44.756 L39.667999 44.756 L39.667999 43.756 L11.417999 43.756 L11.4179999536743 43.756z" stroke="none"/><path fill="url(#id36)" d="M46.676998 14.144 L33.586998 14.144 Q32.586998 14.144 32.586998 13.144 L32.586998 0.0 L46.676998 14.144 L46.676998 14.144z" stroke-width="1.0" stroke-linejoin="round" stroke="#000000"/></g><g transform="translate(5.6843418860808015E-14 0.4350000000001728)"><clipPath id="id37"><path d="M0 0 L46.676999999999964 0 L46.676999999999964 40.0 L0 40.0z"/></clipPath><text font-size="12" clip-path="url(#id37)" text-decoration="none" fill="#000000" font-family="Arial,Arial" font-style="normal" font-weight="normal"><tspan x="2.0" xml:space="preserve" y="13.0" textLength="39.0">app.log</tspan></text></g><g transform="translate(69.67699999999996 0.4350000000001728)"><clipPath id="id38"><path d="M0 0 L56.999999999999886 0 L56.999999999999886 40.0 L0 40.0z"/></clipPath><text font-size="12" clip-path="url(#id38)" text-decoration="none" fill="#000000" font-family="Arial,Arial" font-style="normal" font-weight="normal"><tspan x="2.0" xml:space="preserve" y="13.0" textLength="51.0">action.log</tspan></text></g><g transform="translate(138.67699999999996 0.4350000000001728)"><clipPath id="id39"><path d="M0 0 L66.67700000000002 0 L66.67700000000002 40.0 L0 40.0z"/></clipPath><text font-size="12" clip-path="url(#id39)" text-decoration="none" fill="#000000" font-family="Arial,Arial" font-style="normal" font-weight="normal"><tspan x="2.0" xml:space="preserve" y="13.0" textLength="61.0">warning.log</tspan></text></g><g transform="translate(145.67699999999996 20.435000000000173)"><path fill="url(#id40)" d="M46.677 14.078 L32.562 0.0 L6.19 0.0 Q5.19 0.0 5.19 1.0 L5.19 51.33 Q5.19 52.33 6.19 52.33 L45.677 52.33 Q46.677 52.33 46.677 51.33 L46.677 14.078 L46.677 14.078z" stroke-width="1.0" stroke-linejoin="round" stroke="#000000"/><path fill="#0430ad" fill-opacity="1.0" d="M36.673 18.899 Q36.673 19.899 35.673 19.899 L1.0 19.899 Q0.0 19.899 0.0 18.899 L0.0 7.055 Q0.0 6.055 1.0 6.055 L35.673 6.055 Q36.673 6.055 36.673 7.055 L36.673 18.899999 L36.673 18.899z" stroke-width="1.0" stroke-linejoin="round" stroke="#000000"/><path fill="#ffffff" fill-opacity="1.0" d="M11.109 11.3170008 L12.159999599999999 11.3170008 L12.159999599999999 10.156000500000001 L13.9160002 9.610001 L13.9160002 11.3170008 L15.166 11.3170008 L15.166 12.5670008 L13.9160002 12.5670008 L13.9160002 14.4720005 Q13.9160002 15.4150004 14.629999999999999 15.4150004 Q14.7596662 15.4150004 15.175 15.3450007 L15.2350004 16.506001 Q14.4009254 16.605002 14.114 16.605002 Q12.1299999 16.605002 12.1299999 14.670002400000001 L12.1299999 12.566002300000001 L11.109 12.566002300000001 L11.109 11.316002300000001 L11.109 11.3170008z" stroke="none"/><path fill="#ffffff" fill-opacity="1.0" d="M17.2600005 13.857 L15.64299994 11.317 L17.7560008 11.317 L18.5200007 12.8650003 L19.3240016 11.317 L21.2790015 11.317 L19.662001 13.836999500000001 L21.388001 16.4859997 L19.235001 16.4859997 L18.372 14.8789993 L17.518 16.4859997 L15.504 16.4859997 L17.2600005 13.857 L17.2600005 13.857z" stroke="none"/><path fill="#ffffff" fill-opacity="1.0" d="M21.575 11.3170008 L22.627 11.3170008 L22.627 10.156000500000001 L24.3830006 9.610001 L24.3830006 11.3170008 L25.6330006 11.3170008 L25.6330006 12.5670008 L24.3830006 12.5670008 L24.3830006 14.4720005 Q24.3830006 15.4150004 25.0970013 15.4150004 Q25.225335299999998 15.4150004 25.643000999999998 15.3450007 L25.7030003 16.506001 Q24.8689243 16.605002 24.582 16.605002 Q22.5980007 16.605002 22.5980007 14.670002400000001 L22.5980007 12.566002300000001 L21.576001358 12.566002300000001 L21.576001358 11.316002300000001 L21.575 11.3170008z" stroke="none"/><path fill="#969696" fill-opacity="1.0" d="M11.4179999536743 37.928 L11.4179999536743 38.928 L39.667999 38.928 L39.667999 37.928 L11.417999 37.928 L11.4179999536743 37.928z" stroke="none"/><path fill="#969696" fill-opacity="1.0" d="M11.4179999536743 23.355 L11.4179999536743 24.355 L39.667999 24.355 L39.667999 23.355 L11.417999 23.355 L11.4179999536743 23.355z" stroke="none"/><path fill="#969696" fill-opacity="1.0" d="M11.4179999536743 26.27 L11.4179999536743 27.27 L39.667999 27.27 L39.667999 26.27 L11.417999 26.27 L11.4179999536743 26.27z" stroke="none"/><path fill="#969696" fill-opacity="1.0" d="M11.4179999536743 29.184 L11.4179999536743 30.184 L39.667999 30.184 L39.667999 29.184 L11.417999 29.184 L11.4179999536743 29.184z" stroke="none"/><path fill="#969696" fill-opacity="1.0" d="M11.4179999536743 32.099 L11.4179999536743 33.099 L39.667999 33.099 L39.667999 32.099 L11.417999 32.099 L11.4179999536743 32.099z" stroke="none"/><path fill="#969696" fill-opacity="1.0" d="M11.4179999536743 35.013 L11.4179999536743 36.013 L39.667999 36.013 L39.667999 35.013 L11.417999 35.013 L11.4179999536743 35.013z" stroke="none"/><path fill="#969696" fill-opacity="1.0" d="M11.4179999536743 40.842 L11.4179999536743 41.842 L39.667999 41.842 L39.667999 40.842 L11.417999 40.842 L11.4179999536743 40.842z" stroke="none"/><path fill="#969696" fill-opacity="1.0" d="M11.4179999536743 43.756 L11.4179999536743 44.756 L39.667999 44.756 L39.667999 43.756 L11.417999 43.756 L11.4179999536743 43.756z" stroke="none"/><path fill="url(#id41)" d="M46.676998 14.144 L33.586998 14.144 Q32.586998 14.144 32.586998 13.144 L32.586998 0.0 L46.676998 14.144 L46.676998 14.144z" stroke-width="1.0" stroke-linejoin="round" stroke="#000000"/></g><g transform="translate(219.67699999999996 0.0)"><clipPath id="id42"><path d="M0 0 L66.67700000000002 0 L66.67700000000002 40.0 L0 40.0z"/></clipPath><text font-size="12" clip-path="url(#id42)" text-decoration="none" fill="#000000" font-family="Arial,Arial" font-style="normal" font-weight="normal"><tspan x="2.0" xml:space="preserve" y="13.0" textLength="44.0">error.log</tspan></text></g><g transform="translate(219.67699999999996 20.0)"><path fill="url(#id43)" d="M46.677 14.078 L32.562 0.0 L6.19 0.0 Q5.19 0.0 5.19 1.0 L5.19 51.33 Q5.19 52.33 6.19 52.33 L45.677 52.33 Q46.677 52.33 46.677 51.33 L46.677 14.078 L46.677 14.078z" stroke-width="1.0" stroke-linejoin="round" stroke="#000000"/><path fill="#0430ad" fill-opacity="1.0" d="M36.673 18.899 Q36.673 19.899 35.673 19.899 L1.0 19.899 Q0.0 19.899 0.0 18.899 L0.0 7.055 Q0.0 6.055 1.0 6.055 L35.673 6.055 Q36.673 6.055 36.673 7.055 L36.673 18.899999 L36.673 18.899z" stroke-width="1.0" stroke-linejoin="round" stroke="#000000"/><path fill="#ffffff" fill-opacity="1.0" d="M11.109 11.3170008 L12.159999599999999 11.3170008 L12.159999599999999 10.156000500000001 L13.9160002 9.610001 L13.9160002 11.3170008 L15.166 11.3170008 L15.166 12.5670008 L13.9160002 12.5670008 L13.9160002 14.4720005 Q13.9160002 15.4150004 14.629999999999999 15.4150004 Q14.7596662 15.4150004 15.175 15.3450007 L15.2350004 16.506001 Q14.4009254 16.605002 14.114 16.605002 Q12.1299999 16.605002 12.1299999 14.670002400000001 L12.1299999 12.566002300000001 L11.109 12.566002300000001 L11.109 11.316002300000001 L11.109 11.3170008z" stroke="none"/><path fill="#ffffff" fill-opacity="1.0" d="M17.2600005 13.857 L15.64299994 11.317 L17.7560008 11.317 L18.5200007 12.8650003 L19.3240016 11.317 L21.2790015 11.317 L19.662001 13.836999500000001 L21.388001 16.4859997 L19.235001 16.4859997 L18.372 14.8789993 L17.518 16.4859997 L15.504 16.4859997 L17.2600005 13.857 L17.2600005 13.857z" stroke="none"/><path fill="#ffffff" fill-opacity="1.0" d="M21.575 11.3170008 L22.627 11.3170008 L22.627 10.156000500000001 L24.3830006 9.610001 L24.3830006 11.3170008 L25.6330006 11.3170008 L25.6330006 12.5670008 L24.3830006 12.5670008 L24.3830006 14.4720005 Q24.3830006 15.4150004 25.0970013 15.4150004 Q25.225335299999998 15.4150004 25.643000999999998 15.3450007 L25.7030003 16.506001 Q24.8689243 16.605002 24.582 16.605002 Q22.5980007 16.605002 22.5980007 14.670002400000001 L22.5980007 12.566002300000001 L21.576001358 12.566002300000001 L21.576001358 11.316002300000001 L21.575 11.3170008z" stroke="none"/><path fill="#969696" fill-opacity="1.0" d="M11.4179999536743 37.928 L11.4179999536743 38.928 L39.667999 38.928 L39.667999 37.928 L11.417999 37.928 L11.4179999536743 37.928z" stroke="none"/><path fill="#969696" fill-opacity="1.0" d="M11.4179999536743 23.355 L11.4179999536743 24.355 L39.667999 24.355 L39.667999 23.355 L11.417999 23.355 L11.4179999536743 23.355z" stroke="none"/><path fill="#969696" fill-opacity="1.0" d="M11.4179999536743 26.27 L11.4179999536743 27.27 L39.667999 27.27 L39.667999 26.27 L11.417999 26.27 L11.4179999536743 26.27z" stroke="none"/><path fill="#969696" fill-opacity="1.0" d="M11.4179999536743 29.184 L11.4179999536743 30.184 L39.667999 30.184 L39.667999 29.184 L11.417999 29.184 L11.4179999536743 29.184z" stroke="none"/><path fill="#969696" fill-opacity="1.0" d="M11.4179999536743 32.099 L11.4179999536743 33.099 L39.667999 33.099 L39.667999 32.099 L11.417999 32.099 L11.4179999536743 32.099z" stroke="none"/><path fill="#969696" fill-opacity="1.0" d="M11.4179999536743 35.013 L11.4179999536743 36.013 L39.667999 36.013 L39.667999 35.013 L11.417999 35.013 L11.4179999536743 35.013z" stroke="none"/><path fill="#969696" fill-opacity="1.0" d="M11.4179999536743 40.842 L11.4179999536743 41.842 L39.667999 41.842 L39.667999 40.842 L11.417999 40.842 L11.4179999536743 40.842z" stroke="none"/><path fill="#969696" fill-opacity="1.0" d="M11.4179999536743 43.756 L11.4179999536743 44.756 L39.667999 44.756 L39.667999 43.756 L11.417999 43.756 L11.4179999536743 43.756z" stroke="none"/><path fill="url(#id44)" d="M46.676998 14.144 L33.586998 14.144 Q32.586998 14.144 32.586998 13.144 L32.586998 0.0 L46.676998 14.144 L46.676998 14.144z" stroke-width="1.0" stroke-linejoin="round" stroke="#000000"/></g><g transform="translate(290.67699999999996 0.0)"><clipPath id="id45"><path d="M0 0 L66.67700000000002 0 L66.67700000000002 40.0 L0 40.0z"/></clipPath><text font-size="12" clip-path="url(#id45)" text-decoration="none" fill="#000000" font-family="Arial,Arial" font-style="normal" font-weight="normal"><tspan x="2.0" xml:space="preserve" y="13.0" textLength="48.0">proxy.log</tspan></text></g><g transform="translate(292.67699999999996 20.0)"><path fill="url(#id46)" d="M46.677 14.078 L32.562 0.0 L6.19 0.0 Q5.19 0.0 5.19 1.0 L5.19 51.33 Q5.19 52.33 6.19 52.33 L45.677 52.33 Q46.677 52.33 46.677 51.33 L46.677 14.078 L46.677 14.078z" stroke-width="1.0" stroke-linejoin="round" stroke="#000000"/><path fill="#0430ad" fill-opacity="1.0" d="M36.673 18.899 Q36.673 19.899 35.673 19.899 L1.0 19.899 Q0.0 19.899 0.0 18.899 L0.0 7.055 Q0.0 6.055 1.0 6.055 L35.673 6.055 Q36.673 6.055 36.673 7.055 L36.673 18.899999 L36.673 18.899z" stroke-width="1.0" stroke-linejoin="round" stroke="#000000"/><path fill="#ffffff" fill-opacity="1.0" d="M11.109 11.3170008 L12.159999599999999 11.3170008 L12.159999599999999 10.156000500000001 L13.9160002 9.610001 L13.9160002 11.3170008 L15.166 11.3170008 L15.166 12.5670008 L13.9160002 12.5670008 L13.9160002 14.4720005 Q13.9160002 15.4150004 14.629999999999999 15.4150004 Q14.7596662 15.4150004 15.175 15.3450007 L15.2350004 16.506001 Q14.4009254 16.605002 14.114 16.605002 Q12.1299999 16.605002 12.1299999 14.670002400000001 L12.1299999 12.566002300000001 L11.109 12.566002300000001 L11.109 11.316002300000001 L11.109 11.3170008z" stroke="none"/><path fill="#ffffff" fill-opacity="1.0" d="M17.2600005 13.857 L15.64299994 11.317 L17.7560008 11.317 L18.5200007 12.8650003 L19.3240016 11.317 L21.2790015 11.317 L19.662001 13.836999500000001 L21.388001 16.4859997 L19.235001 16.4859997 L18.372 14.8789993 L17.518 16.4859997 L15.504 16.4859997 L17.2600005 13.857 L17.2600005 13.857z" stroke="none"/><path fill="#ffffff" fill-opacity="1.0" d="M21.575 11.3170008 L22.627 11.3170008 L22.627 10.156000500000001 L24.3830006 9.610001 L24.3830006 11.3170008 L25.6330006 11.3170008 L25.6330006 12.5670008 L24.3830006 12.5670008 L24.3830006 14.4720005 Q24.3830006 15.4150004 25.0970013 15.4150004 Q25.225335299999998 15.4150004 25.643000999999998 15.3450007 L25.7030003 16.506001 Q24.8689243 16.605002 24.582 16.605002 Q22.5980007 16.605002 22.5980007 14.670002400000001 L22.5980007 12.566002300000001 L21.576001358 12.566002300000001 L21.576001358 11.316002300000001 L21.575 11.3170008z" stroke="none"/><path fill="#969696" fill-opacity="1.0" d="M11.4179999536743 37.928 L11.4179999536743 38.928 L39.667999 38.928 L39.667999 37.928 L11.417999 37.928 L11.4179999536743 37.928z" stroke="none"/><path fill="#969696" fill-opacity="1.0" d="M11.4179999536743 23.355 L11.4179999536743 24.355 L39.667999 24.355 L39.667999 23.355 L11.417999 23.355 L11.4179999536743 23.355z" stroke="none"/><path fill="#969696" fill-opacity="1.0" d="M11.4179999536743 26.27 L11.4179999536743 27.27 L39.667999 27.27 L39.667999 26.27 L11.417999 26.27 L11.4179999536743 26.27z" stroke="none"/><path fill="#969696" fill-opacity="1.0" d="M11.4179999536743 29.184 L11.4179999536743 30.184 L39.667999 30.184 L39.667999 29.184 L11.417999 29.184 L11.4179999536743 29.184z" stroke="none"/><path fill="#969696" fill-opacity="1.0" d="M11.4179999536743 32.099 L11.4179999536743 33.099 L39.667999 33.099 L39.667999 32.099 L11.417999 32.099 L11.4179999536743 32.099z" stroke="none"/><path fill="#969696" fill-opacity="1.0" d="M11.4179999536743 35.013 L11.4179999536743 36.013 L39.667999 36.013 L39.667999 35.013 L11.417999 35.013 L11.4179999536743 35.013z" stroke="none"/><path fill="#969696" fill-opacity="1.0" d="M11.4179999536743 40.842 L11.4179999536743 41.842 L39.667999 41.842 L39.667999 40.842 L11.417999 40.842 L11.4179999536743 40.842z" stroke="none"/><path fill="#969696" fill-opacity="1.0" d="M11.4179999536743 43.756 L11.4179999536743 44.756 L39.667999 44.756 L39.667999 43.756 L11.417999 43.756 L11.4179999536743 43.756z" stroke="none"/><path fill="url(#id47)" d="M46.676998 14.144 L33.586998 14.144 Q32.586998 14.144 32.586998 13.144 L32.586998 0.0 L46.676998 14.144 L46.676998 14.144z" stroke-width="1.0" stroke-linejoin="round" stroke="#000000"/></g></g></g><g transform="translate(684.0 170.0)"><path fill-opacity="1.0" fill="#ffffff" stroke-linejoin="round" id="id49" d="M0.0 0.0 L370.616298811545 0.0 L380.616298811545 10.0 L380.616298811545 233.72500000000002 L0.0 233.72500000000002 L0.0 0.0z" stroke="#000000" stroke-width="1.0"/><path fill="#ffffff" fill-opacity="1.0" d="M370.616298811545 0.0 L380.616298811545 10.0 L370.616298811545 10.0 L370.616298811545 0.0z" stroke-width="1.0" stroke-linejoin="round" stroke="#000000"/><g transform="translate(5.0 0.0)"><clipPath id="id50"><path d="M0 0 L370.616298811545 0 L370.616298811545 233.72500000000002 L0 233.72500000000002z"/></clipPath><text font-size="12" clip-path="url(#id50)" text-decoration="none" fill="#000000" font-family="Times" font-style="normal" font-weight="normal"/></g></g><g transform="translate(699.1154499151104 186.27499999999998)"><g transform="translate(1.8743633276739848 137.45000000000005)"><path fill="url(#id51)" d="M103.08998302207137 50.0 L0.0 50.0 L0.0 0.0 L103.08998302207137 0.0 L103.08998302207137 50.0 L103.08998302207137 50.0z" stroke-width="1.0" stroke-linejoin="round" stroke="#3b9684"/><g transform="translate(5.0 5.0)"><clipPath id="id52"><path d="M0 0 L93.08998302207134 0 L93.08998302207134 40.0 L0 40.0z"/></clipPath><text font-size="14" clip-path="url(#id52)" text-decoration="none" fill="#000000" font-family="Arial,Arial" font-style="normal" font-weight="bold"><tspan x="26.0" xml:space="preserve" y="25.0" textLength="40.0">Model</tspan></text></g></g><g transform="translate(208.05432937181672 137.45000000000005)"><path fill="url(#id53)" d="M103.08998302207152 50.0 L0.0 50.0 L0.0 0.0 L103.08998302207152 0.0 L103.08998302207152 50.0 L103.08998302207152 50.0z" stroke-width="1.0" stroke-linejoin="round" stroke="#3b9684"/><g transform="translate(5.0 5.0)"><clipPath id="id54"><path d="M0 0 L93.08998302207146 0 L93.08998302207146 40.0 L0 40.0z"/></clipPath><text font-size="14" clip-path="url(#id54)" text-decoration="none" fill="#000000" font-family="Arial,Arial" font-style="normal" font-weight="bold"><tspan x="31.0" xml:space="preserve" y="25.0" textLength="31.0">View</tspan></text></g></g><g transform="translate(107.77589134125637 0.0)"><path fill="url(#id55)" d="M103.08998302207135 50.0 L0.0 50.0 L0.0 0.0 L103.08998302207135 0.0 L103.08998302207135 50.0 L103.08998302207135 50.0z" stroke-width="1.0" stroke-linejoin="round" stroke="#3b9684"/><g transform="translate(5.0 5.0)"><clipPath id="id56"><path d="M0 0 L93.08998302207138 0 L93.08998302207138 40.0 L0 40.0z"/></clipPath><text font-size="14" clip-path="url(#id56)" text-decoration="none" fill="#000000" font-family="Arial,Arial" font-style="normal" font-weight="bold"><tspan x="13.0" xml:space="preserve" y="25.0" textLength="66.0">Controller</tspan></text></g></g><g transform="translate(33.68370019324578 90.76409168081504) rotate(135.0 59.49245027436852 9.685908319185032)"><path fill="none" stroke-linejoin="round" id="id59" d="M0.0 19.37181663837006 L118.98490054873706 19.37181663837006" stroke="#000000" stroke-width="1.0" marker-end="url(#id57)"/><g transform="translate(0.0 0.0)"><clipPath id="id60"><path d="M0 0 L118.98490054873704 0 L118.98490054873704 19.371816638370063 L0 19.371816638370063z"/></clipPath><text font-size="12" clip-path="url(#id60)" text-decoration="none" fill="#000000" font-family="Times" font-style="normal" font-weight="normal"/></g></g><g transform="translate(167.70067812193872 76.76409168081511) rotate(45.0 59.49245027436854 9.685908319185074)"><path fill="none" stroke-linejoin="round" id="id63" d="M0.0 19.37181663837015 L118.9849005487371 19.37181663837015" stroke="#000000" stroke-width="1.0" marker-end="url(#id61)"/><g transform="translate(0.0 0.0)"><clipPath id="id64"><path d="M0 0 L118.98490054873707 0 L118.98490054873707 19.37181663837015 L0 19.37181663837015z"/></clipPath><text font-size="12" clip-path="url(#id64)" text-decoration="none" fill="#000000" font-family="Times" font-style="normal" font-weight="normal"/></g></g><g transform="translate(104.96434634974533 133.45000000000005)"><path fill="none" stroke-linejoin="round" id="id67" d="M104.0271646859084 20.0 L0.0 20.0" stroke="#000000" stroke-width="1.0" marker-end="url(#id65)"/><g transform="translate(0.0 0.0)"><clipPath id="id68"><path d="M0 0 L104.02716468590837 0 L104.02716468590837 20.0 L0 20.0z"/></clipPath><text font-size="12" clip-path="url(#id68)" text-decoration="none" fill="#000000" font-family="Arial,Arial" font-style="normal" font-weight="normal"><tspan x="22.0" xml:space="preserve" y="13.0" textLength="60.0">Pedir datos</tspan></text></g></g><g transform="translate(-3.9079850466805517E-14 75.45000000000005)"><clipPath id="id69"><path d="M0 0 L140.57724957555183 0 L140.57724957555183 40.0 L0 40.0z"/></clipPath><text font-size="12" clip-path="url(#id69)" text-decoration="none" fill="#000000" font-family="Arial,Arial" font-style="normal" font-weight="normal"><tspan x="2.0" xml:space="preserve" y="13.0" textLength="85.0">Actualizar datos</tspan></text></g><g transform="translate(224.92359932088294 75.45000000000005)"><clipPath id="id70"><path d="M0 0 L140.57724957555172 0 L140.57724957555172 40.0 L0 40.0z"/></clipPath><text font-size="12" clip-path="url(#id70)" text-decoration="none" fill="#000000" font-family="Arial,Arial" font-style="normal" font-weight="normal"><tspan x="2.0" xml:space="preserve" y="13.0" textLength="124.0">Actualizar presentación</tspan></text></g><g transform="translate(104.96434634974533 149.45000000000005)"><path fill="none" stroke-linejoin="round" stroke-dasharray="3.0 1.0" id="id73" d="M0.0 20.0 L104.02716468590839 20.0" stroke="#000000" stroke-width="1.0" marker-end="url(#id71)"/><g transform="translate(0.0 0.0)"><clipPath id="id74"><path d="M0 0 L104.02716468590837 0 L104.02716468590837 20.0 L0 20.0z"/></clipPath><text font-size="10" clip-path="url(#id74)" text-decoration="none" fill="#000000" font-family="Arial,Arial" font-style="normal" font-weight="normal"/></g></g><g transform="translate(42.130372321566206 77.65159168081499) rotate(315.0 59.121250477847866 9.685908319185138)"><path fill="none" stroke-linejoin="round" stroke-dasharray="3.0 1.0" id="id77" d="M0.0 19.371816638370277 L118.24250095569595 19.371816638370277" stroke="#000000" stroke-width="1.0" marker-end="url(#id75)"/><g transform="translate(0.0 0.0)"><clipPath id="id78"><path d="M0 0 L118.24250095569573 0 L118.24250095569573 19.371816638370277 L0 19.371816638370277z"/></clipPath><text font-size="10" clip-path="url(#id78)" text-decoration="none" fill="#000000" font-family="Arial,Arial" font-style="normal" font-weight="normal"/></g></g><g transform="translate(145.57904569815645 77.62659168081484) rotate(45.0 59.20686262102842 9.685908319185032)"><path fill="none" stroke-linejoin="round" stroke-dasharray="3.0 1.0" id="id81" d="M0.0 19.37181663837006 L118.41372524205687 19.37181663837006" stroke="#000000" marker-start="url(#id79)" stroke-width="1.0"/><g transform="translate(0.0 0.0)"><clipPath id="id82"><path d="M0 0 L118.41372524205684 0 L118.41372524205684 19.371816638370063 L0 19.371816638370063z"/></clipPath><text font-size="12" clip-path="url(#id82)" text-decoration="none" fill="#000000" font-family="Times" font-style="normal" font-weight="normal"/></g></g></g><g transform="translate(1152.0 332.5595)"><path fill-opacity="1.0" fill="#ffffff" stroke-linejoin="round" id="id84" d="M28.115449915110506 15.0 Q28.115449915110506 17.98368551069487 27.045369319513647 20.740251485476342 Q25.975288723916783 23.496817460257823 23.99803760309794 25.606601717798213 Q22.02078648227909 27.716385975338603 19.437383395556886 28.8581929876693 Q16.853980308834664 30.0 14.057724957555255 30.0 Q11.261469606275833 30.0 8.678066519553623 28.8581929876693 Q6.0946634328314095 27.716385975338603 4.117412312012563 25.606601717798213 Q2.1401611911937155 23.496817460257823 1.0700805955968573 20.74025148547635 Q0.0 17.98368551069487 0.0 15.000000000000002 Q0.0 12.016314489305136 1.0700805955968553 9.259748514523654 Q2.140161191193714 6.5031825397421805 4.1174123120125605 4.3933982822017885 Q6.094663432831409 2.283614024661402 8.678066519553612 1.1418070123307018 Q11.261469606275826 0.0 14.057724957555246 0.0 Q16.853980308834668 0.0 19.437383395556886 1.1418070123307 Q22.02078648227909 2.2836140246614 23.998037603097938 4.393398282201785 Q25.97528872391678 6.503182539742172 27.04536931951364 9.259748514523643 Q28.115449915110506 12.016314489305126 28.115449915110506 15.0z" stroke="#000000" stroke-width="1.0"/><path fill="#000000" fill-opacity="1.0" d="M23.429541595925414 15.0 Q23.429541595925414 16.98912367379658 22.71615453219418 18.8268343236509 Q22.00276746846294 20.664544973505215 20.684600054583704 22.071067811865476 Q19.366432640704474 23.477590650225736 17.644163916223 24.238795325112868 Q15.92189519174153 25.0 14.057724957555248 25.0 Q12.193554723368973 25.0 10.471285998887499 24.238795325112868 Q8.749017274406022 23.477590650225736 7.430849860526791 22.071067811865476 Q6.112682446647559 20.664544973505215 5.399295382916322 18.8268343236509 Q4.685908319185084 16.98912367379658 4.685908319185084 15.000000000000002 Q4.685908319185084 13.010876326203423 5.399295382916322 11.173165676349104 Q6.112682446647559 9.335455026494786 7.4308498605267905 7.928932188134525 Q8.749017274406022 6.522409349774268 10.471285998887492 5.761204674887136 Q12.193554723368969 5.0 14.057724957555248 5.0 Q15.92189519174153 5.0 17.644163916223004 5.761204674887134 Q19.366432640704474 6.522409349774266 20.684600054583704 7.928932188134523 Q22.002767468462935 9.335455026494781 22.716154532194174 11.173165676349097 Q23.429541595925414 13.010876326203416 23.429541595925414 15.0z" stroke-width="1.0" stroke-linejoin="round" stroke="#000000"/></g><path fill="none" stroke-linejoin="round" id="id87" d="M1010.1969439728352 347.55949999999996 L1153.0 347.55949999999996" stroke="#000000" stroke-width="1.0" marker-end="url(#id85)"/><g transform="translate(1006.93319524618 327.5595)"><clipPath id="id88"><path d="M0 0 L57.683103565364945 0 L57.683103565364945 20.0 L0 20.0z"/></clipPath><text font-size="12" clip-path="url(#id88)" text-decoration="none" fill="#000000" font-family="Arial,Arial" font-style="normal" font-weight="normal"><tspan x="9.0" xml:space="preserve" y="13.0" textLength="40.0">Mostrar</tspan></text></g><g transform="translate(1079.0 321.0)"><path fill="url(#id89)" d="M43.74482852292015 14.078 L30.516509337860736 0.0 L5.801154499151096 0.0 Q4.863972835314086 0.0 4.863972835314086 1.0 L4.863972835314086 51.331 Q4.863972835314086 52.331 5.801154499151096 52.331 L42.807646859083135 52.331 Q43.74482852292015 52.331 43.74482852292015 51.331 L43.74482852292015 14.078 L43.74482852292015 14.078z" stroke-width="1.0" stroke-linejoin="round" stroke="#000000"/><path fill="#2868ff" fill-opacity="1.0" d="M34.36926315789469 18.899 Q34.36926315789469 19.899 33.43208149405769 19.899 L0.9371816638370105 19.899 Q0.0 19.899 0.0 18.899 L0.0 7.055 Q0.0 6.055 0.9371816638370105 6.055 L33.43208149405769 6.055 Q34.36926315789469 6.055 34.36926315789469 7.055 L34.36926315789469 18.899999 L34.36926315789469 18.899z" stroke-width="1.0" stroke-linejoin="round" stroke="#000000"/><path fill="#ffffff" fill-opacity="1.0" d="M5.520937181663831 9.038 L7.19474391443123 9.038 L7.19474391443123 12.0740003 Q7.810977689643452 11.190999900000001 8.83106328692698 11.190999900000001 Q10.681059891341238 11.190999900000001 10.681059891341238 13.254999999999999 L10.681059891341238 16.479 L9.007253252292006 16.479 L9.007253252292006 13.979 Q9.007253252292006 12.6789998 8.235952742954147 12.6789998 Q7.19474391443123 12.6789998 7.19474391443123 14.2959994 L7.19474391443123 16.479 L5.520937181663831 16.479 L5.520937181663831 9.038 L5.520937181663831 9.038z" stroke="none"/><path fill="#ffffff" fill-opacity="1.0" d="M11.294913369148057 11.310000800000001 L12.279890966383684 11.310000800000001 L12.279890966383684 10.149000500000001 L13.925581593208806 9.603001 L13.925581593208806 11.310000800000001 L15.097058485568734 11.310000800000001 L15.097058485568734 12.560000800000001 L13.925581593208806 12.560000800000001 L13.925581593208806 14.4650005 Q13.925581593208806 15.4080004 14.594729957215595 15.4080004 Q14.716251679456681 15.4080004 15.10549405772493 15.338000700000002 L15.161724395246154 16.499001 Q14.3800445989813 16.598002 14.111143375212201 16.598002 Q12.25177486044141 16.598002 12.25177486044141 14.6630024 L12.25177486044141 12.560000800000001 L11.29491247538199 12.560000800000001 L11.29491247538199 11.310000800000001 L11.294913369148057 11.310000800000001z" stroke="none"/><path fill="#ffffff" fill-opacity="1.0" d="M15.8514906621392 11.310000435000001 L17.376285978947347 11.310000435000001 L17.376285978947347 12.2630005 Q17.877104239049213 11.191 19.161617704584017 11.191 Q20.293579550424425 11.191 20.677040923599293 12.1829996 Q21.235655551782656 11.191 22.39770692699488 11.191 Q24.108063932088257 11.191 24.108063932088257 13.4330006 L24.108063932088257 16.479 L22.434258417657016 16.479 L22.434258417657016 13.701000200000001 Q22.434258417657016 12.6789999 21.765110053650226 12.6789999 Q20.816682865874334 12.6789999 20.816682865874334 14.2959995 L20.816682865874334 16.479 L19.142877257724933 16.479 L19.142877257724933 13.701000200000001 Q19.142877257724933 12.6789999 18.473728893718143 12.6789999 Q17.52530179966042 12.6789999 17.52530179966042 14.2959995 L17.52530179966042 16.479 L15.851496024735791 16.479 L15.851496024735791 11.310000435000001 L15.8514906621392 11.310000435000001z" stroke="none"/><path fill="#ffffff" fill-opacity="1.0" d="M25.344203735144273 9.038 L27.017072817657013 9.038 L27.017072817657013 16.479 L25.344203735144273 16.479 L25.344203735144273 9.038 L25.344203735144273 9.038z" stroke="none"/><path fill="url(#id90)" d="M43.744826648556824 14.144 L31.477118668930345 14.144 Q30.539937005093332 14.144 30.539937005093332 13.144 L30.539937005093332 0.0 L43.744826648556824 14.144 L43.744826648556824 14.144z" stroke-width="1.0" stroke-linejoin="round" stroke="#000000"/><path fill="#969696" fill-opacity="1.0" d="M34.44611205432934 33.263 Q34.44611205432934 38.101421 31.23954405432933 41.523123999999996 Q28.032818607809812 44.944998999999996 23.4979577317487 44.944998999999996 Q18.962935191850573 44.944998999999996 15.756368785059403 41.523498000000004 Q12.549801534804738 38.102001 12.549801534804738 33.263 Q12.549801534804738 28.4240014 15.756368785059403 25.0025003 Q18.962935191850573 21.581001 23.4979577317487 21.581001 Q28.03243998641762 21.581001 31.239193548387057 25.0025003 Q34.44611205432934 28.424173 34.44611205432934 33.263 L34.44611205432934 33.263z" stroke="none"/><path fill="#ffffff" fill-opacity="1.0" d="M28.854886716468556 32.398998 L24.09494057724955 32.398998 L24.09494057724955 27.540998 Q26.265732122241058 27.6271167 28.163245805093347 28.285998839999998 Q28.752362791171443 30.218491999999998 28.854886716468556 32.398998 L28.854886716468556 32.398998z" stroke="none"/><path fill="#ffffff" fill-opacity="1.0" d="M19.171925765704565 24.2 Q18.31712433820032 25.4027817 17.71554461663835 27.0920002 Q16.13316220441424 27.732076 15.004278438030541 28.647000499999997 Q16.414666366044123 25.7049248 19.171925765704565 24.2 L19.171925765704565 24.2z" stroke="none"/><path fill="#ffffff" fill-opacity="1.0" d="M22.68823089983019 23.215 L22.68823089983019 26.0480002 Q21.038463907640036 26.1249884 19.520555938879426 26.505001 Q20.81919807402374 23.778118 22.68823089983019 23.215 L22.68823089983019 23.215z" stroke="none"/><path fill="#ffffff" fill-opacity="1.0" d="M24.09400339558571 26.0419994 L24.09400339558571 23.152 Q26.087103516468556 23.589982560000003 27.475354651273307 26.506 Q25.874321105602682 26.103231 24.09400339558571 26.0419994 L24.09400339558571 26.0419994z" stroke="none"/><path fill="#ffffff" fill-opacity="1.0" d="M31.992572332767356 28.647000000000002 Q30.85672783701184 27.7290598 29.280367566723218 27.0919996 Q28.68061831089979 25.4038855 27.823986417657004 24.199 Q30.581733807809805 25.7049433 31.991631964685865 28.6460005 L31.992572332767356 28.647000000000002z" stroke="none"/><path fill="#ffffff" fill-opacity="1.0" d="M30.25971943456702 32.3989985 Q30.18759608923595 30.639303499999997 29.83142673005089 29.017998 Q32.388287731069575 30.405967999999998 32.91569196061117 32.3989985 L30.25971943456702 32.3989985 L30.25971943456702 32.3989985z" stroke="none"/><path fill="#ffffff" fill-opacity="1.0" d="M22.68823089983019 27.547 L22.68823089983019 32.399001 L18.141962648556856 32.399001 Q18.244402541460083 30.2187644 18.833603531816618 28.286002200000002 Q20.644952760611183 27.6573096 22.68823089983019 27.548001358 L22.68823089983019 27.547z" stroke="none"/><path fill="#ffffff" fill-opacity="1.0" d="M16.73712658471984 32.3989985 L14.082090743633255 32.3989985 Q14.60949497317485 30.4059699 17.16635597419352 29.017998 Q16.80929107232595 30.636861999999997 16.73712658471984 32.3989985 L16.73712658471984 32.3989985z" stroke="none"/><path fill="#ffffff" fill-opacity="1.0" d="M16.730566500509312 33.899 Q16.78778537724955 35.7946604 17.166356067911686 37.5080012 Q14.432191598505922 36.0251864 14.022112054329352 33.899 L16.731504900509314 33.899 L16.730566500509312 33.899z" stroke="none"/><path fill="#ffffff" fill-opacity="1.0" d="M18.136339558573837 33.899 L22.688231274702858 33.899 L22.688231274702858 38.978998000000004 Q20.6460614465195 38.869749 18.834540685365006 38.240999 Q18.215520083327657 36.211282600000004 18.136339558573837 33.899 L18.136339558573837 33.899z" stroke="none"/><path fill="#ffffff" fill-opacity="1.0" d="M24.09400339558571 38.986000000000004 L24.09400339558571 33.899002 L28.86050971273341 33.899002 Q28.779949202037315 36.2110366 28.162308623429507 38.241001000000004 Q26.259977545670594 38.901554000000004 24.09400339558571 38.986000000000004 L24.09400339558571 38.986000000000004z" stroke="none"/><path fill="#ffffff" fill-opacity="1.0" d="M30.26534343361626 33.899 L32.974734499151054 33.899 Q32.56588300033951 36.0261286 29.83049048556872 37.5080012 Q30.209061194974492 35.7946604 30.26628009983018 33.899 L30.26534343361626 33.899z" stroke="none"/><path fill="#ffffff" fill-opacity="1.0" d="M27.824923599320844 42.326999 Q28.68078507300505 41.121242 29.281304748387054 39.4350009 Q30.861499216298764 38.7958102 31.991634213921852 37.881 Q30.58039195110352 40.823318 27.82586205367738 42.3259997 L27.824923599320844 42.326999z" stroke="none"/><path fill="#ffffff" fill-opacity="1.0" d="M24.09400339558571 43.375 L24.09400339558571 40.4850007 Q25.8663898308998 40.42552957 27.47441803191847 40.021 Q26.083519546349713 42.9378053 24.09400339558571 43.375 L24.09400339558571 43.375z" stroke="none"/><path fill="#ffffff" fill-opacity="1.0" d="M22.68823089983019 40.47800073 L22.68823089983019 43.311001000000005 Q20.82093729575549 42.748405500000004 19.520555938879426 40.021 Q21.033049434295386 40.4008256 22.68823089983019 40.47800073 L22.68823089983019 40.47800073z" stroke="none"/><path fill="#ffffff" fill-opacity="1.0" d="M15.005215619694381 37.881 Q16.139027649575535 38.797297900000004 17.715545178947348 39.4350009 Q18.31353718166382 41.1181712 19.171926234295395 42.3259997 Q16.41694418607808 40.8223185 15.005217407226516 37.8819994507 L15.005215619694381 37.881z" stroke="none"/></g></g></svg>