<?xml version="1.0" encoding="utf-8"?>
<svg contentScriptType="text/ecmascript" xmlns:xlink="http://www.w3.org/1999/xlink" zoomAndPan="magnify" contentStyleType="text/css" viewBox="230.0 218.16499999999996 644.3625000000002 385.83500000000004" xmlns:cacoo="http://cacoo.com/" preserveAspectRatio="xMidYMin meet" xmlns="http://www.w3.org/2000/svg" version="1.1"><defs><linearGradient x1="0%" xmlns:xlink="http://www.w3.org/1999/xlink" y1="0%" x2="0%" y2="100%" xlink:type="simple" xlink:actuate="onLoad" id="id0" xlink:show="other"><stop stop-opacity="1.0" stop-color="#cce3df" offset="0%"/><stop stop-opacity="1.0" stop-color="#67ab9f" offset="100%"/></linearGradient><filter xlink:actuate="onLoad" xlink:type="simple" id="id2" xlink:show="other" filterUnits="userSpaceOnUse" xmlns:xlink="http://www.w3.org/1999/xlink"><feGaussianBlur stdDeviation="3.0" result="blur" in="SourceAlpha"/><feOffset dx="4.0" dy="4.0" result="offsetBlur" in="blur"/><feComponentTransfer result="componentOffsetBlur" in="offsetBlur"><feFuncR type="linear" intercept="0.0" slope="0"/><feFuncG type="linear" intercept="0.0" slope="0"/><feFuncB type="linear" intercept="0.0" slope="0"/><feFuncA type="linear" intercept="0" slope="0.4"/></feComponentTransfer></filter><filter xlink:actuate="onLoad" xlink:type="simple" id="id4" xlink:show="other" filterUnits="userSpaceOnUse" xmlns:xlink="http://www.w3.org/1999/xlink"><feGaussianBlur stdDeviation="3.0" result="blur" in="SourceAlpha"/><feOffset dx="-3.999999999999994" dy="4.000000000000006" result="offsetBlur" in="blur"/><feComponentTransfer result="componentOffsetBlur" in="offsetBlur"><feFuncR type="linear" intercept="0.0" slope="0"/><feFuncG type="linear" intercept="0.0" slope="0"/><feFuncB type="linear" intercept="0.0" slope="0"/><feFuncA type="linear" intercept="0" slope="0.4"/></feComponentTransfer></filter><linearGradient x1="0%" xmlns:xlink="http://www.w3.org/1999/xlink" y1="0%" x2="0%" y2="100%" xlink:type="simple" xlink:actuate="onLoad" id="id6" xlink:show="other"><stop stop-opacity="1.0" stop-color="#fadcec" offset="0%"/><stop stop-opacity="1.0" stop-color="#d57ba8" offset="100%"/></linearGradient><marker refX="14.0" refY="7.0" markerUnits="userSpaceOnUse" orient="auto" id="id8" markerHeight="14.0" viewBox="0 0 14.0 14.0" preserveAspectRatio="xMidYMid meet" markerWidth="14.0" overflow="visible"><path fill="#000000" d="M0 0 L14.0 7.0 L0 14.0z" stroke-width="1.0" stroke-linejoin="round" stroke-linecap="round" stroke="#000000"/></marker><filter xlink:actuate="onLoad" xlink:type="simple" id="id9" xlink:show="other" filterUnits="userSpaceOnUse" xmlns:xlink="http://www.w3.org/1999/xlink"><feGaussianBlur stdDeviation="3.0" result="blur" in="SourceAlpha"/><feOffset dx="4.0" dy="4.0" result="offsetBlur" in="blur"/><feComponentTransfer result="componentOffsetBlur" in="offsetBlur"><feFuncR type="linear" intercept="0.0" slope="0"/><feFuncG type="linear" intercept="0.0" slope="0"/><feFuncB type="linear" intercept="0.0" slope="0"/><feFuncA type="linear" intercept="0" slope="0.4"/></feComponentTransfer></filter><marker refX="14.0" refY="7.0" markerUnits="userSpaceOnUse" orient="auto" id="id12" markerHeight="14.0" viewBox="0 0 14.0 14.0" preserveAspectRatio="xMidYMid meet" markerWidth="14.0" overflow="visible"><path fill="none" d="M0 0 L14.0 7.0 L0 14.0" stroke-width="1.0" stroke-linejoin="round" stroke-linecap="round" stroke="#000000"/></marker><filter xlink:actuate="onLoad" xlink:type="simple" id="id13" xlink:show="other" filterUnits="userSpaceOnUse" xmlns:xlink="http://www.w3.org/1999/xlink"><feGaussianBlur stdDeviation="3.0" result="blur" in="SourceAlpha"/><feOffset dx="-3.9999999999999996" dy="-4.000000000000001" result="offsetBlur" in="blur"/><feComponentTransfer result="componentOffsetBlur" in="offsetBlur"><feFuncR type="linear" intercept="0.0" slope="0"/><feFuncG type="linear" intercept="0.0" slope="0"/><feFuncB type="linear" intercept="0.0" slope="0"/><feFuncA type="linear" intercept="0" slope="0.4"/></feComponentTransfer></filter><marker refX="14.0" refY="7.0" markerUnits="userSpaceOnUse" orient="auto" id="id17" markerHeight="14.0" viewBox="0 0 14.0 14.0" preserveAspectRatio="xMidYMid meet" markerWidth="14.0" overflow="visible"><path fill="none" d="M0 0 L14.0 7.0 L0 14.0" stroke-width="1.0" stroke-linejoin="round" stroke-linecap="round" stroke="#000000"/></marker><filter xlink:actuate="onLoad" xlink:type="simple" id="id18" xlink:show="other" filterUnits="userSpaceOnUse" xmlns:xlink="http://www.w3.org/1999/xlink"><feGaussianBlur stdDeviation="3.0" result="blur" in="SourceAlpha"/><feOffset dx="5.462323699802431" dy="1.4707208431842838" result="offsetBlur" in="blur"/><feComponentTransfer result="componentOffsetBlur" in="offsetBlur"><feFuncR type="linear" intercept="0.0" slope="0"/><feFuncG type="linear" intercept="0.0" slope="0"/><feFuncB type="linear" intercept="0.0" slope="0"/><feFuncA type="linear" intercept="0" slope="0.4"/></feComponentTransfer></filter><linearGradient xlink:actuate="onLoad" xlink:type="simple" id="id21" xlink:show="other" xmlns:xlink="http://www.w3.org/1999/xlink"><stop stop-opacity="1.0" stop-color="#ffffff" offset="0%"/><stop stop-opacity="1.0" stop-color="#cccccc" offset="100%"/></linearGradient><linearGradient xlink:actuate="onLoad" xlink:type="simple" id="id22" xlink:show="other" xmlns:xlink="http://www.w3.org/1999/xlink"><stop stop-opacity="1.0" stop-color="#ffffff" offset="0%"/><stop stop-opacity="1.0" stop-color="#cccccc" offset="100%"/></linearGradient><linearGradient xlink:actuate="onLoad" xlink:type="simple" id="id24" xlink:show="other" xmlns:xlink="http://www.w3.org/1999/xlink"><stop stop-opacity="1.0" stop-color="#ffffff" offset="0%"/><stop stop-opacity="1.0" stop-color="#cccccc" offset="100%"/></linearGradient><linearGradient xlink:actuate="onLoad" xlink:type="simple" id="id25" xlink:show="other" xmlns:xlink="http://www.w3.org/1999/xlink"><stop stop-opacity="1.0" stop-color="#ffffff" offset="0%"/><stop stop-opacity="1.0" stop-color="#cccccc" offset="100%"/></linearGradient><filter xlink:actuate="onLoad" xlink:type="simple" id="id27" xlink:show="other" filterUnits="userSpaceOnUse" xmlns:xlink="http://www.w3.org/1999/xlink"><feGaussianBlur stdDeviation="3.0" result="blur" in="SourceAlpha"/><feOffset dx="4.0" dy="4.0" result="offsetBlur" in="blur"/><feComponentTransfer result="componentOffsetBlur" in="offsetBlur"><feFuncR type="linear" intercept="0.0" slope="0"/><feFuncG type="linear" intercept="0.0" slope="0"/><feFuncB type="linear" intercept="0.0" slope="0"/><feFuncA type="linear" intercept="0" slope="0.4"/></feComponentTransfer></filter><linearGradient x1="0%" xmlns:xlink="http://www.w3.org/1999/xlink" y1="0%" x2="0%" y2="100%" xlink:type="simple" xlink:actuate="onLoad" id="id29" xlink:show="other"><stop stop-opacity="1.0" stop-color="#e2eeff" offset="0%"/><stop stop-opacity="1.0" stop-color="#65a1fb" offset="100%"/></linearGradient><linearGradient x1="0%" xmlns:xlink="http://www.w3.org/1999/xlink" y1="0%" x2="0%" y2="100%" xlink:type="simple" xlink:actuate="onLoad" id="id31" xlink:show="other"><stop stop-opacity="1.0" stop-color="#d0d0f0" offset="0%"/><stop stop-opacity="1.0" stop-color="#8986dc" offset="100%"/></linearGradient><marker refX="14.0" refY="7.0" markerUnits="userSpaceOnUse" orient="auto" id="id33" markerHeight="14.0" viewBox="0 0 14.0 14.0" preserveAspectRatio="xMidYMid meet" markerWidth="14.0" overflow="visible"><path fill="#000000" d="M0 0 L14.0 7.0 L0 14.0z" stroke-width="1.0" stroke-linejoin="round" stroke-linecap="round" stroke="#000000"/></marker><filter xlink:actuate="onLoad" xlink:type="simple" id="id34" xlink:show="other" filterUnits="userSpaceOnUse" xmlns:xlink="http://www.w3.org/1999/xlink"><feGaussianBlur stdDeviation="3.0" result="blur" in="SourceAlpha"/><feOffset dx="3.999999999999999" dy="4.000000000000001" result="offsetBlur" in="blur"/><feComponentTransfer result="componentOffsetBlur" in="offsetBlur"><feFuncR type="linear" intercept="0.0" slope="0"/><feFuncG type="linear" intercept="0.0" slope="0"/><feFuncB type="linear" intercept="0.0" slope="0"/><feFuncA type="linear" intercept="0" slope="0.4"/></feComponentTransfer></filter><filter xlink:actuate="onLoad" xlink:type="simple" id="id37" xlink:show="other" filterUnits="userSpaceOnUse" xmlns:xlink="http://www.w3.org/1999/xlink"><feGaussianBlur stdDeviation="3.0" result="blur" in="SourceAlpha"/><feOffset dx="-4.000000000000001" dy="3.999999999999999" result="offsetBlur" in="blur"/><feComponentTransfer result="componentOffsetBlur" in="offsetBlur"><feFuncR type="linear" intercept="0.0" slope="0"/><feFuncG type="linear" intercept="0.0" slope="0"/><feFuncB type="linear" intercept="0.0" slope="0"/><feFuncA type="linear" intercept="0" slope="0.4"/></feComponentTransfer></filter><linearGradient xlink:actuate="onLoad" xlink:type="simple" id="id40" xlink:show="other" xmlns:xlink="http://www.w3.org/1999/xlink"><stop stop-opacity="1.0" stop-color="#ffffff" offset="0%"/><stop stop-opacity="1.0" stop-color="#cccccc" offset="100%"/></linearGradient><linearGradient x1="0%" xmlns:xlink="http://www.w3.org/1999/xlink" y1="0%" x2="0%" y2="100%" xlink:type="simple" xlink:actuate="onLoad" id="id41" xlink:show="other"><stop stop-opacity="1.0" stop-color="#cccccc" offset="0%"/><stop stop-opacity="1.0" stop-color="#ffffff" offset="100%"/></linearGradient><marker refX="14.0" refY="7.0" markerUnits="userSpaceOnUse" orient="auto" id="id43" markerHeight="14.0" viewBox="0 0 14.0 14.0" preserveAspectRatio="xMidYMid meet" markerWidth="14.0" overflow="visible"><path fill="#000000" d="M0 0 L14.0 7.0 L0 14.0z" stroke-width="1.0" stroke-linejoin="round" stroke-linecap="round" stroke="#000000"/></marker><filter xlink:actuate="onLoad" xlink:type="simple" id="id44" xlink:show="other" filterUnits="userSpaceOnUse" xmlns:xlink="http://www.w3.org/1999/xlink"><feGaussianBlur stdDeviation="3.0" result="blur" in="SourceAlpha"/><feOffset dx="-4.000000000000001" dy="3.999999999999999" result="offsetBlur" in="blur"/><feComponentTransfer result="componentOffsetBlur" in="offsetBlur"><feFuncR type="linear" intercept="0.0" slope="0"/><feFuncG type="linear" intercept="0.0" slope="0"/><feFuncB type="linear" intercept="0.0" slope="0"/><feFuncA type="linear" intercept="0" slope="0.4"/></feComponentTransfer></filter><linearGradient x1="0%" xmlns:xlink="http://www.w3.org/1999/xlink" y1="0%" x2="0%" y2="100%" xlink:type="simple" xlink:actuate="onLoad" id="id48" xlink:show="other"><stop stop-opacity="1.0" stop-color="#e1d5e7" offset="0%"/><stop stop-opacity="1.0" stop-color="#a680b8" offset="95%"/></linearGradient></defs><g><g transform="translate(341.8265000000001 424.0)"><use xlink:href="#id3" xlink:actuate="onLoad" xlink:type="simple" xlink:show="embed" xmlns:xlink="http://www.w3.org/1999/xlink" filter="url(#id2)"/></g><g transform="translate(463.50000000000006 303.0) rotate(270.0000000000001 22.5 2.0)"><use xlink:href="#id5" xlink:actuate="onLoad" xlink:type="simple" xlink:show="embed" xmlns:xlink="http://www.w3.org/1999/xlink" filter="url(#id4)"/></g><g transform="translate(532.6375 319.0)"><use xlink:href="#id10" xlink:actuate="onLoad" xlink:type="simple" xlink:show="embed" xmlns:xlink="http://www.w3.org/1999/xlink" filter="url(#id9)"/></g><g transform="translate(535.0 366.0) rotate(180.0 80.18125000000003 10.0)"><use xlink:href="#id14" xlink:actuate="onLoad" xlink:type="simple" xlink:show="embed" xmlns:xlink="http://www.w3.org/1999/xlink" filter="url(#id13)"/></g><g transform="translate(465.3539949499127 450.48337009444737) rotate(29.930580446326285 185.12146260179355 10.0)"><use xlink:href="#id19" xlink:actuate="onLoad" xlink:type="simple" xlink:show="embed" xmlns:xlink="http://www.w3.org/1999/xlink" filter="url(#id18)"/></g><g transform="translate(806.0 549.0)"><use xlink:href="#id28" xlink:actuate="onLoad" xlink:type="simple" xlink:show="embed" xmlns:xlink="http://www.w3.org/1999/xlink" filter="url(#id27)"/></g><g transform="translate(294.19999999999993 332.49999999999994) rotate(360.0 68.15000000000009 10.0)"><use xlink:href="#id35" xlink:actuate="onLoad" xlink:type="simple" xlink:show="embed" xmlns:xlink="http://www.w3.org/1999/xlink" filter="url(#id34)"/></g><g transform="translate(278.5 342.49999999999994) rotate(270.0 10.0 10.0)"><use xlink:href="#id38" xlink:actuate="onLoad" xlink:type="simple" xlink:show="embed" xmlns:xlink="http://www.w3.org/1999/xlink" filter="url(#id37)"/></g><g transform="translate(413.9940000000002 491.5000000000001) rotate(270.0 25.499999999999943 10.0)"><use xlink:href="#id45" xlink:actuate="onLoad" xlink:type="simple" xlink:show="embed" xmlns:xlink="http://www.w3.org/1999/xlink" filter="url(#id44)"/></g></g><g><g transform="translate(394.4940000000001 426.0)"><path fill="url(#id0)" d="M110.0 0.0 L0.0 0.0 L0.0 35.0 L15.0 50.0 L95.0 50.0 L110.0 35.0 L110.0 0.0z" stroke-width="1.0" stroke-linejoin="round" stroke="#358f7f"/><g transform="translate(5.0 5.0)"><clipPath id="id1"><path d="M0 0 L100.0 0 L100.0 40.0 L0 40.0z"/></clipPath><text font-size="14" clip-path="url(#id1)" text-decoration="none" fill="#000000" font-family="Arial,Arial" font-style="normal" font-weight="bold"><tspan x="26.0" xml:space="preserve" y="25.0" textLength="47.0">Logger</tspan></text></g></g><g transform="translate(341.8265000000001 424.0)"><path fill-opacity="1.0" fill="#000000" stroke-linejoin="round" id="id3" d="M0.0 0.0 L199.1734999999998 0.0 L199.1734999999998 4.0 L0.0 4.0 L0.0 0.0z" stroke="#000000" stroke-width="1.0"/></g><g transform="translate(463.50000000000006 303.0) rotate(270.0000000000001 22.5 2.0)"><path fill-opacity="1.0" fill="#000000" stroke-linejoin="round" id="id5" d="M0.0 0.0 L45.0 0.0 L45.0 4.0 L0.0 4.0 L0.0 0.0z" stroke="#000000" stroke-width="1.0"/></g><g transform="translate(695.3625000000002 326.0)"><path fill="url(#id6)" d="M164.00000000000006 43.0 Q164.00000000000006 50.0 157.00000000000006 50.0 L7.0 50.0 Q0.0 50.0 0.0 43.0 L0.0 7.0 Q0.0 0.0 7.0 0.0 L157.00000000000006 0.0 Q164.00000000000006 0.0 164.00000000000006 7.0 L164.00000000000006 43.0 L164.00000000000006 43.0z" stroke-width="1.0" stroke-linejoin="round" stroke="#cc6699"/><g transform="translate(5.0 5.0)"><clipPath id="id7"><path d="M0 0 L154.0 0 L154.0 40.0 L0 40.0z"/></clipPath><text font-size="14" clip-path="url(#id7)" text-decoration="none" fill="#000000" font-family="Arial,Arial" font-style="normal" font-weight="bold"><tspan x="14.0" xml:space="preserve" y="25.0" textLength="126.0">FPGA Web Service</tspan></text></g></g><g transform="translate(532.6375 319.0)"><path fill="none" stroke-linejoin="round" id="id10" d="M0.0 20.0 L162.72500000000028 20.0" stroke="#000000" stroke-width="1.0" marker-end="url(#id8)"/><g transform="translate(0.0 0.0)"><clipPath id="id11"><path d="M0 0 L162.72500000000014 0 L162.72500000000014 20.0 L0 20.0z"/></clipPath><text font-size="10" clip-path="url(#id11)" text-decoration="none" fill="#000000" font-family="Arial,Arial" font-style="normal" font-weight="normal"/></g></g><g transform="translate(535.0 366.0) rotate(180.0 80.18125000000003 10.0)"><path fill="none" stroke-linejoin="round" stroke-dasharray="3.0 1.0" id="id14" d="M0.0 20.0 L160.36250000000015 20.0" stroke="#000000" stroke-width="1.0" marker-end="url(#id12)"/><g transform="translate(0.0 0.0)"><clipPath id="id15"><path d="M0 0 L160.36250000000007 0 L160.36250000000007 20.0 L0 20.0z"/></clipPath><text font-size="12" clip-path="url(#id15)" text-decoration="none" fill="#000000" font-family="Times" font-style="normal" font-weight="normal"/></g></g><g transform="translate(558.0 313.0)"><clipPath id="id16"><path d="M0 0 L100.0 0 L100.0 17.10125000000005 L0 17.10125000000005z"/></clipPath><text font-size="12" clip-path="url(#id16)" text-decoration="none" fill="#000000" font-family="Arial,Arial" font-style="normal" font-weight="bold"><tspan x="2.0" xml:space="preserve" y="13.0" textLength="95.0">Reenvía petición</tspan></text></g><g transform="translate(465.3539949499127 450.48337009444737) rotate(29.930580446326285 185.12146260179355 10.0)"><path fill="none" stroke-linejoin="round" stroke-dasharray="3.0 1.0" id="id19" d="M0.0 20.0 L370.2429252035874 20.0" stroke="#000000" stroke-width="1.0" marker-end="url(#id17)"/><g transform="translate(0.0 0.0)"><clipPath id="id20"><path d="M0 0 L370.2429252035871 0 L370.2429252035871 20.0 L0 20.0z"/></clipPath><text font-size="10" clip-path="url(#id20)" text-decoration="none" fill="#000000" font-family="Arial,Arial" font-style="normal" font-weight="normal"/></g></g><g transform="translate(600.0 352.0)"><g transform="translate(0.0 0.0)"><path fill="url(#id21)" d="M41.489 14.078 L27.374 0.0 L1.0 0.0 Q0.0 0.0 0.0 1.0 L0.0 51.33 Q0.0 52.33 1.0 52.33 L40.489 52.33 Q41.489 52.33 41.489 51.33 L41.489 14.078 L41.489 14.078z" stroke-width="1.0" stroke-linejoin="round" stroke="#000000"/><path fill="url(#id22)" d="M40.488999 14.24 L27.397 14.24 Q26.397 14.24 26.397 13.24 L26.397 0.097 L40.488999 14.24 L40.488999 14.24z" stroke-width="1.0" stroke-linejoin="round" stroke="#000000"/></g><g transform="translate(7.0 21.0)"><clipPath id="id23"><path d="M0 0 L31.489000000000033 0 L31.489000000000033 16.862500000000068 L0 16.862500000000068z"/></clipPath><text font-size="12" clip-path="url(#id23)" text-decoration="none" fill="#000000" font-family="Arial,Arial" font-style="normal" font-weight="normal"><tspan x="2.0" xml:space="preserve" y="13.0" textLength="22.0">json</tspan></text></g></g><g transform="translate(720.3625000000002 496.6700000000001)"><g transform="translate(0.0 0.0)"><path fill="url(#id24)" d="M41.489 14.078 L27.374 0.0 L1.0 0.0 Q0.0 0.0 0.0 1.0 L0.0 51.33 Q0.0 52.33 1.0 52.33 L40.489 52.33 Q41.489 52.33 41.489 51.33 L41.489 14.078 L41.489 14.078z" stroke-width="1.0" stroke-linejoin="round" stroke="#000000"/><path fill="url(#id25)" d="M40.488999 14.24 L27.397 14.24 Q26.397 14.24 26.397 13.24 L26.397 0.097 L40.488999 14.24 L40.488999 14.24z" stroke-width="1.0" stroke-linejoin="round" stroke="#000000"/></g><g transform="translate(7.0 21.0)"><clipPath id="id26"><path d="M0 0 L31.489000000000033 0 L31.489000000000033 16.862500000000068 L0 16.862500000000068z"/></clipPath><text font-size="12" clip-path="url(#id26)" text-decoration="none" fill="#000000" font-family="Arial,Arial" font-style="normal" font-weight="normal"><tspan x="2.0" xml:space="preserve" y="13.0" textLength="22.0">json</tspan></text></g></g><g transform="translate(806.0 549.0)"><path fill-opacity="1.0" fill="#ffffff" stroke-linejoin="round" id="id28" d="M30.0 15.0 Q30.0 17.98368551069487 28.8581929876693 20.740251485476342 Q27.716385975338603 23.496817460257823 25.606601717798213 25.606601717798213 Q23.496817460257823 27.716385975338603 20.74025148547635 28.8581929876693 Q17.98368551069487 30.0 15.000000000000002 30.0 Q12.01631448930513 30.0 9.259748514523654 28.8581929876693 Q6.503182539742177 27.716385975338603 4.3933982822017885 25.606601717798213 Q2.2836140246613983 23.496817460257823 1.1418070123306985 20.74025148547635 Q0.0 17.98368551069487 0.0 15.000000000000002 Q0.0 12.016314489305136 1.1418070123306965 9.259748514523654 Q2.2836140246613965 6.5031825397421805 4.393398282201785 4.3933982822017885 Q6.503182539742175 2.283614024661402 9.259748514523643 1.1418070123307018 Q12.016314489305124 0.0 14.999999999999996 0.0 Q17.983685510694873 0.0 20.74025148547635 1.1418070123307 Q23.496817460257823 2.2836140246614 25.60660171779821 4.393398282201785 Q27.716385975338596 6.503182539742172 28.858192987669295 9.259748514523643 Q30.0 12.016314489305126 30.0 15.0z" stroke="#000000" stroke-width="1.0"/><path fill="#000000" fill-opacity="1.0" d="M25.0 15.0 Q25.0 16.98912367379658 24.238795325112868 18.8268343236509 Q23.477590650225736 20.664544973505215 22.071067811865476 22.071067811865476 Q20.664544973505215 23.477590650225736 18.8268343236509 24.238795325112868 Q16.98912367379658 25.0 15.0 25.0 Q13.01087632620342 25.0 11.173165676349104 24.238795325112868 Q9.335455026494785 23.477590650225736 7.928932188134525 22.071067811865476 Q6.522409349774264 20.664544973505215 5.761204674887132 18.8268343236509 Q5.0 16.98912367379658 5.0 15.000000000000002 Q5.0 13.010876326203423 5.761204674887132 11.173165676349104 Q6.522409349774264 9.335455026494786 7.928932188134523 7.928932188134525 Q9.335455026494783 6.522409349774268 11.173165676349097 5.761204674887136 Q13.010876326203416 5.0 14.999999999999998 5.0 Q16.98912367379658 5.0 18.8268343236509 5.761204674887134 Q20.664544973505215 6.522409349774266 22.071067811865476 7.928932188134523 Q23.47759065022573 9.335455026494781 24.238795325112864 11.173165676349097 Q25.0 13.010876326203416 25.0 15.0z" stroke-width="1.0" stroke-linejoin="round" stroke="#000000"/></g><g transform="translate(431.0 233.16499999999996)"><path fill="url(#id29)" d="M25.0 50.0 Q20.02719081550855 50.0 15.432914190872756 48.09698831278217 Q10.838637566236956 46.19397662556434 7.322330470336315 42.67766952966369 Q3.806023374435668 39.161362433763045 1.9030116872178304 34.56708580912725 Q0.0 29.97280918449145 0.0 25.000000000000004 Q0.0 20.02719081550855 1.9030116872178304 15.432914190872758 Q3.8060233744356537 10.838637566236963 7.322330470336308 7.322330470336315 Q10.838637566236956 3.806023374435668 15.432914190872742 1.9030116872178375 Q20.027190815508536 0.0 24.999999999999996 0.0 L85.0 0.0 Q89.97280918449147 0.0 94.56708580912726 1.9030116872178375 Q99.16136243376305 3.806023374435668 102.67766952966369 7.322330470336315 Q106.19397662556435 10.838637566236963 108.09698831278217 15.432914190872758 Q110.0 20.02719081550855 110.0 25.000000000000004 Q110.0 29.97280918449145 108.09698831278217 34.56708580912725 Q106.19397662556433 39.161362433763045 102.67766952966369 42.67766952966369 Q99.16136243376305 46.19397662556434 94.56708580912725 48.09698831278217 Q89.97280918449145 50.0 85.0 50.0 L25.0 50.0z" stroke-width="1.0" stroke-linejoin="round" stroke="#428eea"/><g transform="translate(15.0 5.0)"><clipPath id="id30"><path d="M0 0 L80.0 0 L80.0 40.0 L0 40.0z"/></clipPath><text font-size="14" clip-path="url(#id30)" text-decoration="none" fill="#000000" font-family="Arial,Arial" font-style="normal" font-weight="bold"><tspan x="18.0" xml:space="preserve" y="25.0" textLength="44.0">Config</tspan></text></g></g><g transform="translate(431.0 327.49999999999994)"><path fill="url(#id31)" d="M98.0 0.0 L110.0 25.0 L98.0 50.0 L12.0 50.0 L0.0 25.0 L12.0 0.0 L98.0 0.0z" stroke-width="1.0" stroke-linejoin="round" stroke="#7d79c4"/><g transform="translate(12.0 5.0)"><clipPath id="id32"><path d="M0 0 L86.0 0 L86.0 40.0 L0 40.0z"/></clipPath><text font-size="14" clip-path="url(#id32)" text-decoration="none" fill="#000000" font-family="Arial,Arial" font-style="normal" font-weight="bold"><tspan x="24.0" xml:space="preserve" y="25.0" textLength="38.0">Proxy</tspan></text></g></g><g transform="translate(294.19999999999993 332.49999999999994) rotate(360.0 68.15000000000009 10.0)"><path fill="none" stroke-linejoin="round" id="id35" d="M0.0 20.0 L136.29999999999995 20.0" stroke="#000000" stroke-width="1.0" marker-end="url(#id33)"/><g transform="translate(0.0 0.0)"><clipPath id="id36"><path d="M0 0 L136.30000000000018 0 L136.30000000000018 20.0 L0 20.0z"/></clipPath><text font-size="12" clip-path="url(#id36)" text-decoration="none" fill="#000000" font-family="Arial,Arial" font-style="normal" font-weight="normal"/></g></g><g transform="translate(278.5 342.49999999999994) rotate(270.0 10.0 10.0)"><path fill-opacity="1.0" fill="#000000" stroke-linejoin="round" id="id38" d="M20.0 10.0 Q20.0 11.98912367379658 19.238795325112868 13.826834323650898 Q18.477590650225736 15.664544973505215 17.071067811865476 17.071067811865476 Q15.664544973505215 18.477590650225736 13.826834323650898 19.238795325112868 Q11.98912367379658 20.0 10.0 20.0 Q8.01087632620342 20.0 6.173165676349103 19.238795325112868 Q4.335455026494785 18.477590650225736 2.9289321881345254 17.071067811865476 Q1.5224093497742643 15.664544973505215 0.7612046748871322 13.8268343236509 Q0.0 11.98912367379658 0.0 10.000000000000002 Q0.0 8.010876326203423 0.7612046748871322 6.173165676349104 Q1.5224093497742643 4.335455026494786 2.9289321881345227 2.9289321881345254 Q4.335455026494783 1.522409349774268 6.173165676349097 0.7612046748871357 Q8.010876326203416 0.0 9.999999999999998 0.0 Q11.98912367379658 0.0 13.8268343236509 0.761204674887134 Q15.664544973505215 1.522409349774266 17.071067811865476 2.9289321881345227 Q18.47759065022573 4.335455026494781 19.238795325112864 6.173165676349096 Q20.0 8.010876326203416 20.0 10.0z" stroke="#000000" stroke-width="1.0"/></g><g transform="translate(245.0 318.0)"><clipPath id="id39"><path d="M0 0 L87.0 0 L87.0 40.0 L0 40.0z"/></clipPath><text font-size="12" clip-path="url(#id39)" text-decoration="none" fill="#000000" font-family="Arial,Arial" font-style="normal" font-weight="bold"><tspan x="2.0" xml:space="preserve" y="13.0" textLength="82.0">Petición AJAX</tspan></text></g><g transform="translate(339.0 328.8220000000001) rotate(90.0 26.16550000000001 23.338999999999942)"><g transform="translate(2.826500000000067 -2.8265000000001237) rotate(270.0 23.338999999999942 26.16550000000001)"><path fill="url(#id40)" d="M46.678003 14.078 L32.563 0.0 L6.19 0.0 Q5.19 0.0 5.19 1.0 L5.19 51.331 Q5.19 52.331 6.19 52.331 L45.678 52.331 Q46.678 52.331 46.678 51.331 L46.678 14.078 L46.678003 14.078z" stroke-width="1.0" stroke-linejoin="round" stroke="#000000"/><path fill="#969696" fill-opacity="1.0" d="M20.451 30.3490002 L14.650999800000001 32.7130005 L20.451 35.076999 L20.451 37.150999999999996 L11.845 33.6140015 L11.845 31.811 L20.451 28.273 L20.451 30.3480008 L20.451 30.3490002z" stroke="none"/><path fill="#969696" fill-opacity="1.0" d="M22.356 25.43400003 Q23.953761200000002 24.941 25.928000500000003 24.941 Q30.026999500000002 24.941 30.026999500000002 27.798999799999997 Q30.026999500000002 28.9870377 28.7107497 30.411625 Q27.345153000000003 31.889618 27.255000000000003 32.986 L24.772000400000003 32.986 Q25.869000500000002 30.6984997 26.9660006 28.4109993 Q26.9660006 27.187000299999998 25.095000300000002 27.187000299999998 Q23.6578398 27.187000299999998 22.425000244000003 27.816 L22.356999450700002 25.43499948 L24.583998700000002 34.261002 L27.440999 34.261002 L27.440999 37.016003 L24.583998700000002 37.016003 L24.583998700000002 34.261002" stroke="none"/><path fill="#969696" fill-opacity="1.0" d="M31.506 35.0779995 L37.305999 32.714000999999996 L31.506 30.3500008 L31.506 28.275 L40.111000000000004 31.813 L40.111000000000004 33.616001499999996 L31.506 37.153 L31.506 35.078998999999996 L31.506 35.0779995z" stroke="none"/><path fill="#6c6cf4" fill-opacity="1.0" d="M36.673 18.861 Q36.673 19.861 35.673 19.861 L1.0 19.861 Q0.0 19.861 0.0 18.861 L0.0 7.017 Q0.0 6.017 1.0 6.017 L35.673 6.017 Q36.673 6.017 36.673 7.017 L36.673 18.861999 L36.673 18.861z" stroke-width="1.0" stroke-linejoin="round" stroke="#000000"/><path fill="#ffffff" fill-opacity="1.0" d="M9.756999950700001 10.447999935 L11.402999900000001 10.447999935 L11.402999900000001 11.3809995 Q11.9417352 10.3289995 13.348000500000001 10.3289995 Q15.560001500000002 10.3289995 15.560001500000002 12.9379997 Q15.560001500000002 15.736 13.1990013 15.736 Q12.0246905 15.736 11.562001200000001 14.8929995 L11.5420008 17.7000007 L9.7560005 17.7000007 L9.7560005 10.44800089 L12.633999800000002 11.6979999 Q11.543000200000002 11.6979999 11.543000200000002 13.0480003 Q11.543000200000002 14.3670005 12.633999800000002 14.3670005 Q13.7159995 14.3670005 13.7159995 12.9780006 Q13.7159995 11.6980009 12.633999800000002 11.6980009" stroke="none"/><path fill="#ffffff" fill-opacity="1.0" d="M16.424 8.176 L18.2099993 8.176 L18.2099993 11.2120003 Q18.8675387 10.3289999 19.9559996 10.3289999 Q21.9300005 10.3289999 21.9300005 12.393 L21.9300005 15.617001 L20.144001199999998 15.617001 L20.144001199999998 13.117001 Q20.144001199999998 11.817000700000001 19.3210013 11.817000700000001 Q18.2100012 11.817000700000001 18.2100012 13.4340004 L18.2100012 15.617001 L16.4240019073486 15.617001 L16.4240019073486 8.176 L16.424 8.176z" stroke="none"/><path fill="#ffffff" fill-opacity="1.0" d="M23.001 10.447999935 L24.6479994 10.447999935 L24.6479994 11.3809995 Q25.186733800000003 10.3289995 26.592999000000002 10.3289995 Q28.804999000000002 10.3289995 28.804999000000002 12.9379997 Q28.804999000000002 15.736 26.443999 15.736 Q25.271061500000002 15.736 24.8069998 14.8929995 L24.7869993 17.7000007 L23.001 17.7000007 L23.001 10.44800089 L25.878000800000002 11.6979999 Q24.787001200000002 11.6979999 24.787001200000002 13.0480003 Q24.787001200000002 14.3670005 25.878000800000002 14.3670005 Q26.959000200000002 14.3670005 26.959000200000002 12.9780006 Q26.959000200000002 11.6980009 25.878000800000002 11.6980009" stroke="none"/><path fill="url(#id41)" d="M46.678003 14.144 L33.586 14.144 Q32.586 14.144 32.586 13.144 L32.586 0.0 L46.677999 14.144 L46.678003 14.144z" stroke-width="1.0" stroke-linejoin="round" stroke="#000000"/></g><g transform="translate(26.16550000000001 10.512499999999818) rotate(270.0 17.5 8.665500000000009)"><clipPath id="id42"><path d="M0 0 L35.0 0 L35.0 17.331000000000017 L0 17.331000000000017z"/></clipPath><text font-size="12" clip-path="url(#id42)" text-decoration="none" fill="#000000" font-family="Arial,Arial" font-style="italic" font-weight="normal"><tspan x="2.0" xml:space="preserve" y="13.0" textLength="29.0">proxy</tspan></text></g></g><g transform="translate(413.9940000000002 491.5000000000001) rotate(270.0 25.499999999999943 10.0)"><path fill="none" stroke-linejoin="round" id="id45" d="M50.999999999999865 20.0 L0.0 20.0" stroke="#000000" stroke-width="1.0" marker-end="url(#id43)"/><g transform="translate(0.0 0.0)"><clipPath id="id46"><path d="M0 0 L50.999999999999886 0 L50.999999999999886 20.0 L0 20.0z"/></clipPath><text font-size="12" clip-path="url(#id46)" text-decoration="none" fill="#000000" font-family="Times" font-style="normal" font-weight="normal"/></g></g><g transform="translate(335.99999999999994 487.0)"><clipPath id="id47"><path d="M0 0 L150.00000000000006 0 L150.00000000000006 40.0 L0 40.0z"/></clipPath><text font-size="12" clip-path="url(#id47)" text-decoration="none" fill="#000000" font-family="Arial,Arial" font-style="normal" font-weight="normal"><tspan x="2.0" xml:space="preserve" y="13.0" textLength="106.0">Registro de eventos</tspan></text></g><g transform="translate(344.0 527.0)"><path fill="url(#id48)" d="M199.17349999999993 0.0 L0.0 0.0 L0.0 55.00000000000002 Q49.79337499999998 65.00000000000003 99.58674999999997 55.00000000000002 Q149.38012499999996 45.00000000000002 199.17349999999993 45.00000000000002 L199.17349999999993 0.0z" stroke-width="1.0" stroke-linejoin="round" stroke="#8856a1"/><g transform="translate(5.0 5.0)"><clipPath id="id49"><path d="M0 0 L189.17349999999988 0 L189.17349999999988 42.0 L0 42.0z"/></clipPath><text font-size="14" clip-path="url(#id49)" text-decoration="none" fill="#000000" font-family="Arial,Arial" font-style="normal" font-weight="normal"/></g></g><g transform="translate(351.9280625000002 531.0)"><clipPath id="id50"><path d="M0 0 L178.97037499999982 0 L178.97037499999982 52.782499999999914 L0 52.782499999999914z"/></clipPath><text font-size="12" clip-path="url(#id50)" text-decoration="none" fill="#000000" font-family="Arial,Arial" font-style="italic" font-weight="normal"><tspan x="2.0" xml:space="preserve" y="13.0" textLength="172.0">app.log  action.log  warning.log  </tspan></text><text font-size="12" clip-path="url(#id50)" text-decoration="none" fill="#000000" font-family="Arial,Arial" font-style="normal" font-weight="normal"/><text font-size="12" clip-path="url(#id50)" text-decoration="none" fill="#000000" font-family="Arial,Arial" font-style="italic" font-weight="normal"><tspan x="2.0" xml:space="preserve" y="41.0" textLength="100.0">error.log  proxy.log</tspan></text></g></g></svg>