<?xml version="1.0" encoding="utf-8"?>
<svg contentScriptType="text/ecmascript" xmlns:xlink="http://www.w3.org/1999/xlink" zoomAndPan="magnify" contentStyleType="text/css" viewBox="38.0 101.5 810.0 519.5" xmlns:cacoo="http://cacoo.com/" preserveAspectRatio="xMidYMin meet" xmlns="http://www.w3.org/2000/svg" version="1.1"><defs><linearGradient x1="0%" xmlns:xlink="http://www.w3.org/1999/xlink" y1="0%" x2="0%" y2="100%" xlink:type="simple" xlink:actuate="onLoad" id="id0" xlink:show="other"><stop stop-opacity="1.0" stop-color="#ffffff" offset="0%"/><stop stop-opacity="1.0" stop-color="#999999" offset="100%"/></linearGradient><linearGradient x1="0%" xmlns:xlink="http://www.w3.org/1999/xlink" y1="0%" x2="0%" y2="100%" xlink:type="simple" xlink:actuate="onLoad" id="id2" xlink:show="other"><stop stop-opacity="1.0" stop-color="#ffffff" offset="0%"/><stop stop-opacity="1.0" stop-color="#97d077" offset="100%"/></linearGradient><linearGradient x1="0%" xmlns:xlink="http://www.w3.org/1999/xlink" y1="0%" x2="0%" y2="100%" xlink:type="simple" xlink:actuate="onLoad" id="id4" xlink:show="other"><stop stop-opacity="1.0" stop-color="#ffffff" offset="0%"/><stop stop-opacity="1.0" stop-color="#97d077" offset="100%"/></linearGradient><linearGradient x1="0%" xmlns:xlink="http://www.w3.org/1999/xlink" y1="0%" x2="0%" y2="100%" xlink:type="simple" xlink:actuate="onLoad" id="id6" xlink:show="other"><stop stop-opacity="1.0" stop-color="#ffffff" offset="0%"/><stop stop-opacity="1.0" stop-color="#97d077" offset="100%"/></linearGradient><linearGradient x1="0%" xmlns:xlink="http://www.w3.org/1999/xlink" y1="0%" x2="0%" y2="100%" xlink:type="simple" xlink:actuate="onLoad" id="id8" xlink:show="other"><stop stop-opacity="1.0" stop-color="#ffffff" offset="0%"/><stop stop-opacity="1.0" stop-color="#97d077" offset="100%"/></linearGradient><linearGradient x1="0%" xmlns:xlink="http://www.w3.org/1999/xlink" y1="0%" x2="0%" y2="100%" xlink:type="simple" xlink:actuate="onLoad" id="id10" xlink:show="other"><stop stop-opacity="1.0" stop-color="#ffffff" offset="0%"/><stop stop-opacity="1.0" stop-color="#7ea6e0" offset="100%"/></linearGradient><linearGradient x1="0%" xmlns:xlink="http://www.w3.org/1999/xlink" y1="0%" x2="0%" y2="100%" xlink:type="simple" xlink:actuate="onLoad" id="id12" xlink:show="other"><stop stop-opacity="1.0" stop-color="#ffffff" offset="0%"/><stop stop-opacity="1.0" stop-color="#7ea6e0" offset="100%"/></linearGradient><linearGradient x1="0%" xmlns:xlink="http://www.w3.org/1999/xlink" y1="0%" x2="0%" y2="100%" xlink:type="simple" xlink:actuate="onLoad" id="id14" xlink:show="other"><stop stop-opacity="1.0" stop-color="#ffffff" offset="0%"/><stop stop-opacity="1.0" stop-color="#7ea6e0" offset="100%"/></linearGradient><linearGradient x1="0%" xmlns:xlink="http://www.w3.org/1999/xlink" y1="0%" x2="0%" y2="100%" xlink:type="simple" xlink:actuate="onLoad" id="id16" xlink:show="other"><stop stop-opacity="1.0" stop-color="#ffffff" offset="0%"/><stop stop-opacity="1.0" stop-color="#ea6b66" offset="100%"/></linearGradient><linearGradient x1="0%" xmlns:xlink="http://www.w3.org/1999/xlink" y1="0%" x2="0%" y2="100%" xlink:type="simple" xlink:actuate="onLoad" id="id18" xlink:show="other"><stop stop-opacity="1.0" stop-color="#ffffff" offset="0%"/><stop stop-opacity="1.0" stop-color="#97d077" offset="100%"/></linearGradient><linearGradient x1="0%" xmlns:xlink="http://www.w3.org/1999/xlink" y1="0%" x2="0%" y2="100%" xlink:type="simple" xlink:actuate="onLoad" id="id20" xlink:show="other"><stop stop-opacity="1.0" stop-color="#ffffff" offset="0%"/><stop stop-opacity="1.0" stop-color="#97d077" offset="100%"/></linearGradient><linearGradient x1="0%" xmlns:xlink="http://www.w3.org/1999/xlink" y1="0%" x2="0%" y2="100%" xlink:type="simple" xlink:actuate="onLoad" id="id22" xlink:show="other"><stop stop-opacity="1.0" stop-color="#ffffff" offset="0%"/><stop stop-opacity="1.0" stop-color="#97d077" offset="100%"/></linearGradient><linearGradient x1="0%" xmlns:xlink="http://www.w3.org/1999/xlink" y1="0%" x2="0%" y2="100%" xlink:type="simple" xlink:actuate="onLoad" id="id24" xlink:show="other"><stop stop-opacity="1.0" stop-color="#ffffff" offset="0%"/><stop stop-opacity="1.0" stop-color="#97d077" offset="100%"/></linearGradient><linearGradient x1="0%" xmlns:xlink="http://www.w3.org/1999/xlink" y1="0%" x2="0%" y2="100%" xlink:type="simple" xlink:actuate="onLoad" id="id26" xlink:show="other"><stop stop-opacity="1.0" stop-color="#ffffff" offset="0%"/><stop stop-opacity="1.0" stop-color="#a680b8" offset="100%"/></linearGradient><linearGradient x1="0%" xmlns:xlink="http://www.w3.org/1999/xlink" y1="0%" x2="0%" y2="100%" xlink:type="simple" xlink:actuate="onLoad" id="id28" xlink:show="other"><stop stop-opacity="1.0" stop-color="#ffffff" offset="0%"/><stop stop-opacity="1.0" stop-color="#a680b8" offset="100%"/></linearGradient><linearGradient x1="0%" xmlns:xlink="http://www.w3.org/1999/xlink" y1="0%" x2="0%" y2="100%" xlink:type="simple" xlink:actuate="onLoad" id="id30" xlink:show="other"><stop stop-opacity="1.0" stop-color="#ffffff" offset="0%"/><stop stop-opacity="1.0" stop-color="#a680b8" offset="100%"/></linearGradient><linearGradient x1="0%" xmlns:xlink="http://www.w3.org/1999/xlink" y1="0%" x2="0%" y2="100%" xlink:type="simple" xlink:actuate="onLoad" id="id32" xlink:show="other"><stop stop-opacity="1.0" stop-color="#ffffff" offset="0%"/><stop stop-opacity="1.0" stop-color="#a680b8" offset="100%"/></linearGradient><linearGradient x1="0%" xmlns:xlink="http://www.w3.org/1999/xlink" y1="0%" x2="0%" y2="100%" xlink:type="simple" xlink:actuate="onLoad" id="id34" xlink:show="other"><stop stop-opacity="1.0" stop-color="#ffffff" offset="0%"/><stop stop-opacity="1.0" stop-color="#a680b8" offset="100%"/></linearGradient><linearGradient x1="0%" xmlns:xlink="http://www.w3.org/1999/xlink" y1="0%" x2="0%" y2="100%" xlink:type="simple" xlink:actuate="onLoad" id="id36" xlink:show="other"><stop stop-opacity="1.0" stop-color="#ffffff" offset="0%"/><stop stop-opacity="1.0" stop-color="#ea6b66" offset="100%"/></linearGradient><linearGradient x1="0%" xmlns:xlink="http://www.w3.org/1999/xlink" y1="0%" x2="0%" y2="100%" xlink:type="simple" xlink:actuate="onLoad" id="id38" xlink:show="other"><stop stop-opacity="1.0" stop-color="#ffffff" offset="0%"/><stop stop-opacity="1.0" stop-color="#ffd966" offset="100%"/></linearGradient><linearGradient x1="0%" xmlns:xlink="http://www.w3.org/1999/xlink" y1="0%" x2="0%" y2="100%" xlink:type="simple" xlink:actuate="onLoad" id="id40" xlink:show="other"><stop stop-opacity="1.0" stop-color="#ffffff" offset="0%"/><stop stop-opacity="1.0" stop-color="#ffd966" offset="100%"/></linearGradient><linearGradient x1="0%" xmlns:xlink="http://www.w3.org/1999/xlink" y1="0%" x2="0%" y2="100%" xlink:type="simple" xlink:actuate="onLoad" id="id42" xlink:show="other"><stop stop-opacity="1.0" stop-color="#ffffff" offset="0%"/><stop stop-opacity="1.0" stop-color="#ffd966" offset="100%"/></linearGradient><linearGradient x1="0%" xmlns:xlink="http://www.w3.org/1999/xlink" y1="0%" x2="0%" y2="100%" xlink:type="simple" xlink:actuate="onLoad" id="id44" xlink:show="other"><stop stop-opacity="1.0" stop-color="#ffffff" offset="0%"/><stop stop-opacity="1.0" stop-color="#ffd966" offset="100%"/></linearGradient><linearGradient x1="0%" xmlns:xlink="http://www.w3.org/1999/xlink" y1="0%" x2="0%" y2="100%" xlink:type="simple" xlink:actuate="onLoad" id="id46" xlink:show="other"><stop stop-opacity="1.0" stop-color="#ffffff" offset="0%"/><stop stop-opacity="1.0" stop-color="#ffd966" offset="100%"/></linearGradient><linearGradient x1="0%" xmlns:xlink="http://www.w3.org/1999/xlink" y1="0%" x2="0%" y2="100%" xlink:type="simple" xlink:actuate="onLoad" id="id48" xlink:show="other"><stop stop-opacity="1.0" stop-color="#ffffff" offset="0%"/><stop stop-opacity="1.0" stop-color="#a680b8" offset="100%"/></linearGradient><linearGradient x1="0%" xmlns:xlink="http://www.w3.org/1999/xlink" y1="0%" x2="0%" y2="100%" xlink:type="simple" xlink:actuate="onLoad" id="id50" xlink:show="other"><stop stop-opacity="1.0" stop-color="#ffffff" offset="0%"/><stop stop-opacity="1.0" stop-color="#a680b8" offset="100%"/></linearGradient><linearGradient x1="0%" xmlns:xlink="http://www.w3.org/1999/xlink" y1="0%" x2="0%" y2="100%" xlink:type="simple" xlink:actuate="onLoad" id="id52" xlink:show="other"><stop stop-opacity="1.0" stop-color="#ffffff" offset="0%"/><stop stop-opacity="1.0" stop-color="#a680b8" offset="100%"/></linearGradient><linearGradient x1="0%" xmlns:xlink="http://www.w3.org/1999/xlink" y1="0%" x2="0%" y2="100%" xlink:type="simple" xlink:actuate="onLoad" id="id54" xlink:show="other"><stop stop-opacity="1.0" stop-color="#ffffff" offset="0%"/><stop stop-opacity="1.0" stop-color="#a680b8" offset="100%"/></linearGradient><linearGradient x1="0%" xmlns:xlink="http://www.w3.org/1999/xlink" y1="0%" x2="0%" y2="100%" xlink:type="simple" xlink:actuate="onLoad" id="id56" xlink:show="other"><stop stop-opacity="1.0" stop-color="#ffffff" offset="0%"/><stop stop-opacity="1.0" stop-color="#a680b8" offset="100%"/></linearGradient><linearGradient x1="0%" xmlns:xlink="http://www.w3.org/1999/xlink" y1="0%" x2="0%" y2="100%" xlink:type="simple" xlink:actuate="onLoad" id="id58" xlink:show="other"><stop stop-opacity="1.0" stop-color="#ffffff" offset="0%"/><stop stop-opacity="1.0" stop-color="#ffd966" offset="100%"/></linearGradient><linearGradient x1="0%" xmlns:xlink="http://www.w3.org/1999/xlink" y1="0%" x2="0%" y2="100%" xlink:type="simple" xlink:actuate="onLoad" id="id60" xlink:show="other"><stop stop-opacity="1.0" stop-color="#ffffff" offset="0%"/><stop stop-opacity="1.0" stop-color="#97d077" offset="100%"/></linearGradient><linearGradient x1="0%" xmlns:xlink="http://www.w3.org/1999/xlink" y1="0%" x2="0%" y2="100%" xlink:type="simple" xlink:actuate="onLoad" id="id62" xlink:show="other"><stop stop-opacity="1.0" stop-color="#ffffff" offset="0%"/><stop stop-opacity="1.0" stop-color="#ea6b66" offset="100%"/></linearGradient><linearGradient x1="0%" xmlns:xlink="http://www.w3.org/1999/xlink" y1="0%" x2="0%" y2="100%" xlink:type="simple" xlink:actuate="onLoad" id="id64" xlink:show="other"><stop stop-opacity="1.0" stop-color="#ffffff" offset="0%"/><stop stop-opacity="1.0" stop-color="#a680b8" offset="100%"/></linearGradient><linearGradient x1="0%" xmlns:xlink="http://www.w3.org/1999/xlink" y1="0%" x2="0%" y2="100%" xlink:type="simple" xlink:actuate="onLoad" id="id66" xlink:show="other"><stop stop-opacity="1.0" stop-color="#ffffff" offset="0%"/><stop stop-opacity="1.0" stop-color="#7ea6e0" offset="100%"/></linearGradient><filter xlink:actuate="onLoad" xlink:type="simple" id="id69" xlink:show="other" filterUnits="userSpaceOnUse" xmlns:xlink="http://www.w3.org/1999/xlink"><feGaussianBlur stdDeviation="3.0" result="blur" in="SourceAlpha"/><feOffset dx="4.0" dy="4.0" result="offsetBlur" in="blur"/><feComponentTransfer result="componentOffsetBlur" in="offsetBlur"><feFuncR type="linear" intercept="0.0" slope="0"/><feFuncG type="linear" intercept="0.0" slope="0"/><feFuncB type="linear" intercept="0.0" slope="0"/><feFuncA type="linear" intercept="0" slope="0.4"/></feComponentTransfer></filter></defs><g><use xlink:href="#id70" xlink:actuate="onLoad" xlink:type="simple" xlink:show="embed" xmlns:xlink="http://www.w3.org/1999/xlink" filter="url(#id69)"/></g><g><a xlink:href="http://cacoo.com" xlink:actuate="onRequest" xlink:type="simple" xlink:show="replace" xmlns:xlink="http://www.w3.org/1999/xlink"><g transform="translate(443.0 116.5)"><path fill="url(#id0)" d="M74.99999999999994 34.999999999999986 L0.0 34.999999999999986 L0.0 0.0 L74.99999999999994 0.0 L74.99999999999994 34.999999999999986z" stroke-width="1.0" stroke-linejoin="round" stroke="#666666"/><g transform="translate(1.0 1.0)"><clipPath id="id1"><path d="M0 0 L73.0 0 L73.0 33.0 L0 33.0z"/></clipPath><text font-size="18" clip-path="url(#id1)" text-decoration="none" fill="#000000" font-family="Arial,Arial" font-style="normal" font-weight="bold"><tspan x="34.0" xml:space="preserve" y="22.5" textLength="5.0">/</tspan></text></g></g></a><g transform="translate(480.5 272.0)"><path fill="url(#id2)" d="M86.49999999999994 28.0 L0.0 28.0 L0.0 0.0 L86.49999999999994 0.0 L86.49999999999994 28.0z" stroke-width="1.0" stroke-linejoin="round" stroke="#74c14a"/><g transform="translate(1.0 1.0)"><clipPath id="id3"><path d="M0 0 L84.5 0 L84.5 26.0 L0 26.0z"/></clipPath><text font-size="13" clip-path="url(#id3)" text-decoration="none" fill="#000000" font-family="Arial,Arial" font-style="normal" font-weight="bold"><tspan x="33.0" xml:space="preserve" y="17.5" textLength="18.0">/all</tspan></text></g></g><path fill="none" d="M242.5 226.0 L242.5 188.75 L480.5 188.75 L480.5 151.5" stroke-width="2.0" stroke-linejoin="round" stroke="#000000"/><path fill="none" d="M375.0 226.0 L375.0 188.75 L480.5 188.75 L480.5 151.5" stroke-width="2.0" stroke-linejoin="round" stroke="#000000"/><path fill="none" d="M111.0 226.0 L111.0 188.75 L480.5 188.75 L480.5 151.5" stroke-width="2.0" stroke-linejoin="round" stroke="#000000"/><path fill="none" d="M508.0 226.0 L508.0 188.75 L480.5 188.75 L480.5 151.5" stroke-width="2.0" stroke-linejoin="round" stroke="#000000"/><path fill="none" d="M480.5 151.5 L480.5 188.75 L642.0 188.75 L642.0 226.0" stroke-width="2.0" stroke-linejoin="round" stroke="#000000"/><path fill="none" d="M480.5 151.5 L480.5 188.75 L775.0 188.75 L775.0 226.0" stroke-width="2.0" stroke-linejoin="round" stroke="#000000"/><g transform="translate(480.5 315.0)"><path fill="url(#id4)" d="M86.49999999999994 28.0 L0.0 28.0 L0.0 0.0 L86.49999999999994 0.0 L86.49999999999994 28.0z" stroke-width="1.0" stroke-linejoin="round" stroke="#74c14a"/><g transform="translate(1.0 1.0)"><clipPath id="id5"><path d="M0 0 L84.5 0 L84.5 26.0 L0 26.0z"/></clipPath><text font-size="13" clip-path="url(#id5)" text-decoration="none" fill="#000000" font-family="Arial,Arial" font-style="normal" font-weight="bold"><tspan x="25.0" xml:space="preserve" y="17.5" textLength="33.0">/pcap</tspan></text></g></g><g transform="translate(480.5 358.0)"><path fill="url(#id6)" d="M86.49999999999994 28.0 L0.0 28.0 L0.0 0.0 L86.49999999999994 0.0 L86.49999999999994 28.0z" stroke-width="1.0" stroke-linejoin="round" stroke="#74c14a"/><g transform="translate(1.0 1.0)"><clipPath id="id7"><path d="M0 0 L84.5 0 L84.5 26.0 L0 26.0z"/></clipPath><text font-size="13" clip-path="url(#id7)" text-decoration="none" fill="#000000" font-family="Arial,Arial" font-style="normal" font-weight="bold"><tspan x="20.0" xml:space="preserve" y="17.5" textLength="44.0">/simple</tspan></text></g></g><g transform="translate(481.0 402.0)"><path fill="url(#id8)" d="M86.49999999999994 28.0 L0.0 28.0 L0.0 0.0 L86.49999999999994 0.0 L86.49999999999994 28.0z" stroke-width="1.0" stroke-linejoin="round" stroke="#74c14a"/><g transform="translate(1.0 1.0)"><clipPath id="id9"><path d="M0 0 L84.5 0 L84.5 26.0 L0 26.0z"/></clipPath><text font-size="13" clip-path="url(#id9)" text-decoration="none" fill="#000000" font-family="Arial,Arial" font-style="normal" font-weight="bold"><tspan x="26.0" xml:space="preserve" y="17.5" textLength="31.0">/path</tspan></text></g></g><g transform="translate(480.5 446.0)"><path fill="url(#id10)" d="M86.49999999999994 28.0 L0.0 28.0 L0.0 0.0 L86.49999999999994 0.0 L86.49999999999994 28.0z" stroke-width="1.0" stroke-linejoin="round" stroke="#5389d6"/><g transform="translate(1.0 1.0)"><clipPath id="id11"><path d="M0 0 L84.5 0 L84.5 26.0 L0 26.0z"/></clipPath><text font-size="13" clip-path="url(#id11)" text-decoration="none" fill="#000000" font-family="Arial,Arial" font-style="normal" font-weight="bold"><tspan x="3.0" xml:space="preserve" y="17.5" textLength="78.0">/simple/pcap</tspan></text></g></g><g transform="translate(480.5 490.0)"><path fill="url(#id12)" d="M86.49999999999994 28.0 L0.0 28.0 L0.0 0.0 L86.49999999999994 0.0 L86.49999999999994 28.0z" stroke-width="1.0" stroke-linejoin="round" stroke="#5389d6"/><g transform="translate(1.0 1.0)"><clipPath id="id13"><path d="M0 0 L84.5 0 L84.5 26.0 L0 26.0z"/></clipPath><text font-size="13" clip-path="url(#id13)" text-decoration="none" fill="#000000" font-family="Arial,Arial" font-style="normal" font-weight="bold"><tspan x="3.0" xml:space="preserve" y="17.5" textLength="78.0">/pcap/simple</tspan></text></g></g><g transform="translate(480.5 534.0)"><path fill="url(#id14)" d="M86.49999999999994 28.0 L0.0 28.0 L0.0 0.0 L86.49999999999994 0.0 L86.49999999999994 28.0z" stroke-width="1.0" stroke-linejoin="round" stroke="#5389d6"/><g transform="translate(1.0 1.0)"><clipPath id="id15"><path d="M0 0 L84.5 0 L84.5 26.0 L0 26.0z"/></clipPath><text font-size="13" clip-path="url(#id15)" text-decoration="none" fill="#000000" font-family="Arial,Arial" font-style="normal" font-weight="bold"><tspan x="17.0" xml:space="preserve" y="17.5" textLength="49.0">/rename</tspan></text></g></g><g transform="translate(480.5 578.0)"><path fill="url(#id16)" d="M86.49999999999994 28.0 L0.0 28.0 L0.0 0.0 L86.49999999999994 0.0 L86.49999999999994 28.0z" stroke-width="1.0" stroke-linejoin="round" stroke="#e33933"/><g transform="translate(1.0 1.0)"><clipPath id="id17"><path d="M0 0 L84.5 0 L84.5 26.0 L0 26.0z"/></clipPath><text font-size="13" clip-path="url(#id17)" text-decoration="none" fill="#000000" font-family="Arial,Arial" font-style="normal" font-weight="bold"><tspan x="21.0" xml:space="preserve" y="17.5" textLength="41.0">/delete</tspan></text></g></g><g transform="translate(346.0 272.0)"><path fill="url(#id18)" d="M86.49999999999994 28.0 L0.0 28.0 L0.0 0.0 L86.49999999999994 0.0 L86.49999999999994 28.0z" stroke-width="1.0" stroke-linejoin="round" stroke="#74c14a"/><g transform="translate(1.0 1.0)"><clipPath id="id19"><path d="M0 0 L84.5 0 L84.5 26.0 L0 26.0z"/></clipPath><text font-size="13" clip-path="url(#id19)" text-decoration="none" fill="#000000" font-family="Arial,Arial" font-style="normal" font-weight="bold"><tspan x="25.0" xml:space="preserve" y="17.5" textLength="33.0">/stats</tspan></text></g></g><g transform="translate(214.0 272.0)"><path fill="url(#id20)" d="M86.49999999999994 28.0 L0.0 28.0 L0.0 0.0 L86.49999999999994 0.0 L86.49999999999994 28.0z" stroke-width="1.0" stroke-linejoin="round" stroke="#74c14a"/><g transform="translate(1.0 1.0)"><clipPath id="id21"><path d="M0 0 L84.5 0 L84.5 26.0 L0 26.0z"/></clipPath><text font-size="13" clip-path="url(#id21)" text-decoration="none" fill="#000000" font-family="Arial,Arial" font-style="normal" font-weight="bold"><tspan x="21.0" xml:space="preserve" y="17.5" textLength="41.0">/status</tspan></text></g></g><g transform="translate(214.0 315.0)"><path fill="url(#id22)" d="M86.49999999999994 28.0 L0.0 28.0 L0.0 0.0 L86.49999999999994 0.0 L86.49999999999994 28.0z" stroke-width="1.0" stroke-linejoin="round" stroke="#74c14a"/><g transform="translate(1.0 1.0)"><clipPath id="id23"><path d="M0 0 L84.5 0 L84.5 26.0 L0 26.0z"/></clipPath><text font-size="13" clip-path="url(#id23)" text-decoration="none" fill="#000000" font-family="Arial,Arial" font-style="normal" font-weight="bold"><tspan x="24.0" xml:space="preserve" y="17.5" textLength="36.0">/delay</tspan></text></g></g><g transform="translate(214.0 358.0)"><path fill="url(#id24)" d="M86.49999999999994 28.0 L0.0 28.0 L0.0 0.0 L86.49999999999994 0.0 L86.49999999999994 28.0z" stroke-width="1.0" stroke-linejoin="round" stroke="#74c14a"/><g transform="translate(1.0 1.0)"><clipPath id="id25"><path d="M0 0 L84.5 0 L84.5 26.0 L0 26.0z"/></clipPath><text font-size="13" clip-path="url(#id25)" text-decoration="none" fill="#000000" font-family="Arial,Arial" font-style="normal" font-weight="bold"><tspan x="26.0" xml:space="preserve" y="17.5" textLength="31.0">/ping</tspan></text></g></g><g transform="translate(82.0 272.0)"><path fill="url(#id26)" d="M86.49999999999994 28.0 L0.0 28.0 L0.0 0.0 L86.49999999999994 0.0 L86.49999999999994 28.0z" stroke-width="1.0" stroke-linejoin="round" stroke="#8856a1"/><g transform="translate(1.0 1.0)"><clipPath id="id27"><path d="M0 0 L84.5 0 L84.5 26.0 L0 26.0z"/></clipPath><text font-size="13" clip-path="url(#id27)" text-decoration="none" fill="#000000" font-family="Arial,Arial" font-style="normal" font-weight="bold"><tspan x="20.0" xml:space="preserve" y="17.5" textLength="44.0">/reboot</tspan></text></g></g><g transform="translate(613.0 272.0)"><path fill="url(#id28)" d="M86.49999999999994 28.0 L0.0 28.0 L0.0 0.0 L86.49999999999994 0.0 L86.49999999999994 28.0z" stroke-width="1.0" stroke-linejoin="round" stroke="#8856a1"/><g transform="translate(1.0 1.0)"><clipPath id="id29"><path d="M0 0 L84.5 0 L84.5 26.0 L0 26.0z"/></clipPath><text font-size="13" clip-path="url(#id29)" text-decoration="none" fill="#000000" font-family="Arial,Arial" font-style="normal" font-weight="bold"><tspan x="30.0" xml:space="preserve" y="17.5" textLength="23.0">/init</tspan></text></g></g><g transform="translate(613.0 315.0)"><path fill="url(#id30)" d="M86.49999999999994 28.0 L0.0 28.0 L0.0 0.0 L86.49999999999994 0.0 L86.49999999999994 28.0z" stroke-width="1.0" stroke-linejoin="round" stroke="#8856a1"/><g transform="translate(1.0 1.0)"><clipPath id="id31"><path d="M0 0 L84.5 0 L84.5 26.0 L0 26.0z"/></clipPath><text font-size="13" clip-path="url(#id31)" text-decoration="none" fill="#000000" font-family="Arial,Arial" font-style="normal" font-weight="bold"><tspan x="21.0" xml:space="preserve" y="17.5" textLength="41.0">/install</tspan></text></g></g><g transform="translate(613.0 358.0)"><path fill="url(#id32)" d="M86.49999999999994 28.0 L0.0 28.0 L0.0 0.0 L86.49999999999994 0.0 L86.49999999999994 28.0z" stroke-width="1.0" stroke-linejoin="round" stroke="#8856a1"/><g transform="translate(1.0 1.0)"><clipPath id="id33"><path d="M0 0 L84.5 0 L84.5 26.0 L0 26.0z"/></clipPath><text font-size="13" clip-path="url(#id33)" text-decoration="none" fill="#000000" font-family="Arial,Arial" font-style="normal" font-weight="bold"><tspan x="26.0" xml:space="preserve" y="17.5" textLength="31.0">/start</tspan></text></g></g><g transform="translate(613.5 402.0)"><path fill="url(#id34)" d="M86.49999999999994 28.0 L0.0 28.0 L0.0 0.0 L86.49999999999994 0.0 L86.49999999999994 28.0z" stroke-width="1.0" stroke-linejoin="round" stroke="#8856a1"/><g transform="translate(1.0 1.0)"><clipPath id="id35"><path d="M0 0 L84.5 0 L84.5 26.0 L0 26.0z"/></clipPath><text font-size="13" clip-path="url(#id35)" text-decoration="none" fill="#000000" font-family="Arial,Arial" font-style="normal" font-weight="bold"><tspan x="26.0" xml:space="preserve" y="17.5" textLength="31.0">/stop</tspan></text></g></g><g transform="translate(346.0 315.0)"><path fill="url(#id36)" d="M86.49999999999994 28.0 L0.0 28.0 L0.0 0.0 L86.49999999999994 0.0 L86.49999999999994 28.0z" stroke-width="1.0" stroke-linejoin="round" stroke="#e33933"/><g transform="translate(1.0 1.0)"><clipPath id="id37"><path d="M0 0 L84.5 0 L84.5 26.0 L0 26.0z"/></clipPath><text font-size="13" clip-path="url(#id37)" text-decoration="none" fill="#000000" font-family="Arial,Arial" font-style="normal" font-weight="bold"><tspan x="28.0" xml:space="preserve" y="17.5" textLength="27.0">/raid</tspan></text></g></g><path fill="none" d="M214.0 286.0 L198.95971968691848 286.0 L198.95971968691848 251.99999999999997" stroke-width="1.0" stroke-linejoin="round" stroke="#000000"/><path fill="none" d="M214.0 329.0 L198.95971968691848 329.0 L198.95971968691848 279.0" stroke-width="1.0" stroke-linejoin="round" stroke="#000000"/><path fill="none" d="M214.0 372.0 L198.95971968691848 372.0 L198.95971968691848 322.0" stroke-width="1.0" stroke-linejoin="round" stroke="#000000"/><g transform="translate(184.5 226.0)"><path fill="url(#id38)" d="M116.0 28.0 L0.0 28.0 L0.0 0.0 L116.0 0.0 L116.0 28.0z" stroke-width="1.0" stroke-linejoin="round" stroke="#ffcc33"/><g transform="translate(1.0 1.0)"><clipPath id="id39"><path d="M0 0 L114.0 0 L114.0 26.0 L0 26.0z"/></clipPath><text font-size="14" clip-path="url(#id39)" text-decoration="none" fill="#000000" font-family="Arial,Arial" font-style="normal" font-weight="bold"><tspan x="40.0" xml:space="preserve" y="18.0" textLength="33.0">/info/</tspan></text></g></g><path fill="none" d="M82.0 286.0 L66.95971968691848 286.0 L66.95971968691848 252.0" stroke-width="1.0" stroke-linejoin="round" stroke="#000000"/><path fill="none" d="M346.0 286.0 L330.95971968691845 286.0 L330.95971968691845 252.0" stroke-width="1.0" stroke-linejoin="round" stroke="#000000"/><path fill="none" d="M346.0 329.0 L330.95971968691845 329.0 L330.95971968691845 279.0" stroke-width="1.0" stroke-linejoin="round" stroke="#000000"/><path fill="none" d="M480.5 286.0 L465.45971968691845 286.0 L465.45971968691845 252.0" stroke-width="1.0" stroke-linejoin="round" stroke="#000000"/><path fill="none" d="M480.5 329.0 L465.45971968691845 329.0 L465.45971968691845 279.0" stroke-width="1.0" stroke-linejoin="round" stroke="#000000"/><path fill="none" d="M480.5 372.0 L465.45971968691845 372.0 L465.45971968691845 322.0" stroke-width="1.0" stroke-linejoin="round" stroke="#000000"/><path fill="none" d="M480.5 416.0 L465.45971968691845 416.0 L465.45971968691845 366.0" stroke-width="1.0" stroke-linejoin="round" stroke="#000000"/><path fill="none" d="M480.5 504.0 L465.45971968691845 504.0 L465.45971968691845 454.0" stroke-width="1.0" stroke-linejoin="round" stroke="#000000"/><path fill="none" d="M480.5 548.0 L465.45971968691845 548.0 L465.45971968691845 498.0" stroke-width="1.0" stroke-linejoin="round" stroke="#000000"/><path fill="none" d="M480.5 592.0 L465.45971968691845 592.0 L465.45971968691845 542.0" stroke-width="1.0" stroke-linejoin="round" stroke="#000000"/><path fill="none" d="M613.0 286.0 L597.9597196869184 286.0 L597.9597196869184 252.0" stroke-width="1.0" stroke-linejoin="round" stroke="#000000"/><path fill="none" d="M613.0 329.0 L597.9597196869184 329.0 L597.9597196869184 279.0" stroke-width="1.0" stroke-linejoin="round" stroke="#000000"/><path fill="none" d="M613.0 372.0 L597.9597196869184 372.0 L597.9597196869184 322.0" stroke-width="1.0" stroke-linejoin="round" stroke="#000000"/><path fill="none" d="M613.0 416.0 L597.9597196869184 416.0 L597.9597196869184 366.0" stroke-width="1.0" stroke-linejoin="round" stroke="#000000"/><g transform="translate(53.0 226.0)"><path fill="url(#id40)" d="M116.0 28.0 L0.0 28.0 L0.0 0.0 L116.0 0.0 L116.0 28.0z" stroke-width="1.0" stroke-linejoin="round" stroke="#ffcc33"/><g transform="translate(1.0 1.0)"><clipPath id="id41"><path d="M0 0 L114.0 0 L114.0 26.0 L0 26.0z"/></clipPath><text font-size="14" clip-path="url(#id41)" text-decoration="none" fill="#000000" font-family="Arial,Arial" font-style="normal" font-weight="bold"><tspan x="29.0" xml:space="preserve" y="18.0" textLength="56.0">/system/</tspan></text></g></g><g transform="translate(317.0 226.0)"><path fill="url(#id42)" d="M116.0 28.0 L0.0 28.0 L0.0 0.0 L116.0 0.0 L116.0 28.0z" stroke-width="1.0" stroke-linejoin="round" stroke="#ffcc33"/><g transform="translate(1.0 1.0)"><clipPath id="id43"><path d="M0 0 L114.0 0 L114.0 26.0 L0 26.0z"/></clipPath><text font-size="14" clip-path="url(#id43)" text-decoration="none" fill="#000000" font-family="Arial,Arial" font-style="normal" font-weight="bold"><tspan x="28.0" xml:space="preserve" y="18.0" textLength="58.0">/storage/</tspan></text></g></g><g transform="translate(449.0 226.0)"><path fill="url(#id44)" d="M118.0 28.0 L0.0 28.0 L0.0 0.0 L118.0 0.0 L118.0 28.0z" stroke-width="1.0" stroke-linejoin="round" stroke="#ffcc33"/><g transform="translate(1.0 1.0)"><clipPath id="id45"><path d="M0 0 L116.0 0 L116.0 26.0 L0 26.0z"/></clipPath><text font-size="14" clip-path="url(#id45)" text-decoration="none" fill="#000000" font-family="Arial,Arial" font-style="normal" font-weight="bold"><tspan x="25.0" xml:space="preserve" y="18.0" textLength="66.0">/captures/</tspan></text></g></g><g transform="translate(584.0 226.0)"><path fill="url(#id46)" d="M116.0 28.0 L0.0 28.0 L0.0 0.0 L116.0 0.0 L116.0 28.0z" stroke-width="1.0" stroke-linejoin="round" stroke="#ffcc33"/><g transform="translate(1.0 1.0)"><clipPath id="id47"><path d="M0 0 L114.0 0 L114.0 26.0 L0 26.0z"/></clipPath><text font-size="14" clip-path="url(#id47)" text-decoration="none" fill="#000000" font-family="Arial,Arial" font-style="normal" font-weight="bold"><tspan x="25.0" xml:space="preserve" y="18.0" textLength="64.0">/recorder/</tspan></text></g></g><g transform="translate(746.0 272.0)"><path fill="url(#id48)" d="M86.49999999999994 28.0 L0.0 28.0 L0.0 0.0 L86.49999999999994 0.0 L86.49999999999994 28.0z" stroke-width="1.0" stroke-linejoin="round" stroke="#8856a1"/><g transform="translate(1.0 1.0)"><clipPath id="id49"><path d="M0 0 L84.5 0 L84.5 26.0 L0 26.0z"/></clipPath><text font-size="13" clip-path="url(#id49)" text-decoration="none" fill="#000000" font-family="Arial,Arial" font-style="normal" font-weight="bold"><tspan x="30.0" xml:space="preserve" y="17.5" textLength="23.0">/init</tspan></text></g></g><g transform="translate(746.0 315.0)"><path fill="url(#id50)" d="M86.49999999999994 28.0 L0.0 28.0 L0.0 0.0 L86.49999999999994 0.0 L86.49999999999994 28.0z" stroke-width="1.0" stroke-linejoin="round" stroke="#8856a1"/><g transform="translate(1.0 1.0)"><clipPath id="id51"><path d="M0 0 L84.5 0 L84.5 26.0 L0 26.0z"/></clipPath><text font-size="13" clip-path="url(#id51)" text-decoration="none" fill="#000000" font-family="Arial,Arial" font-style="normal" font-weight="bold"><tspan x="21.0" xml:space="preserve" y="17.5" textLength="41.0">/install</tspan></text></g></g><g transform="translate(746.0 358.0)"><path fill="url(#id52)" d="M86.49999999999994 28.0 L0.0 28.0 L0.0 0.0 L86.49999999999994 0.0 L86.49999999999994 28.0z" stroke-width="1.0" stroke-linejoin="round" stroke="#8856a1"/><g transform="translate(1.0 1.0)"><clipPath id="id53"><path d="M0 0 L84.5 0 L84.5 26.0 L0 26.0z"/></clipPath><text font-size="13" clip-path="url(#id53)" text-decoration="none" fill="#000000" font-family="Arial,Arial" font-style="normal" font-weight="bold"><tspan x="26.0" xml:space="preserve" y="17.5" textLength="31.0">/start</tspan></text></g></g><g transform="translate(746.5 402.0)"><path fill="url(#id54)" d="M86.49999999999994 28.0 L0.0 28.0 L0.0 0.0 L86.49999999999994 0.0 L86.49999999999994 28.0z" stroke-width="1.0" stroke-linejoin="round" stroke="#8856a1"/><g transform="translate(1.0 1.0)"><clipPath id="id55"><path d="M0 0 L84.5 0 L84.5 26.0 L0 26.0z"/></clipPath><text font-size="13" clip-path="url(#id55)" text-decoration="none" fill="#000000" font-family="Arial,Arial" font-style="normal" font-weight="bold"><tspan x="9.0" xml:space="preserve" y="17.5" textLength="66.0"> /start/loop</tspan></text></g></g><g transform="translate(746.0 446.0)"><path fill="url(#id56)" d="M86.49999999999994 28.0 L0.0 28.0 L0.0 0.0 L86.49999999999994 0.0 L86.49999999999994 28.0z" stroke-width="1.0" stroke-linejoin="round" stroke="#8856a1"/><g transform="translate(1.0 1.0)"><clipPath id="id57"><path d="M0 0 L84.5 0 L84.5 26.0 L0 26.0z"/></clipPath><text font-size="13" clip-path="url(#id57)" text-decoration="none" fill="#000000" font-family="Arial,Arial" font-style="normal" font-weight="bold"><tspan x="26.0" xml:space="preserve" y="17.5" textLength="31.0">/stop</tspan></text></g></g><path fill="none" d="M746.0 286.0 L730.9597196869184 286.0 L730.9597196869184 252.0" stroke-width="1.0" stroke-linejoin="round" stroke="#000000"/><path fill="none" d="M746.0 329.0 L730.9597196869184 329.0 L730.9597196869184 279.0" stroke-width="1.0" stroke-linejoin="round" stroke="#000000"/><path fill="none" d="M746.0 372.0 L730.9597196869184 372.0 L730.9597196869184 322.0" stroke-width="1.0" stroke-linejoin="round" stroke="#000000"/><path fill="none" d="M746.0 416.0 L730.9597196869184 416.0 L730.9597196869184 366.0" stroke-width="1.0" stroke-linejoin="round" stroke="#000000"/><path fill="none" d="M746.0 460.0 L730.9597196869184 460.0 L730.9597196869184 410.0" stroke-width="1.0" stroke-linejoin="round" stroke="#000000"/><g transform="translate(717.0 226.0)"><path fill="url(#id58)" d="M116.0 28.0 L0.0 28.0 L0.0 0.0 L116.0 0.0 L116.0 28.0z" stroke-width="1.0" stroke-linejoin="round" stroke="#ffcc33"/><g transform="translate(1.0 1.0)"><clipPath id="id59"><path d="M0 0 L114.0 0 L114.0 26.0 L0 26.0z"/></clipPath><text font-size="14" clip-path="url(#id59)" text-decoration="none" fill="#000000" font-family="Arial,Arial" font-style="normal" font-weight="bold"><tspan x="32.0" xml:space="preserve" y="18.0" textLength="49.0">/player/</tspan></text></g></g><g transform="translate(74.33333333333334 512.6666666666667)"><path fill="url(#id60)" d="M75.83333333333321 28.0 L0.0 28.0 L0.0 0.0 L75.83333333333321 0.0 L75.83333333333321 28.0z" stroke-width="1.0" stroke-linejoin="round" stroke="#74c14a"/><g transform="translate(1.0 1.0)"><clipPath id="id61"><path d="M0 0 L73.83333333333326 0 L73.83333333333326 26.0 L0 26.0z"/></clipPath><text font-size="13" clip-path="url(#id61)" text-decoration="none" fill="#000000" font-family="Arial,Arial" font-style="normal" font-weight="bold"><tspan x="24.0" xml:space="preserve" y="17.5" textLength="26.0">GET</tspan></text></g></g><g transform="translate(356.0 512.6666666666667)"><path fill="url(#id62)" d="M74.33333333333319 28.0 L0.0 28.0 L0.0 0.0 L74.33333333333319 0.0 L74.33333333333319 28.0z" stroke-width="1.0" stroke-linejoin="round" stroke="#e33933"/><g transform="translate(1.0 1.0)"><clipPath id="id63"><path d="M0 0 L72.33333333333326 0 L72.33333333333326 26.000000000000114 L0 26.000000000000114z"/></clipPath><text font-size="13" clip-path="url(#id63)" text-decoration="none" fill="#000000" font-family="Arial,Arial" font-style="normal" font-weight="bold"><tspan x="10.0" xml:space="preserve" y="17.500000000000057" textLength="51.0">DELETE</tspan></text></g></g><g transform="translate(167.9166666666667 512.6666666666667)"><path fill="url(#id64)" d="M75.83333333333319 28.0 L0.0 28.0 L0.0 0.0 L75.83333333333319 0.0 L75.83333333333319 28.0z" stroke-width="1.0" stroke-linejoin="round" stroke="#8856a1"/><g transform="translate(1.0 1.0)"><clipPath id="id65"><path d="M0 0 L73.83333333333326 0 L73.83333333333326 26.0 L0 26.0z"/></clipPath><text font-size="13" clip-path="url(#id65)" text-decoration="none" fill="#000000" font-family="Arial,Arial" font-style="normal" font-weight="bold"><tspan x="19.0" xml:space="preserve" y="17.5" textLength="35.0">POST</tspan></text></g></g><g transform="translate(262.3333333333333 512.6666666666667)"><path fill="url(#id66)" d="M75.83333333333319 28.0 L0.0 28.0 L0.0 0.0 L75.83333333333319 0.0 L75.83333333333319 28.0z" stroke-width="1.0" stroke-linejoin="round" stroke="#5389d6"/><g transform="translate(1.0 1.0)"><clipPath id="id67"><path d="M0 0 L73.83333333333326 0 L73.83333333333326 26.0 L0 26.0z"/></clipPath><text font-size="13" clip-path="url(#id67)" text-decoration="none" fill="#000000" font-family="Arial,Arial" font-style="normal" font-weight="bold"><tspan x="24.0" xml:space="preserve" y="17.5" textLength="26.0">PUT</tspan></text></g></g><g transform="translate(204.0 478.0)"><clipPath id="id68"><path d="M0 0 L99.45833333333331 0 L99.45833333333331 15.333333333333428 L0 15.333333333333428z"/></clipPath><text font-size="14" clip-path="url(#id68)" text-decoration="none" fill="#000000" font-family="Arial,Arial" font-style="normal" font-weight="normal"><tspan x="2.0" xml:space="preserve" y="15.0" textLength="94.0">Métodos HTTP</tspan></text></g><path fill="none" id="id70" d="M75.33333333333334 502.66666666666674 L429.60000000000014 502.66666666666674" stroke-width="1.0" stroke-linejoin="round" stroke="#000000"/><path fill="none" d="M480.5 460.0 L465.45971968691845 460.0 L465.45971968691845 410.0" stroke-width="1.0" stroke-linejoin="round" stroke="#000000"/></g></svg>