<?xml version="1.0" encoding="utf-8"?>
<svg contentScriptType="text/ecmascript" xmlns:xlink="http://www.w3.org/1999/xlink" zoomAndPan="magnify" contentStyleType="text/css" viewBox="369.6815 97.96349999999998 532.8185 354.52250000000004" xmlns:cacoo="http://cacoo.com/" preserveAspectRatio="xMidYMin meet" xmlns="http://www.w3.org/2000/svg" version="1.1"><defs><filter xlink:actuate="onLoad" xlink:type="simple" id="id0" xlink:show="other" filterUnits="userSpaceOnUse" xmlns:xlink="http://www.w3.org/1999/xlink"><feGaussianBlur stdDeviation="3.0" result="blur" in="SourceAlpha"/><feOffset dx="4.0" dy="4.0" result="offsetBlur" in="blur"/><feComponentTransfer result="componentOffsetBlur" in="offsetBlur"><feFuncR type="linear" intercept="0.0" slope="0"/><feFuncG type="linear" intercept="0.0" slope="0"/><feFuncB type="linear" intercept="0.0" slope="0"/><feFuncA type="linear" intercept="0" slope="0.4"/></feComponentTransfer></filter><linearGradient xlink:actuate="onLoad" xlink:type="simple" id="id2" xlink:show="other" xmlns:xlink="http://www.w3.org/1999/xlink"><stop stop-opacity="1.0" stop-color="#d3d4dd" offset="0%"/><stop stop-opacity="1.0" stop-color="#ffffff" offset="100%"/></linearGradient><linearGradient x1="0%" xmlns:xlink="http://www.w3.org/1999/xlink" y1="0%" x2="0%" y2="100%" xlink:type="simple" xlink:actuate="onLoad" id="id3" xlink:show="other"><stop stop-opacity="1.0" stop-color="#f7f7f9" offset="0%"/><stop stop-opacity="1.0" stop-color="#ffffff" offset="100%"/></linearGradient><linearGradient x1="0%" xmlns:xlink="http://www.w3.org/1999/xlink" y1="0%" x2="0%" y2="100%" xlink:type="simple" xlink:actuate="onLoad" id="id4" xlink:show="other"><stop stop-opacity="1.0" stop-color="#878da0" offset="0%"/><stop stop-opacity="1.0" stop-color="#757a8a" offset="100%"/></linearGradient><linearGradient x1="0%" xmlns:xlink="http://www.w3.org/1999/xlink" y1="0%" x2="0%" y2="100%" xlink:type="simple" xlink:actuate="onLoad" id="id5" xlink:show="other"><stop stop-opacity="1.0" stop-color="#b4b4b4" offset="0%"/><stop stop-opacity="1.0" stop-color="#e6e7ed" offset="100%"/></linearGradient><linearGradient x1="0%" xmlns:xlink="http://www.w3.org/1999/xlink" y1="0%" x2="0%" y2="100%" xlink:type="simple" xlink:actuate="onLoad" id="id6" xlink:show="other"><stop stop-opacity="1.0" stop-color="#bdbdc2" offset="0%"/><stop stop-opacity="1.0" stop-color="#cfcfcf" offset="100%"/></linearGradient><linearGradient xlink:actuate="onLoad" xlink:type="simple" id="id7" xlink:show="other" xmlns:xlink="http://www.w3.org/1999/xlink"><stop stop-opacity="1.0" stop-color="#cfcfcf" offset="0%"/><stop stop-opacity="1.0" stop-color="#b8b8b8" offset="100%"/></linearGradient><linearGradient x1="0%" xmlns:xlink="http://www.w3.org/1999/xlink" y1="0%" x2="0%" y2="100%" xlink:type="simple" xlink:actuate="onLoad" id="id8" xlink:show="other"><stop stop-opacity="1.0" stop-color="#79b8ff" offset="0%"/><stop stop-opacity="1.0" stop-color="#c7e1ff" offset="100%"/></linearGradient><linearGradient x1="0%" xmlns:xlink="http://www.w3.org/1999/xlink" y1="0%" x2="0%" y2="100%" xlink:type="simple" xlink:actuate="onLoad" id="id9" xlink:show="other"><stop stop-opacity="1.0" stop-color="#c7e1ff" offset="0%"/><stop stop-opacity="1.0" stop-color="#79b8ff" offset="100%"/></linearGradient><linearGradient xlink:actuate="onLoad" xlink:type="simple" id="id10" xlink:show="other" xmlns:xlink="http://www.w3.org/1999/xlink"><stop stop-opacity="1.0" stop-color="#ffffff" offset="0%"/><stop stop-opacity="1.0" stop-color="#e0e0e0" offset="100%"/></linearGradient><linearGradient x1="0%" xmlns:xlink="http://www.w3.org/1999/xlink" y1="0%" x2="0%" y2="100%" xlink:type="simple" xlink:actuate="onLoad" id="id11" xlink:show="other"><stop stop-opacity="1.0" stop-color="#3f3f42" offset="0%"/><stop stop-opacity="1.0" stop-color="#b5b6bb" offset="100%"/></linearGradient><linearGradient x1="0%" xmlns:xlink="http://www.w3.org/1999/xlink" y1="0%" x2="0%" y2="100%" xlink:type="simple" xlink:actuate="onLoad" id="id12" xlink:show="other"><stop stop-opacity="1.0" stop-color="#878da0" offset="0%"/><stop stop-opacity="1.0" stop-color="#616672" offset="100%"/></linearGradient><linearGradient x1="0%" xmlns:xlink="http://www.w3.org/1999/xlink" y1="0%" x2="0%" y2="100%" xlink:type="simple" xlink:actuate="onLoad" id="id13" xlink:show="other"><stop stop-opacity="1.0" stop-color="#3f3f42" offset="0%"/><stop stop-opacity="1.0" stop-color="#b5b6bb" offset="100%"/></linearGradient><linearGradient x1="0%" xmlns:xlink="http://www.w3.org/1999/xlink" y1="0%" x2="0%" y2="100%" xlink:type="simple" xlink:actuate="onLoad" id="id14" xlink:show="other"><stop stop-opacity="1.0" stop-color="#878da0" offset="0%"/><stop stop-opacity="1.0" stop-color="#616672" offset="100%"/></linearGradient><linearGradient x1="0%" xmlns:xlink="http://www.w3.org/1999/xlink" y1="0%" x2="0%" y2="100%" xlink:type="simple" xlink:actuate="onLoad" id="id15" xlink:show="other"><stop stop-opacity="1.0" stop-color="#d3d4dd" offset="0%"/><stop stop-opacity="1.0" stop-color="#ffffff" offset="100%"/></linearGradient><linearGradient x1="0%" xmlns:xlink="http://www.w3.org/1999/xlink" y1="0%" x2="0%" y2="100%" xlink:type="simple" xlink:actuate="onLoad" id="id16" xlink:show="other"><stop stop-opacity="1.0" stop-color="#d3d4dd" offset="0%"/><stop stop-opacity="1.0" stop-color="#ffffff" offset="100%"/></linearGradient><linearGradient x1="0%" xmlns:xlink="http://www.w3.org/1999/xlink" y1="0%" x2="0%" y2="100%" xlink:type="simple" xlink:actuate="onLoad" id="id17" xlink:show="other"><stop stop-opacity="1.0" stop-color="#4e515c" offset="0%"/><stop stop-opacity="1.0" stop-color="#050506" offset="100%"/></linearGradient><linearGradient x1="0%" xmlns:xlink="http://www.w3.org/1999/xlink" y1="0%" x2="0%" y2="100%" xlink:type="simple" xlink:actuate="onLoad" id="id18" xlink:show="other"><stop stop-opacity="1.0" stop-color="#050506" offset="0%"/><stop stop-opacity="1.0" stop-color="#4e515c" offset="100%"/></linearGradient><linearGradient x1="0%" xmlns:xlink="http://www.w3.org/1999/xlink" y1="0%" x2="0%" y2="100%" xlink:type="simple" xlink:actuate="onLoad" id="id19" xlink:show="other"><stop stop-opacity="1.0" stop-color="#000000" offset="0%"/><stop stop-opacity="1.0" stop-color="#4e515c" offset="100%"/></linearGradient><linearGradient x1="0%" xmlns:xlink="http://www.w3.org/1999/xlink" y1="0%" x2="0%" y2="100%" xlink:type="simple" xlink:actuate="onLoad" id="id20" xlink:show="other"><stop stop-opacity="1.0" stop-color="#c7e1ff" offset="0%"/><stop stop-opacity="1.0" stop-color="#79b8ff" offset="100%"/></linearGradient><marker refX="14.0" refY="7.0" markerUnits="userSpaceOnUse" orient="auto" id="id25" markerHeight="14.0" viewBox="0 0 14.0 14.0" preserveAspectRatio="xMidYMid meet" markerWidth="14.0" overflow="visible"><path fill="#000000" d="M0 0 L14.0 7.0 L0 14.0z" stroke-width="1.0" stroke-linejoin="round" stroke-linecap="round" stroke="#000000"/></marker><filter xlink:actuate="onLoad" xlink:type="simple" id="id26" xlink:show="other" filterUnits="userSpaceOnUse" xmlns:xlink="http://www.w3.org/1999/xlink"><feGaussianBlur stdDeviation="3.0" result="blur" in="SourceAlpha"/><feOffset dx="4.0" dy="4.0" result="offsetBlur" in="blur"/><feComponentTransfer result="componentOffsetBlur" in="offsetBlur"><feFuncR type="linear" intercept="0.0" slope="0"/><feFuncG type="linear" intercept="0.0" slope="0"/><feFuncB type="linear" intercept="0.0" slope="0"/><feFuncA type="linear" intercept="0" slope="0.4"/></feComponentTransfer></filter><marker refX="14.0" refY="7.0" markerUnits="userSpaceOnUse" orient="auto" id="id28" markerHeight="14.0" viewBox="0 0 14.0 14.0" preserveAspectRatio="xMidYMid meet" markerWidth="14.0" overflow="visible"><path fill="#000000" d="M0 0 L14.0 7.0 L0 14.0z" stroke-width="1.0" stroke-linejoin="round" stroke-linecap="round" stroke="#000000"/></marker><filter xlink:actuate="onLoad" xlink:type="simple" id="id29" xlink:show="other" filterUnits="userSpaceOnUse" xmlns:xlink="http://www.w3.org/1999/xlink"><feGaussianBlur stdDeviation="3.0" result="blur" in="SourceAlpha"/><feOffset dx="4.0" dy="4.0" result="offsetBlur" in="blur"/><feComponentTransfer result="componentOffsetBlur" in="offsetBlur"><feFuncR type="linear" intercept="0.0" slope="0"/><feFuncG type="linear" intercept="0.0" slope="0"/><feFuncB type="linear" intercept="0.0" slope="0"/><feFuncA type="linear" intercept="0" slope="0.4"/></feComponentTransfer></filter><filter xlink:actuate="onLoad" xlink:type="simple" id="id31" xlink:show="other" filterUnits="userSpaceOnUse" xmlns:xlink="http://www.w3.org/1999/xlink"><feGaussianBlur stdDeviation="3.0" result="blur" in="SourceAlpha"/><feOffset dx="4.0" dy="4.0" result="offsetBlur" in="blur"/><feComponentTransfer result="componentOffsetBlur" in="offsetBlur"><feFuncR type="linear" intercept="0.0" slope="0"/><feFuncG type="linear" intercept="0.0" slope="0"/><feFuncB type="linear" intercept="0.0" slope="0"/><feFuncA type="linear" intercept="0" slope="0.4"/></feComponentTransfer></filter><filter xlink:actuate="onLoad" xlink:type="simple" id="id33" xlink:show="other" filterUnits="userSpaceOnUse" xmlns:xlink="http://www.w3.org/1999/xlink"><feGaussianBlur stdDeviation="3.0" result="blur" in="SourceAlpha"/><feOffset dx="4.0" dy="4.0" result="offsetBlur" in="blur"/><feComponentTransfer result="componentOffsetBlur" in="offsetBlur"><feFuncR type="linear" intercept="0.0" slope="0"/><feFuncG type="linear" intercept="0.0" slope="0"/><feFuncB type="linear" intercept="0.0" slope="0"/><feFuncA type="linear" intercept="0" slope="0.4"/></feComponentTransfer></filter><filter xlink:actuate="onLoad" xlink:type="simple" id="id35" xlink:show="other" filterUnits="userSpaceOnUse" xmlns:xlink="http://www.w3.org/1999/xlink"><feGaussianBlur stdDeviation="3.0" result="blur" in="SourceAlpha"/><feOffset dx="4.0" dy="4.0" result="offsetBlur" in="blur"/><feComponentTransfer result="componentOffsetBlur" in="offsetBlur"><feFuncR type="linear" intercept="0.0" slope="0"/><feFuncG type="linear" intercept="0.0" slope="0"/><feFuncB type="linear" intercept="0.0" slope="0"/><feFuncA type="linear" intercept="0" slope="0.4"/></feComponentTransfer></filter></defs><g><g transform="translate(670.629 282.65)"><use xlink:href="#id1" xlink:actuate="onLoad" xlink:type="simple" xlink:show="embed" xmlns:xlink="http://www.w3.org/1999/xlink" filter="url(#id0)"/></g><use xlink:href="#id27" xlink:actuate="onLoad" xlink:type="simple" xlink:show="embed" xmlns:xlink="http://www.w3.org/1999/xlink" filter="url(#id26)"/><use xlink:href="#id30" xlink:actuate="onLoad" xlink:type="simple" xlink:show="embed" xmlns:xlink="http://www.w3.org/1999/xlink" filter="url(#id29)"/><g transform="translate(462.70475000000005 256.691)"><use xlink:href="#id32" xlink:actuate="onLoad" xlink:type="simple" xlink:show="embed" xmlns:xlink="http://www.w3.org/1999/xlink" filter="url(#id31)"/></g><g transform="translate(462.70475000000005 281.67049999999995)"><use xlink:href="#id34" xlink:actuate="onLoad" xlink:type="simple" xlink:show="embed" xmlns:xlink="http://www.w3.org/1999/xlink" filter="url(#id33)"/></g><g transform="translate(462.70475000000005 308.959)"><use xlink:href="#id36" xlink:actuate="onLoad" xlink:type="simple" xlink:show="embed" xmlns:xlink="http://www.w3.org/1999/xlink" filter="url(#id35)"/></g></g><g><g transform="translate(670.629 282.65)"><path fill-opacity="1.0" fill="#000000" stroke-linejoin="round" id="id1" d="M0.0 0.0 L188.87200000000004 0.0 L188.87200000000004 4.0 L0.0 4.0 L0.0 0.0z" stroke="#000000" stroke-width="1.0"/></g><g transform="translate(384.83450000000005 142.96349999999998)"><path fill="#d3d4dd" fill-opacity="1.0" d="M-0.153 23.59 L26.631 29.241001 L26.631 74.53 L-0.153 68.681 L-0.153 23.59 L-0.153 23.59z" stroke="none"/><path fill="url(#id2)" d="M2.298000107 68.265 Q2.648187707 68.33947052 3.262363507 68.4698645 Q4.490808507 68.73067535 5.810656607 69.0103003 Q10.034425007000001 69.9051291 13.590251007 70.6528784 Q18.568233007 71.6996771 21.499219007 72.3027655 Q25.162816007 73.0565955 25.399999007 73.0700003 Q26.275998007000002 73.119004 26.337998007 71.7470023 L26.774999007 74.5640036 L-0.025999993 68.47899689 L2.2980000069999997 68.265 L2.298000107 68.265z" stroke="none"/><path fill="#d3d4dd" fill-opacity="1.0" d="M58.842997999999994 5.093 L25.999 28.288 L26.630999969999998 74.263 L58.91 50.191002999999995 L58.842997999999994 5.093 L58.842997999999994 5.093z" stroke="none"/><path fill="#c8c8ce" fill-opacity="1.0" d="M58.842998 5.093 Q58.588108000000005 5.4314061 58.138294 6.057797 Q57.23867 7.3105775 56.26406 8.7504998 Q54.8996 10.7664023 53.580107999999996 12.8685775 Q51.930735999999996 15.496309 50.44625 18.1095 Q46.66756 24.761255 44.268057999999996 30.74975 Q41.268684 38.235376 40.607997 44.251000000000005 Q39.946971 50.26627499999999 37.612831 56.32261 Q35.745513 61.167680000000004 32.898376 65.818628 Q30.864715 69.14072 28.5444846 72.033575 Q27.8194212 72.93759 27.1527018 73.6902 Q26.81934305 74.066495 26.631 74.262 L58.910000000000004 50.191002999999995 L58.842998 5.093 L58.842998 5.093z" stroke="none"/><path fill="#dcdde2" fill-opacity="1.0" d="M58.45500301 5.093 L26.63100101 28.769 L0.09200001 23.235 L33.15400001 0.0 L58.45500301 5.093 L58.45500301 5.093z" stroke="none"/><path fill="url(#id3)" d="M27.844 29.374001 L58.723 5.6750002 L58.438 4.921 L26.59 27.658001 Q26.157 27.982 25.489 27.855002 Q25.34111 27.827143 21.324938 27.100203 Q18.11424 26.519057 12.58325 25.518624 Q10.440855 25.131111999999998 7.9515 24.680906999999998 Q5.99038 24.326233 3.9221873 23.952234999999998 Q2.334902 23.6652 1.0775936 23.437851 Q0.39154685 23.313797 0.0 23.243 L0.0 23.868 Q0.39746875 23.952015 1.0937071 24.099217 Q2.4857793 24.393534 3.9800315 24.709547999999998 Q6.0691338 25.151364 8.066778 25.574009999999998 Q10.560119 26.101532 12.761751 26.567626 Q18.364262 27.753693 21.607594 28.44239 Q25.662436 29.303406 25.78 29.334 Q26.122002 29.422 26.203001 29.869 L26.203001 74.37100500000001 L26.631 74.263 Q27.468 74.10401 27.468 72.79400000000001 Q27.468 71.50955400000001 27.468493 68.799136 Q27.468834 66.923224 27.469688 62.96817 Q27.469868 62.138293 27.470047 61.308417 Q27.470232 60.449454 27.470417 59.59049 Q27.470848 57.582915 27.471165 56.025397 Q27.47201 51.869406 27.4725 48.695124 Q27.4738 40.279759999999996 27.473063 35.769269 Q27.472137 30.114659 27.468 29.985001 Q27.454 29.563 27.844 29.374001 L27.844 29.374001z" stroke="none"/><path fill="#878da0" fill-opacity="1.0" d="M1.14 26.607 L24.987000000000002 31.5050007 L24.987000000000002 51.048 Q24.606375 51.098312 23.927079 51.154467999999994 Q22.568484 51.26678 21.075125 51.296001000000004 Q18.984421 51.336906 16.92286 51.205780000000004 Q14.345905 51.041874 11.962 50.617000000000004 Q7.627615 49.846374 3.9503752 47.712627 Q2.8012501 47.04584 1.8557031 46.322738 Q1.38293745 45.961189000000005 1.14 45.733001 L1.14 26.607 L1.14 26.607z" stroke="none"/><path fill="#e1e1e5" fill-opacity="1.0" d="M11.96199996 51.138000999999996 Q7.627619660000001 50.366123699999996 3.95037496 48.2313772 Q2.80121886 47.5642591 1.85570316 46.84092004 Q1.38293746 46.4792486 1.13999998 46.251 L0.84099996 47.362000099999996 Q1.08387494 47.5901876 1.55654666 47.9517828 Q2.50189056 48.6749693 3.65087496 49.341999599999994 Q7.32762496 51.476501999999996 11.66199996 52.249001 Q14.045905959999999 52.673187999999996 16.62285996 52.836780999999995 Q18.68442196 52.967655699999995 20.775123960000002 52.9267507 Q22.26848296 52.897534 23.62707996 52.7853437 Q24.306373960000002 52.7292524 24.68699996 52.6790014 L24.986999960000002 51.5680013 Q24.60637496 51.6183134 23.927078960000003 51.674485 Q22.568483960000002 51.786827599999995 21.07512496 51.8161245 Q18.98442096 51.85714 16.92285996 51.726204499999994 Q14.34590596 51.562531 11.96199996 51.138000999999996 L11.96199996 51.138000999999996z" stroke="none"/><path fill="url(#id4)" d="M24.0939988 40.584 Q23.7832028 40.66784323 23.2369588 40.812847500000004 Q22.1444738 41.10285605 20.9672328 41.408657440000006 Q17.2000808 42.38721880000001 13.9981253 43.15675 Q9.5153908 44.234093 6.8034538 44.739468 Q3.41352843 45.371185700000005 3.0 45.068001 Q2.768386355 44.898716300000004 2.712500087 45.312126500000005 Q2.6566708 45.725113300000004 2.83299994 45.860001000000004 Q4.2219124 46.9127773 6.132 47.821625000000004 Q9.2140915 49.288132000000004 12.7069998 49.865002000000004 Q16.1688178 50.436356 19.9845008 50.464501000000006 Q22.3684818 50.48208700000001 24.4389988 50.296002 L24.4389988 40.584 L24.0939988 40.584z" stroke="none"/><path fill="url(#id5)" d="M58.7219996293945 70.566002 Q59.02393673 70.353005 59.50257824 70.01589200000001 Q60.4598536 69.34167500000001 61.3433757 68.721131 Q64.1706233 66.735382 65.1999965 66.031006 Q67.058471 64.759972 66.3189998 62.6760066 Q65.934623 61.5935062 65.1653743 59.734505000000006 Q64.780746 58.80500825 64.472999 58.092007 L90.783996 63.2440074 Q91.050872 63.6936343 91.43571399999999 64.395165 Q92.20540600000001 65.7982257 92.795249 67.057755 Q94.68274600000001 71.088257 94.063995 72.172005 Q93.445869 73.254502 89.188621 75.845505 Q87.858238 76.65519 86.32357 77.51857000000001 Q85.556243 77.95025700000001 85.054992 78.220002 L59.35199307 71.793 L58.721992 70.566002 L58.7219996293945 70.566002z" stroke-width="1.0" stroke-linejoin="round" stroke="#aaaaaa"/><path fill="#ffffff" fill-opacity="1.0" d="M61.722001 71.24099383 Q62.079533500000004 71.32896075 62.7062768 71.48290666999999 Q63.9598168 71.7908138 65.3058328 72.1206783 Q69.613175 73.176289 73.231126 74.05599629999999 Q78.29612 75.28754099999999 81.258607 75.99130659999999 Q84.961656 76.87099099999999 85.149003 76.87099099999999 Q85.489625 76.87099099999999 86.35238 76.325993 Q86.783753 76.053494 87.147004 75.7809947 Q87.43744000000001 75.58362229999999 87.857224 75.29433859999999 Q88.696786 74.71577869999999 89.343507 74.25624499999999 Q91.413003 72.78574789999999 90.778 73.05699569999999 Q90.587624 73.1386302 89.481439 73.65299639999999 Q88.453362 74.13103899999999 87.759248 74.419247 Q85.516122 75.3506206 84.604005 75.23699599999999 Q84.120171 75.17605999999999 80.18593 74.4845088 Q78.62111 74.209454 76.294633 73.7967647 Q74.833047 73.5375026 72.00538 73.0346187 Q69.0786904 72.51412619999999 67.860833 72.2980236 Q65.7029046 71.9150966 64.4036416 71.6869167 Q61.17669 71.12019 61.7220048 71.24099383 L61.722001 71.24099383z" stroke="none"/><path fill="url(#id6)" d="M95.487 69.679001 Q94.58075 67.647751 91.907753 62.2297513 Q91.07247000000001 60.536693299999996 90.16069 58.7079999 Q89.704811 57.793685599999996 89.416 57.218002 L86.980003 58.336002 Q87.331253 58.9763142 87.866302 59.959220599999995 Q88.936386 61.9250256 89.855377 63.638 Q92.796127 69.1195065 93.123 70.016998 Q93.744102 71.727386 92.042 72.797996 Q91.908615 72.881637 89.727997 74.341247 Q87.64151 75.73784599999999 86.679 76.326996 Q85.515823 77.038536 84.342003 76.803992 Q83.977287 76.731117 79.891266 75.739868 Q76.622558 74.94689199999999 71.134125 73.605492 Q68.978409 73.078621 66.548576 72.483833 Q64.6048583 72.00804099999999 62.5759238 71.510864 Q61.1290816 71.15632599999999 59.7793425 70.82534 Q59.10573566 70.66014799999999 58.722 70.565994 L58.722 73.378997 Q59.1069678 73.476043 59.7827872 73.64627 Q61.1343154 73.986694 62.5886725 74.352607 Q64.6238326 74.864654 66.57493600000001 75.35479699999999 Q69.012512 75.967148 71.176872 76.50962 Q76.685516 77.890312 79.968887 78.70432199999999 Q84.073341 79.721901 84.44699800000001 79.791 Q85.98072 80.072303 87.226997 79.332 Q87.610016 79.104744 90.34787 77.284126 Q92.443375 75.890655 93.432 75.224998 Q96.91331500000001 72.880783 95.488 69.67999999999999 L95.487 69.679001z" stroke="none"/><path fill="url(#id7)" d="M91.232003 73.332004 Q91.06823800000001 73.4418596 90.741585 73.66151 Q90.355614 73.92104660000001 90.188286 74.03342760000001 Q89.484826 74.5058702 88.973755 74.84537830000001 Q87.481553 75.836658 86.67800199999999 76.328006 Q85.514824 77.0395464 84.341003 76.8050035 Q83.904038 76.71792930000001 62.405003 71.492 L62.405003 74.381 Q84.316391 79.767139 84.445008 79.791004 Q85.97873 80.07230700000001 87.225007 79.33200400000001 Q87.670998 79.066623 91.231003 76.69400350000001 L91.231003 73.332004 L91.232003 73.332004z" stroke="none"/><path fill="none" d="M33.541 0.0 L0.0 23.243 L0.0 68.457 L26.775 74.564 L58.91 50.191 L58.91 5.017 L33.541 0.0 L33.541 0.0z" stroke-width="1.0" stroke-linejoin="round" stroke="#aaaaaa"/><path fill="none" d="M3.6230001 20.761 L3.6230001 20.761z" stroke-width="1.0" stroke-linejoin="round" stroke="#aaaaaa"/><path fill="none" d="M30.069 26.18 L30.069 26.18z" stroke-width="1.0" stroke-linejoin="round" stroke="#aaaaaa"/><path fill="none" d="M95.487 69.679001 Q94.58075 67.647751 91.907753 62.2297513 Q91.07247000000001 60.536693299999996 90.16069 58.7079999 Q89.704811 57.793685599999996 89.416 57.218002 L86.980003 58.336002 Q87.331253 58.9763142 87.866302 59.959220599999995 Q88.936386 61.9250256 89.855377 63.638 Q92.796127 69.1195065 93.123 70.016998 Q93.744102 71.727386 92.042 72.797996 Q91.908615 72.881637 89.727997 74.341247 Q87.64151 75.73784599999999 86.679 76.326996 Q85.515823 77.038536 84.342003 76.803992 Q83.977287 76.731117 79.891266 75.739868 Q76.622558 74.94689199999999 71.134125 73.605492 Q68.978409 73.078621 66.548576 72.483833 Q64.6048583 72.00804099999999 62.5759238 71.510864 Q61.1290816 71.15632599999999 59.7793425 70.82534 Q59.10573566 70.66014799999999 58.722 70.565994 L58.722 73.378997 Q59.1069678 73.476043 59.7827872 73.64627 Q61.1343154 73.986694 62.5886725 74.352607 Q64.6238326 74.864654 66.57493600000001 75.35479699999999 Q69.012512 75.967148 71.176872 76.50962 Q76.685516 77.890312 79.968887 78.70432199999999 Q84.073341 79.721901 84.44699800000001 79.791 Q85.98072 80.072303 87.226997 79.332 Q87.610016 79.104744 90.34787 77.284126 Q92.443375 75.890655 93.432 75.224998 Q96.91331500000001 72.880783 95.488 69.67999999999999 L95.487 69.679001z" stroke-width="1.0" stroke-linejoin="round" stroke="#aaaaaa"/><path fill="#e6e7ed" fill-opacity="1.0" d="M48.129001599999995 8.235 L42.882 10.161999999999999 L42.882 54.766998 L103.207 68.16499999999999 L107.13101 65.64 L107.13101 19.857000999999997 L48.129001599999995 8.235 L48.129001599999995 8.235z" stroke="none"/><path fill="url(#id8)" d="M99.10199800000001 63.516997 L46.531998 52.170997 L46.531998 14.580997 L99.10199800000001 25.419998 L99.10199800000001 63.516997 L99.10199800000001 63.516997z" stroke="none"/><path fill="url(#id9)" d="M99.10199800000001 42.164001 Q88.077492 31.508003 72.76400000000001 31.508003 Q57.539048 31.508003 46.531998 42.061004 L46.531998 52.172004 L99.10199800000001 63.518005 L99.10199800000001 42.164001 L99.10199800000001 42.164001z" stroke="none"/><path fill="#d2d2d2" fill-opacity="1.0" d="M106.9660005 20.196 L102.953 22.0889996 L102.953 68.043 L106.9660005 65.522004 L106.9660005 20.196 L106.9660005 20.196z" stroke="none"/><path fill="#d7d9de" fill-opacity="1.0" d="M107.170995 20.082 L102.488 22.607 L43.189 10.2159993 L48.3340005 8.120999 L107.17101 20.080999 L107.170995 20.082z" stroke="none"/><path fill="#92949b" fill-opacity="1.0" d="M47.33500085 51.476 L47.33500085 14.582 L46.531 51.910000000000004 L99.101 63.516998 L99.327997 62.501 L47.33500085 51.476 L47.33500085 51.476z" stroke="none"/><path fill="none" d="M99.10199800000001 63.516997 L46.531998 52.170997 L46.531998 14.580997 L99.10199800000001 25.419998 L99.10199800000001 63.516997 L99.10199800000001 63.516997z" stroke-width="1.0" stroke-linejoin="round" stroke="#aaaaaa"/><path fill="none" d="M48.129001599999995 8.235 L42.882 10.161999999999999 L42.882 54.766998 L103.207 68.16499999999999 L107.13101 65.64 L107.13101 19.857000999999997 L48.129001599999995 8.235 L48.129001599999995 8.235z" stroke-width="1.0" stroke-linejoin="round" stroke="#aaaaaa"/><path fill="url(#id10)" d="M106.60500300000001 20.375999999999998 L102.245003 22.459 Q101.357452 22.275906 99.803894 21.95542 Q96.696777 21.314448 93.366707 20.627484000000003 Q88.38909100000001 19.600647000000002 84.262634 18.749399 Q78.550674 17.5710795 73.820877 16.5953753 Q67.610763 15.314297 63.37064 14.4396146 Q57.99081 13.3298266 54.241112 12.556328 Q45.3228072 10.71663408 45.2610015 10.7039998 Q44.080097127 10.456075 44.062000203000004 10.629 Q44.052967 10.71431189 45.2610015 11.02800016 Q45.323219200000004 11.0444997 54.117363000000005 13.034031200000001 Q57.856838 13.880027 63.120041 15.0703013 Q67.704422 16.10706 73.424881 17.4004996 Q78.23642699999999 18.48843 83.72122200000001 19.728448999999998 Q88.135734 20.726492 92.698457 21.757969000000003 Q95.97821 22.499409 99.045927 23.192878999999998 Q100.577835 23.539171500000002 101.453003 23.737000000000002 Q101.476532 24.397531999999998 101.517717 25.553688 Q101.600059 27.865609 101.68831700000001 30.344140000000003 Q101.811927 33.815503 101.929512 37.118928 Q102.07646199999999 41.247289 102.206001 44.888627 Q102.535447 54.14911 102.723694 59.455045 Q102.959 66.087785 102.959 66.128 Q103.096001 66.109498 103.233002 66.090997 Q103.233002 65.119119 103.233002 64.147249 Q103.233002 61.689237 103.233002 59.231232999999996 Q103.233002 51.848802 103.233002 44.466370999999995 Q103.233002 40.537935 103.233002 36.609498 Q103.233002 33.18691 103.233002 29.764322 Q103.233002 27.345575000000004 103.233002 24.926827 Q103.233002 23.759605999999998 103.233002 23.092995000000002 L106.60500300000001 20.375996 L106.60500300000001 20.375999999999998z" stroke="none"/><path fill="url(#id11)" d="M22.243000000000002 34.8860006 L3.094 31.033 L3.094 35.2750006 L22.243000000000002 39.128001 L22.243000000000002 34.8860006 L22.243000000000002 34.8860006z" stroke="none"/><path fill="url(#id12)" d="M22.2280004 35.127998500000004 L3.3360004 31.317999 L3.3360004 35.0589982 L22.2280004 38.8689996 L22.2280004 35.127998500000004 L22.2280004 35.127998500000004z" stroke="none"/><path fill="url(#id13)" d="M22.277 40.1899968 L3.094 36.337 L3.094 40.580000000000005 L22.278000000000002 44.434000000000005 L22.278000000000002 40.1899968 L22.277 40.1899968z" stroke="none"/><path fill="url(#id14)" d="M22.227999999999998 40.430998699999996 L3.336 36.623 L3.336 40.3630017 L22.227999999999998 44.1740025 L22.227999999999998 40.432002 L22.227999999999998 40.430998699999996z" stroke="none"/><path fill="url(#id15)" d="M12.6999997 51.67300017 Q14.1661081 51.43116744 15.8349987 51.253002 Q15.870998700000001 51.6742018 15.870998700000001 51.603000470000005 Q15.870998700000001 55.791999700000005 11.6749983 55.791999700000005 Q8.66030595 55.791999700000005 7.7089977 52.907001300000005 Q10.1602449 52.0910223 12.6999977 51.67300017 L12.6999997 51.67300017z" stroke="none"/><path fill="#878da0" fill-opacity="1.0" d="M12.6999997 49.9289995 Q14.1661081 50.170832000000004 15.8349987 50.348997700000005 Q15.870998700000001 49.927798 15.870998700000001 49.998999000000005 Q15.870998700000001 45.81 11.6749983 45.81 Q8.659976 45.81 7.7089977 48.693998900000004 Q10.1661863 49.511954 12.6999977 49.9289995 L12.6999997 49.9289995z" stroke="none"/><path fill="#616672" fill-opacity="1.0" d="M15.399999399999999 50.803999000000005 Q15.399999399999999 54.992998 11.6739998 54.992998 Q7.9489994 54.992998 7.9489994 50.803999000000005 Q7.9489994 46.615 11.6739998 46.615 Q15.399999399999999 46.615 15.399999399999999 50.803999000000005 L15.399999399999999 50.803999000000005z" stroke="none"/><path fill="#878da0" fill-opacity="1.0" d="M14.6090004 50.804001 Q14.6090004 54.306000000000004 11.674 54.306000000000004 Q8.74 54.306000000000004 8.74 50.804001 Q8.74 47.302002 11.674 47.302002 Q14.6089995 47.302002 14.6089995 50.804001 L14.6090004 50.804001z" stroke="none"/><path fill="#e1e1e5" fill-opacity="1.0" d="M11.9960003 48.229998380000005 Q12.8472157 48.229998380000005 13.560000500000001 48.7979992 Q12.802352899999999 47.734 11.6750002 47.734 Q9.1710005 47.734 9.1710005 50.795000800000004 Q9.1710005 50.9113148 9.206000347 51.2110012 Q9.50808718 48.23100165 11.9969998 48.23100165 L11.9960003 48.229998380000005z" stroke="none"/></g><g transform="translate(614.0 243.27849999999998)"><path fill="#828999" fill-opacity="1.0" d="M-0.13100001 25.603 L29.137999989999997 30.4530004 L29.137999989999997 82.715003 L-0.13100001 76.97 L-0.13100001 25.603 L-0.13100001 25.603z" stroke="none"/><path fill="#757a8a" fill-opacity="1.0" d="M56.570999 10.608 L28.6 30.363001 L29.138000100000003 82.48400000000001 L56.628997 61.983999999999995 L56.570999 10.609001358 L56.570999 10.608z" stroke="none"/><path fill="#6d7384" fill-opacity="1.0" d="M56.629 56.7 L29.261 77.458 L0.0 71.497001 L0.0 73.005004 L29.255 79.13400200000001 L56.835 58.7060005 L56.629 56.7 L56.629 56.7z" stroke="none"/><path fill="none" d="M28.565 30.420999000000002 L0.0 25.307000000000002 L0.0 76.783006 L29.261 82.744005 L56.628998 61.984002000000004 L56.628998 10.544 L28.565 30.420999000000002 L28.565 30.420999000000002z" stroke-width="1.0" stroke-linejoin="round" stroke="#757575"/><path fill="#828999" fill-opacity="1.0" d="M-0.13100001 20.09 L29.137999989999997 25.662000499999998 L29.137999989999997 77.199997 L-0.13100001 71.458 L-0.13100001 20.09 L-0.13100001 20.09z" stroke="none"/><path fill="#757a8a" fill-opacity="1.0" d="M56.570999 5.096 L28.6 24.85 L29.138000100000003 76.974 L56.629001 56.47 L56.570999 5.096 L56.570999 5.096z" stroke="none"/><path fill="#949ba8" fill-opacity="1.0" d="M56.24100302 5.096 L29.138001019999997 25.261 L0.07800102 19.788 L28.23500102 0.0 L56.24100302 5.096 L56.24100302 5.096z" stroke="none"/><path fill="#9ea4ad" fill-opacity="1.0" d="M30.171 25.776 L56.469 5.5920002 L56.228 4.95 L29.104 24.315002 Q28.735 24.590999 28.166 24.482001 Q28.039434 24.45827 23.609814 23.72039 Q20.068762 23.130527 13.945 22.112125 Q11.538893 21.711982 8.814867 21.25912 Q6.66983 20.902515 4.349188 20.516795000000002 Q2.63222 20.231419 1.1951642 19.992607 Q0.43434376 19.866173 0.0 19.794001 Q0.43939066 20.409437 1.2088946 20.555602 Q2.748117 20.847972 4.398469 21.161563 Q6.708661 21.600535999999998 8.913059 22.019617999999998 Q11.668255 22.543414 14.097 23.005499999999998 Q20.280127 24.181884 23.85028 24.863689 Q28.312624 25.715877 28.413 25.742 Q28.704 25.817999999999998 28.773 26.197001999999998 L28.773 77.066005 Q29.851002 76.839 29.851002 75.72200000000001 Q29.851002 74.652255 29.85141 71.76266 Q29.851574 70.60464 29.851852 68.7971 Q29.851982 67.95765 29.852114 67.1182 Q29.852253 66.222976 29.852392 65.32775 Q29.852747 63.05142 29.852985 61.469714 Q29.85332 59.246460000000006 29.853586 57.338092 Q29.854252 52.559035 29.854628 48.7145 Q29.855083 44.033240000000006 29.855152 40.37778 Q29.85523 36.183643000000004 29.8548 33.248748 Q29.853792 26.406944 29.850002 26.297 Q29.838003 25.936999999999998 30.170002 25.776 L30.171 25.776z" stroke="none"/><path fill="none" d="M3.084 17.681 L3.084 17.681z" stroke-width="1.0" stroke-linejoin="round" stroke="#aaaaaa"/><path fill="none" d="M32.065 23.056 L32.065 23.056z" stroke-width="1.0" stroke-linejoin="round" stroke="#aaaaaa"/><path fill="none" d="M32.065 42.567 L32.065 42.567z" stroke-width="1.0" stroke-linejoin="round" stroke="#757575"/><path fill="#6d7384" fill-opacity="1.0" d="M56.629 38.955001814697304 L29.261 59.712002 L0.0 53.752998000000005 L0.0 55.260998 L29.255 61.389999 L56.835 40.9609985 L56.628998 38.954998 L56.629 38.955001814697304z" stroke="none"/><path fill="none" d="M0.0 53.752998000000005 L29.261 59.71199800000001 L56.628998 38.954998" stroke-width="1.0" stroke-linejoin="round" stroke="#757575"/><path fill="#6d7384" fill-opacity="1.0" d="M56.629 21.6760008146973 L29.261 42.435002 L0.0 36.473999 L0.0 37.982997999999995 L29.255 44.109997 L56.835 23.681997499999998 L56.628998 21.675997 L56.629 21.6760008146973z" stroke="none"/><path fill="none" d="M0.0 36.473999 L29.261 42.433999 L56.628998 21.675999" stroke-width="1.0" stroke-linejoin="round" stroke="#757575"/><path fill="none" d="M28.565 0.0 L0.0 19.794 L0.0 71.268 L29.261 77.229 L56.628998 56.468994 L56.628998 5.032 L28.565 0.0 L28.565 0.0z" stroke-width="1.0" stroke-linejoin="round" stroke="#757575"/><path fill="url(#id16)" d="M25.8670005 79.51099927 Q26.5192279 79.41043622000001 27.203001 79.343 Q27.2180003 79.48399884 27.2180003 79.48199994000001 Q27.2180003 81.1460014 25.430000200000002 81.1460014 Q24.14562403 81.1460014 23.741001 80.00100476 Q24.7901019 79.67399365 25.868001800000002 79.5110069 L25.8670005 79.51099927z" stroke="none"/><path fill="#616672" fill-opacity="1.0" d="M27.0189996 79.1630015 Q27.0189996 80.8290018 25.429998899999998 80.8290018 Q23.842999 80.8290018 23.842999 79.1630015 Q23.842999 77.499 25.429998899999998 77.499 Q27.0189996 77.499 27.0189996 79.1630015 L27.0189996 79.1630015z" stroke="none"/><path fill="#878da0" fill-opacity="1.0" d="M26.6819994 79.16299880000001 Q26.6819994 80.55399770000001 25.4299985 80.55399770000001 Q24.180998 80.55399770000001 24.180998 79.16299880000001 Q24.180998 77.772 25.4299985 77.772 Q26.6819994 77.772 26.6819994 79.16299880000001 L26.6819994 79.16299880000001z" stroke="none"/><path fill="#e1e1e5" fill-opacity="1.0" d="M25.566999499999998 78.14199513 Q25.934047699999997 78.14199513 26.232999799999998 78.3669936 Q25.908374799999997 77.94299 25.428998999999997 77.94299 Q24.362999 77.94299 24.362999 79.1619918 Q24.362999 79.2002761 24.378999748 79.3259932 Q24.506999999999998 78.14199513 25.566999499999998 78.14199513 L25.566999499999998 78.14199513z" stroke="none"/></g><g transform="translate(447.2535 367.0)"><path fill="#67676d" fill-opacity="1.0" d="M44.712 65.316 Q44.712 70.486 39.542 70.486 L5.171 70.486 Q0.0 70.486 0.0 65.316 L0.0 5.17 Q0.0 0.0 5.171 0.0 L39.542 0.0 Q44.711998 0.0 44.711998 5.17 L44.711998 65.316 L44.712 65.316z" stroke-width="1.0" stroke-linejoin="round" stroke="#67676d"/><path fill="url(#id17)" d="M43.6240002 64.1669974 Q43.6240002 69.1299954 38.662000199999994 69.1299954 L6.2020002 69.1299954 Q1.35639186 69.1299954 1.2400002 64.1669974 L1.2400002 6.3060004 Q1.2400002 1.3430004 6.2020002 1.3430004 L38.661997199999995 1.3430004 Q43.6240002 1.3430004 43.6240002 6.3060004 L43.6240002 64.1679974 L43.6240002 64.1669974z" stroke-width="1.0" stroke-linejoin="round" stroke="#cccccc"/><path fill="url(#id18)" d="M28.764999 7.362 Q28.764999 8.720000299999999 27.407999 8.720000299999999 L18.2800003 8.720000299999999 Q16.921001 8.720000299999999 16.921001 7.3620005 Q16.921001 6.0040007 18.2800003 6.0040007 L27.407001 6.0040007 Q28.764001 6.0040007 28.764001 7.3620005 L28.764999 7.362z" stroke-width="1.0" stroke-linejoin="round" stroke="#000000"/><path fill="url(#id19)" d="M26.974001 61.240000599999995 Q26.974001 65.857001 22.3560006 65.857001 Q17.739 65.857001 17.739 61.240000599999995 Q17.739 56.623 22.3560006 56.623 Q26.974001 56.623 26.974001 61.240000599999995 L26.974001 61.240000599999995z" stroke="none"/><path fill="none" d="M24.561001 62.592998 Q24.561001 63.4449993 23.710001000000002 63.4449993 L21.00200083 63.4449993 Q20.151001 63.4449993 20.151001 62.592998 L20.151001 59.8839985 Q20.151001 59.034 21.00200083 59.034 L23.710001000000002 59.034 Q24.561001 59.034 24.561001 59.8839985 L24.561001 62.592998 L24.561001 62.592998z" stroke-width="1.0" stroke-linejoin="round" stroke="#717177"/><path fill="url(#id20)" d="M40.199999999999996 55.597001 L4.742 55.597001 L4.742 11.887001 L40.199999999999996 11.887001 L40.199999999999996 55.597001 L40.199999999999996 55.597001z" stroke-width="1.0" stroke-linejoin="round" stroke="#000000"/></g><g transform="translate(786.501 260.341)"><path fill="#949ba8" fill-opacity="1.0" d="M88.54499501000001 12.654 L56.85100301 36.235 L0.09200001 23.141 L33.01900201 0.0 L88.54499501000001 12.654 L88.54499501000001 12.654z" stroke="none"/><path fill="#828999" fill-opacity="1.0" d="M-0.15400001 23.495 L56.850999990000005 36.703002 L56.850999990000005 48.584003 L-0.15400001 35.178001 L-0.15400001 23.495 L-0.15400001 23.495z" stroke="none"/><path fill="#757a8a" fill-opacity="1.0" d="M88.93 12.654 L56.22 35.754002 L56.8510005 48.318 L88.99799999999999 24.344 L88.93 12.654 L88.93 12.654z" stroke="none"/><path fill="#a8acb2" fill-opacity="1.0" d="M58.057 36.835999 L88.811 13.233999 L88.528 12.483999 L56.809 35.126999 Q56.378998 35.448997000000006 55.711998 35.323997000000006 Q55.564865 35.29684 46.82644 33.388172 Q43.118153 32.578197 37.89629 31.436722 Q33.350105 30.442945 27.6955 29.206375 Q22.906588 28.159118 17.514772 26.979732 Q13.12857 26.020311 8.644813 25.03939 Q5.5001736 24.351434 2.3763204 23.6679475 Q0.86381245 23.337017000000003 0.0 23.148000000000003 L0.0 23.770000000000003 Q0.8697188 23.972141 2.3923926 24.326063 Q5.4377403 25.033907 8.702516 25.792812 Q13.263971 26.853136 17.629787 27.868095 Q23.084192 29.136125 27.873625 30.249749 Q33.57463 31.575332 38.13345 32.635627 Q43.375843 33.854904000000005 47.108673 34.723563999999996 Q55.885796 36.766067 56.003 36.797001 Q56.342 36.885002 56.421997 37.327999000000005 L56.421997 48.425999000000004 L56.850998 48.318999000000005 Q57.684 48.161001 57.684 46.855999 Q57.684 37.445999 57.684 37.445999 Q57.669 37.023998000000006 58.057 36.836998 L58.057 36.835999z" stroke="none"/><path fill="none" d="M33.404 0.0 L0.0 23.148 L0.0 34.953003 L56.992 48.617004 L88.998 24.344004 L88.998 12.579 L33.404 0.0 L33.404 0.0z" stroke-width="1.0" stroke-linejoin="round" stroke="#757575"/><path fill="none" d="M60.272 33.655 L60.272 33.655z" stroke-width="1.0" stroke-linejoin="round" stroke="#aaaaaa"/><path fill="#9ccc29" fill-opacity="1.0" d="M6.665999899999999 34.0530014 Q6.467548799999999 34.973091000000004 5.5489998 34.776001 L2.7809999 34.119999 Q1.8622484 33.9228668 2.05599974 33.00299834 Q2.2534661 32.082695 3.1729998 32.27999877 L5.941000000000001 32.9379997 Q6.860154099999999 33.1312218 6.665999899999999 34.0530014 L6.665999899999999 34.0530014z" stroke-width="1.0" stroke-linejoin="round" stroke="#6d7384"/><path fill="#949ba8" fill-opacity="1.0" d="M12.4200001 35.4500004 Q12.2250825 36.366836199999995 11.3030005 36.172999999999995 L8.5350008 35.514998999999996 Q7.6147375 35.321162799999996 7.81100081 34.3979984 Q8.01132964 33.476482 8.9290008 33.67699775 L11.697000500000001 34.332995999999994 Q12.615571 34.530089999999994 12.4200001 35.4499966 L12.4200001 35.4500004z" stroke-width="1.0" stroke-linejoin="round" stroke="#6d7384"/><path fill="#949ba8" fill-opacity="1.0" d="M18.176001 36.844000099999995 Q17.978788700000003 37.763116999999994 17.059000400000002 37.5689986 L14.2900003 36.9089987 Q13.372208 36.715685099999995 13.56600034 35.791998099999994 Q13.76372087 34.87414 14.683 35.07099745 L17.4510006 35.728998399999995 Q18.3666767 35.921488 18.176001 36.844000099999995 L18.176001 36.844000099999995z" stroke-width="1.0" stroke-linejoin="round" stroke="#6d7384"/></g><g transform="translate(697.065 262.65)"><clipPath id="id21"><path d="M0 0 L68.0 0 L68.0 22.0 L0 22.0z"/></clipPath><text font-size="12" clip-path="url(#id21)" text-decoration="none" fill="#000000" font-family="Arial,Arial" font-style="normal" font-weight="normal"><tspan x="2.0" xml:space="preserve" y="13.0" textLength="62.0">Red interna</tspan></text></g><g transform="translate(603.8145 332.02149999999995)"><clipPath id="id22"><path d="M0 0 L77.0 0 L77.0 34.978500000000054 L0 34.978500000000054z"/></clipPath><text font-size="12" clip-path="url(#id22)" text-decoration="none" fill="#000000" font-family="Arial,Arial" font-style="normal" font-weight="normal"><tspan x="2.0" xml:space="preserve" y="13.0" textLength="68.0">Interfaz Web</tspan><tspan x="2.0" xml:space="preserve" y="27.0" textLength="64.0"> (Front-End)</tspan></text></g><g transform="translate(774.5 332.51075)"><clipPath id="id23"><path d="M0 0 L113.0 0 L113.0 34.0 L0 34.0z"/></clipPath><text font-size="12" clip-path="url(#id23)" text-decoration="none" fill="#000000" font-family="Arial,Arial" font-style="normal" font-weight="normal"><tspan x="2.0" xml:space="preserve" y="13.0" textLength="106.0">Servicio Web FPGA</tspan><tspan x="2.0" xml:space="preserve" y="27.0" textLength="83.0">       (Back-End)</tspan></text></g><g transform="translate(438.40000000000003 112.96349999999998)"><clipPath id="id24"><path d="M0 0 L53.609500000000025 0 L53.609500000000025 17.0 L0 17.0z"/></clipPath><text font-size="12" clip-path="url(#id24)" text-decoration="none" fill="#000000" font-family="Arial,Arial" font-style="normal" font-weight="normal"><tspan x="2.0" xml:space="preserve" y="13.0" textLength="47.0">Usuarios</tspan></text></g><path fill="none" stroke-linejoin="round" id="id27" d="M491.9655 182.85899999999995 L560.0002738694454 182.85899999999995 L560.0002738694454 284.65 L614.0 284.65" stroke="#000000" stroke-width="1.0" marker-end="url(#id25)"/><path fill="none" stroke-linejoin="round" id="id30" d="M491.9655 402.243 L560.0002738694454 402.243 L560.0002738694454 284.65 L614.0 284.65" stroke="#000000" stroke-width="1.0" marker-end="url(#id28)"/><g transform="translate(462.70475000000005 256.691)"><path fill-opacity="1.0" fill="#000000" stroke-linejoin="round" id="id32" d="M5.0 2.9795000000000016 Q5.0 3.572159398607694 4.809698831278218 4.119705286731788 Q4.619397662556434 4.667251174855882 4.267766952966369 5.086324654545322 Q3.9161362433763043 5.505398134234761 3.456708580912725 5.732199067117383 Q2.997280918449145 5.959000000000003 2.5 5.959000000000003 Q2.0027190815508553 5.959000000000003 1.5432914190872757 5.732199067117383 Q1.0838637566236964 5.505398134234761 0.7322330470336316 5.086324654545322 Q0.38060233744356603 4.667251174855882 0.19030116872178302 4.119705286731788 Q0.0 3.572159398607694 0.0 2.979500000000003 Q0.0 2.386840601392311 0.19030116872178302 1.839294713268217 Q0.38060233744356603 1.2917488251441223 0.7322330470336308 0.8726753454546825 Q1.083863756623696 0.4536018657652435 1.5432914190872746 0.22680093288262215 Q2.0027190815508544 0.0 2.499999999999999 0.0 Q2.997280918449145 0.0 3.456708580912726 0.22680093288262174 Q3.9161362433763043 0.4536018657652429 4.267766952966369 0.8726753454546817 Q4.619397662556433 1.2917488251441207 4.809698831278216 1.8392947132682147 Q5.0 2.386840601392309 5.0 2.9795000000000016z" stroke="#000000" stroke-width="1.0"/></g><g transform="translate(462.70475000000005 281.67049999999995)"><path fill-opacity="1.0" fill="#000000" stroke-linejoin="round" id="id34" d="M5.0 2.9795000000000016 Q5.0 3.572159398607694 4.809698831278218 4.119705286731788 Q4.619397662556434 4.667251174855882 4.267766952966369 5.086324654545322 Q3.9161362433763043 5.505398134234761 3.456708580912725 5.732199067117383 Q2.997280918449145 5.959000000000003 2.5 5.959000000000003 Q2.0027190815508553 5.959000000000003 1.5432914190872757 5.732199067117383 Q1.0838637566236964 5.505398134234761 0.7322330470336316 5.086324654545322 Q0.38060233744356603 4.667251174855882 0.19030116872178302 4.119705286731788 Q0.0 3.572159398607694 0.0 2.979500000000003 Q0.0 2.386840601392311 0.19030116872178302 1.839294713268217 Q0.38060233744356603 1.2917488251441223 0.7322330470336308 0.8726753454546825 Q1.083863756623696 0.4536018657652435 1.5432914190872746 0.22680093288262215 Q2.0027190815508544 0.0 2.499999999999999 0.0 Q2.997280918449145 0.0 3.456708580912726 0.22680093288262174 Q3.9161362433763043 0.4536018657652429 4.267766952966369 0.8726753454546817 Q4.619397662556433 1.2917488251441207 4.809698831278216 1.8392947132682147 Q5.0 2.386840601392309 5.0 2.9795000000000016z" stroke="#000000" stroke-width="1.0"/></g><g transform="translate(462.70475000000005 308.959)"><path fill-opacity="1.0" fill="#000000" stroke-linejoin="round" id="id36" d="M5.0 2.9795000000000016 Q5.0 3.572159398607694 4.809698831278218 4.119705286731788 Q4.619397662556434 4.667251174855882 4.267766952966369 5.086324654545322 Q3.9161362433763043 5.505398134234761 3.456708580912725 5.732199067117383 Q2.997280918449145 5.959000000000003 2.5 5.959000000000003 Q2.0027190815508553 5.959000000000003 1.5432914190872757 5.732199067117383 Q1.0838637566236964 5.505398134234761 0.7322330470336316 5.086324654545322 Q0.38060233744356603 4.667251174855882 0.19030116872178302 4.119705286731788 Q0.0 3.572159398607694 0.0 2.979500000000003 Q0.0 2.386840601392311 0.19030116872178302 1.839294713268217 Q0.38060233744356603 1.2917488251441223 0.7322330470336308 0.8726753454546825 Q1.083863756623696 0.4536018657652435 1.5432914190872746 0.22680093288262215 Q2.0027190815508544 0.0 2.499999999999999 0.0 Q2.997280918449145 0.0 3.456708580912726 0.22680093288262174 Q3.9161362433763043 0.4536018657652429 4.267766952966369 0.8726753454546817 Q4.619397662556433 1.2917488251441207 4.809698831278216 1.8392947132682147 Q5.0 2.386840601392309 5.0 2.9795000000000016z" stroke="#000000" stroke-width="1.0"/></g></g></svg>