<?xml version="1.0" encoding="utf-8"?>
<svg contentScriptType="text/ecmascript" xmlns:xlink="http://www.w3.org/1999/xlink" zoomAndPan="magnify" contentStyleType="text/css" viewBox="32.451374625 143.0 701.946625375 207.16500000000002" xmlns:cacoo="http://cacoo.com/" preserveAspectRatio="xMidYMin meet" xmlns="http://www.w3.org/2000/svg" version="1.1"><defs><linearGradient x1="0%" xmlns:xlink="http://www.w3.org/1999/xlink" y1="0%" x2="0%" y2="100%" xlink:type="simple" xlink:actuate="onLoad" id="id0" xlink:show="other"><stop stop-opacity="1.0" stop-color="#fadcec" offset="0%"/><stop stop-opacity="1.0" stop-color="#d57ba8" offset="100%"/></linearGradient><linearGradient x1="0%" xmlns:xlink="http://www.w3.org/1999/xlink" y1="0%" x2="0%" y2="100%" xlink:type="simple" xlink:actuate="onLoad" id="id2" xlink:show="other"><stop stop-opacity="1.0" stop-color="#b6e3dd" offset="0%"/><stop stop-opacity="1.0" stop-color="#50ab9c" offset="100%"/></linearGradient><linearGradient xlink:actuate="onLoad" xlink:type="simple" id="id4" xlink:show="other" xmlns:xlink="http://www.w3.org/1999/xlink"><stop stop-opacity="1.0" stop-color="#ffffff" offset="0%"/><stop stop-opacity="1.0" stop-color="#cccccc" offset="100%"/></linearGradient><linearGradient x1="0%" xmlns:xlink="http://www.w3.org/1999/xlink" y1="0%" x2="0%" y2="100%" xlink:type="simple" xlink:actuate="onLoad" id="id5" xlink:show="other"><stop stop-opacity="1.0" stop-color="#cccccc" offset="0%"/><stop stop-opacity="1.0" stop-color="#ffffff" offset="100%"/></linearGradient><marker refX="14.0" refY="7.0" markerUnits="userSpaceOnUse" orient="auto" id="id6" markerHeight="14.0" viewBox="0 0 14.0 14.0" preserveAspectRatio="xMidYMid meet" markerWidth="14.0" overflow="visible"><path fill="#000000" d="M0 0 L14.0 7.0 L0 14.0z" stroke-width="1.0" stroke-linejoin="round" stroke-linecap="round" stroke="#000000"/></marker><filter xlink:actuate="onLoad" xlink:type="simple" id="id7" xlink:show="other" filterUnits="userSpaceOnUse" xmlns:xlink="http://www.w3.org/1999/xlink"><feGaussianBlur stdDeviation="3.0" result="blur" in="SourceAlpha"/><feOffset dx="4.0" dy="4.0" result="offsetBlur" in="blur"/><feComponentTransfer result="componentOffsetBlur" in="offsetBlur"><feFuncR type="linear" intercept="0.0" slope="0"/><feFuncG type="linear" intercept="0.0" slope="0"/><feFuncB type="linear" intercept="0.0" slope="0"/><feFuncA type="linear" intercept="0" slope="0.4"/></feComponentTransfer></filter><marker refX="14.0" refY="7.0" markerUnits="userSpaceOnUse" orient="auto" id="id11" markerHeight="14.0" viewBox="0 0 14.0 14.0" preserveAspectRatio="xMidYMid meet" markerWidth="14.0" overflow="visible"><path fill="#000000" d="M0 0 L14.0 7.0 L0 14.0z" stroke-width="1.0" stroke-linejoin="round" stroke-linecap="round" stroke="#000000"/></marker><filter xlink:actuate="onLoad" xlink:type="simple" id="id12" xlink:show="other" filterUnits="userSpaceOnUse" xmlns:xlink="http://www.w3.org/1999/xlink"><feGaussianBlur stdDeviation="3.0" result="blur" in="SourceAlpha"/><feOffset dx="4.0" dy="4.0" result="offsetBlur" in="blur"/><feComponentTransfer result="componentOffsetBlur" in="offsetBlur"><feFuncR type="linear" intercept="0.0" slope="0"/><feFuncG type="linear" intercept="0.0" slope="0"/><feFuncB type="linear" intercept="0.0" slope="0"/><feFuncA type="linear" intercept="0" slope="0.4"/></feComponentTransfer></filter></defs><g><g transform="translate(157.451374625 245.0)"><use xlink:href="#id8" xlink:actuate="onLoad" xlink:type="simple" xlink:show="embed" xmlns:xlink="http://www.w3.org/1999/xlink" filter="url(#id7)"/></g><g transform="translate(157.451374625 216.04999999999995)"><use xlink:href="#id13" xlink:actuate="onLoad" xlink:type="simple" xlink:show="embed" xmlns:xlink="http://www.w3.org/1999/xlink" filter="url(#id12)"/></g></g><g><g transform="translate(609.398 220.0)"><path fill="url(#id0)" d="M110.0 43.0 Q110.0 50.0 103.0 50.0 L7.0 50.0 Q0.0 50.0 0.0 43.0 L0.0 7.0 Q0.0 0.0 7.0 0.0 L103.0 0.0 Q110.0 0.0 110.0 7.0 L110.0 43.0 L110.0 43.0z" stroke-width="1.0" stroke-linejoin="round" stroke="#cc6699"/><g transform="translate(5.0 5.0)"><clipPath id="id1"><path d="M0 0 L100.0 0 L100.0 40.0 L0 40.0z"/></clipPath><text font-size="18" clip-path="url(#id1)" text-decoration="none" fill="#000000" font-family="Arial,Arial" font-style="normal" font-weight="normal"><tspan x="16.0" xml:space="preserve" y="26.0" textLength="67.0">Servidor</tspan></text></g></g><g transform="translate(47.451374625 226.04999999999995)"><path fill="url(#id2)" d="M110.0 50.0 L0.0 50.0 L0.0 0.0 L110.0 0.0 L110.0 50.0 L110.0 50.0z" stroke-width="1.0" stroke-linejoin="round" stroke="#3b9684"/><g transform="translate(5.0 5.0)"><clipPath id="id3"><path d="M0 0 L100.0 0 L100.0 40.0 L0 40.0z"/></clipPath><text font-size="18" clip-path="url(#id3)" text-decoration="none" fill="#000000" font-family="Arial,Arial" font-style="normal" font-weight="normal"><tspan x="22.0" xml:space="preserve" y="26.0" textLength="56.0">Cliente</tspan></text></g></g><g transform="translate(194.0 282.83500000000004)"><path fill="url(#id4)" d="M46.38900300000001 14.078 L32.274000000000015 0.0 L5.9010000000000105 0.0 Q4.9010000000000105 0.0 4.9010000000000105 1.0 L4.9010000000000105 51.33 Q4.9010000000000105 52.33 5.9010000000000105 52.33 L45.38900000000001 52.33 Q46.38900000000001 52.33 46.38900000000001 51.33 L46.38900000000001 14.078 L46.38900300000001 14.078z" stroke-width="1.0" stroke-linejoin="round" stroke="#000000"/><path fill="#7ac01f" fill-opacity="1.0" d="M36.674 18.899000000000008 Q36.674 19.899000000000008 35.674 19.899000000000008 L1.0 19.899000000000008 Q0.0 19.899000000000008 0.0 18.899000000000008 L0.0 7.055000000000007 Q0.0 6.055000000000007 1.0 6.055000000000007 L35.674 6.055000000000007 Q36.674 6.055000000000007 36.674 7.055000000000007 L36.674 18.899999000000008 L36.674 18.899000000000008z" stroke-width="1.0" stroke-linejoin="round" stroke="#000000"/><path fill="#ffffff" fill-opacity="1.0" d="M4.03999996 16.60600100000002 Q4.16899967 16.63600200000002 4.41699982 16.63600200000002 Q5.0120001 16.63600200000002 5.0120001 15.62400240000002 L5.0120001 10.455001800000021 L6.7979994 10.455001800000021 L6.7979994 15.674001600000022 Q6.7979994 17.82700200000002 5.0019998999999995 17.82700200000002 Q4.40888405 17.82700200000002 4.0 17.73800100000002 L4.03999996 16.60700000000002 L6.7979994 9.61200040000002 L5.0119991 9.61200040000002 L5.0119991 8.302000000000021 L6.7979994 8.302000000000021 L6.7979994 9.611999500000021" stroke="none"/><path fill="#ffffff" fill-opacity="1.0" d="M8.13900185 14.024999699999963 Q8.9706726 14.381999999999962 9.8160019 14.381999999999962 Q10.540001 14.381999999999962 10.540001 13.965000199999963 Q9.2700005 12.903500599999964 8.0 11.841999999999963 Q8.0 10.164999999999964 10.2019997 10.164999999999964 Q11.2654648 10.164999999999964 12.017 10.463000339999963 L11.8780003 11.703000099999963 Q11.306738 11.355999999999964 10.4890003 11.355999999999964 Q9.6660004 11.355999999999964 9.6660004 11.713000299999964 Q10.9955006 12.779499999999963 12.325001 13.845999799999964 Q12.325001 15.572998999999964 9.9140015 15.572998999999964 Q8.8154774 15.572998999999964 8.039001465 15.324998999999963 L8.1380024 14.024998699999964 L8.13900185 14.024999699999963z" stroke="none"/><path fill="#969696" fill-opacity="1.0" d="M22.89499930000001 26.762999999999977 L22.095999500000012 26.762999999999977 Q21.109000000000012 26.762999999999977 21.109000000000012 27.850999399999978 L21.109000000000012 30.964000299999977 Q21.08973400000001 32.697879299999975 19.13600040000001 32.83399899999998 Q21.091711800000013 33.00712159999998 21.109000000000012 34.85800099999997 L21.109000000000012 37.851000999999975 Q21.109000000000012 38.94000199999998 22.095999500000012 38.94000199999998 L22.89499930000001 38.94000199999998 L22.89499930000001 40.470000999999975 L21.193999000000012 40.470000999999975 Q18.76199990000001 40.470000999999975 18.76199990000001 38.139998999999975 L18.76199990000001 34.857996999999976 Q18.76199990000001 33.61699599999997 17.30000000000001 33.61699599999997 L17.30000000000001 32.085997999999975 Q18.76199990000001 32.085997999999975 18.76199990000001 30.963998399999976 L18.76199990000001 27.561997999999974 Q18.76199990000001 25.231997999999976 21.193999000000012 25.231997999999976 L22.89499930000001 25.231997999999976 L22.89499930000001 26.762998099999976 L22.89499930000001 26.762999999999977z" stroke="none"/><path fill="#969696" fill-opacity="1.0" d="M29.867999999999995 38.939997999999974 L30.666999799999996 38.939997999999974 Q31.654001199999996 38.939997999999974 31.654001199999996 37.85099799999997 L31.654001199999996 34.73899799999997 Q31.673246399999996 33.006789999999974 33.6270008 32.86799969999997 Q31.671316099999995 32.69755499999997 31.654001199999996 30.844998999999973 L31.654001199999996 27.850999499999972 Q31.654001199999996 26.76300009999997 30.667001699999997 26.76300009999997 L29.868001907348596 26.76300009999997 L29.868001907348596 25.23199999999997 L31.568002699999994 25.23199999999997 Q34.0010013 25.23199999999997 34.0010013 27.56199999999997 L34.0010013 30.84500099999997 Q34.0010013 32.08600199999997 35.46400259999999 32.08600199999997 L35.46400259999999 33.61699999999997 Q34.0010013 33.61699999999997 34.0010013 34.73900199999997 L34.0010013 38.14000299999997 Q34.0010013 40.47000099999997 31.568002699999994 40.47000099999997 L29.868001907348596 40.47000099999997 L29.868001907348596 38.94000199999997 L29.867999999999995 38.939997999999974z" stroke="none"/><path fill="url(#id5)" d="M46.389 14.144 L33.298 14.144 Q32.298 14.144 32.298 13.144 L32.298 0.0 L46.389 14.144 L46.389 14.144z" stroke-width="1.0" stroke-linejoin="round" stroke="#000000"/><path fill="#ffffff" fill-opacity="1.0" d="M13.0000019073486 12.981500399999945 Q13.0000019073486 10.273500199999944 16.0060024 10.273500199999944 Q19.012000999999998 10.273500199999944 19.012000999999998 12.981500399999945 Q19.012000999999998 15.680499799999943 16.0060005 15.680499799999943 Q13.0 15.680499799999943 13.0 12.981500399999945 L17.1670017 12.981500399999945 Q17.1670017 11.523500199999944 16.0060024 11.523500199999944 Q14.8450031 11.523500199999944 14.8450031 12.981500399999945 Q14.8450031 14.430500699999943 16.0060024 14.430500699999943 Q17.1670017 14.430500699999943 17.1670017 12.981500399999945" stroke="none"/><path fill="#ffffff" fill-opacity="1.0" d="M20.0 10.45200043499997 L21.6270008 10.45200043499997 L21.6270008 11.40500049999997 Q22.1613884 10.33299999999997 23.5320015 10.33299999999997 Q25.5060024 10.33299999999997 25.5060024 12.39700009999997 L25.5060024 15.62099999999997 L23.7200031 15.62099999999997 L23.7200031 13.12099999999997 Q23.7200031 11.82099989999997 22.8970032 11.82099989999997 Q21.7860031 11.82099989999997 21.7860031 13.43799949999997 L21.7860031 15.62099999999997 L20.0000038146973 15.62099999999997 L20.0000038146973 10.45199947999997 L20.0 10.45200043499997z" stroke="none"/></g><g transform="translate(157.451374625 245.0)"><path fill="none" stroke-linejoin="round" id="id8" d="M451.9466253750001 20.0 L0.0 20.0" stroke="#000000" stroke-width="1.0" marker-end="url(#id6)"/><g transform="translate(0.0 0.0)"><clipPath id="id9"><path d="M0 0 L451.94662537500005 0 L451.94662537500005 20.0 L0 20.0z"/></clipPath><text font-size="12" clip-path="url(#id9)" text-decoration="none" fill="#000000" font-family="Times" font-style="normal" font-weight="normal"/></g></g><g transform="translate(305.8814373125001 301.165)"><clipPath id="id10"><path d="M0 0 L80.0 0 L80.0 20.0 L0 20.0z"/></clipPath><text font-size="14" clip-path="url(#id10)" text-decoration="none" fill="#000000" font-family="Arial,Arial" font-style="normal" font-weight="normal"><tspan x="2.0" xml:space="preserve" y="15.0" textLength="70.0">Respuesta:</tspan></text></g><g transform="translate(157.451374625 216.04999999999995)"><path fill="none" stroke-linejoin="round" id="id13" d="M0.0 20.0 L451.9466253750004 20.0" stroke="#000000" stroke-width="1.0" marker-end="url(#id11)"/><g transform="translate(0.0 0.0)"><clipPath id="id14"><path d="M0 0 L451.94662537500005 0 L451.94662537500005 20.0 L0 20.0z"/></clipPath><text font-size="12" clip-path="url(#id14)" text-decoration="none" fill="#000000" font-family="Times" font-style="normal" font-weight="normal"/></g></g><g transform="translate(407.3814373125001 295.165)"><clipPath id="id15"><path d="M0 0 L76.0 0 L76.0 40.0 L0 40.0z"/></clipPath><text font-size="13" clip-path="url(#id15)" text-decoration="none" fill="#000000" font-family="Arial,Arial" font-style="normal" font-weight="normal"><tspan x="2.0" xml:space="preserve" y="14.0" textLength="44.0">200 OK</tspan><tspan x="2.0" xml:space="preserve" y="29.0" textLength="70.0">4xx ERROR</tspan></text></g><g transform="translate(385.8814373125001 291.165)"><path fill="none" d="M20.0 0.0 L20.0 0.0 Q10.0 0.0 10.0 10.0 L10.0 10.25 Q10.0 20.25 0.0 20.25" stroke-width="1.0" stroke-linejoin="round" stroke="#000000"/><path fill="none" d="M0.0 20.25 Q10.0 20.25 10.0 30.25 L10.0 30.5 Q10.0 40.5 20.0 40.5 L20.0 40.5" stroke-width="1.0" stroke-linejoin="round" stroke="#000000"/></g><g transform="translate(157.451374625 158.0)"><g transform="translate(0.0 19.549999999999955)"><clipPath id="id16"><path d="M0 0 L42.1945015 0 L42.1945015 21.950000000000045 L0 21.950000000000045z"/></clipPath><text font-size="14" clip-path="url(#id16)" text-decoration="none" fill="#000000" font-family="Arial,Arial" font-style="normal" font-weight="normal"><tspan x="2.0" xml:space="preserve" y="15.0" textLength="36.0">HTTP</tspan></text></g><g transform="translate(63.09725075 0.0)"><clipPath id="id17"><path d="M0 0 L52.00000000000003 0 L52.00000000000003 61.049999999999955 L0 61.049999999999955z"/></clipPath><text font-size="12" clip-path="url(#id17)" text-decoration="none" fill="#000000" font-family="Arial,Arial" font-style="normal" font-weight="normal"><tspan x="2.0" xml:space="preserve" y="13.0" textLength="24.0">GET</tspan><tspan x="2.0" xml:space="preserve" y="27.0" textLength="24.0">PUT</tspan><tspan x="2.0" xml:space="preserve" y="41.0" textLength="32.0">POST</tspan><tspan x="2.0" xml:space="preserve" y="55.0" textLength="46.0">DELETE</tspan></text></g><g transform="translate(42.1945015 0.037499999999965894)"><path fill="none" d="M20.0 0.0 L20.0 0.0 Q10.0 0.0 10.0 10.0 L10.0 20.48750000000001 Q10.0 30.48750000000001 0.0 30.48750000000001" stroke-width="1.0" stroke-linejoin="round" stroke="#000000"/><path fill="none" d="M0.0 30.48750000000001 Q10.0 30.48750000000001 10.0 40.48750000000001 L10.0 50.97500000000002 Q10.0 60.97500000000002 20.0 60.97500000000002 L20.0 60.97500000000002" stroke-width="1.0" stroke-linejoin="round" stroke="#000000"/></g><g transform="translate(118.09725075000003 0.037499999999965894)"><path fill="none" d="M0.0 0.0 L0.0 0.0 Q10.0 0.0 10.0 10.0 L10.0 20.506249999999994 Q10.0 30.506249999999994 20.0 30.506249999999994" stroke-width="1.0" stroke-linejoin="round" stroke="#000000"/><path fill="none" d="M20.0 30.506249999999994 Q10.0 30.506249999999994 10.0 40.506249999999994 L10.0 51.01249999999999 Q10.0 61.01249999999999 0.0 61.01249999999999 L0.0 61.01249999999999" stroke-width="1.0" stroke-linejoin="round" stroke="#000000"/></g><g transform="translate(145.09725075000003 21.049999999999955)"><clipPath id="id18"><path d="M0 0 L329.2628746250001 0 L329.2628746250001 40.0 L0 40.0z"/></clipPath><text font-size="13" clip-path="url(#id18)" text-decoration="none" fill="#000000" font-family="Arial,Arial" font-style="normal" font-weight="normal"><tspan x="2.0" xml:space="preserve" y="14.0" textLength="318.0">http://servicio:puerto/recurso/parámetro1/parámetro2/...</tspan></text></g></g></g></svg>