<?xml version="1.0" encoding="utf-8"?>
<svg contentScriptType="text/ecmascript" xmlns:xlink="http://www.w3.org/1999/xlink" zoomAndPan="magnify" contentStyleType="text/css" viewBox="197.0 41.0 619.0 853.45" xmlns:cacoo="http://cacoo.com/" preserveAspectRatio="xMidYMin meet" xmlns="http://www.w3.org/2000/svg" version="1.1"><defs><linearGradient x1="0%" xmlns:xlink="http://www.w3.org/1999/xlink" y1="0%" x2="0%" y2="100%" xlink:type="simple" xlink:actuate="onLoad" id="id0" xlink:show="other"><stop stop-opacity="1.0" stop-color="#e1d5e7" offset="0%"/><stop stop-opacity="1.0" stop-color="#a680b8" offset="97%"/></linearGradient><linearGradient x1="0%" xmlns:xlink="http://www.w3.org/1999/xlink" y1="0%" x2="0%" y2="100%" xlink:type="simple" xlink:actuate="onLoad" id="id2" xlink:show="other"><stop stop-opacity="1.0" stop-color="#cce3df" offset="0%"/><stop stop-opacity="1.0" stop-color="#67ab9f" offset="100%"/></linearGradient><linearGradient xlink:actuate="onLoad" xlink:type="simple" id="id4" xlink:show="other" xmlns:xlink="http://www.w3.org/1999/xlink"><stop stop-opacity="1.0" stop-color="#ffffff" offset="0%"/><stop stop-opacity="1.0" stop-color="#cccccc" offset="100%"/></linearGradient><linearGradient xlink:actuate="onLoad" xlink:type="simple" id="id5" xlink:show="other" xmlns:xlink="http://www.w3.org/1999/xlink"><stop stop-opacity="1.0" stop-color="#ffffff" offset="0%"/><stop stop-opacity="1.0" stop-color="#cccccc" offset="100%"/></linearGradient><linearGradient xlink:actuate="onLoad" xlink:type="simple" id="id6" xlink:show="other" xmlns:xlink="http://www.w3.org/1999/xlink"><stop stop-opacity="1.0" stop-color="#ffffff" offset="0%"/><stop stop-opacity="1.0" stop-color="#cccccc" offset="100%"/></linearGradient><linearGradient xlink:actuate="onLoad" xlink:type="simple" id="id7" xlink:show="other" xmlns:xlink="http://www.w3.org/1999/xlink"><stop stop-opacity="1.0" stop-color="#ffffff" offset="0%"/><stop stop-opacity="1.0" stop-color="#cccccc" offset="100%"/></linearGradient><linearGradient xlink:actuate="onLoad" xlink:type="simple" id="id11" xlink:show="other" xmlns:xlink="http://www.w3.org/1999/xlink"><stop stop-opacity="1.0" stop-color="#ffffff" offset="0%"/><stop stop-opacity="1.0" stop-color="#cccccc" offset="100%"/></linearGradient><linearGradient xlink:actuate="onLoad" xlink:type="simple" id="id12" xlink:show="other" xmlns:xlink="http://www.w3.org/1999/xlink"><stop stop-opacity="1.0" stop-color="#ffffff" offset="0%"/><stop stop-opacity="1.0" stop-color="#cccccc" offset="100%"/></linearGradient><linearGradient xlink:actuate="onLoad" xlink:type="simple" id="id14" xlink:show="other" xmlns:xlink="http://www.w3.org/1999/xlink"><stop stop-opacity="1.0" stop-color="#ffffff" offset="0%"/><stop stop-opacity="1.0" stop-color="#cccccc" offset="100%"/></linearGradient><linearGradient xlink:actuate="onLoad" xlink:type="simple" id="id15" xlink:show="other" xmlns:xlink="http://www.w3.org/1999/xlink"><stop stop-opacity="1.0" stop-color="#ffffff" offset="0%"/><stop stop-opacity="1.0" stop-color="#cccccc" offset="100%"/></linearGradient><linearGradient xlink:actuate="onLoad" xlink:type="simple" id="id17" xlink:show="other" xmlns:xlink="http://www.w3.org/1999/xlink"><stop stop-opacity="1.0" stop-color="#ffffff" offset="0%"/><stop stop-opacity="1.0" stop-color="#cccccc" offset="100%"/></linearGradient><linearGradient xlink:actuate="onLoad" xlink:type="simple" id="id18" xlink:show="other" xmlns:xlink="http://www.w3.org/1999/xlink"><stop stop-opacity="1.0" stop-color="#ffffff" offset="0%"/><stop stop-opacity="1.0" stop-color="#cccccc" offset="100%"/></linearGradient><marker refX="14.0" refY="7.0" markerUnits="userSpaceOnUse" orient="auto" id="id19" markerHeight="14.0" viewBox="0 0 14.0 14.0" preserveAspectRatio="xMidYMid meet" markerWidth="14.0" overflow="visible"><path fill="#000000" d="M0 0 L14.0 7.0 L0 14.0z" stroke-width="1.0" stroke-linejoin="round" stroke-linecap="round" stroke="#000000"/></marker><filter xlink:actuate="onLoad" xlink:type="simple" id="id20" xlink:show="other" filterUnits="userSpaceOnUse" xmlns:xlink="http://www.w3.org/1999/xlink"><feGaussianBlur stdDeviation="3.0" result="blur" in="SourceAlpha"/><feOffset dx="-4.000000000000001" dy="3.999999999999999" result="offsetBlur" in="blur"/><feComponentTransfer result="componentOffsetBlur" in="offsetBlur"><feFuncR type="linear" intercept="0.0" slope="0"/><feFuncG type="linear" intercept="0.0" slope="0"/><feFuncB type="linear" intercept="0.0" slope="0"/><feFuncA type="linear" intercept="0" slope="0.4"/></feComponentTransfer></filter><filter xlink:actuate="onLoad" xlink:type="simple" id="id24" xlink:show="other" filterUnits="userSpaceOnUse" xmlns:xlink="http://www.w3.org/1999/xlink"><feGaussianBlur stdDeviation="3.0" result="blur" in="SourceAlpha"/><feOffset dx="4.0" dy="4.0" result="offsetBlur" in="blur"/><feComponentTransfer result="componentOffsetBlur" in="offsetBlur"><feFuncR type="linear" intercept="0.0" slope="0"/><feFuncG type="linear" intercept="0.0" slope="0"/><feFuncB type="linear" intercept="0.0" slope="0"/><feFuncA type="linear" intercept="0" slope="0.4"/></feComponentTransfer></filter><marker refX="14.0" refY="7.0" markerUnits="userSpaceOnUse" orient="auto" id="id26" markerHeight="14.0" viewBox="0 0 14.0 14.0" preserveAspectRatio="xMidYMid meet" markerWidth="14.0" overflow="visible"><path fill="#000000" d="M0 0 L14.0 7.0 L0 14.0z" stroke-width="1.0" stroke-linejoin="round" stroke-linecap="round" stroke="#000000"/></marker><filter xlink:actuate="onLoad" xlink:type="simple" id="id27" xlink:show="other" filterUnits="userSpaceOnUse" xmlns:xlink="http://www.w3.org/1999/xlink"><feGaussianBlur stdDeviation="3.0" result="blur" in="SourceAlpha"/><feOffset dx="-4.000000000000001" dy="3.999999999999999" result="offsetBlur" in="blur"/><feComponentTransfer result="componentOffsetBlur" in="offsetBlur"><feFuncR type="linear" intercept="0.0" slope="0"/><feFuncG type="linear" intercept="0.0" slope="0"/><feFuncB type="linear" intercept="0.0" slope="0"/><feFuncA type="linear" intercept="0" slope="0.4"/></feComponentTransfer></filter><filter xlink:actuate="onLoad" xlink:type="simple" id="id30" xlink:show="other" filterUnits="userSpaceOnUse" xmlns:xlink="http://www.w3.org/1999/xlink"><feGaussianBlur stdDeviation="3.0" result="blur" in="SourceAlpha"/><feOffset dx="4.0" dy="4.0" result="offsetBlur" in="blur"/><feComponentTransfer result="componentOffsetBlur" in="offsetBlur"><feFuncR type="linear" intercept="0.0" slope="0"/><feFuncG type="linear" intercept="0.0" slope="0"/><feFuncB type="linear" intercept="0.0" slope="0"/><feFuncA type="linear" intercept="0" slope="0.4"/></feComponentTransfer></filter><linearGradient xlink:actuate="onLoad" xlink:type="simple" id="id33" xlink:show="other" xmlns:xlink="http://www.w3.org/1999/xlink"><stop stop-opacity="1.0" stop-color="#ffffff" offset="0%"/><stop stop-opacity="1.0" stop-color="#cccccc" offset="100%"/></linearGradient><linearGradient x1="0%" xmlns:xlink="http://www.w3.org/1999/xlink" y1="0%" x2="0%" y2="100%" xlink:type="simple" xlink:actuate="onLoad" id="id34" xlink:show="other"><stop stop-opacity="1.0" stop-color="#cccccc" offset="0%"/><stop stop-opacity="1.0" stop-color="#ffffff" offset="100%"/></linearGradient><linearGradient x1="0%" xmlns:xlink="http://www.w3.org/1999/xlink" y1="0%" x2="0%" y2="100%" xlink:type="simple" xlink:actuate="onLoad" id="id35" xlink:show="other"><stop stop-opacity="1.0" stop-color="#b6e3dd" offset="0%"/><stop stop-opacity="1.0" stop-color="#50ab9c" offset="100%"/></linearGradient><linearGradient x1="0%" xmlns:xlink="http://www.w3.org/1999/xlink" y1="0%" x2="0%" y2="100%" xlink:type="simple" xlink:actuate="onLoad" id="id37" xlink:show="other"><stop stop-opacity="1.0" stop-color="#b6e3dd" offset="0%"/><stop stop-opacity="1.0" stop-color="#50ab9c" offset="100%"/></linearGradient><linearGradient x1="0%" xmlns:xlink="http://www.w3.org/1999/xlink" y1="0%" x2="0%" y2="100%" xlink:type="simple" xlink:actuate="onLoad" id="id39" xlink:show="other"><stop stop-opacity="1.0" stop-color="#b6e3dd" offset="0%"/><stop stop-opacity="1.0" stop-color="#50ab9c" offset="100%"/></linearGradient><marker refX="14.0" refY="7.0" markerUnits="userSpaceOnUse" orient="auto" id="id41" markerHeight="14.0" viewBox="0 0 14.0 14.0" preserveAspectRatio="xMidYMid meet" markerWidth="14.0" overflow="visible"><path fill="#000000" d="M0 0 L14.0 7.0 L0 14.0z" stroke-width="1.0" stroke-linejoin="round" stroke-linecap="round" stroke="#000000"/></marker><filter xlink:actuate="onLoad" xlink:type="simple" id="id42" xlink:show="other" filterUnits="userSpaceOnUse" xmlns:xlink="http://www.w3.org/1999/xlink"><feGaussianBlur stdDeviation="3.0" result="blur" in="SourceAlpha"/><feOffset dx="4.440892098500626E-16" dy="-5.65685424949238" result="offsetBlur" in="blur"/><feComponentTransfer result="componentOffsetBlur" in="offsetBlur"><feFuncR type="linear" intercept="0.0" slope="0"/><feFuncG type="linear" intercept="0.0" slope="0"/><feFuncB type="linear" intercept="0.0" slope="0"/><feFuncA type="linear" intercept="0" slope="0.4"/></feComponentTransfer></filter><marker refX="14.0" refY="7.0" markerUnits="userSpaceOnUse" orient="auto" id="id45" markerHeight="14.0" viewBox="0 0 14.0 14.0" preserveAspectRatio="xMidYMid meet" markerWidth="14.0" overflow="visible"><path fill="#000000" d="M0 0 L14.0 7.0 L0 14.0z" stroke-width="1.0" stroke-linejoin="round" stroke-linecap="round" stroke="#000000"/></marker><filter xlink:actuate="onLoad" xlink:type="simple" id="id46" xlink:show="other" filterUnits="userSpaceOnUse" xmlns:xlink="http://www.w3.org/1999/xlink"><feGaussianBlur stdDeviation="3.0" result="blur" in="SourceAlpha"/><feOffset dx="5.65685424949238" dy="4.440892098500626E-16" result="offsetBlur" in="blur"/><feComponentTransfer result="componentOffsetBlur" in="offsetBlur"><feFuncR type="linear" intercept="0.0" slope="0"/><feFuncG type="linear" intercept="0.0" slope="0"/><feFuncB type="linear" intercept="0.0" slope="0"/><feFuncA type="linear" intercept="0" slope="0.4"/></feComponentTransfer></filter><marker refX="14.0" refY="7.0" markerUnits="userSpaceOnUse" orient="auto" id="id49" markerHeight="14.0" viewBox="0 0 14.0 14.0" preserveAspectRatio="xMidYMid meet" markerWidth="14.0" overflow="visible"><path fill="#000000" d="M0 0 L14.0 7.0 L0 14.0z" stroke-width="1.0" stroke-linejoin="round" stroke-linecap="round" stroke="#000000"/></marker><filter xlink:actuate="onLoad" xlink:type="simple" id="id50" xlink:show="other" filterUnits="userSpaceOnUse" xmlns:xlink="http://www.w3.org/1999/xlink"><feGaussianBlur stdDeviation="3.0" result="blur" in="SourceAlpha"/><feOffset dx="4.0" dy="4.0" result="offsetBlur" in="blur"/><feComponentTransfer result="componentOffsetBlur" in="offsetBlur"><feFuncR type="linear" intercept="0.0" slope="0"/><feFuncG type="linear" intercept="0.0" slope="0"/><feFuncB type="linear" intercept="0.0" slope="0"/><feFuncA type="linear" intercept="0" slope="0.4"/></feComponentTransfer></filter><marker refX="14.0" refY="7.0" markerUnits="userSpaceOnUse" orient="auto" id="id55" markerHeight="14.0" viewBox="0 0 14.0 14.0" preserveAspectRatio="xMidYMid meet" markerWidth="14.0" overflow="visible"><path fill="none" d="M0 0 L14.0 7.0 L0 14.0" stroke-width="1.0" stroke-linejoin="round" stroke-linecap="round" stroke="#000000"/></marker><filter xlink:actuate="onLoad" xlink:type="simple" id="id56" xlink:show="other" filterUnits="userSpaceOnUse" xmlns:xlink="http://www.w3.org/1999/xlink"><feGaussianBlur stdDeviation="3.0" result="blur" in="SourceAlpha"/><feOffset dx="4.0" dy="4.0" result="offsetBlur" in="blur"/><feComponentTransfer result="componentOffsetBlur" in="offsetBlur"><feFuncR type="linear" intercept="0.0" slope="0"/><feFuncG type="linear" intercept="0.0" slope="0"/><feFuncB type="linear" intercept="0.0" slope="0"/><feFuncA type="linear" intercept="0" slope="0.4"/></feComponentTransfer></filter><marker refX="14.0" refY="7.0" markerUnits="userSpaceOnUse" orient="auto" id="id59" markerHeight="14.0" viewBox="0 0 14.0 14.0" preserveAspectRatio="xMidYMid meet" markerWidth="14.0" overflow="visible"><path fill="none" d="M0 0 L14.0 7.0 L0 14.0" stroke-width="1.0" stroke-linejoin="round" stroke-linecap="round" stroke="#000000"/></marker><filter xlink:actuate="onLoad" xlink:type="simple" id="id60" xlink:show="other" filterUnits="userSpaceOnUse" xmlns:xlink="http://www.w3.org/1999/xlink"><feGaussianBlur stdDeviation="3.0" result="blur" in="SourceAlpha"/><feOffset dx="-1.3322676295501878E-15" dy="5.65685424949238" result="offsetBlur" in="blur"/><feComponentTransfer result="componentOffsetBlur" in="offsetBlur"><feFuncR type="linear" intercept="0.0" slope="0"/><feFuncG type="linear" intercept="0.0" slope="0"/><feFuncB type="linear" intercept="0.0" slope="0"/><feFuncA type="linear" intercept="0" slope="0.4"/></feComponentTransfer></filter><marker refX="0.0" refY="7.0" markerUnits="userSpaceOnUse" orient="auto" id="id63" markerHeight="14.0" viewBox="0 0 14.0 14.0" preserveAspectRatio="xMidYMid meet" markerWidth="14.0" overflow="visible"><path fill="none" d="M14.0 0 L0 7.0 L14.0 14.0" stroke-width="1.0" stroke-linejoin="round" stroke-linecap="round" stroke="#000000"/></marker><filter xlink:actuate="onLoad" xlink:type="simple" id="id64" xlink:show="other" filterUnits="userSpaceOnUse" xmlns:xlink="http://www.w3.org/1999/xlink"><feGaussianBlur stdDeviation="3.0" result="blur" in="SourceAlpha"/><feOffset dx="5.65685424949238" dy="4.440892098500626E-16" result="offsetBlur" in="blur"/><feComponentTransfer result="componentOffsetBlur" in="offsetBlur"><feFuncR type="linear" intercept="0.0" slope="0"/><feFuncG type="linear" intercept="0.0" slope="0"/><feFuncB type="linear" intercept="0.0" slope="0"/><feFuncA type="linear" intercept="0" slope="0.4"/></feComponentTransfer></filter><filter xlink:actuate="onLoad" xlink:type="simple" id="id67" xlink:show="other" filterUnits="userSpaceOnUse" xmlns:xlink="http://www.w3.org/1999/xlink"><feGaussianBlur stdDeviation="3.0" result="blur" in="SourceAlpha"/><feOffset dx="4.0" dy="4.0" result="offsetBlur" in="blur"/><feComponentTransfer result="componentOffsetBlur" in="offsetBlur"><feFuncR type="linear" intercept="0.0" slope="0"/><feFuncG type="linear" intercept="0.0" slope="0"/><feFuncB type="linear" intercept="0.0" slope="0"/><feFuncA type="linear" intercept="0" slope="0.4"/></feComponentTransfer></filter><marker refX="14.0" refY="7.0" markerUnits="userSpaceOnUse" orient="auto" id="id69" markerHeight="14.0" viewBox="0 0 14.0 14.0" preserveAspectRatio="xMidYMid meet" markerWidth="14.0" overflow="visible"><path fill="#000000" d="M0 0 L14.0 7.0 L0 14.0z" stroke-width="1.0" stroke-linejoin="round" stroke-linecap="round" stroke="#000000"/></marker><filter xlink:actuate="onLoad" xlink:type="simple" id="id70" xlink:show="other" filterUnits="userSpaceOnUse" xmlns:xlink="http://www.w3.org/1999/xlink"><feGaussianBlur stdDeviation="3.0" result="blur" in="SourceAlpha"/><feOffset dx="4.0" dy="4.0" result="offsetBlur" in="blur"/><feComponentTransfer result="componentOffsetBlur" in="offsetBlur"><feFuncR type="linear" intercept="0.0" slope="0"/><feFuncG type="linear" intercept="0.0" slope="0"/><feFuncB type="linear" intercept="0.0" slope="0"/><feFuncA type="linear" intercept="0" slope="0.4"/></feComponentTransfer></filter><marker refX="14.0" refY="7.0" markerUnits="userSpaceOnUse" orient="auto" id="id73" markerHeight="14.0" viewBox="0 0 14.0 14.0" preserveAspectRatio="xMidYMid meet" markerWidth="14.0" overflow="visible"><path fill="#000000" d="M0 0 L14.0 7.0 L0 14.0z" stroke-width="1.0" stroke-linejoin="round" stroke-linecap="round" stroke="#000000"/></marker><filter xlink:actuate="onLoad" xlink:type="simple" id="id74" xlink:show="other" filterUnits="userSpaceOnUse" xmlns:xlink="http://www.w3.org/1999/xlink"><feGaussianBlur stdDeviation="3.0" result="blur" in="SourceAlpha"/><feOffset dx="4.0" dy="4.0" result="offsetBlur" in="blur"/><feComponentTransfer result="componentOffsetBlur" in="offsetBlur"><feFuncR type="linear" intercept="0.0" slope="0"/><feFuncG type="linear" intercept="0.0" slope="0"/><feFuncB type="linear" intercept="0.0" slope="0"/><feFuncA type="linear" intercept="0" slope="0.4"/></feComponentTransfer></filter><linearGradient x1="0%" xmlns:xlink="http://www.w3.org/1999/xlink" y1="0%" x2="0%" y2="100%" xlink:type="simple" xlink:actuate="onLoad" id="id79" xlink:show="other"><stop stop-opacity="1.0" stop-color="#d0d0f0" offset="0%"/><stop stop-opacity="1.0" stop-color="#8986dc" offset="100%"/></linearGradient><marker refX="14.0" refY="7.0" markerUnits="userSpaceOnUse" orient="auto" id="id81" markerHeight="14.0" viewBox="0 0 14.0 14.0" preserveAspectRatio="xMidYMid meet" markerWidth="14.0" overflow="visible"><path fill="#000000" d="M0 0 L14.0 7.0 L0 14.0z" stroke-width="1.0" stroke-linejoin="round" stroke-linecap="round" stroke="#000000"/></marker><filter xlink:actuate="onLoad" xlink:type="simple" id="id82" xlink:show="other" filterUnits="userSpaceOnUse" xmlns:xlink="http://www.w3.org/1999/xlink"><feGaussianBlur stdDeviation="3.0" result="blur" in="SourceAlpha"/><feOffset dx="4.0" dy="-3.9999999999999996" result="offsetBlur" in="blur"/><feComponentTransfer result="componentOffsetBlur" in="offsetBlur"><feFuncR type="linear" intercept="0.0" slope="0"/><feFuncG type="linear" intercept="0.0" slope="0"/><feFuncB type="linear" intercept="0.0" slope="0"/><feFuncA type="linear" intercept="0" slope="0.4"/></feComponentTransfer></filter><filter xlink:actuate="onLoad" xlink:type="simple" id="id85" xlink:show="other" filterUnits="userSpaceOnUse" xmlns:xlink="http://www.w3.org/1999/xlink"><feGaussianBlur stdDeviation="3.0" result="blur" in="SourceAlpha"/><feOffset dx="4.0" dy="4.0" result="offsetBlur" in="blur"/><feComponentTransfer result="componentOffsetBlur" in="offsetBlur"><feFuncR type="linear" intercept="0.0" slope="0"/><feFuncG type="linear" intercept="0.0" slope="0"/><feFuncB type="linear" intercept="0.0" slope="0"/><feFuncA type="linear" intercept="0" slope="0.4"/></feComponentTransfer></filter><linearGradient xlink:actuate="onLoad" xlink:type="simple" id="id88" xlink:show="other" xmlns:xlink="http://www.w3.org/1999/xlink"><stop stop-opacity="1.0" stop-color="#ffffff" offset="0%"/><stop stop-opacity="1.0" stop-color="#cccccc" offset="100%"/></linearGradient><linearGradient x1="0%" xmlns:xlink="http://www.w3.org/1999/xlink" y1="0%" x2="0%" y2="100%" xlink:type="simple" xlink:actuate="onLoad" id="id89" xlink:show="other"><stop stop-opacity="1.0" stop-color="#cccccc" offset="0%"/><stop stop-opacity="1.0" stop-color="#ffffff" offset="100%"/></linearGradient><linearGradient x1="0%" xmlns:xlink="http://www.w3.org/1999/xlink" y1="0%" x2="0%" y2="100%" xlink:type="simple" xlink:actuate="onLoad" id="id91" xlink:show="other"><stop stop-opacity="1.0" stop-color="#e2eeff" offset="0%"/><stop stop-opacity="1.0" stop-color="#65a1fb" offset="100%"/></linearGradient><filter xlink:actuate="onLoad" xlink:type="simple" id="id93" xlink:show="other" filterUnits="userSpaceOnUse" xmlns:xlink="http://www.w3.org/1999/xlink"><feGaussianBlur stdDeviation="3.0" result="blur" in="SourceAlpha"/><feOffset dx="4.0" dy="4.0" result="offsetBlur" in="blur"/><feComponentTransfer result="componentOffsetBlur" in="offsetBlur"><feFuncR type="linear" intercept="0.0" slope="0"/><feFuncG type="linear" intercept="0.0" slope="0"/><feFuncB type="linear" intercept="0.0" slope="0"/><feFuncA type="linear" intercept="0" slope="0.4"/></feComponentTransfer></filter></defs><g><g transform="translate(319.74225 645.0)"><g transform="translate(145.66349999999994 79.1750000000003) rotate(270.0 39.175000000000125 10.0)"><use xlink:href="#id21" xlink:actuate="onLoad" xlink:type="simple" xlink:show="embed" xmlns:xlink="http://www.w3.org/1999/xlink" filter="url(#id20)"/></g></g><g transform="translate(212.0 56.0)"><g transform="translate(251.0 224.0)"><use xlink:href="#id25" xlink:actuate="onLoad" xlink:type="simple" xlink:show="embed" xmlns:xlink="http://www.w3.org/1999/xlink" filter="url(#id24)"/></g><g transform="translate(0.0 0.0)"><g transform="translate(146.8499999999999 281.15) rotate(270.0 40.150000000000006 10.0)"><use xlink:href="#id28" xlink:actuate="onLoad" xlink:type="simple" xlink:show="embed" xmlns:xlink="http://www.w3.org/1999/xlink" filter="url(#id27)"/></g><g transform="translate(0.0 331.0)"><g transform="translate(0.0 0.0)"><use xlink:href="#id31" xlink:actuate="onLoad" xlink:type="simple" xlink:show="embed" xmlns:xlink="http://www.w3.org/1999/xlink" filter="url(#id30)"/></g><g transform="translate(30.0 16.274999999999977)"><g transform="translate(37.99999999999996 90.45000000000009) rotate(135.0 61.42165330692915 9.999999999999986)"><use xlink:href="#id43" xlink:actuate="onLoad" xlink:type="simple" xlink:show="embed" xmlns:xlink="http://www.w3.org/1999/xlink" filter="url(#id42)"/></g><g transform="translate(181.0000000000002 76.4500000000001) rotate(45.0 61.42165330692917 10.000000000000028)"><use xlink:href="#id47" xlink:actuate="onLoad" xlink:type="simple" xlink:show="embed" xmlns:xlink="http://www.w3.org/1999/xlink" filter="url(#id46)"/></g><g transform="translate(112.00000000000003 133.45000000000005)"><use xlink:href="#id51" xlink:actuate="onLoad" xlink:type="simple" xlink:show="embed" xmlns:xlink="http://www.w3.org/1999/xlink" filter="url(#id50)"/></g><g transform="translate(112.00000000000003 149.45000000000005)"><use xlink:href="#id57" xlink:actuate="onLoad" xlink:type="simple" xlink:show="embed" xmlns:xlink="http://www.w3.org/1999/xlink" filter="url(#id56)"/></g><g transform="translate(46.99999999999999 77.33750000000009) rotate(315.0 61.038416356621184 10.000000000000057)"><use xlink:href="#id61" xlink:actuate="onLoad" xlink:type="simple" xlink:show="embed" xmlns:xlink="http://www.w3.org/1999/xlink" filter="url(#id60)"/></g><g transform="translate(157.3856952957304 77.31250000000001) rotate(45.0 61.12680470426952 9.999999999999979)"><use xlink:href="#id65" xlink:actuate="onLoad" xlink:type="simple" xlink:show="embed" xmlns:xlink="http://www.w3.org/1999/xlink" filter="url(#id64)"/></g></g><g transform="translate(540.677 162.55949999999996)"><use xlink:href="#id68" xlink:actuate="onLoad" xlink:type="simple" xlink:show="embed" xmlns:xlink="http://www.w3.org/1999/xlink" filter="url(#id67)"/></g><g transform="translate(362.99999999999994 157.55949999999996)"><use xlink:href="#id71" xlink:actuate="onLoad" xlink:type="simple" xlink:show="embed" xmlns:xlink="http://www.w3.org/1999/xlink" filter="url(#id70)"/></g><g transform="translate(502.00000000000006 157.55949999999996)"><use xlink:href="#id75" xlink:actuate="onLoad" xlink:type="simple" xlink:show="embed" xmlns:xlink="http://www.w3.org/1999/xlink" filter="url(#id74)"/></g></g><g transform="translate(126.35000000000002 110.35000000000002) rotate(90.0 80.65000000000003 10.0)"><use xlink:href="#id83" xlink:actuate="onLoad" xlink:type="simple" xlink:show="embed" xmlns:xlink="http://www.w3.org/1999/xlink" filter="url(#id82)"/></g><g transform="translate(187.0 24.0)"><use xlink:href="#id86" xlink:actuate="onLoad" xlink:type="simple" xlink:show="embed" xmlns:xlink="http://www.w3.org/1999/xlink" filter="url(#id85)"/></g></g></g><g transform="translate(212.0 643.0)"><use xlink:href="#id94" xlink:actuate="onLoad" xlink:type="simple" xlink:show="embed" xmlns:xlink="http://www.w3.org/1999/xlink" filter="url(#id93)"/></g></g><g><g transform="translate(319.74225 645.0)"><g transform="translate(0.0 128.45000000000005)"><path fill="url(#id0)" d="M373.5155 0.0 L0.0 0.0 L0.0 99.0 Q93.378875 109.0 186.75775 99.0 Q280.136625 89.0 373.5155 89.0 L373.5155 0.0z" stroke-width="1.0" stroke-linejoin="round" stroke="#8856a1"/><g transform="translate(5.0 5.0)"><clipPath id="id1"><path d="M0 0 L363.51550000000003 0 L363.51550000000003 86.0 L0 86.0z"/></clipPath><text font-size="14" clip-path="url(#id1)" text-decoration="none" fill="#000000" font-family="Arial,Arial" font-style="normal" font-weight="normal"/></g></g><g transform="translate(139.8385 0.0)"><path fill="url(#id2)" d="M110.0 0.0 L0.0 0.0 L0.0 35.0 L15.0 50.0 L95.0 50.0 L110.0 35.0 L110.0 0.0z" stroke-width="1.0" stroke-linejoin="round" stroke="#358f7f"/><g transform="translate(5.0 5.0)"><clipPath id="id3"><path d="M0 0 L100.0 0 L100.0 40.0 L0 40.0z"/></clipPath><text font-size="14" clip-path="url(#id3)" text-decoration="none" fill="#000000" font-family="Arial,Arial" font-style="normal" font-weight="bold"><tspan x="26.0" xml:space="preserve" y="25.0" textLength="47.0">Logger</tspan></text></g></g><g transform="translate(16.16149999999999 138.45000000000005)"><g transform="translate(0.0 20.435000000000173)"><path fill="url(#id4)" d="M46.677 14.078 L32.562 0.0 L6.19 0.0 Q5.19 0.0 5.19 1.0 L5.19 51.33 Q5.19 52.33 6.19 52.33 L45.677 52.33 Q46.677 52.33 46.677 51.33 L46.677 14.078 L46.677 14.078z" stroke-width="1.0" stroke-linejoin="round" stroke="#000000"/><path fill="#0430ad" fill-opacity="1.0" d="M36.673 18.899 Q36.673 19.899 35.673 19.899 L1.0 19.899 Q0.0 19.899 0.0 18.899 L0.0 7.055 Q0.0 6.055 1.0 6.055 L35.673 6.055 Q36.673 6.055 36.673 7.055 L36.673 18.899999 L36.673 18.899z" stroke-width="1.0" stroke-linejoin="round" stroke="#000000"/><path fill="#ffffff" fill-opacity="1.0" d="M11.109 11.3170008 L12.159999599999999 11.3170008 L12.159999599999999 10.156000500000001 L13.9160002 9.610001 L13.9160002 11.3170008 L15.166 11.3170008 L15.166 12.5670008 L13.9160002 12.5670008 L13.9160002 14.4720005 Q13.9160002 15.4150004 14.629999999999999 15.4150004 Q14.7596662 15.4150004 15.175 15.3450007 L15.2350004 16.506001 Q14.4009254 16.605002 14.114 16.605002 Q12.1299999 16.605002 12.1299999 14.670002400000001 L12.1299999 12.566002300000001 L11.109 12.566002300000001 L11.109 11.316002300000001 L11.109 11.3170008z" stroke="none"/><path fill="#ffffff" fill-opacity="1.0" d="M17.2600005 13.857 L15.64299994 11.317 L17.7560008 11.317 L18.5200007 12.8650003 L19.3240016 11.317 L21.2790015 11.317 L19.662001 13.836999500000001 L21.388001 16.4859997 L19.235001 16.4859997 L18.372 14.8789993 L17.518 16.4859997 L15.504 16.4859997 L17.2600005 13.857 L17.2600005 13.857z" stroke="none"/><path fill="#ffffff" fill-opacity="1.0" d="M21.575 11.3170008 L22.627 11.3170008 L22.627 10.156000500000001 L24.3830006 9.610001 L24.3830006 11.3170008 L25.6330006 11.3170008 L25.6330006 12.5670008 L24.3830006 12.5670008 L24.3830006 14.4720005 Q24.3830006 15.4150004 25.0970013 15.4150004 Q25.225335299999998 15.4150004 25.643000999999998 15.3450007 L25.7030003 16.506001 Q24.8689243 16.605002 24.582 16.605002 Q22.5980007 16.605002 22.5980007 14.670002400000001 L22.5980007 12.566002300000001 L21.576001358 12.566002300000001 L21.576001358 11.316002300000001 L21.575 11.3170008z" stroke="none"/><path fill="#969696" fill-opacity="1.0" d="M11.4179999536743 37.928 L11.4179999536743 38.928 L39.667999 38.928 L39.667999 37.928 L11.417999 37.928 L11.4179999536743 37.928z" stroke="none"/><path fill="#969696" fill-opacity="1.0" d="M11.4179999536743 23.355 L11.4179999536743 24.355 L39.667999 24.355 L39.667999 23.355 L11.417999 23.355 L11.4179999536743 23.355z" stroke="none"/><path fill="#969696" fill-opacity="1.0" d="M11.4179999536743 26.27 L11.4179999536743 27.27 L39.667999 27.27 L39.667999 26.27 L11.417999 26.27 L11.4179999536743 26.27z" stroke="none"/><path fill="#969696" fill-opacity="1.0" d="M11.4179999536743 29.184 L11.4179999536743 30.184 L39.667999 30.184 L39.667999 29.184 L11.417999 29.184 L11.4179999536743 29.184z" stroke="none"/><path fill="#969696" fill-opacity="1.0" d="M11.4179999536743 32.099 L11.4179999536743 33.099 L39.667999 33.099 L39.667999 32.099 L11.417999 32.099 L11.4179999536743 32.099z" stroke="none"/><path fill="#969696" fill-opacity="1.0" d="M11.4179999536743 35.013 L11.4179999536743 36.013 L39.667999 36.013 L39.667999 35.013 L11.417999 35.013 L11.4179999536743 35.013z" stroke="none"/><path fill="#969696" fill-opacity="1.0" d="M11.4179999536743 40.842 L11.4179999536743 41.842 L39.667999 41.842 L39.667999 40.842 L11.417999 40.842 L11.4179999536743 40.842z" stroke="none"/><path fill="#969696" fill-opacity="1.0" d="M11.4179999536743 43.756 L11.4179999536743 44.756 L39.667999 44.756 L39.667999 43.756 L11.417999 43.756 L11.4179999536743 43.756z" stroke="none"/><path fill="url(#id5)" d="M46.676998 14.144 L33.586998 14.144 Q32.586998 14.144 32.586998 13.144 L32.586998 0.0 L46.676998 14.144 L46.676998 14.144z" stroke-width="1.0" stroke-linejoin="round" stroke="#000000"/></g><g transform="translate(72.67699999999996 20.435000000000173)"><path fill="url(#id6)" d="M46.677 14.078 L32.562 0.0 L6.19 0.0 Q5.19 0.0 5.19 1.0 L5.19 51.33 Q5.19 52.33 6.19 52.33 L45.677 52.33 Q46.677 52.33 46.677 51.33 L46.677 14.078 L46.677 14.078z" stroke-width="1.0" stroke-linejoin="round" stroke="#000000"/><path fill="#0430ad" fill-opacity="1.0" d="M36.673 18.899 Q36.673 19.899 35.673 19.899 L1.0 19.899 Q0.0 19.899 0.0 18.899 L0.0 7.055 Q0.0 6.055 1.0 6.055 L35.673 6.055 Q36.673 6.055 36.673 7.055 L36.673 18.899999 L36.673 18.899z" stroke-width="1.0" stroke-linejoin="round" stroke="#000000"/><path fill="#ffffff" fill-opacity="1.0" d="M11.109 11.3170008 L12.159999599999999 11.3170008 L12.159999599999999 10.156000500000001 L13.9160002 9.610001 L13.9160002 11.3170008 L15.166 11.3170008 L15.166 12.5670008 L13.9160002 12.5670008 L13.9160002 14.4720005 Q13.9160002 15.4150004 14.629999999999999 15.4150004 Q14.7596662 15.4150004 15.175 15.3450007 L15.2350004 16.506001 Q14.4009254 16.605002 14.114 16.605002 Q12.1299999 16.605002 12.1299999 14.670002400000001 L12.1299999 12.566002300000001 L11.109 12.566002300000001 L11.109 11.316002300000001 L11.109 11.3170008z" stroke="none"/><path fill="#ffffff" fill-opacity="1.0" d="M17.2600005 13.857 L15.64299994 11.317 L17.7560008 11.317 L18.5200007 12.8650003 L19.3240016 11.317 L21.2790015 11.317 L19.662001 13.836999500000001 L21.388001 16.4859997 L19.235001 16.4859997 L18.372 14.8789993 L17.518 16.4859997 L15.504 16.4859997 L17.2600005 13.857 L17.2600005 13.857z" stroke="none"/><path fill="#ffffff" fill-opacity="1.0" d="M21.575 11.3170008 L22.627 11.3170008 L22.627 10.156000500000001 L24.3830006 9.610001 L24.3830006 11.3170008 L25.6330006 11.3170008 L25.6330006 12.5670008 L24.3830006 12.5670008 L24.3830006 14.4720005 Q24.3830006 15.4150004 25.0970013 15.4150004 Q25.225335299999998 15.4150004 25.643000999999998 15.3450007 L25.7030003 16.506001 Q24.8689243 16.605002 24.582 16.605002 Q22.5980007 16.605002 22.5980007 14.670002400000001 L22.5980007 12.566002300000001 L21.576001358 12.566002300000001 L21.576001358 11.316002300000001 L21.575 11.3170008z" stroke="none"/><path fill="#969696" fill-opacity="1.0" d="M11.4179999536743 37.928 L11.4179999536743 38.928 L39.667999 38.928 L39.667999 37.928 L11.417999 37.928 L11.4179999536743 37.928z" stroke="none"/><path fill="#969696" fill-opacity="1.0" d="M11.4179999536743 23.355 L11.4179999536743 24.355 L39.667999 24.355 L39.667999 23.355 L11.417999 23.355 L11.4179999536743 23.355z" stroke="none"/><path fill="#969696" fill-opacity="1.0" d="M11.4179999536743 26.27 L11.4179999536743 27.27 L39.667999 27.27 L39.667999 26.27 L11.417999 26.27 L11.4179999536743 26.27z" stroke="none"/><path fill="#969696" fill-opacity="1.0" d="M11.4179999536743 29.184 L11.4179999536743 30.184 L39.667999 30.184 L39.667999 29.184 L11.417999 29.184 L11.4179999536743 29.184z" stroke="none"/><path fill="#969696" fill-opacity="1.0" d="M11.4179999536743 32.099 L11.4179999536743 33.099 L39.667999 33.099 L39.667999 32.099 L11.417999 32.099 L11.4179999536743 32.099z" stroke="none"/><path fill="#969696" fill-opacity="1.0" d="M11.4179999536743 35.013 L11.4179999536743 36.013 L39.667999 36.013 L39.667999 35.013 L11.417999 35.013 L11.4179999536743 35.013z" stroke="none"/><path fill="#969696" fill-opacity="1.0" d="M11.4179999536743 40.842 L11.4179999536743 41.842 L39.667999 41.842 L39.667999 40.842 L11.417999 40.842 L11.4179999536743 40.842z" stroke="none"/><path fill="#969696" fill-opacity="1.0" d="M11.4179999536743 43.756 L11.4179999536743 44.756 L39.667999 44.756 L39.667999 43.756 L11.417999 43.756 L11.4179999536743 43.756z" stroke="none"/><path fill="url(#id7)" d="M46.676998 14.144 L33.586998 14.144 Q32.586998 14.144 32.586998 13.144 L32.586998 0.0 L46.676998 14.144 L46.676998 14.144z" stroke-width="1.0" stroke-linejoin="round" stroke="#000000"/></g><g transform="translate(5.6843418860808015E-14 0.4350000000001728)"><clipPath id="id8"><path d="M0 0 L46.676999999999964 0 L46.676999999999964 40.0 L0 40.0z"/></clipPath><text font-size="12" clip-path="url(#id8)" text-decoration="none" fill="#000000" font-family="Arial,Arial" font-style="normal" font-weight="normal"><tspan x="2.0" xml:space="preserve" y="13.0" textLength="39.0">app.log</tspan></text></g><g transform="translate(69.67699999999996 0.4350000000001728)"><clipPath id="id9"><path d="M0 0 L56.999999999999886 0 L56.999999999999886 40.0 L0 40.0z"/></clipPath><text font-size="12" clip-path="url(#id9)" text-decoration="none" fill="#000000" font-family="Arial,Arial" font-style="normal" font-weight="normal"><tspan x="2.0" xml:space="preserve" y="13.0" textLength="51.0">action.log</tspan></text></g><g transform="translate(138.67699999999996 0.4350000000001728)"><clipPath id="id10"><path d="M0 0 L66.67700000000002 0 L66.67700000000002 40.0 L0 40.0z"/></clipPath><text font-size="12" clip-path="url(#id10)" text-decoration="none" fill="#000000" font-family="Arial,Arial" font-style="normal" font-weight="normal"><tspan x="2.0" xml:space="preserve" y="13.0" textLength="61.0">warning.log</tspan></text></g><g transform="translate(145.67699999999996 20.435000000000173)"><path fill="url(#id11)" d="M46.677 14.078 L32.562 0.0 L6.19 0.0 Q5.19 0.0 5.19 1.0 L5.19 51.33 Q5.19 52.33 6.19 52.33 L45.677 52.33 Q46.677 52.33 46.677 51.33 L46.677 14.078 L46.677 14.078z" stroke-width="1.0" stroke-linejoin="round" stroke="#000000"/><path fill="#0430ad" fill-opacity="1.0" d="M36.673 18.899 Q36.673 19.899 35.673 19.899 L1.0 19.899 Q0.0 19.899 0.0 18.899 L0.0 7.055 Q0.0 6.055 1.0 6.055 L35.673 6.055 Q36.673 6.055 36.673 7.055 L36.673 18.899999 L36.673 18.899z" stroke-width="1.0" stroke-linejoin="round" stroke="#000000"/><path fill="#ffffff" fill-opacity="1.0" d="M11.109 11.3170008 L12.159999599999999 11.3170008 L12.159999599999999 10.156000500000001 L13.9160002 9.610001 L13.9160002 11.3170008 L15.166 11.3170008 L15.166 12.5670008 L13.9160002 12.5670008 L13.9160002 14.4720005 Q13.9160002 15.4150004 14.629999999999999 15.4150004 Q14.7596662 15.4150004 15.175 15.3450007 L15.2350004 16.506001 Q14.4009254 16.605002 14.114 16.605002 Q12.1299999 16.605002 12.1299999 14.670002400000001 L12.1299999 12.566002300000001 L11.109 12.566002300000001 L11.109 11.316002300000001 L11.109 11.3170008z" stroke="none"/><path fill="#ffffff" fill-opacity="1.0" d="M17.2600005 13.857 L15.64299994 11.317 L17.7560008 11.317 L18.5200007 12.8650003 L19.3240016 11.317 L21.2790015 11.317 L19.662001 13.836999500000001 L21.388001 16.4859997 L19.235001 16.4859997 L18.372 14.8789993 L17.518 16.4859997 L15.504 16.4859997 L17.2600005 13.857 L17.2600005 13.857z" stroke="none"/><path fill="#ffffff" fill-opacity="1.0" d="M21.575 11.3170008 L22.627 11.3170008 L22.627 10.156000500000001 L24.3830006 9.610001 L24.3830006 11.3170008 L25.6330006 11.3170008 L25.6330006 12.5670008 L24.3830006 12.5670008 L24.3830006 14.4720005 Q24.3830006 15.4150004 25.0970013 15.4150004 Q25.225335299999998 15.4150004 25.643000999999998 15.3450007 L25.7030003 16.506001 Q24.8689243 16.605002 24.582 16.605002 Q22.5980007 16.605002 22.5980007 14.670002400000001 L22.5980007 12.566002300000001 L21.576001358 12.566002300000001 L21.576001358 11.316002300000001 L21.575 11.3170008z" stroke="none"/><path fill="#969696" fill-opacity="1.0" d="M11.4179999536743 37.928 L11.4179999536743 38.928 L39.667999 38.928 L39.667999 37.928 L11.417999 37.928 L11.4179999536743 37.928z" stroke="none"/><path fill="#969696" fill-opacity="1.0" d="M11.4179999536743 23.355 L11.4179999536743 24.355 L39.667999 24.355 L39.667999 23.355 L11.417999 23.355 L11.4179999536743 23.355z" stroke="none"/><path fill="#969696" fill-opacity="1.0" d="M11.4179999536743 26.27 L11.4179999536743 27.27 L39.667999 27.27 L39.667999 26.27 L11.417999 26.27 L11.4179999536743 26.27z" stroke="none"/><path fill="#969696" fill-opacity="1.0" d="M11.4179999536743 29.184 L11.4179999536743 30.184 L39.667999 30.184 L39.667999 29.184 L11.417999 29.184 L11.4179999536743 29.184z" stroke="none"/><path fill="#969696" fill-opacity="1.0" d="M11.4179999536743 32.099 L11.4179999536743 33.099 L39.667999 33.099 L39.667999 32.099 L11.417999 32.099 L11.4179999536743 32.099z" stroke="none"/><path fill="#969696" fill-opacity="1.0" d="M11.4179999536743 35.013 L11.4179999536743 36.013 L39.667999 36.013 L39.667999 35.013 L11.417999 35.013 L11.4179999536743 35.013z" stroke="none"/><path fill="#969696" fill-opacity="1.0" d="M11.4179999536743 40.842 L11.4179999536743 41.842 L39.667999 41.842 L39.667999 40.842 L11.417999 40.842 L11.4179999536743 40.842z" stroke="none"/><path fill="#969696" fill-opacity="1.0" d="M11.4179999536743 43.756 L11.4179999536743 44.756 L39.667999 44.756 L39.667999 43.756 L11.417999 43.756 L11.4179999536743 43.756z" stroke="none"/><path fill="url(#id12)" d="M46.676998 14.144 L33.586998 14.144 Q32.586998 14.144 32.586998 13.144 L32.586998 0.0 L46.676998 14.144 L46.676998 14.144z" stroke-width="1.0" stroke-linejoin="round" stroke="#000000"/></g><g transform="translate(219.67699999999996 0.0)"><clipPath id="id13"><path d="M0 0 L66.67700000000002 0 L66.67700000000002 40.0 L0 40.0z"/></clipPath><text font-size="12" clip-path="url(#id13)" text-decoration="none" fill="#000000" font-family="Arial,Arial" font-style="normal" font-weight="normal"><tspan x="2.0" xml:space="preserve" y="13.0" textLength="44.0">error.log</tspan></text></g><g transform="translate(219.67699999999996 20.0)"><path fill="url(#id14)" d="M46.677 14.078 L32.562 0.0 L6.19 0.0 Q5.19 0.0 5.19 1.0 L5.19 51.33 Q5.19 52.33 6.19 52.33 L45.677 52.33 Q46.677 52.33 46.677 51.33 L46.677 14.078 L46.677 14.078z" stroke-width="1.0" stroke-linejoin="round" stroke="#000000"/><path fill="#0430ad" fill-opacity="1.0" d="M36.673 18.899 Q36.673 19.899 35.673 19.899 L1.0 19.899 Q0.0 19.899 0.0 18.899 L0.0 7.055 Q0.0 6.055 1.0 6.055 L35.673 6.055 Q36.673 6.055 36.673 7.055 L36.673 18.899999 L36.673 18.899z" stroke-width="1.0" stroke-linejoin="round" stroke="#000000"/><path fill="#ffffff" fill-opacity="1.0" d="M11.109 11.3170008 L12.159999599999999 11.3170008 L12.159999599999999 10.156000500000001 L13.9160002 9.610001 L13.9160002 11.3170008 L15.166 11.3170008 L15.166 12.5670008 L13.9160002 12.5670008 L13.9160002 14.4720005 Q13.9160002 15.4150004 14.629999999999999 15.4150004 Q14.7596662 15.4150004 15.175 15.3450007 L15.2350004 16.506001 Q14.4009254 16.605002 14.114 16.605002 Q12.1299999 16.605002 12.1299999 14.670002400000001 L12.1299999 12.566002300000001 L11.109 12.566002300000001 L11.109 11.316002300000001 L11.109 11.3170008z" stroke="none"/><path fill="#ffffff" fill-opacity="1.0" d="M17.2600005 13.857 L15.64299994 11.317 L17.7560008 11.317 L18.5200007 12.8650003 L19.3240016 11.317 L21.2790015 11.317 L19.662001 13.836999500000001 L21.388001 16.4859997 L19.235001 16.4859997 L18.372 14.8789993 L17.518 16.4859997 L15.504 16.4859997 L17.2600005 13.857 L17.2600005 13.857z" stroke="none"/><path fill="#ffffff" fill-opacity="1.0" d="M21.575 11.3170008 L22.627 11.3170008 L22.627 10.156000500000001 L24.3830006 9.610001 L24.3830006 11.3170008 L25.6330006 11.3170008 L25.6330006 12.5670008 L24.3830006 12.5670008 L24.3830006 14.4720005 Q24.3830006 15.4150004 25.0970013 15.4150004 Q25.225335299999998 15.4150004 25.643000999999998 15.3450007 L25.7030003 16.506001 Q24.8689243 16.605002 24.582 16.605002 Q22.5980007 16.605002 22.5980007 14.670002400000001 L22.5980007 12.566002300000001 L21.576001358 12.566002300000001 L21.576001358 11.316002300000001 L21.575 11.3170008z" stroke="none"/><path fill="#969696" fill-opacity="1.0" d="M11.4179999536743 37.928 L11.4179999536743 38.928 L39.667999 38.928 L39.667999 37.928 L11.417999 37.928 L11.4179999536743 37.928z" stroke="none"/><path fill="#969696" fill-opacity="1.0" d="M11.4179999536743 23.355 L11.4179999536743 24.355 L39.667999 24.355 L39.667999 23.355 L11.417999 23.355 L11.4179999536743 23.355z" stroke="none"/><path fill="#969696" fill-opacity="1.0" d="M11.4179999536743 26.27 L11.4179999536743 27.27 L39.667999 27.27 L39.667999 26.27 L11.417999 26.27 L11.4179999536743 26.27z" stroke="none"/><path fill="#969696" fill-opacity="1.0" d="M11.4179999536743 29.184 L11.4179999536743 30.184 L39.667999 30.184 L39.667999 29.184 L11.417999 29.184 L11.4179999536743 29.184z" stroke="none"/><path fill="#969696" fill-opacity="1.0" d="M11.4179999536743 32.099 L11.4179999536743 33.099 L39.667999 33.099 L39.667999 32.099 L11.417999 32.099 L11.4179999536743 32.099z" stroke="none"/><path fill="#969696" fill-opacity="1.0" d="M11.4179999536743 35.013 L11.4179999536743 36.013 L39.667999 36.013 L39.667999 35.013 L11.417999 35.013 L11.4179999536743 35.013z" stroke="none"/><path fill="#969696" fill-opacity="1.0" d="M11.4179999536743 40.842 L11.4179999536743 41.842 L39.667999 41.842 L39.667999 40.842 L11.417999 40.842 L11.4179999536743 40.842z" stroke="none"/><path fill="#969696" fill-opacity="1.0" d="M11.4179999536743 43.756 L11.4179999536743 44.756 L39.667999 44.756 L39.667999 43.756 L11.417999 43.756 L11.4179999536743 43.756z" stroke="none"/><path fill="url(#id15)" d="M46.676998 14.144 L33.586998 14.144 Q32.586998 14.144 32.586998 13.144 L32.586998 0.0 L46.676998 14.144 L46.676998 14.144z" stroke-width="1.0" stroke-linejoin="round" stroke="#000000"/></g><g transform="translate(290.67699999999996 0.0)"><clipPath id="id16"><path d="M0 0 L66.67700000000002 0 L66.67700000000002 40.0 L0 40.0z"/></clipPath><text font-size="12" clip-path="url(#id16)" text-decoration="none" fill="#000000" font-family="Arial,Arial" font-style="normal" font-weight="normal"><tspan x="2.0" xml:space="preserve" y="13.0" textLength="48.0">proxy.log</tspan></text></g><g transform="translate(292.67699999999996 20.0)"><path fill="url(#id17)" d="M46.677 14.078 L32.562 0.0 L6.19 0.0 Q5.19 0.0 5.19 1.0 L5.19 51.33 Q5.19 52.33 6.19 52.33 L45.677 52.33 Q46.677 52.33 46.677 51.33 L46.677 14.078 L46.677 14.078z" stroke-width="1.0" stroke-linejoin="round" stroke="#000000"/><path fill="#0430ad" fill-opacity="1.0" d="M36.673 18.899 Q36.673 19.899 35.673 19.899 L1.0 19.899 Q0.0 19.899 0.0 18.899 L0.0 7.055 Q0.0 6.055 1.0 6.055 L35.673 6.055 Q36.673 6.055 36.673 7.055 L36.673 18.899999 L36.673 18.899z" stroke-width="1.0" stroke-linejoin="round" stroke="#000000"/><path fill="#ffffff" fill-opacity="1.0" d="M11.109 11.3170008 L12.159999599999999 11.3170008 L12.159999599999999 10.156000500000001 L13.9160002 9.610001 L13.9160002 11.3170008 L15.166 11.3170008 L15.166 12.5670008 L13.9160002 12.5670008 L13.9160002 14.4720005 Q13.9160002 15.4150004 14.629999999999999 15.4150004 Q14.7596662 15.4150004 15.175 15.3450007 L15.2350004 16.506001 Q14.4009254 16.605002 14.114 16.605002 Q12.1299999 16.605002 12.1299999 14.670002400000001 L12.1299999 12.566002300000001 L11.109 12.566002300000001 L11.109 11.316002300000001 L11.109 11.3170008z" stroke="none"/><path fill="#ffffff" fill-opacity="1.0" d="M17.2600005 13.857 L15.64299994 11.317 L17.7560008 11.317 L18.5200007 12.8650003 L19.3240016 11.317 L21.2790015 11.317 L19.662001 13.836999500000001 L21.388001 16.4859997 L19.235001 16.4859997 L18.372 14.8789993 L17.518 16.4859997 L15.504 16.4859997 L17.2600005 13.857 L17.2600005 13.857z" stroke="none"/><path fill="#ffffff" fill-opacity="1.0" d="M21.575 11.3170008 L22.627 11.3170008 L22.627 10.156000500000001 L24.3830006 9.610001 L24.3830006 11.3170008 L25.6330006 11.3170008 L25.6330006 12.5670008 L24.3830006 12.5670008 L24.3830006 14.4720005 Q24.3830006 15.4150004 25.0970013 15.4150004 Q25.225335299999998 15.4150004 25.643000999999998 15.3450007 L25.7030003 16.506001 Q24.8689243 16.605002 24.582 16.605002 Q22.5980007 16.605002 22.5980007 14.670002400000001 L22.5980007 12.566002300000001 L21.576001358 12.566002300000001 L21.576001358 11.316002300000001 L21.575 11.3170008z" stroke="none"/><path fill="#969696" fill-opacity="1.0" d="M11.4179999536743 37.928 L11.4179999536743 38.928 L39.667999 38.928 L39.667999 37.928 L11.417999 37.928 L11.4179999536743 37.928z" stroke="none"/><path fill="#969696" fill-opacity="1.0" d="M11.4179999536743 23.355 L11.4179999536743 24.355 L39.667999 24.355 L39.667999 23.355 L11.417999 23.355 L11.4179999536743 23.355z" stroke="none"/><path fill="#969696" fill-opacity="1.0" d="M11.4179999536743 26.27 L11.4179999536743 27.27 L39.667999 27.27 L39.667999 26.27 L11.417999 26.27 L11.4179999536743 26.27z" stroke="none"/><path fill="#969696" fill-opacity="1.0" d="M11.4179999536743 29.184 L11.4179999536743 30.184 L39.667999 30.184 L39.667999 29.184 L11.417999 29.184 L11.4179999536743 29.184z" stroke="none"/><path fill="#969696" fill-opacity="1.0" d="M11.4179999536743 32.099 L11.4179999536743 33.099 L39.667999 33.099 L39.667999 32.099 L11.417999 32.099 L11.4179999536743 32.099z" stroke="none"/><path fill="#969696" fill-opacity="1.0" d="M11.4179999536743 35.013 L11.4179999536743 36.013 L39.667999 36.013 L39.667999 35.013 L11.417999 35.013 L11.4179999536743 35.013z" stroke="none"/><path fill="#969696" fill-opacity="1.0" d="M11.4179999536743 40.842 L11.4179999536743 41.842 L39.667999 41.842 L39.667999 40.842 L11.417999 40.842 L11.4179999536743 40.842z" stroke="none"/><path fill="#969696" fill-opacity="1.0" d="M11.4179999536743 43.756 L11.4179999536743 44.756 L39.667999 44.756 L39.667999 43.756 L11.417999 43.756 L11.4179999536743 43.756z" stroke="none"/><path fill="url(#id18)" d="M46.676998 14.144 L33.586998 14.144 Q32.586998 14.144 32.586998 13.144 L32.586998 0.0 L46.676998 14.144 L46.676998 14.144z" stroke-width="1.0" stroke-linejoin="round" stroke="#000000"/></g></g><g transform="translate(145.66349999999994 79.1750000000003) rotate(270.0 39.175000000000125 10.0)"><path fill="none" stroke-linejoin="round" id="id21" d="M78.35000000000025 20.0 L0.0 20.0" stroke="#000000" stroke-width="1.0" marker-end="url(#id19)"/><g transform="translate(0.0 0.0)"><clipPath id="id22"><path d="M0 0 L78.35000000000025 0 L78.35000000000025 20.0 L0 20.0z"/></clipPath><text font-size="12" clip-path="url(#id22)" text-decoration="none" fill="#000000" font-family="Times" font-style="normal" font-weight="normal"/></g></g><g transform="translate(199.8385 76.45000000000005)"><clipPath id="id23"><path d="M0 0 L150.0 0 L150.0 40.0 L0 40.0z"/></clipPath><text font-size="12" clip-path="url(#id23)" text-decoration="none" fill="#000000" font-family="Arial,Arial" font-style="normal" font-weight="normal"><tspan x="2.0" xml:space="preserve" y="13.0" textLength="106.0">Registro de eventos</tspan></text></g></g><g transform="translate(212.0 56.0)"><g transform="translate(251.0 224.0)"><path fill-opacity="1.0" fill="#000000" stroke-linejoin="round" id="id25" d="M0.0 0.0 L45.0 0.0 L45.0 4.0 L0.0 4.0 L0.0 0.0z" stroke="#000000" stroke-width="1.0"/></g><g transform="translate(0.0 0.0)"><g transform="translate(146.8499999999999 281.15) rotate(270.0 40.150000000000006 10.0)"><path fill="none" stroke-linejoin="round" id="id28" d="M80.30000000000011 20.0 L0.0 20.0" stroke="#000000" stroke-width="1.0" marker-end="url(#id26)"/><g transform="translate(0.0 0.0)"><clipPath id="id29"><path d="M0 0 L80.30000000000001 0 L80.30000000000001 20.0 L0 20.0z"/></clipPath><text font-size="12" clip-path="url(#id29)" text-decoration="none" fill="#000000" font-family="Times" font-style="normal" font-weight="normal"/></g></g><g transform="translate(0.0 331.0)"><g transform="translate(0.0 0.0)"><path fill-opacity="1.0" fill="#ffffff" stroke-linejoin="round" id="id31" d="M0.0 0.0 L579.0 0.0 L589.0 10.0 L589.0 233.72500000000002 L0.0 233.72500000000002 L0.0 0.0z" stroke="#000000" stroke-width="1.0"/><path fill="#ffffff" fill-opacity="1.0" d="M579.0 0.0 L589.0 10.0 L579.0 10.0 L579.0 0.0z" stroke-width="1.0" stroke-linejoin="round" stroke="#000000"/><g transform="translate(5.0 0.0)"><clipPath id="id32"><path d="M0 0 L579.0 0 L579.0 233.72500000000002 L0 233.72500000000002z"/></clipPath><text font-size="12" clip-path="url(#id32)" text-decoration="none" fill="#000000" font-family="Times" font-style="normal" font-weight="normal"/></g></g><g transform="translate(455.0 151.3939999999999)"><path fill="url(#id33)" d="M46.67699999999999 14.078 L32.56199999999999 0.0 L6.1899999999999995 0.0 Q5.19 0.0 5.19 1.0 L5.19 51.331 Q5.19 52.331 6.1899999999999995 52.331 L45.676999999999985 52.331 Q46.67699999999999 52.331 46.67699999999999 51.331 L46.67699999999999 14.078 L46.67699999999999 14.078z" stroke-width="1.0" stroke-linejoin="round" stroke="#000000"/><path fill="#2868ff" fill-opacity="1.0" d="M36.673 18.899 Q36.673 19.899 35.673 19.899 L0.9999999999999998 19.899 Q0.0 19.899 0.0 18.899 L0.0 7.055 Q0.0 6.055 0.9999999999999998 6.055 L35.673 6.055 Q36.673 6.055 36.673 7.055 L36.673 18.899999 L36.673 18.899z" stroke-width="1.0" stroke-linejoin="round" stroke="#000000"/><path fill="#ffffff" fill-opacity="1.0" d="M5.891000000000001 9.038 L7.6770002999999996 9.038 L7.6770002999999996 12.0740003 Q8.3345396 11.190999900000001 9.423000499999999 11.190999900000001 Q11.397000499999997 11.190999900000001 11.397000499999997 13.254999999999999 L11.397000499999997 16.479 L9.611000299999999 16.479 L9.611000299999999 13.979 Q9.611000299999999 12.6789998 8.7880003 12.6789998 Q7.6770002999999996 12.6789998 7.6770002999999996 14.2959994 L7.6770002999999996 16.479 L5.891000000000001 16.479 L5.891000000000001 9.038 L5.891000000000001 9.038z" stroke="none"/><path fill="#ffffff" fill-opacity="1.0" d="M12.0519999536743 11.310000800000001 L13.102999599999999 11.310000800000001 L13.102999599999999 10.149000500000001 L14.858999199999996 9.603001 L14.858999199999996 11.310000800000001 L16.108998999999994 11.310000800000001 L16.108998999999994 12.560000800000001 L14.858999199999996 12.560000800000001 L14.858999199999996 14.4650005 Q14.858999199999996 15.4080004 15.572999899999994 15.4080004 Q15.702667099999992 15.4080004 16.117999999999995 15.338000700000002 L16.177999399999994 16.499001 Q15.343924399999995 16.598002 15.056998999999994 16.598002 Q13.072998899999998 16.598002 13.072998899999998 14.6630024 L13.072998899999998 12.560000800000001 L12.051999 12.560000800000001 L12.051999 11.310000800000001 L12.0519999536743 11.310000800000001z" stroke="none"/><path fill="#ffffff" fill-opacity="1.0" d="M16.914000000000005 11.310000435000001 L18.541000800000003 11.310000435000001 L18.541000800000003 12.2630005 Q19.075388400000005 11.191 20.446001500000005 11.191 Q21.653837600000003 11.191 22.063002000000004 12.1829996 Q22.659060000000004 11.191 23.8990025 11.191 Q25.724003000000003 11.191 25.724003000000003 13.4330006 L25.724003000000003 16.479 L23.938004 16.479 L23.938004 13.701000200000001 Q23.938004 12.6789999 23.224003300000003 12.6789999 Q22.212004 12.6789999 22.212004 14.2959995 L22.212004 16.479 L20.426004900000002 16.479 L20.426004900000002 13.701000200000001 Q20.426004900000002 12.6789999 19.712004200000003 12.6789999 Q18.700005000000004 12.6789999 18.700005000000004 14.2959995 L18.700005000000004 16.479 L16.914005722046006 16.479 L16.914005722046006 11.310000435000001 L16.914000000000005 11.310000435000001z" stroke="none"/><path fill="#ffffff" fill-opacity="1.0" d="M27.042999999999992 9.038 L28.8279998 9.038 L28.8279998 16.479 L27.042999999999992 16.479 L27.042999999999992 9.038 L27.042999999999992 9.038z" stroke="none"/><path fill="url(#id34)" d="M46.676998 14.144 L33.586997999999994 14.144 Q32.586997999999994 14.144 32.586997999999994 13.144 L32.586997999999994 0.0 L46.676998 14.144 L46.676998 14.144z" stroke-width="1.0" stroke-linejoin="round" stroke="#000000"/><path fill="#969696" fill-opacity="1.0" d="M36.755 33.263 Q36.755 38.101421 33.333498999999996 41.523123999999996 Q29.911830000000002 44.944998999999996 25.073002000000002 44.944998999999996 Q20.2340015 44.944998999999996 16.8125022 41.523498000000004 Q13.391002000000002 38.102001 13.391002000000002 33.263 Q13.391002000000002 28.4240014 16.8125022 25.0025003 Q20.2340015 21.581001 25.073002000000002 21.581001 Q29.911426 21.581001 33.333124999999995 25.0025003 Q36.755 28.424173 36.755 33.263 L36.755 33.263z" stroke="none"/><path fill="#ffffff" fill-opacity="1.0" d="M30.7890005 32.398998 L25.710000000000004 32.398998 L25.710000000000004 27.540998 Q28.026297500000005 27.6271167 30.050999600000004 28.285998839999998 Q30.679604500000003 30.218491999999998 30.7890005 32.398998 L30.7890005 32.398998z" stroke="none"/><path fill="#ffffff" fill-opacity="1.0" d="M20.457000500000007 24.2 Q19.544902600000004 25.4027817 18.902999600000005 27.0920002 Q17.2145517 27.732076 16.01 28.647000499999997 Q17.514924800000003 25.7049248 20.457000500000007 24.2 L20.457000500000007 24.2z" stroke="none"/><path fill="#ffffff" fill-opacity="1.0" d="M24.209 23.215 L24.209 26.0480002 Q22.448650799999996 26.1249884 20.828998999999992 26.505001 Q22.214687799999997 23.778118 24.209 23.215 L24.209 23.215z" stroke="none"/><path fill="#ffffff" fill-opacity="1.0" d="M25.709 26.0419994 L25.709 23.152 Q27.8356956 23.589982560000003 29.3169998 26.506 Q27.6086506 26.103231 25.709 26.0419994 L25.709 26.0419994z" stroke="none"/><path fill="#ffffff" fill-opacity="1.0" d="M34.137002 28.647000000000002 Q32.925022999999996 27.7290598 31.243000899999995 27.0919996 Q30.603051059999995 25.4038855 29.688999999999993 24.199 Q32.6315964 25.7049433 34.1359986 28.6460005 L34.137002 28.647000000000002z" stroke="none"/><path fill="#ffffff" fill-opacity="1.0" d="M32.28799773 32.3989985 Q32.21104003 30.639303499999997 31.830996999999996 29.017998 Q34.5592418 30.405967999999998 35.121997400000005 32.3989985 L32.28799773 32.3989985 L32.28799773 32.3989985z" stroke="none"/><path fill="#ffffff" fill-opacity="1.0" d="M24.209 27.547 L24.209 32.399001 L19.358 32.399001 Q19.467306335 30.2187644 20.09600087 28.286002200000002 Q22.028763 27.6573096 24.209 27.548001358 L24.209 27.547z" stroke="none"/><path fill="#ffffff" fill-opacity="1.0" d="M17.8589992 32.3989985 L15.025998999999999 32.3989985 Q15.588754599999998 30.4059699 18.316999399999997 29.017998 Q17.9360008 30.636861999999997 17.8589992 32.3989985 L17.8589992 32.3989985z" stroke="none"/><path fill="#ffffff" fill-opacity="1.0" d="M17.851999399999997 33.899 Q17.913053599999998 35.7946604 18.316999499999994 37.5080012 Q15.399566759999997 36.0251864 14.961999999999998 33.899 L17.853000699999996 33.899 L17.851999399999997 33.899z" stroke="none"/><path fill="#ffffff" fill-opacity="1.0" d="M19.352000000000004 33.899 L24.2090004 33.899 L24.2090004 38.978998000000004 Q22.029946000000002 38.869749 20.097000840000003 38.240999 Q19.436487915000004 36.211282600000004 19.352000000000004 33.899 L19.352000000000004 33.899z" stroke="none"/><path fill="#ffffff" fill-opacity="1.0" d="M25.709 38.986000000000004 L25.709 33.899002 L30.795000400000003 33.899002 Q30.70904 36.2110366 30.049999600000003 38.241001000000004 Q28.0201572 38.901554000000004 25.709 38.986000000000004 L25.709 38.986000000000004z" stroke="none"/><path fill="#ffffff" fill-opacity="1.0" d="M32.293998699999996 33.899 L35.184997499999994 33.899 Q34.7487411 36.0261286 31.829998 37.5080012 Q32.23394392 35.7946604 32.29499815 33.899 L32.293998699999996 33.899z" stroke="none"/><path fill="#ffffff" fill-opacity="1.0" d="M29.689999999999998 42.326999 Q30.603228999999995 41.121242 31.244000899999996 39.4350009 Q32.93011419999999 38.7958102 34.13600099999999 37.881 Q32.63016459999999 40.823318 29.691001357999998 42.3259997 L29.689999999999998 42.326999z" stroke="none"/><path fill="#ffffff" fill-opacity="1.0" d="M25.709 43.375 L25.709 40.4850007 Q27.6001877 40.42552957 29.316000399999997 40.021 Q27.831871399999997 42.9378053 25.709 43.375 L25.709 43.375z" stroke="none"/><path fill="#ffffff" fill-opacity="1.0" d="M24.209 40.47800073 L24.209 43.311001000000005 Q22.216543599999994 42.748405500000004 20.828998999999992 40.021 Q22.442873399999996 40.4008256 24.209 40.47800073 L24.209 40.47800073z" stroke="none"/><path fill="#ffffff" fill-opacity="1.0" d="M16.011000000000003 37.881 Q17.220810300000004 38.797297900000004 18.9030002 39.4350009 Q19.541075000000003 41.1181712 20.457001 42.3259997 Q17.517355300000002 40.8223185 16.011001907348604 37.8819994507 L16.011000000000003 37.881z" stroke="none"/></g><g transform="translate(30.0 16.274999999999977)"><g transform="translate(2.0 137.45000000000005)"><path fill="url(#id35)" d="M110.00000000000003 50.0 L0.0 50.0 L0.0 0.0 L110.00000000000003 0.0 L110.00000000000003 50.0 L110.00000000000003 50.0z" stroke-width="1.0" stroke-linejoin="round" stroke="#3b9684"/><g transform="translate(5.0 5.0)"><clipPath id="id36"><path d="M0 0 L100.00000000000003 0 L100.00000000000003 40.0 L0 40.0z"/></clipPath><text font-size="14" clip-path="url(#id36)" text-decoration="none" fill="#000000" font-family="Arial,Arial" font-style="normal" font-weight="bold"><tspan x="30.0" xml:space="preserve" y="25.0" textLength="40.0">Model</tspan></text></g></g><g transform="translate(222.00000000000006 137.45000000000005)"><path fill="url(#id37)" d="M110.0000000000002 50.0 L0.0 50.0 L0.0 0.0 L110.0000000000002 0.0 L110.0000000000002 50.0 L110.0000000000002 50.0z" stroke-width="1.0" stroke-linejoin="round" stroke="#3b9684"/><g transform="translate(5.0 5.0)"><clipPath id="id38"><path d="M0 0 L100.00000000000017 0 L100.00000000000017 40.0 L0 40.0z"/></clipPath><text font-size="14" clip-path="url(#id38)" text-decoration="none" fill="#000000" font-family="Arial,Arial" font-style="normal" font-weight="bold"><tspan x="34.0" xml:space="preserve" y="25.0" textLength="31.0">View</tspan></text></g></g><g transform="translate(115.00000000000004 0.0)"><path fill="url(#id39)" d="M110.00000000000003 50.0 L0.0 50.0 L0.0 0.0 L110.00000000000003 0.0 L110.00000000000003 50.0 L110.00000000000003 50.0z" stroke-width="1.0" stroke-linejoin="round" stroke="#3b9684"/><g transform="translate(5.0 5.0)"><clipPath id="id40"><path d="M0 0 L100.00000000000004 0 L100.00000000000004 40.0 L0 40.0z"/></clipPath><text font-size="14" clip-path="url(#id40)" text-decoration="none" fill="#000000" font-family="Arial,Arial" font-style="normal" font-weight="bold"><tspan x="17.0" xml:space="preserve" y="25.0" textLength="66.0">Controller</tspan></text></g></g><g transform="translate(37.99999999999996 90.45000000000009) rotate(135.0 61.42165330692915 9.999999999999986)"><path fill="none" stroke-linejoin="round" id="id43" d="M0.0 19.999999999999968 L122.84330661385833 19.999999999999968" stroke="#000000" stroke-width="1.0" marker-end="url(#id41)"/><g transform="translate(0.0 0.0)"><clipPath id="id44"><path d="M0 0 L122.8433066138583 0 L122.8433066138583 19.99999999999997 L0 19.99999999999997z"/></clipPath><text font-size="12" clip-path="url(#id44)" text-decoration="none" fill="#000000" font-family="Times" font-style="normal" font-weight="normal"/></g></g><g transform="translate(181.0000000000002 76.4500000000001) rotate(45.0 61.42165330692917 10.000000000000028)"><path fill="none" stroke-linejoin="round" id="id47" d="M0.0 20.000000000000057 L122.84330661385835 20.000000000000057" stroke="#000000" stroke-width="1.0" marker-end="url(#id45)"/><g transform="translate(0.0 0.0)"><clipPath id="id48"><path d="M0 0 L122.84330661385835 0 L122.84330661385835 20.000000000000057 L0 20.000000000000057z"/></clipPath><text font-size="12" clip-path="url(#id48)" text-decoration="none" fill="#000000" font-family="Times" font-style="normal" font-weight="normal"/></g></g><g transform="translate(112.00000000000003 133.45000000000005)"><path fill="none" stroke-linejoin="round" id="id51" d="M111.00000000000004 20.0 L0.0 20.0" stroke="#000000" stroke-width="1.0" marker-end="url(#id49)"/><g transform="translate(0.0 0.0)"><clipPath id="id52"><path d="M0 0 L111.00000000000003 0 L111.00000000000003 20.0 L0 20.0z"/></clipPath><text font-size="12" clip-path="url(#id52)" text-decoration="none" fill="#000000" font-family="Arial,Arial" font-style="normal" font-weight="normal"><tspan x="25.0" xml:space="preserve" y="13.0" textLength="60.0">Pedir datos</tspan></text></g></g><g transform="translate(0.0 75.45000000000005)"><clipPath id="id53"><path d="M0 0 L150.00000000000003 0 L150.00000000000003 40.0 L0 40.0z"/></clipPath><text font-size="12" clip-path="url(#id53)" text-decoration="none" fill="#000000" font-family="Arial,Arial" font-style="normal" font-weight="normal"><tspan x="2.0" xml:space="preserve" y="13.0" textLength="85.0">Actualizar datos</tspan></text></g><g transform="translate(240.00000000000009 75.45000000000005)"><clipPath id="id54"><path d="M0 0 L149.99999999999997 0 L149.99999999999997 40.0 L0 40.0z"/></clipPath><text font-size="12" clip-path="url(#id54)" text-decoration="none" fill="#000000" font-family="Arial,Arial" font-style="normal" font-weight="normal"><tspan x="2.0" xml:space="preserve" y="13.0" textLength="124.0">Actualizar presentacin</tspan></text></g><g transform="translate(112.00000000000003 149.45000000000005)"><path fill="none" stroke-linejoin="round" stroke-dasharray="3.0 1.0" id="id57" d="M0.0 20.0 L111.00000000000003 20.0" stroke="#000000" stroke-width="1.0" marker-end="url(#id55)"/><g transform="translate(0.0 0.0)"><clipPath id="id58"><path d="M0 0 L111.00000000000003 0 L111.00000000000003 20.0 L0 20.0z"/></clipPath><text font-size="10" clip-path="url(#id58)" text-decoration="none" fill="#000000" font-family="Arial,Arial" font-style="normal" font-weight="normal"/></g></g><g transform="translate(46.99999999999999 77.33750000000009) rotate(315.0 61.038416356621184 10.000000000000057)"><path fill="none" stroke-linejoin="round" stroke-dasharray="3.0 1.0" id="id61" d="M0.0 20.000000000000114 L122.07683271324257 20.000000000000114" stroke="#000000" stroke-width="1.0" marker-end="url(#id59)"/><g transform="translate(0.0 0.0)"><clipPath id="id62"><path d="M0 0 L122.07683271324237 0 L122.07683271324237 20.000000000000114 L0 20.000000000000114z"/></clipPath><text font-size="10" clip-path="url(#id62)" text-decoration="none" fill="#000000" font-family="Arial,Arial" font-style="normal" font-weight="normal"/></g></g><g transform="translate(157.3856952957304 77.31250000000001) rotate(45.0 61.12680470426952 9.999999999999979)"><path fill="none" stroke-linejoin="round" stroke-dasharray="3.0 1.0" id="id65" d="M0.0 19.999999999999957 L122.25360940853905 19.999999999999957" stroke="#000000" marker-start="url(#id63)" stroke-width="1.0"/><g transform="translate(0.0 0.0)"><clipPath id="id66"><path d="M0 0 L122.25360940853903 0 L122.25360940853903 19.999999999999957 L0 19.999999999999957z"/></clipPath><text font-size="12" clip-path="url(#id66)" text-decoration="none" fill="#000000" font-family="Times" font-style="normal" font-weight="normal"/></g></g></g><g transform="translate(540.677 162.55949999999996)"><path fill-opacity="1.0" fill="#ffffff" stroke-linejoin="round" id="id68" d="M30.000000000000114 15.0 Q30.000000000000114 17.98368551069487 28.858192987669415 20.740251485476342 Q27.716385975338707 23.496817460257823 25.606601717798313 25.606601717798213 Q23.496817460257912 27.716385975338603 20.74025148547643 28.8581929876693 Q17.983685510694936 30.0 15.000000000000059 30.0 Q12.016314489305174 30.0 9.259748514523688 28.8581929876693 Q6.503182539742202 27.716385975338603 4.393398282201805 25.606601717798213 Q2.283614024661407 23.496817460257823 1.141807012330703 20.74025148547635 Q0.0 17.98368551069487 0.0 15.000000000000002 Q0.0 12.016314489305136 1.1418070123307007 9.259748514523654 Q2.2836140246614054 6.5031825397421805 4.393398282201803 4.3933982822017885 Q6.5031825397422 2.283614024661402 9.259748514523679 1.1418070123307018 Q12.016314489305168 0.0 15.000000000000053 0.0 Q17.98368551069494 0.0 20.74025148547643 1.1418070123307 Q23.496817460257912 2.2836140246614 25.60660171779831 4.393398282201785 Q27.7163859753387 6.503182539742172 28.85819298766941 9.259748514523643 Q30.000000000000114 12.016314489305126 30.000000000000114 15.0z" stroke="#000000" stroke-width="1.0"/><path fill="#000000" fill-opacity="1.0" d="M25.000000000000085 15.0 Q25.000000000000085 16.98912367379658 24.238795325112953 18.8268343236509 Q23.47759065022582 20.664544973505215 22.071067811865554 22.071067811865476 Q20.664544973505286 23.477590650225736 18.826834323650964 24.238795325112868 Q16.98912367379664 25.0 15.000000000000053 25.0 Q13.010876326203467 25.0 11.173165676349145 24.238795325112868 Q9.33545502649482 23.477590650225736 7.928932188134555 22.071067811865476 Q6.522409349774289 20.664544973505215 5.761204674887154 18.8268343236509 Q5.0000000000000195 16.98912367379658 5.0000000000000195 15.000000000000002 Q5.0000000000000195 13.010876326203423 5.761204674887154 11.173165676349104 Q6.522409349774289 9.335455026494786 7.928932188134553 7.928932188134525 Q9.335455026494817 6.522409349774268 11.173165676349136 5.761204674887136 Q13.010876326203464 5.0 15.000000000000052 5.0 Q16.98912367379664 5.0 18.826834323650967 5.761204674887134 Q20.664544973505286 6.522409349774266 22.071067811865554 7.928932188134523 Q23.477590650225814 9.335455026494781 24.238795325112953 11.173165676349097 Q25.000000000000085 13.010876326203416 25.000000000000085 15.0z" stroke-width="1.0" stroke-linejoin="round" stroke="#000000"/></g><g transform="translate(362.99999999999994 157.55949999999996)"><path fill="none" stroke-linejoin="round" id="id71" d="M0.0 20.0 L96.76149999999983 20.0" stroke="#000000" stroke-width="1.0" marker-end="url(#id69)"/><g transform="translate(0.0 0.0)"><clipPath id="id72"><path d="M0 0 L96.7614999999999 0 L96.7614999999999 20.0 L0 20.0z"/></clipPath><text font-size="12" clip-path="url(#id72)" text-decoration="none" fill="#000000" font-family="Arial,Arial" font-style="normal" font-weight="normal"><tspan x="28.0" xml:space="preserve" y="13.0" textLength="40.0">Mostrar</tspan></text></g></g><g transform="translate(502.00000000000006 157.55949999999996)"><path fill="none" stroke-linejoin="round" id="id75" d="M0.0 20.0 L38.67699999999997 20.0" stroke="#000000" stroke-width="1.0" marker-end="url(#id73)"/><g transform="translate(0.0 0.0)"><clipPath id="id76"><path d="M0 0 L38.676999999999964 0 L38.676999999999964 20.0 L0 20.0z"/></clipPath><text font-size="12" clip-path="url(#id76)" text-decoration="none" fill="#000000" font-family="Times" font-style="normal" font-weight="normal"/></g></g></g><g transform="translate(87.0 263.0)"><clipPath id="id77"><path d="M0 0 L219.0 0 L219.0 40.0 L0 40.0z"/></clipPath><text font-size="12" clip-path="url(#id77)" text-decoration="none" fill="#000000" font-family="Arial,Arial" font-style="normal" font-weight="bold"><tspan x="2.0" xml:space="preserve" y="13.0" textLength="103.0">Elegir controlador</tspan></text></g><g transform="translate(202.0 289.0)"><clipPath id="id78"><path d="M0 0 L219.0 0 L219.0 40.0 L0 40.0z"/></clipPath><text font-size="12" clip-path="url(#id78)" text-decoration="none" fill="#000000" font-family="Arial,Arial" font-style="normal" font-weight="bold"><tspan x="2.0" xml:space="preserve" y="13.0" textLength="164.0">Delegar a una instancia MVC</tspan></text></g><g transform="translate(142.0 201.0)"><path fill="url(#id79)" d="M98.0 0.0 L110.0 25.0 L98.0 50.0 L12.0 50.0 L0.0 25.0 L12.0 0.0 L98.0 0.0z" stroke-width="1.0" stroke-linejoin="round" stroke="#7d79c4"/><g transform="translate(12.0 5.0)"><clipPath id="id80"><path d="M0 0 L86.0 0 L86.0 40.0 L0 40.0z"/></clipPath><text font-size="14" clip-path="url(#id80)" text-decoration="none" fill="#000000" font-family="Arial,Arial" font-style="normal" font-weight="bold"><tspan x="20.0" xml:space="preserve" y="25.0" textLength="45.0">Router</tspan></text></g></g><g transform="translate(126.35000000000002 110.35000000000002) rotate(90.0 80.65000000000003 10.0)"><path fill="none" stroke-linejoin="round" id="id83" d="M0.0 20.0 L161.29999999999995 20.0" stroke="#000000" stroke-width="1.0" marker-end="url(#id81)"/><g transform="translate(0.0 0.0)"><clipPath id="id84"><path d="M0 0 L161.30000000000007 0 L161.30000000000007 20.0 L0 20.0z"/></clipPath><text font-size="12" clip-path="url(#id84)" text-decoration="none" fill="#000000" font-family="Arial,Arial" font-style="normal" font-weight="normal"/></g></g><g transform="translate(187.0 24.0)"><path fill-opacity="1.0" fill="#000000" stroke-linejoin="round" id="id86" d="M20.0 10.0 Q20.0 11.98912367379658 19.238795325112868 13.826834323650898 Q18.477590650225736 15.664544973505215 17.071067811865476 17.071067811865476 Q15.664544973505215 18.477590650225736 13.826834323650898 19.238795325112868 Q11.98912367379658 20.0 10.0 20.0 Q8.01087632620342 20.0 6.173165676349103 19.238795325112868 Q4.335455026494785 18.477590650225736 2.9289321881345254 17.071067811865476 Q1.5224093497742643 15.664544973505215 0.7612046748871322 13.8268343236509 Q0.0 11.98912367379658 0.0 10.000000000000002 Q0.0 8.010876326203423 0.7612046748871322 6.173165676349104 Q1.5224093497742643 4.335455026494786 2.9289321881345227 2.9289321881345254 Q4.335455026494783 1.522409349774268 6.173165676349097 0.7612046748871357 Q8.010876326203416 0.0 9.999999999999998 0.0 Q11.98912367379658 0.0 13.8268343236509 0.761204674887134 Q15.664544973505215 1.522409349774266 17.071067811865476 2.9289321881345227 Q18.47759065022573 4.335455026494781 19.238795325112864 6.173165676349096 Q20.0 8.010876326203416 20.0 10.0z" stroke="#000000" stroke-width="1.0"/></g><g transform="translate(155.0 0.0)"><clipPath id="id87"><path d="M0 0 L87.0 0 L87.0 40.0 L0 40.0z"/></clipPath><text font-size="12" clip-path="url(#id87)" text-decoration="none" fill="#000000" font-family="Arial,Arial" font-style="normal" font-weight="bold"><tspan x="2.0" xml:space="preserve" y="13.0" textLength="81.0">Peticin HTTP</tspan></text></g><g transform="translate(174.0 89.0)"><path fill="url(#id88)" d="M46.678003 14.078 L32.563 0.0 L6.19 0.0 Q5.19 0.0 5.19 1.0 L5.19 51.331 Q5.19 52.331 6.19 52.331 L45.678 52.331 Q46.678 52.331 46.678 51.331 L46.678 14.078 L46.678003 14.078z" stroke-width="1.0" stroke-linejoin="round" stroke="#000000"/><path fill="#969696" fill-opacity="1.0" d="M20.451 30.3490002 L14.650999800000001 32.7130005 L20.451 35.076999 L20.451 37.150999999999996 L11.845 33.6140015 L11.845 31.811 L20.451 28.273 L20.451 30.3480008 L20.451 30.3490002z" stroke="none"/><path fill="#969696" fill-opacity="1.0" d="M22.356 25.43400003 Q23.953761200000002 24.941 25.928000500000003 24.941 Q30.026999500000002 24.941 30.026999500000002 27.798999799999997 Q30.026999500000002 28.9870377 28.7107497 30.411625 Q27.345153000000003 31.889618 27.255000000000003 32.986 L24.772000400000003 32.986 Q25.869000500000002 30.6984997 26.9660006 28.4109993 Q26.9660006 27.187000299999998 25.095000300000002 27.187000299999998 Q23.6578398 27.187000299999998 22.425000244000003 27.816 L22.356999450700002 25.43499948 L24.583998700000002 34.261002 L27.440999 34.261002 L27.440999 37.016003 L24.583998700000002 37.016003 L24.583998700000002 34.261002" stroke="none"/><path fill="#969696" fill-opacity="1.0" d="M31.506 35.0779995 L37.305999 32.714000999999996 L31.506 30.3500008 L31.506 28.275 L40.111000000000004 31.813 L40.111000000000004 33.616001499999996 L31.506 37.153 L31.506 35.078998999999996 L31.506 35.0779995z" stroke="none"/><path fill="#6c6cf4" fill-opacity="1.0" d="M36.673 18.861 Q36.673 19.861 35.673 19.861 L1.0 19.861 Q0.0 19.861 0.0 18.861 L0.0 7.017 Q0.0 6.017 1.0 6.017 L35.673 6.017 Q36.673 6.017 36.673 7.017 L36.673 18.861999 L36.673 18.861z" stroke-width="1.0" stroke-linejoin="round" stroke="#000000"/><path fill="#ffffff" fill-opacity="1.0" d="M9.756999950700001 10.447999935 L11.402999900000001 10.447999935 L11.402999900000001 11.3809995 Q11.9417352 10.3289995 13.348000500000001 10.3289995 Q15.560001500000002 10.3289995 15.560001500000002 12.9379997 Q15.560001500000002 15.736 13.1990013 15.736 Q12.0246905 15.736 11.562001200000001 14.8929995 L11.5420008 17.7000007 L9.7560005 17.7000007 L9.7560005 10.44800089 L12.633999800000002 11.6979999 Q11.543000200000002 11.6979999 11.543000200000002 13.0480003 Q11.543000200000002 14.3670005 12.633999800000002 14.3670005 Q13.7159995 14.3670005 13.7159995 12.9780006 Q13.7159995 11.6980009 12.633999800000002 11.6980009" stroke="none"/><path fill="#ffffff" fill-opacity="1.0" d="M16.424 8.176 L18.2099993 8.176 L18.2099993 11.2120003 Q18.8675387 10.3289999 19.9559996 10.3289999 Q21.9300005 10.3289999 21.9300005 12.393 L21.9300005 15.617001 L20.144001199999998 15.617001 L20.144001199999998 13.117001 Q20.144001199999998 11.817000700000001 19.3210013 11.817000700000001 Q18.2100012 11.817000700000001 18.2100012 13.4340004 L18.2100012 15.617001 L16.4240019073486 15.617001 L16.4240019073486 8.176 L16.424 8.176z" stroke="none"/><path fill="#ffffff" fill-opacity="1.0" d="M23.001 10.447999935 L24.6479994 10.447999935 L24.6479994 11.3809995 Q25.186733800000003 10.3289995 26.592999000000002 10.3289995 Q28.804999000000002 10.3289995 28.804999000000002 12.9379997 Q28.804999000000002 15.736 26.443999 15.736 Q25.271061500000002 15.736 24.8069998 14.8929995 L24.7869993 17.7000007 L23.001 17.7000007 L23.001 10.44800089 L25.878000800000002 11.6979999 Q24.787001200000002 11.6979999 24.787001200000002 13.0480003 Q24.787001200000002 14.3670005 25.878000800000002 14.3670005 Q26.959000200000002 14.3670005 26.959000200000002 12.9780006 Q26.959000200000002 11.6980009 25.878000800000002 11.6980009" stroke="none"/><path fill="url(#id89)" d="M46.678003 14.144 L33.586 14.144 Q32.586 14.144 32.586 13.144 L32.586 0.0 L46.677999 14.144 L46.678003 14.144z" stroke-width="1.0" stroke-linejoin="round" stroke="#000000"/></g><g transform="translate(184.0 124.0)"><clipPath id="id90"><path d="M0 0 L35.0 0 L35.0 17.331000000000017 L0 17.331000000000017z"/></clipPath><text font-size="12" clip-path="url(#id90)" text-decoration="none" fill="#000000" font-family="Arial,Arial" font-style="italic" font-weight="normal"><tspan x="2.0" xml:space="preserve" y="13.0" textLength="28.0">index</tspan></text></g></g><g transform="translate(297.0 202.32999999999993)"><path fill="url(#id91)" d="M25.0 50.0 Q20.02719081550855 50.0 15.432914190872756 48.09698831278217 Q10.838637566236956 46.19397662556434 7.322330470336315 42.67766952966369 Q3.806023374435668 39.161362433763045 1.9030116872178304 34.56708580912725 Q0.0 29.97280918449145 0.0 25.000000000000004 Q0.0 20.02719081550855 1.9030116872178304 15.432914190872758 Q3.8060233744356537 10.838637566236963 7.322330470336308 7.322330470336315 Q10.838637566236956 3.806023374435668 15.432914190872742 1.9030116872178375 Q20.027190815508536 0.0 24.999999999999996 0.0 L85.0 0.0 Q89.97280918449147 0.0 94.56708580912726 1.9030116872178375 Q99.16136243376305 3.806023374435668 102.67766952966369 7.322330470336315 Q106.19397662556435 10.838637566236963 108.09698831278217 15.432914190872758 Q110.0 20.02719081550855 110.0 25.000000000000004 Q110.0 29.97280918449145 108.09698831278217 34.56708580912725 Q106.19397662556433 39.161362433763045 102.67766952966369 42.67766952966369 Q99.16136243376305 46.19397662556434 94.56708580912725 48.09698831278217 Q89.97280918449145 50.0 85.0 50.0 L25.0 50.0z" stroke-width="1.0" stroke-linejoin="round" stroke="#428eea"/><g transform="translate(15.0 5.0)"><clipPath id="id92"><path d="M0 0 L80.0 0 L80.0 40.0 L0 40.0z"/></clipPath><text font-size="14" clip-path="url(#id92)" text-decoration="none" fill="#000000" font-family="Arial,Arial" font-style="normal" font-weight="bold"><tspan x="18.0" xml:space="preserve" y="25.0" textLength="44.0">Config</tspan></text></g></g></g><g transform="translate(212.0 643.0)"><path fill-opacity="1.0" fill="#000000" stroke-linejoin="round" id="id94" d="M0.0 0.0 L589.0 0.0 L589.0 4.0 L0.0 4.0 L0.0 0.0z" stroke="#000000" stroke-width="1.0"/></g></g></svg>