<?xml version="1.0" encoding="utf-8"?>
<svg contentScriptType="text/ecmascript" xmlns:xlink="http://www.w3.org/1999/xlink" zoomAndPan="magnify" contentStyleType="text/css" viewBox="910.0 41.0 457.0 853.45" xmlns:cacoo="http://cacoo.com/" preserveAspectRatio="xMidYMin meet" xmlns="http://www.w3.org/2000/svg" version="1.1"><defs><filter xlink:actuate="onLoad" xlink:type="simple" id="id0" xlink:show="other" filterUnits="userSpaceOnUse" xmlns:xlink="http://www.w3.org/1999/xlink"><feGaussianBlur stdDeviation="3.0" result="blur" in="SourceAlpha"/><feOffset dx="4.0" dy="4.0" result="offsetBlur" in="blur"/><feComponentTransfer result="componentOffsetBlur" in="offsetBlur"><feFuncR type="linear" intercept="0.0" slope="0"/><feFuncG type="linear" intercept="0.0" slope="0"/><feFuncB type="linear" intercept="0.0" slope="0"/><feFuncA type="linear" intercept="0" slope="0.4"/></feComponentTransfer></filter><linearGradient x1="0%" xmlns:xlink="http://www.w3.org/1999/xlink" y1="0%" x2="0%" y2="100%" xlink:type="simple" xlink:actuate="onLoad" id="id2" xlink:show="other"><stop stop-opacity="1.0" stop-color="#fadcec" offset="0%"/><stop stop-opacity="1.0" stop-color="#d57ba8" offset="100%"/></linearGradient><marker refX="14.0" refY="7.0" markerUnits="userSpaceOnUse" orient="auto" id="id4" markerHeight="14.0" viewBox="0 0 14.0 14.0" preserveAspectRatio="xMidYMid meet" markerWidth="14.0" overflow="visible"><path fill="#000000" d="M0 0 L14.0 7.0 L0 14.0z" stroke-width="1.0" stroke-linejoin="round" stroke-linecap="round" stroke="#000000"/></marker><filter xlink:actuate="onLoad" xlink:type="simple" id="id5" xlink:show="other" filterUnits="userSpaceOnUse" xmlns:xlink="http://www.w3.org/1999/xlink"><feGaussianBlur stdDeviation="3.0" result="blur" in="SourceAlpha"/><feOffset dx="4.0" dy="-3.9999999999999996" result="offsetBlur" in="blur"/><feComponentTransfer result="componentOffsetBlur" in="offsetBlur"><feFuncR type="linear" intercept="0.0" slope="0"/><feFuncG type="linear" intercept="0.0" slope="0"/><feFuncB type="linear" intercept="0.0" slope="0"/><feFuncA type="linear" intercept="0" slope="0.4"/></feComponentTransfer></filter><linearGradient x1="0%" xmlns:xlink="http://www.w3.org/1999/xlink" y1="0%" x2="0%" y2="100%" xlink:type="simple" xlink:actuate="onLoad" id="id8" xlink:show="other"><stop stop-opacity="1.0" stop-color="#d0d0f0" offset="0%"/><stop stop-opacity="1.0" stop-color="#8986dc" offset="100%"/></linearGradient><marker refX="14.0" refY="7.0" markerUnits="userSpaceOnUse" orient="auto" id="id10" markerHeight="14.0" viewBox="0 0 14.0 14.0" preserveAspectRatio="xMidYMid meet" markerWidth="14.0" overflow="visible"><path fill="#000000" d="M0 0 L14.0 7.0 L0 14.0z" stroke-width="1.0" stroke-linejoin="round" stroke-linecap="round" stroke="#000000"/></marker><filter xlink:actuate="onLoad" xlink:type="simple" id="id11" xlink:show="other" filterUnits="userSpaceOnUse" xmlns:xlink="http://www.w3.org/1999/xlink"><feGaussianBlur stdDeviation="3.0" result="blur" in="SourceAlpha"/><feOffset dx="4.0" dy="-3.9999999999999996" result="offsetBlur" in="blur"/><feComponentTransfer result="componentOffsetBlur" in="offsetBlur"><feFuncR type="linear" intercept="0.0" slope="0"/><feFuncG type="linear" intercept="0.0" slope="0"/><feFuncB type="linear" intercept="0.0" slope="0"/><feFuncA type="linear" intercept="0" slope="0.4"/></feComponentTransfer></filter><filter xlink:actuate="onLoad" xlink:type="simple" id="id14" xlink:show="other" filterUnits="userSpaceOnUse" xmlns:xlink="http://www.w3.org/1999/xlink"><feGaussianBlur stdDeviation="3.0" result="blur" in="SourceAlpha"/><feOffset dx="4.0" dy="4.0" result="offsetBlur" in="blur"/><feComponentTransfer result="componentOffsetBlur" in="offsetBlur"><feFuncR type="linear" intercept="0.0" slope="0"/><feFuncG type="linear" intercept="0.0" slope="0"/><feFuncB type="linear" intercept="0.0" slope="0"/><feFuncA type="linear" intercept="0" slope="0.4"/></feComponentTransfer></filter><linearGradient xlink:actuate="onLoad" xlink:type="simple" id="id17" xlink:show="other" xmlns:xlink="http://www.w3.org/1999/xlink"><stop stop-opacity="1.0" stop-color="#ffffff" offset="0%"/><stop stop-opacity="1.0" stop-color="#cccccc" offset="100%"/></linearGradient><linearGradient x1="0%" xmlns:xlink="http://www.w3.org/1999/xlink" y1="0%" x2="0%" y2="100%" xlink:type="simple" xlink:actuate="onLoad" id="id18" xlink:show="other"><stop stop-opacity="1.0" stop-color="#cccccc" offset="0%"/><stop stop-opacity="1.0" stop-color="#ffffff" offset="100%"/></linearGradient><marker refX="14.0" refY="7.0" markerUnits="userSpaceOnUse" orient="auto" id="id20" markerHeight="14.0" viewBox="0 0 14.0 14.0" preserveAspectRatio="xMidYMid meet" markerWidth="14.0" overflow="visible"><path fill="none" d="M0 0 L14.0 7.0 L0 14.0" stroke-width="1.0" stroke-linejoin="round" stroke-linecap="round" stroke="#000000"/></marker><filter xlink:actuate="onLoad" xlink:type="simple" id="id21" xlink:show="other" filterUnits="userSpaceOnUse" xmlns:xlink="http://www.w3.org/1999/xlink"><feGaussianBlur stdDeviation="3.0" result="blur" in="SourceAlpha"/><feOffset dx="-4.000000000000001" dy="3.999999999999999" result="offsetBlur" in="blur"/><feComponentTransfer result="componentOffsetBlur" in="offsetBlur"><feFuncR type="linear" intercept="0.0" slope="0"/><feFuncG type="linear" intercept="0.0" slope="0"/><feFuncB type="linear" intercept="0.0" slope="0"/><feFuncA type="linear" intercept="0" slope="0.4"/></feComponentTransfer></filter><marker refX="14.0" refY="7.0" markerUnits="userSpaceOnUse" orient="auto" id="id25" markerHeight="14.0" viewBox="0 0 14.0 14.0" preserveAspectRatio="xMidYMid meet" markerWidth="14.0" overflow="visible"><path fill="none" d="M0 0 L14.0 7.0 L0 14.0" stroke-width="1.0" stroke-linejoin="round" stroke-linecap="round" stroke="#000000"/></marker><filter xlink:actuate="onLoad" xlink:type="simple" id="id26" xlink:show="other" filterUnits="userSpaceOnUse" xmlns:xlink="http://www.w3.org/1999/xlink"><feGaussianBlur stdDeviation="3.0" result="blur" in="SourceAlpha"/><feOffset dx="4.0" dy="4.0" result="offsetBlur" in="blur"/><feComponentTransfer result="componentOffsetBlur" in="offsetBlur"><feFuncR type="linear" intercept="0.0" slope="0"/><feFuncG type="linear" intercept="0.0" slope="0"/><feFuncB type="linear" intercept="0.0" slope="0"/><feFuncA type="linear" intercept="0" slope="0.4"/></feComponentTransfer></filter><linearGradient xlink:actuate="onLoad" xlink:type="simple" id="id29" xlink:show="other" xmlns:xlink="http://www.w3.org/1999/xlink"><stop stop-opacity="1.0" stop-color="#ffffff" offset="0%"/><stop stop-opacity="1.0" stop-color="#cccccc" offset="100%"/></linearGradient><linearGradient xlink:actuate="onLoad" xlink:type="simple" id="id30" xlink:show="other" xmlns:xlink="http://www.w3.org/1999/xlink"><stop stop-opacity="1.0" stop-color="#ffffff" offset="0%"/><stop stop-opacity="1.0" stop-color="#cccccc" offset="100%"/></linearGradient><linearGradient xlink:actuate="onLoad" xlink:type="simple" id="id32" xlink:show="other" xmlns:xlink="http://www.w3.org/1999/xlink"><stop stop-opacity="1.0" stop-color="#ffffff" offset="0%"/><stop stop-opacity="1.0" stop-color="#cccccc" offset="100%"/></linearGradient><linearGradient xlink:actuate="onLoad" xlink:type="simple" id="id33" xlink:show="other" xmlns:xlink="http://www.w3.org/1999/xlink"><stop stop-opacity="1.0" stop-color="#ffffff" offset="0%"/><stop stop-opacity="1.0" stop-color="#cccccc" offset="100%"/></linearGradient><filter xlink:actuate="onLoad" xlink:type="simple" id="id35" xlink:show="other" filterUnits="userSpaceOnUse" xmlns:xlink="http://www.w3.org/1999/xlink"><feGaussianBlur stdDeviation="3.0" result="blur" in="SourceAlpha"/><feOffset dx="4.0" dy="4.0" result="offsetBlur" in="blur"/><feComponentTransfer result="componentOffsetBlur" in="offsetBlur"><feFuncR type="linear" intercept="0.0" slope="0"/><feFuncG type="linear" intercept="0.0" slope="0"/><feFuncB type="linear" intercept="0.0" slope="0"/><feFuncA type="linear" intercept="0" slope="0.4"/></feComponentTransfer></filter><linearGradient x1="0%" xmlns:xlink="http://www.w3.org/1999/xlink" y1="0%" x2="0%" y2="100%" xlink:type="simple" xlink:actuate="onLoad" id="id37" xlink:show="other"><stop stop-opacity="1.0" stop-color="#e2eeff" offset="0%"/><stop stop-opacity="1.0" stop-color="#65a1fb" offset="100%"/></linearGradient><linearGradient x1="0%" xmlns:xlink="http://www.w3.org/1999/xlink" y1="0%" x2="0%" y2="100%" xlink:type="simple" xlink:actuate="onLoad" id="id39" xlink:show="other"><stop stop-opacity="1.0" stop-color="#e1d5e7" offset="0%"/><stop stop-opacity="1.0" stop-color="#a680b8" offset="97%"/></linearGradient><linearGradient x1="0%" xmlns:xlink="http://www.w3.org/1999/xlink" y1="0%" x2="0%" y2="100%" xlink:type="simple" xlink:actuate="onLoad" id="id41" xlink:show="other"><stop stop-opacity="1.0" stop-color="#cce3df" offset="0%"/><stop stop-opacity="1.0" stop-color="#67ab9f" offset="100%"/></linearGradient><linearGradient xlink:actuate="onLoad" xlink:type="simple" id="id43" xlink:show="other" xmlns:xlink="http://www.w3.org/1999/xlink"><stop stop-opacity="1.0" stop-color="#ffffff" offset="0%"/><stop stop-opacity="1.0" stop-color="#cccccc" offset="100%"/></linearGradient><linearGradient xlink:actuate="onLoad" xlink:type="simple" id="id44" xlink:show="other" xmlns:xlink="http://www.w3.org/1999/xlink"><stop stop-opacity="1.0" stop-color="#ffffff" offset="0%"/><stop stop-opacity="1.0" stop-color="#cccccc" offset="100%"/></linearGradient><linearGradient xlink:actuate="onLoad" xlink:type="simple" id="id45" xlink:show="other" xmlns:xlink="http://www.w3.org/1999/xlink"><stop stop-opacity="1.0" stop-color="#ffffff" offset="0%"/><stop stop-opacity="1.0" stop-color="#cccccc" offset="100%"/></linearGradient><linearGradient xlink:actuate="onLoad" xlink:type="simple" id="id46" xlink:show="other" xmlns:xlink="http://www.w3.org/1999/xlink"><stop stop-opacity="1.0" stop-color="#ffffff" offset="0%"/><stop stop-opacity="1.0" stop-color="#cccccc" offset="100%"/></linearGradient><linearGradient xlink:actuate="onLoad" xlink:type="simple" id="id50" xlink:show="other" xmlns:xlink="http://www.w3.org/1999/xlink"><stop stop-opacity="1.0" stop-color="#ffffff" offset="0%"/><stop stop-opacity="1.0" stop-color="#cccccc" offset="100%"/></linearGradient><linearGradient xlink:actuate="onLoad" xlink:type="simple" id="id51" xlink:show="other" xmlns:xlink="http://www.w3.org/1999/xlink"><stop stop-opacity="1.0" stop-color="#ffffff" offset="0%"/><stop stop-opacity="1.0" stop-color="#cccccc" offset="100%"/></linearGradient><linearGradient xlink:actuate="onLoad" xlink:type="simple" id="id53" xlink:show="other" xmlns:xlink="http://www.w3.org/1999/xlink"><stop stop-opacity="1.0" stop-color="#ffffff" offset="0%"/><stop stop-opacity="1.0" stop-color="#cccccc" offset="100%"/></linearGradient><linearGradient xlink:actuate="onLoad" xlink:type="simple" id="id54" xlink:show="other" xmlns:xlink="http://www.w3.org/1999/xlink"><stop stop-opacity="1.0" stop-color="#ffffff" offset="0%"/><stop stop-opacity="1.0" stop-color="#cccccc" offset="100%"/></linearGradient><linearGradient xlink:actuate="onLoad" xlink:type="simple" id="id56" xlink:show="other" xmlns:xlink="http://www.w3.org/1999/xlink"><stop stop-opacity="1.0" stop-color="#ffffff" offset="0%"/><stop stop-opacity="1.0" stop-color="#cccccc" offset="100%"/></linearGradient><linearGradient xlink:actuate="onLoad" xlink:type="simple" id="id57" xlink:show="other" xmlns:xlink="http://www.w3.org/1999/xlink"><stop stop-opacity="1.0" stop-color="#ffffff" offset="0%"/><stop stop-opacity="1.0" stop-color="#cccccc" offset="100%"/></linearGradient><marker refX="14.0" refY="7.0" markerUnits="userSpaceOnUse" orient="auto" id="id58" markerHeight="14.0" viewBox="0 0 14.0 14.0" preserveAspectRatio="xMidYMid meet" markerWidth="14.0" overflow="visible"><path fill="#000000" d="M0 0 L14.0 7.0 L0 14.0z" stroke-width="1.0" stroke-linejoin="round" stroke-linecap="round" stroke="#000000"/></marker><filter xlink:actuate="onLoad" xlink:type="simple" id="id59" xlink:show="other" filterUnits="userSpaceOnUse" xmlns:xlink="http://www.w3.org/1999/xlink"><feGaussianBlur stdDeviation="3.0" result="blur" in="SourceAlpha"/><feOffset dx="-4.000000000000001" dy="3.999999999999999" result="offsetBlur" in="blur"/><feComponentTransfer result="componentOffsetBlur" in="offsetBlur"><feFuncR type="linear" intercept="0.0" slope="0"/><feFuncG type="linear" intercept="0.0" slope="0"/><feFuncB type="linear" intercept="0.0" slope="0"/><feFuncA type="linear" intercept="0" slope="0.4"/></feComponentTransfer></filter><filter xlink:actuate="onLoad" xlink:type="simple" id="id63" xlink:show="other" filterUnits="userSpaceOnUse" xmlns:xlink="http://www.w3.org/1999/xlink"><feGaussianBlur stdDeviation="3.0" result="blur" in="SourceAlpha"/><feOffset dx="4.0" dy="4.0" result="offsetBlur" in="blur"/><feComponentTransfer result="componentOffsetBlur" in="offsetBlur"><feFuncR type="linear" intercept="0.0" slope="0"/><feFuncG type="linear" intercept="0.0" slope="0"/><feFuncB type="linear" intercept="0.0" slope="0"/><feFuncA type="linear" intercept="0" slope="0.4"/></feComponentTransfer></filter></defs><g><g transform="translate(925.0 56.0)"><g transform="translate(0.0 0.0)"><g transform="translate(110.0 224.0)"><use xlink:href="#id1" xlink:actuate="onLoad" xlink:type="simple" xlink:show="embed" xmlns:xlink="http://www.w3.org/1999/xlink" filter="url(#id0)"/></g><g transform="translate(67.63750000000005 373.3625) rotate(90.0 131.36250000000007 10.0)"><use xlink:href="#id6" xlink:actuate="onLoad" xlink:type="simple" xlink:show="embed" xmlns:xlink="http://www.w3.org/1999/xlink" filter="url(#id5)"/></g><g transform="translate(154.0 0.0)"><g transform="translate(-15.650000000000091 110.35000000000002) rotate(90.0 80.65000000000009 10.0)"><use xlink:href="#id12" xlink:actuate="onLoad" xlink:type="simple" xlink:show="embed" xmlns:xlink="http://www.w3.org/1999/xlink" filter="url(#id11)"/></g><g transform="translate(45.0 24.0)"><use xlink:href="#id15" xlink:actuate="onLoad" xlink:type="simple" xlink:show="embed" xmlns:xlink="http://www.w3.org/1999/xlink" filter="url(#id14)"/></g></g><g transform="translate(87.63749999999993 373.3625000000003) rotate(270.0 131.36250000000013 10.0)"><use xlink:href="#id22" xlink:actuate="onLoad" xlink:type="simple" xlink:show="embed" xmlns:xlink="http://www.w3.org/1999/xlink" filter="url(#id21)"/></g><g transform="translate(264.0 205.0)"><use xlink:href="#id27" xlink:actuate="onLoad" xlink:type="simple" xlink:show="embed" xmlns:xlink="http://www.w3.org/1999/xlink" filter="url(#id26)"/></g><g transform="translate(397.0 211.0)"><use xlink:href="#id36" xlink:actuate="onLoad" xlink:type="simple" xlink:show="embed" xmlns:xlink="http://www.w3.org/1999/xlink" filter="url(#id35)"/></g></g><g transform="translate(15.0 589.0)"><g transform="translate(145.66349999999994 79.1750000000003) rotate(270.0 39.175000000000125 10.0)"><use xlink:href="#id60" xlink:actuate="onLoad" xlink:type="simple" xlink:show="embed" xmlns:xlink="http://www.w3.org/1999/xlink" filter="url(#id59)"/></g></g><g transform="translate(0.0 587.0)"><use xlink:href="#id64" xlink:actuate="onLoad" xlink:type="simple" xlink:show="embed" xmlns:xlink="http://www.w3.org/1999/xlink" filter="url(#id63)"/></g></g></g><g><g transform="translate(925.0 56.0)"><g transform="translate(0.0 0.0)"><g transform="translate(110.0 224.0)"><path fill-opacity="1.0" fill="#000000" stroke-linejoin="round" id="id1" d="M0.0 0.0 L45.0 0.0 L45.0 4.0 L0.0 4.0 L0.0 0.0z" stroke="#000000" stroke-width="1.0"/></g><g transform="translate(127.0 514.7250000000001)"><path fill="url(#id2)" d="M164.00000000000006 43.0 Q164.00000000000006 50.0 157.00000000000006 50.0 L7.0 50.0 Q0.0 50.0 0.0 43.0 L0.0 7.0 Q0.0 0.0 7.0 0.0 L157.00000000000006 0.0 Q164.00000000000006 0.0 164.00000000000006 7.0 L164.00000000000006 43.0 L164.00000000000006 43.0z" stroke-width="1.0" stroke-linejoin="round" stroke="#cc6699"/><g transform="translate(5.0 5.0)"><clipPath id="id3"><path d="M0 0 L154.0 0 L154.0 40.0 L0 40.0z"/></clipPath><text font-size="14" clip-path="url(#id3)" text-decoration="none" fill="#000000" font-family="Arial,Arial" font-style="normal" font-weight="bold"><tspan x="14.0" xml:space="preserve" y="25.0" textLength="126.0">FPGA Web Service</tspan></text></g></g><g transform="translate(67.63750000000005 373.3625) rotate(90.0 131.36250000000007 10.0)"><path fill="none" stroke-linejoin="round" id="id6" d="M0.0 20.0 L262.7250000000003 20.0" stroke="#000000" stroke-width="1.0" marker-end="url(#id4)"/><g transform="translate(0.0 0.0)"><clipPath id="id7"><path d="M0 0 L262.72500000000014 0 L262.72500000000014 20.0 L0 20.0z"/></clipPath><text font-size="10" clip-path="url(#id7)" text-decoration="none" fill="#000000" font-family="Arial,Arial" font-style="normal" font-weight="normal"/></g></g><g transform="translate(154.0 0.0)"><g transform="translate(0.0 201.0)"><path fill="url(#id8)" d="M98.0 0.0 L110.0 25.0 L98.0 50.0 L12.0 50.0 L0.0 25.0 L12.0 0.0 L98.0 0.0z" stroke-width="1.0" stroke-linejoin="round" stroke="#7d79c4"/><g transform="translate(12.0 5.0)"><clipPath id="id9"><path d="M0 0 L86.0 0 L86.0 40.0 L0 40.0z"/></clipPath><text font-size="14" clip-path="url(#id9)" text-decoration="none" fill="#000000" font-family="Arial,Arial" font-style="normal" font-weight="bold"><tspan x="24.0" xml:space="preserve" y="25.0" textLength="38.0">Proxy</tspan></text></g></g><g transform="translate(-15.650000000000091 110.35000000000002) rotate(90.0 80.65000000000009 10.0)"><path fill="none" stroke-linejoin="round" id="id12" d="M0.0 20.0 L161.29999999999995 20.0" stroke="#000000" stroke-width="1.0" marker-end="url(#id10)"/><g transform="translate(0.0 0.0)"><clipPath id="id13"><path d="M0 0 L161.30000000000018 0 L161.30000000000018 20.0 L0 20.0z"/></clipPath><text font-size="12" clip-path="url(#id13)" text-decoration="none" fill="#000000" font-family="Arial,Arial" font-style="normal" font-weight="normal"/></g></g><g transform="translate(45.0 24.0)"><path fill-opacity="1.0" fill="#000000" stroke-linejoin="round" id="id15" d="M20.0 10.0 Q20.0 11.98912367379658 19.238795325112868 13.826834323650898 Q18.477590650225736 15.664544973505215 17.071067811865476 17.071067811865476 Q15.664544973505215 18.477590650225736 13.826834323650898 19.238795325112868 Q11.98912367379658 20.0 10.0 20.0 Q8.01087632620342 20.0 6.173165676349103 19.238795325112868 Q4.335455026494785 18.477590650225736 2.9289321881345254 17.071067811865476 Q1.5224093497742643 15.664544973505215 0.7612046748871322 13.8268343236509 Q0.0 11.98912367379658 0.0 10.000000000000002 Q0.0 8.010876326203423 0.7612046748871322 6.173165676349104 Q1.5224093497742643 4.335455026494786 2.9289321881345227 2.9289321881345254 Q4.335455026494783 1.522409349774268 6.173165676349097 0.7612046748871357 Q8.010876326203416 0.0 9.999999999999998 0.0 Q11.98912367379658 0.0 13.8268343236509 0.761204674887134 Q15.664544973505215 1.522409349774266 17.071067811865476 2.9289321881345227 Q18.47759065022573 4.335455026494781 19.238795325112864 6.173165676349096 Q20.0 8.010876326203416 20.0 10.0z" stroke="#000000" stroke-width="1.0"/></g><g transform="translate(12.0 0.0)"><clipPath id="id16"><path d="M0 0 L87.0 0 L87.0 40.0 L0 40.0z"/></clipPath><text font-size="12" clip-path="url(#id16)" text-decoration="none" fill="#000000" font-family="Arial,Arial" font-style="normal" font-weight="bold"><tspan x="2.0" xml:space="preserve" y="13.0" textLength="82.0">Petición AJAX</tspan></text></g><g transform="translate(32.0 89.0)"><path fill="url(#id17)" d="M46.678003 14.078 L32.563 0.0 L6.19 0.0 Q5.19 0.0 5.19 1.0 L5.19 51.331 Q5.19 52.331 6.19 52.331 L45.678 52.331 Q46.678 52.331 46.678 51.331 L46.678 14.078 L46.678003 14.078z" stroke-width="1.0" stroke-linejoin="round" stroke="#000000"/><path fill="#969696" fill-opacity="1.0" d="M20.451 30.3490002 L14.650999800000001 32.7130005 L20.451 35.076999 L20.451 37.150999999999996 L11.845 33.6140015 L11.845 31.811 L20.451 28.273 L20.451 30.3480008 L20.451 30.3490002z" stroke="none"/><path fill="#969696" fill-opacity="1.0" d="M22.356 25.43400003 Q23.953761200000002 24.941 25.928000500000003 24.941 Q30.026999500000002 24.941 30.026999500000002 27.798999799999997 Q30.026999500000002 28.9870377 28.7107497 30.411625 Q27.345153000000003 31.889618 27.255000000000003 32.986 L24.772000400000003 32.986 Q25.869000500000002 30.6984997 26.9660006 28.4109993 Q26.9660006 27.187000299999998 25.095000300000002 27.187000299999998 Q23.6578398 27.187000299999998 22.425000244000003 27.816 L22.356999450700002 25.43499948 L24.583998700000002 34.261002 L27.440999 34.261002 L27.440999 37.016003 L24.583998700000002 37.016003 L24.583998700000002 34.261002" stroke="none"/><path fill="#969696" fill-opacity="1.0" d="M31.506 35.0779995 L37.305999 32.714000999999996 L31.506 30.3500008 L31.506 28.275 L40.111000000000004 31.813 L40.111000000000004 33.616001499999996 L31.506 37.153 L31.506 35.078998999999996 L31.506 35.0779995z" stroke="none"/><path fill="#6c6cf4" fill-opacity="1.0" d="M36.673 18.861 Q36.673 19.861 35.673 19.861 L1.0 19.861 Q0.0 19.861 0.0 18.861 L0.0 7.017 Q0.0 6.017 1.0 6.017 L35.673 6.017 Q36.673 6.017 36.673 7.017 L36.673 18.861999 L36.673 18.861z" stroke-width="1.0" stroke-linejoin="round" stroke="#000000"/><path fill="#ffffff" fill-opacity="1.0" d="M9.756999950700001 10.447999935 L11.402999900000001 10.447999935 L11.402999900000001 11.3809995 Q11.9417352 10.3289995 13.348000500000001 10.3289995 Q15.560001500000002 10.3289995 15.560001500000002 12.9379997 Q15.560001500000002 15.736 13.1990013 15.736 Q12.0246905 15.736 11.562001200000001 14.8929995 L11.5420008 17.7000007 L9.7560005 17.7000007 L9.7560005 10.44800089 L12.633999800000002 11.6979999 Q11.543000200000002 11.6979999 11.543000200000002 13.0480003 Q11.543000200000002 14.3670005 12.633999800000002 14.3670005 Q13.7159995 14.3670005 13.7159995 12.9780006 Q13.7159995 11.6980009 12.633999800000002 11.6980009" stroke="none"/><path fill="#ffffff" fill-opacity="1.0" d="M16.424 8.176 L18.2099993 8.176 L18.2099993 11.2120003 Q18.8675387 10.3289999 19.9559996 10.3289999 Q21.9300005 10.3289999 21.9300005 12.393 L21.9300005 15.617001 L20.144001199999998 15.617001 L20.144001199999998 13.117001 Q20.144001199999998 11.817000700000001 19.3210013 11.817000700000001 Q18.2100012 11.817000700000001 18.2100012 13.4340004 L18.2100012 15.617001 L16.4240019073486 15.617001 L16.4240019073486 8.176 L16.424 8.176z" stroke="none"/><path fill="#ffffff" fill-opacity="1.0" d="M23.001 10.447999935 L24.6479994 10.447999935 L24.6479994 11.3809995 Q25.186733800000003 10.3289995 26.592999000000002 10.3289995 Q28.804999000000002 10.3289995 28.804999000000002 12.9379997 Q28.804999000000002 15.736 26.443999 15.736 Q25.271061500000002 15.736 24.8069998 14.8929995 L24.7869993 17.7000007 L23.001 17.7000007 L23.001 10.44800089 L25.878000800000002 11.6979999 Q24.787001200000002 11.6979999 24.787001200000002 13.0480003 Q24.787001200000002 14.3670005 25.878000800000002 14.3670005 Q26.959000200000002 14.3670005 26.959000200000002 12.9780006 Q26.959000200000002 11.6980009 25.878000800000002 11.6980009" stroke="none"/><path fill="url(#id18)" d="M46.678003 14.144 L33.586 14.144 Q32.586 14.144 32.586 13.144 L32.586 0.0 L46.677999 14.144 L46.678003 14.144z" stroke-width="1.0" stroke-linejoin="round" stroke="#000000"/></g><g transform="translate(42.0 124.0)"><clipPath id="id19"><path d="M0 0 L35.0 0 L35.0 17.331000000000017 L0 17.331000000000017z"/></clipPath><text font-size="12" clip-path="url(#id19)" text-decoration="none" fill="#000000" font-family="Arial,Arial" font-style="italic" font-weight="normal"><tspan x="2.0" xml:space="preserve" y="13.0" textLength="29.0">proxy</tspan></text></g></g><g transform="translate(87.63749999999993 373.3625000000003) rotate(270.0 131.36250000000013 10.0)"><path fill="none" stroke-linejoin="round" stroke-dasharray="3.0 1.0" id="id22" d="M0.0 20.0 L262.72500000000036 20.0" stroke="#000000" stroke-width="1.0" marker-end="url(#id20)"/><g transform="translate(0.0 0.0)"><clipPath id="id23"><path d="M0 0 L262.72500000000025 0 L262.72500000000025 20.0 L0 20.0z"/></clipPath><text font-size="12" clip-path="url(#id23)" text-decoration="none" fill="#000000" font-family="Times" font-style="normal" font-weight="normal"/></g></g><g transform="translate(84.0 374.81187500000004)"><clipPath id="id24"><path d="M0 0 L100.0 0 L100.0 17.10125000000005 L0 17.10125000000005z"/></clipPath><text font-size="12" clip-path="url(#id24)" text-decoration="none" fill="#000000" font-family="Arial,Arial" font-style="normal" font-weight="bold"><tspan x="2.0" xml:space="preserve" y="13.0" textLength="95.0">Reenvía petición</tspan></text></g><g transform="translate(264.0 205.0)"><path fill="none" stroke-linejoin="round" stroke-dasharray="3.0 1.0" id="id27" d="M0.0 20.0 L132.0 20.0" stroke="#000000" stroke-width="1.0" marker-end="url(#id25)"/><g transform="translate(0.0 0.0)"><clipPath id="id28"><path d="M0 0 L132.0 0 L132.0 20.0 L0 20.0z"/></clipPath><text font-size="10" clip-path="url(#id28)" text-decoration="none" fill="#000000" font-family="Arial,Arial" font-style="normal" font-weight="normal"/></g></g><g transform="translate(209.0 357.1975000000001)"><g transform="translate(0.0 0.0)"><path fill="url(#id29)" d="M41.489 14.078 L27.374 0.0 L1.0 0.0 Q0.0 0.0 0.0 1.0 L0.0 51.33 Q0.0 52.33 1.0 52.33 L40.489 52.33 Q41.489 52.33 41.489 51.33 L41.489 14.078 L41.489 14.078z" stroke-width="1.0" stroke-linejoin="round" stroke="#000000"/><path fill="url(#id30)" d="M40.488999 14.24 L27.397 14.24 Q26.397 14.24 26.397 13.24 L26.397 0.097 L40.488999 14.24 L40.488999 14.24z" stroke-width="1.0" stroke-linejoin="round" stroke="#000000"/></g><g transform="translate(7.0 21.0)"><clipPath id="id31"><path d="M0 0 L31.489000000000033 0 L31.489000000000033 16.862500000000068 L0 16.862500000000068z"/></clipPath><text font-size="12" clip-path="url(#id31)" text-decoration="none" fill="#000000" font-family="Arial,Arial" font-style="normal" font-weight="normal"><tspan x="2.0" xml:space="preserve" y="13.0" textLength="22.0">json</tspan></text></g></g><g transform="translate(300.0 200.0)"><g transform="translate(0.0 0.0)"><path fill="url(#id32)" d="M41.489 14.078 L27.374 0.0 L1.0 0.0 Q0.0 0.0 0.0 1.0 L0.0 51.33 Q0.0 52.33 1.0 52.33 L40.489 52.33 Q41.489 52.33 41.489 51.33 L41.489 14.078 L41.489 14.078z" stroke-width="1.0" stroke-linejoin="round" stroke="#000000"/><path fill="url(#id33)" d="M40.488999 14.24 L27.397 14.24 Q26.397 14.24 26.397 13.24 L26.397 0.097 L40.488999 14.24 L40.488999 14.24z" stroke-width="1.0" stroke-linejoin="round" stroke="#000000"/></g><g transform="translate(7.0 21.0)"><clipPath id="id34"><path d="M0 0 L31.489000000000033 0 L31.489000000000033 16.862500000000068 L0 16.862500000000068z"/></clipPath><text font-size="12" clip-path="url(#id34)" text-decoration="none" fill="#000000" font-family="Arial,Arial" font-style="normal" font-weight="normal"><tspan x="2.0" xml:space="preserve" y="13.0" textLength="22.0">json</tspan></text></g></g><g transform="translate(397.0 211.0)"><path fill-opacity="1.0" fill="#ffffff" stroke-linejoin="round" id="id36" d="M30.0 15.0 Q30.0 17.98368551069487 28.8581929876693 20.740251485476342 Q27.716385975338603 23.496817460257823 25.606601717798213 25.606601717798213 Q23.496817460257823 27.716385975338603 20.74025148547635 28.8581929876693 Q17.98368551069487 30.0 15.000000000000002 30.0 Q12.01631448930513 30.0 9.259748514523654 28.8581929876693 Q6.503182539742177 27.716385975338603 4.3933982822017885 25.606601717798213 Q2.2836140246613983 23.496817460257823 1.1418070123306985 20.74025148547635 Q0.0 17.98368551069487 0.0 15.000000000000002 Q0.0 12.016314489305136 1.1418070123306965 9.259748514523654 Q2.2836140246613965 6.5031825397421805 4.393398282201785 4.3933982822017885 Q6.503182539742175 2.283614024661402 9.259748514523643 1.1418070123307018 Q12.016314489305124 0.0 14.999999999999996 0.0 Q17.983685510694873 0.0 20.74025148547635 1.1418070123307 Q23.496817460257823 2.2836140246614 25.60660171779821 4.393398282201785 Q27.716385975338596 6.503182539742172 28.858192987669295 9.259748514523643 Q30.0 12.016314489305126 30.0 15.0z" stroke="#000000" stroke-width="1.0"/><path fill="#000000" fill-opacity="1.0" d="M25.0 15.0 Q25.0 16.98912367379658 24.238795325112868 18.8268343236509 Q23.477590650225736 20.664544973505215 22.071067811865476 22.071067811865476 Q20.664544973505215 23.477590650225736 18.8268343236509 24.238795325112868 Q16.98912367379658 25.0 15.0 25.0 Q13.01087632620342 25.0 11.173165676349104 24.238795325112868 Q9.335455026494785 23.477590650225736 7.928932188134525 22.071067811865476 Q6.522409349774264 20.664544973505215 5.761204674887132 18.8268343236509 Q5.0 16.98912367379658 5.0 15.000000000000002 Q5.0 13.010876326203423 5.761204674887132 11.173165676349104 Q6.522409349774264 9.335455026494786 7.928932188134523 7.928932188134525 Q9.335455026494783 6.522409349774268 11.173165676349097 5.761204674887136 Q13.010876326203416 5.0 14.999999999999998 5.0 Q16.98912367379658 5.0 18.8268343236509 5.761204674887134 Q20.664544973505215 6.522409349774266 22.071067811865476 7.928932188134523 Q23.47759065022573 9.335455026494781 24.238795325112864 11.173165676349097 Q25.0 13.010876326203416 25.0 15.0z" stroke-width="1.0" stroke-linejoin="round" stroke="#000000"/></g><g transform="translate(0.0 202.32999999999993)"><path fill="url(#id37)" d="M25.0 50.0 Q20.02719081550855 50.0 15.432914190872756 48.09698831278217 Q10.838637566236956 46.19397662556434 7.322330470336315 42.67766952966369 Q3.806023374435668 39.161362433763045 1.9030116872178304 34.56708580912725 Q0.0 29.97280918449145 0.0 25.000000000000004 Q0.0 20.02719081550855 1.9030116872178304 15.432914190872758 Q3.8060233744356537 10.838637566236963 7.322330470336308 7.322330470336315 Q10.838637566236956 3.806023374435668 15.432914190872742 1.9030116872178375 Q20.027190815508536 0.0 24.999999999999996 0.0 L85.0 0.0 Q89.97280918449147 0.0 94.56708580912726 1.9030116872178375 Q99.16136243376305 3.806023374435668 102.67766952966369 7.322330470336315 Q106.19397662556435 10.838637566236963 108.09698831278217 15.432914190872758 Q110.0 20.02719081550855 110.0 25.000000000000004 Q110.0 29.97280918449145 108.09698831278217 34.56708580912725 Q106.19397662556433 39.161362433763045 102.67766952966369 42.67766952966369 Q99.16136243376305 46.19397662556434 94.56708580912725 48.09698831278217 Q89.97280918449145 50.0 85.0 50.0 L25.0 50.0z" stroke-width="1.0" stroke-linejoin="round" stroke="#428eea"/><g transform="translate(15.0 5.0)"><clipPath id="id38"><path d="M0 0 L80.0 0 L80.0 40.0 L0 40.0z"/></clipPath><text font-size="14" clip-path="url(#id38)" text-decoration="none" fill="#000000" font-family="Arial,Arial" font-style="normal" font-weight="bold"><tspan x="18.0" xml:space="preserve" y="25.0" textLength="44.0">Config</tspan></text></g></g></g><g transform="translate(15.0 589.0)"><g transform="translate(0.0 128.45000000000005)"><path fill="url(#id39)" d="M373.5155 0.0 L0.0 0.0 L0.0 99.0 Q93.378875 109.0 186.75775 99.0 Q280.136625 89.0 373.5155 89.0 L373.5155 0.0z" stroke-width="1.0" stroke-linejoin="round" stroke="#8856a1"/><g transform="translate(5.0 5.0)"><clipPath id="id40"><path d="M0 0 L363.51550000000003 0 L363.51550000000003 86.0 L0 86.0z"/></clipPath><text font-size="14" clip-path="url(#id40)" text-decoration="none" fill="#000000" font-family="Arial,Arial" font-style="normal" font-weight="normal"/></g></g><g transform="translate(139.8385 0.0)"><path fill="url(#id41)" d="M110.0 0.0 L0.0 0.0 L0.0 35.0 L15.0 50.0 L95.0 50.0 L110.0 35.0 L110.0 0.0z" stroke-width="1.0" stroke-linejoin="round" stroke="#358f7f"/><g transform="translate(5.0 5.0)"><clipPath id="id42"><path d="M0 0 L100.0 0 L100.0 40.0 L0 40.0z"/></clipPath><text font-size="14" clip-path="url(#id42)" text-decoration="none" fill="#000000" font-family="Arial,Arial" font-style="normal" font-weight="bold"><tspan x="26.0" xml:space="preserve" y="25.0" textLength="47.0">Logger</tspan></text></g></g><g transform="translate(16.16149999999999 138.45000000000005)"><g transform="translate(0.0 20.435000000000173)"><path fill="url(#id43)" d="M46.677 14.078 L32.562 0.0 L6.19 0.0 Q5.19 0.0 5.19 1.0 L5.19 51.33 Q5.19 52.33 6.19 52.33 L45.677 52.33 Q46.677 52.33 46.677 51.33 L46.677 14.078 L46.677 14.078z" stroke-width="1.0" stroke-linejoin="round" stroke="#000000"/><path fill="#0430ad" fill-opacity="1.0" d="M36.673 18.899 Q36.673 19.899 35.673 19.899 L1.0 19.899 Q0.0 19.899 0.0 18.899 L0.0 7.055 Q0.0 6.055 1.0 6.055 L35.673 6.055 Q36.673 6.055 36.673 7.055 L36.673 18.899999 L36.673 18.899z" stroke-width="1.0" stroke-linejoin="round" stroke="#000000"/><path fill="#ffffff" fill-opacity="1.0" d="M11.109 11.3170008 L12.159999599999999 11.3170008 L12.159999599999999 10.156000500000001 L13.9160002 9.610001 L13.9160002 11.3170008 L15.166 11.3170008 L15.166 12.5670008 L13.9160002 12.5670008 L13.9160002 14.4720005 Q13.9160002 15.4150004 14.629999999999999 15.4150004 Q14.7596662 15.4150004 15.175 15.3450007 L15.2350004 16.506001 Q14.4009254 16.605002 14.114 16.605002 Q12.1299999 16.605002 12.1299999 14.670002400000001 L12.1299999 12.566002300000001 L11.109 12.566002300000001 L11.109 11.316002300000001 L11.109 11.3170008z" stroke="none"/><path fill="#ffffff" fill-opacity="1.0" d="M17.2600005 13.857 L15.64299994 11.317 L17.7560008 11.317 L18.5200007 12.8650003 L19.3240016 11.317 L21.2790015 11.317 L19.662001 13.836999500000001 L21.388001 16.4859997 L19.235001 16.4859997 L18.372 14.8789993 L17.518 16.4859997 L15.504 16.4859997 L17.2600005 13.857 L17.2600005 13.857z" stroke="none"/><path fill="#ffffff" fill-opacity="1.0" d="M21.575 11.3170008 L22.627 11.3170008 L22.627 10.156000500000001 L24.3830006 9.610001 L24.3830006 11.3170008 L25.6330006 11.3170008 L25.6330006 12.5670008 L24.3830006 12.5670008 L24.3830006 14.4720005 Q24.3830006 15.4150004 25.0970013 15.4150004 Q25.225335299999998 15.4150004 25.643000999999998 15.3450007 L25.7030003 16.506001 Q24.8689243 16.605002 24.582 16.605002 Q22.5980007 16.605002 22.5980007 14.670002400000001 L22.5980007 12.566002300000001 L21.576001358 12.566002300000001 L21.576001358 11.316002300000001 L21.575 11.3170008z" stroke="none"/><path fill="#969696" fill-opacity="1.0" d="M11.4179999536743 37.928 L11.4179999536743 38.928 L39.667999 38.928 L39.667999 37.928 L11.417999 37.928 L11.4179999536743 37.928z" stroke="none"/><path fill="#969696" fill-opacity="1.0" d="M11.4179999536743 23.355 L11.4179999536743 24.355 L39.667999 24.355 L39.667999 23.355 L11.417999 23.355 L11.4179999536743 23.355z" stroke="none"/><path fill="#969696" fill-opacity="1.0" d="M11.4179999536743 26.27 L11.4179999536743 27.27 L39.667999 27.27 L39.667999 26.27 L11.417999 26.27 L11.4179999536743 26.27z" stroke="none"/><path fill="#969696" fill-opacity="1.0" d="M11.4179999536743 29.184 L11.4179999536743 30.184 L39.667999 30.184 L39.667999 29.184 L11.417999 29.184 L11.4179999536743 29.184z" stroke="none"/><path fill="#969696" fill-opacity="1.0" d="M11.4179999536743 32.099 L11.4179999536743 33.099 L39.667999 33.099 L39.667999 32.099 L11.417999 32.099 L11.4179999536743 32.099z" stroke="none"/><path fill="#969696" fill-opacity="1.0" d="M11.4179999536743 35.013 L11.4179999536743 36.013 L39.667999 36.013 L39.667999 35.013 L11.417999 35.013 L11.4179999536743 35.013z" stroke="none"/><path fill="#969696" fill-opacity="1.0" d="M11.4179999536743 40.842 L11.4179999536743 41.842 L39.667999 41.842 L39.667999 40.842 L11.417999 40.842 L11.4179999536743 40.842z" stroke="none"/><path fill="#969696" fill-opacity="1.0" d="M11.4179999536743 43.756 L11.4179999536743 44.756 L39.667999 44.756 L39.667999 43.756 L11.417999 43.756 L11.4179999536743 43.756z" stroke="none"/><path fill="url(#id44)" d="M46.676998 14.144 L33.586998 14.144 Q32.586998 14.144 32.586998 13.144 L32.586998 0.0 L46.676998 14.144 L46.676998 14.144z" stroke-width="1.0" stroke-linejoin="round" stroke="#000000"/></g><g transform="translate(72.67699999999996 20.435000000000173)"><path fill="url(#id45)" d="M46.677 14.078 L32.562 0.0 L6.19 0.0 Q5.19 0.0 5.19 1.0 L5.19 51.33 Q5.19 52.33 6.19 52.33 L45.677 52.33 Q46.677 52.33 46.677 51.33 L46.677 14.078 L46.677 14.078z" stroke-width="1.0" stroke-linejoin="round" stroke="#000000"/><path fill="#0430ad" fill-opacity="1.0" d="M36.673 18.899 Q36.673 19.899 35.673 19.899 L1.0 19.899 Q0.0 19.899 0.0 18.899 L0.0 7.055 Q0.0 6.055 1.0 6.055 L35.673 6.055 Q36.673 6.055 36.673 7.055 L36.673 18.899999 L36.673 18.899z" stroke-width="1.0" stroke-linejoin="round" stroke="#000000"/><path fill="#ffffff" fill-opacity="1.0" d="M11.109 11.3170008 L12.159999599999999 11.3170008 L12.159999599999999 10.156000500000001 L13.9160002 9.610001 L13.9160002 11.3170008 L15.166 11.3170008 L15.166 12.5670008 L13.9160002 12.5670008 L13.9160002 14.4720005 Q13.9160002 15.4150004 14.629999999999999 15.4150004 Q14.7596662 15.4150004 15.175 15.3450007 L15.2350004 16.506001 Q14.4009254 16.605002 14.114 16.605002 Q12.1299999 16.605002 12.1299999 14.670002400000001 L12.1299999 12.566002300000001 L11.109 12.566002300000001 L11.109 11.316002300000001 L11.109 11.3170008z" stroke="none"/><path fill="#ffffff" fill-opacity="1.0" d="M17.2600005 13.857 L15.64299994 11.317 L17.7560008 11.317 L18.5200007 12.8650003 L19.3240016 11.317 L21.2790015 11.317 L19.662001 13.836999500000001 L21.388001 16.4859997 L19.235001 16.4859997 L18.372 14.8789993 L17.518 16.4859997 L15.504 16.4859997 L17.2600005 13.857 L17.2600005 13.857z" stroke="none"/><path fill="#ffffff" fill-opacity="1.0" d="M21.575 11.3170008 L22.627 11.3170008 L22.627 10.156000500000001 L24.3830006 9.610001 L24.3830006 11.3170008 L25.6330006 11.3170008 L25.6330006 12.5670008 L24.3830006 12.5670008 L24.3830006 14.4720005 Q24.3830006 15.4150004 25.0970013 15.4150004 Q25.225335299999998 15.4150004 25.643000999999998 15.3450007 L25.7030003 16.506001 Q24.8689243 16.605002 24.582 16.605002 Q22.5980007 16.605002 22.5980007 14.670002400000001 L22.5980007 12.566002300000001 L21.576001358 12.566002300000001 L21.576001358 11.316002300000001 L21.575 11.3170008z" stroke="none"/><path fill="#969696" fill-opacity="1.0" d="M11.4179999536743 37.928 L11.4179999536743 38.928 L39.667999 38.928 L39.667999 37.928 L11.417999 37.928 L11.4179999536743 37.928z" stroke="none"/><path fill="#969696" fill-opacity="1.0" d="M11.4179999536743 23.355 L11.4179999536743 24.355 L39.667999 24.355 L39.667999 23.355 L11.417999 23.355 L11.4179999536743 23.355z" stroke="none"/><path fill="#969696" fill-opacity="1.0" d="M11.4179999536743 26.27 L11.4179999536743 27.27 L39.667999 27.27 L39.667999 26.27 L11.417999 26.27 L11.4179999536743 26.27z" stroke="none"/><path fill="#969696" fill-opacity="1.0" d="M11.4179999536743 29.184 L11.4179999536743 30.184 L39.667999 30.184 L39.667999 29.184 L11.417999 29.184 L11.4179999536743 29.184z" stroke="none"/><path fill="#969696" fill-opacity="1.0" d="M11.4179999536743 32.099 L11.4179999536743 33.099 L39.667999 33.099 L39.667999 32.099 L11.417999 32.099 L11.4179999536743 32.099z" stroke="none"/><path fill="#969696" fill-opacity="1.0" d="M11.4179999536743 35.013 L11.4179999536743 36.013 L39.667999 36.013 L39.667999 35.013 L11.417999 35.013 L11.4179999536743 35.013z" stroke="none"/><path fill="#969696" fill-opacity="1.0" d="M11.4179999536743 40.842 L11.4179999536743 41.842 L39.667999 41.842 L39.667999 40.842 L11.417999 40.842 L11.4179999536743 40.842z" stroke="none"/><path fill="#969696" fill-opacity="1.0" d="M11.4179999536743 43.756 L11.4179999536743 44.756 L39.667999 44.756 L39.667999 43.756 L11.417999 43.756 L11.4179999536743 43.756z" stroke="none"/><path fill="url(#id46)" d="M46.676998 14.144 L33.586998 14.144 Q32.586998 14.144 32.586998 13.144 L32.586998 0.0 L46.676998 14.144 L46.676998 14.144z" stroke-width="1.0" stroke-linejoin="round" stroke="#000000"/></g><g transform="translate(5.6843418860808015E-14 0.4350000000001728)"><clipPath id="id47"><path d="M0 0 L46.676999999999964 0 L46.676999999999964 40.0 L0 40.0z"/></clipPath><text font-size="12" clip-path="url(#id47)" text-decoration="none" fill="#000000" font-family="Arial,Arial" font-style="normal" font-weight="normal"><tspan x="2.0" xml:space="preserve" y="13.0" textLength="39.0">app.log</tspan></text></g><g transform="translate(69.67699999999996 0.4350000000001728)"><clipPath id="id48"><path d="M0 0 L56.999999999999886 0 L56.999999999999886 40.0 L0 40.0z"/></clipPath><text font-size="12" clip-path="url(#id48)" text-decoration="none" fill="#000000" font-family="Arial,Arial" font-style="normal" font-weight="normal"><tspan x="2.0" xml:space="preserve" y="13.0" textLength="51.0">action.log</tspan></text></g><g transform="translate(138.67699999999996 0.4350000000001728)"><clipPath id="id49"><path d="M0 0 L66.67700000000002 0 L66.67700000000002 40.0 L0 40.0z"/></clipPath><text font-size="12" clip-path="url(#id49)" text-decoration="none" fill="#000000" font-family="Arial,Arial" font-style="normal" font-weight="normal"><tspan x="2.0" xml:space="preserve" y="13.0" textLength="61.0">warning.log</tspan></text></g><g transform="translate(145.67699999999996 20.435000000000173)"><path fill="url(#id50)" d="M46.677 14.078 L32.562 0.0 L6.19 0.0 Q5.19 0.0 5.19 1.0 L5.19 51.33 Q5.19 52.33 6.19 52.33 L45.677 52.33 Q46.677 52.33 46.677 51.33 L46.677 14.078 L46.677 14.078z" stroke-width="1.0" stroke-linejoin="round" stroke="#000000"/><path fill="#0430ad" fill-opacity="1.0" d="M36.673 18.899 Q36.673 19.899 35.673 19.899 L1.0 19.899 Q0.0 19.899 0.0 18.899 L0.0 7.055 Q0.0 6.055 1.0 6.055 L35.673 6.055 Q36.673 6.055 36.673 7.055 L36.673 18.899999 L36.673 18.899z" stroke-width="1.0" stroke-linejoin="round" stroke="#000000"/><path fill="#ffffff" fill-opacity="1.0" d="M11.109 11.3170008 L12.159999599999999 11.3170008 L12.159999599999999 10.156000500000001 L13.9160002 9.610001 L13.9160002 11.3170008 L15.166 11.3170008 L15.166 12.5670008 L13.9160002 12.5670008 L13.9160002 14.4720005 Q13.9160002 15.4150004 14.629999999999999 15.4150004 Q14.7596662 15.4150004 15.175 15.3450007 L15.2350004 16.506001 Q14.4009254 16.605002 14.114 16.605002 Q12.1299999 16.605002 12.1299999 14.670002400000001 L12.1299999 12.566002300000001 L11.109 12.566002300000001 L11.109 11.316002300000001 L11.109 11.3170008z" stroke="none"/><path fill="#ffffff" fill-opacity="1.0" d="M17.2600005 13.857 L15.64299994 11.317 L17.7560008 11.317 L18.5200007 12.8650003 L19.3240016 11.317 L21.2790015 11.317 L19.662001 13.836999500000001 L21.388001 16.4859997 L19.235001 16.4859997 L18.372 14.8789993 L17.518 16.4859997 L15.504 16.4859997 L17.2600005 13.857 L17.2600005 13.857z" stroke="none"/><path fill="#ffffff" fill-opacity="1.0" d="M21.575 11.3170008 L22.627 11.3170008 L22.627 10.156000500000001 L24.3830006 9.610001 L24.3830006 11.3170008 L25.6330006 11.3170008 L25.6330006 12.5670008 L24.3830006 12.5670008 L24.3830006 14.4720005 Q24.3830006 15.4150004 25.0970013 15.4150004 Q25.225335299999998 15.4150004 25.643000999999998 15.3450007 L25.7030003 16.506001 Q24.8689243 16.605002 24.582 16.605002 Q22.5980007 16.605002 22.5980007 14.670002400000001 L22.5980007 12.566002300000001 L21.576001358 12.566002300000001 L21.576001358 11.316002300000001 L21.575 11.3170008z" stroke="none"/><path fill="#969696" fill-opacity="1.0" d="M11.4179999536743 37.928 L11.4179999536743 38.928 L39.667999 38.928 L39.667999 37.928 L11.417999 37.928 L11.4179999536743 37.928z" stroke="none"/><path fill="#969696" fill-opacity="1.0" d="M11.4179999536743 23.355 L11.4179999536743 24.355 L39.667999 24.355 L39.667999 23.355 L11.417999 23.355 L11.4179999536743 23.355z" stroke="none"/><path fill="#969696" fill-opacity="1.0" d="M11.4179999536743 26.27 L11.4179999536743 27.27 L39.667999 27.27 L39.667999 26.27 L11.417999 26.27 L11.4179999536743 26.27z" stroke="none"/><path fill="#969696" fill-opacity="1.0" d="M11.4179999536743 29.184 L11.4179999536743 30.184 L39.667999 30.184 L39.667999 29.184 L11.417999 29.184 L11.4179999536743 29.184z" stroke="none"/><path fill="#969696" fill-opacity="1.0" d="M11.4179999536743 32.099 L11.4179999536743 33.099 L39.667999 33.099 L39.667999 32.099 L11.417999 32.099 L11.4179999536743 32.099z" stroke="none"/><path fill="#969696" fill-opacity="1.0" d="M11.4179999536743 35.013 L11.4179999536743 36.013 L39.667999 36.013 L39.667999 35.013 L11.417999 35.013 L11.4179999536743 35.013z" stroke="none"/><path fill="#969696" fill-opacity="1.0" d="M11.4179999536743 40.842 L11.4179999536743 41.842 L39.667999 41.842 L39.667999 40.842 L11.417999 40.842 L11.4179999536743 40.842z" stroke="none"/><path fill="#969696" fill-opacity="1.0" d="M11.4179999536743 43.756 L11.4179999536743 44.756 L39.667999 44.756 L39.667999 43.756 L11.417999 43.756 L11.4179999536743 43.756z" stroke="none"/><path fill="url(#id51)" d="M46.676998 14.144 L33.586998 14.144 Q32.586998 14.144 32.586998 13.144 L32.586998 0.0 L46.676998 14.144 L46.676998 14.144z" stroke-width="1.0" stroke-linejoin="round" stroke="#000000"/></g><g transform="translate(219.67699999999996 0.0)"><clipPath id="id52"><path d="M0 0 L66.67700000000002 0 L66.67700000000002 40.0 L0 40.0z"/></clipPath><text font-size="12" clip-path="url(#id52)" text-decoration="none" fill="#000000" font-family="Arial,Arial" font-style="normal" font-weight="normal"><tspan x="2.0" xml:space="preserve" y="13.0" textLength="44.0">error.log</tspan></text></g><g transform="translate(219.67699999999996 20.0)"><path fill="url(#id53)" d="M46.677 14.078 L32.562 0.0 L6.19 0.0 Q5.19 0.0 5.19 1.0 L5.19 51.33 Q5.19 52.33 6.19 52.33 L45.677 52.33 Q46.677 52.33 46.677 51.33 L46.677 14.078 L46.677 14.078z" stroke-width="1.0" stroke-linejoin="round" stroke="#000000"/><path fill="#0430ad" fill-opacity="1.0" d="M36.673 18.899 Q36.673 19.899 35.673 19.899 L1.0 19.899 Q0.0 19.899 0.0 18.899 L0.0 7.055 Q0.0 6.055 1.0 6.055 L35.673 6.055 Q36.673 6.055 36.673 7.055 L36.673 18.899999 L36.673 18.899z" stroke-width="1.0" stroke-linejoin="round" stroke="#000000"/><path fill="#ffffff" fill-opacity="1.0" d="M11.109 11.3170008 L12.159999599999999 11.3170008 L12.159999599999999 10.156000500000001 L13.9160002 9.610001 L13.9160002 11.3170008 L15.166 11.3170008 L15.166 12.5670008 L13.9160002 12.5670008 L13.9160002 14.4720005 Q13.9160002 15.4150004 14.629999999999999 15.4150004 Q14.7596662 15.4150004 15.175 15.3450007 L15.2350004 16.506001 Q14.4009254 16.605002 14.114 16.605002 Q12.1299999 16.605002 12.1299999 14.670002400000001 L12.1299999 12.566002300000001 L11.109 12.566002300000001 L11.109 11.316002300000001 L11.109 11.3170008z" stroke="none"/><path fill="#ffffff" fill-opacity="1.0" d="M17.2600005 13.857 L15.64299994 11.317 L17.7560008 11.317 L18.5200007 12.8650003 L19.3240016 11.317 L21.2790015 11.317 L19.662001 13.836999500000001 L21.388001 16.4859997 L19.235001 16.4859997 L18.372 14.8789993 L17.518 16.4859997 L15.504 16.4859997 L17.2600005 13.857 L17.2600005 13.857z" stroke="none"/><path fill="#ffffff" fill-opacity="1.0" d="M21.575 11.3170008 L22.627 11.3170008 L22.627 10.156000500000001 L24.3830006 9.610001 L24.3830006 11.3170008 L25.6330006 11.3170008 L25.6330006 12.5670008 L24.3830006 12.5670008 L24.3830006 14.4720005 Q24.3830006 15.4150004 25.0970013 15.4150004 Q25.225335299999998 15.4150004 25.643000999999998 15.3450007 L25.7030003 16.506001 Q24.8689243 16.605002 24.582 16.605002 Q22.5980007 16.605002 22.5980007 14.670002400000001 L22.5980007 12.566002300000001 L21.576001358 12.566002300000001 L21.576001358 11.316002300000001 L21.575 11.3170008z" stroke="none"/><path fill="#969696" fill-opacity="1.0" d="M11.4179999536743 37.928 L11.4179999536743 38.928 L39.667999 38.928 L39.667999 37.928 L11.417999 37.928 L11.4179999536743 37.928z" stroke="none"/><path fill="#969696" fill-opacity="1.0" d="M11.4179999536743 23.355 L11.4179999536743 24.355 L39.667999 24.355 L39.667999 23.355 L11.417999 23.355 L11.4179999536743 23.355z" stroke="none"/><path fill="#969696" fill-opacity="1.0" d="M11.4179999536743 26.27 L11.4179999536743 27.27 L39.667999 27.27 L39.667999 26.27 L11.417999 26.27 L11.4179999536743 26.27z" stroke="none"/><path fill="#969696" fill-opacity="1.0" d="M11.4179999536743 29.184 L11.4179999536743 30.184 L39.667999 30.184 L39.667999 29.184 L11.417999 29.184 L11.4179999536743 29.184z" stroke="none"/><path fill="#969696" fill-opacity="1.0" d="M11.4179999536743 32.099 L11.4179999536743 33.099 L39.667999 33.099 L39.667999 32.099 L11.417999 32.099 L11.4179999536743 32.099z" stroke="none"/><path fill="#969696" fill-opacity="1.0" d="M11.4179999536743 35.013 L11.4179999536743 36.013 L39.667999 36.013 L39.667999 35.013 L11.417999 35.013 L11.4179999536743 35.013z" stroke="none"/><path fill="#969696" fill-opacity="1.0" d="M11.4179999536743 40.842 L11.4179999536743 41.842 L39.667999 41.842 L39.667999 40.842 L11.417999 40.842 L11.4179999536743 40.842z" stroke="none"/><path fill="#969696" fill-opacity="1.0" d="M11.4179999536743 43.756 L11.4179999536743 44.756 L39.667999 44.756 L39.667999 43.756 L11.417999 43.756 L11.4179999536743 43.756z" stroke="none"/><path fill="url(#id54)" d="M46.676998 14.144 L33.586998 14.144 Q32.586998 14.144 32.586998 13.144 L32.586998 0.0 L46.676998 14.144 L46.676998 14.144z" stroke-width="1.0" stroke-linejoin="round" stroke="#000000"/></g><g transform="translate(290.67699999999996 0.0)"><clipPath id="id55"><path d="M0 0 L66.67700000000002 0 L66.67700000000002 40.0 L0 40.0z"/></clipPath><text font-size="12" clip-path="url(#id55)" text-decoration="none" fill="#000000" font-family="Arial,Arial" font-style="normal" font-weight="normal"><tspan x="2.0" xml:space="preserve" y="13.0" textLength="48.0">proxy.log</tspan></text></g><g transform="translate(292.67699999999996 20.0)"><path fill="url(#id56)" d="M46.677 14.078 L32.562 0.0 L6.19 0.0 Q5.19 0.0 5.19 1.0 L5.19 51.33 Q5.19 52.33 6.19 52.33 L45.677 52.33 Q46.677 52.33 46.677 51.33 L46.677 14.078 L46.677 14.078z" stroke-width="1.0" stroke-linejoin="round" stroke="#000000"/><path fill="#0430ad" fill-opacity="1.0" d="M36.673 18.899 Q36.673 19.899 35.673 19.899 L1.0 19.899 Q0.0 19.899 0.0 18.899 L0.0 7.055 Q0.0 6.055 1.0 6.055 L35.673 6.055 Q36.673 6.055 36.673 7.055 L36.673 18.899999 L36.673 18.899z" stroke-width="1.0" stroke-linejoin="round" stroke="#000000"/><path fill="#ffffff" fill-opacity="1.0" d="M11.109 11.3170008 L12.159999599999999 11.3170008 L12.159999599999999 10.156000500000001 L13.9160002 9.610001 L13.9160002 11.3170008 L15.166 11.3170008 L15.166 12.5670008 L13.9160002 12.5670008 L13.9160002 14.4720005 Q13.9160002 15.4150004 14.629999999999999 15.4150004 Q14.7596662 15.4150004 15.175 15.3450007 L15.2350004 16.506001 Q14.4009254 16.605002 14.114 16.605002 Q12.1299999 16.605002 12.1299999 14.670002400000001 L12.1299999 12.566002300000001 L11.109 12.566002300000001 L11.109 11.316002300000001 L11.109 11.3170008z" stroke="none"/><path fill="#ffffff" fill-opacity="1.0" d="M17.2600005 13.857 L15.64299994 11.317 L17.7560008 11.317 L18.5200007 12.8650003 L19.3240016 11.317 L21.2790015 11.317 L19.662001 13.836999500000001 L21.388001 16.4859997 L19.235001 16.4859997 L18.372 14.8789993 L17.518 16.4859997 L15.504 16.4859997 L17.2600005 13.857 L17.2600005 13.857z" stroke="none"/><path fill="#ffffff" fill-opacity="1.0" d="M21.575 11.3170008 L22.627 11.3170008 L22.627 10.156000500000001 L24.3830006 9.610001 L24.3830006 11.3170008 L25.6330006 11.3170008 L25.6330006 12.5670008 L24.3830006 12.5670008 L24.3830006 14.4720005 Q24.3830006 15.4150004 25.0970013 15.4150004 Q25.225335299999998 15.4150004 25.643000999999998 15.3450007 L25.7030003 16.506001 Q24.8689243 16.605002 24.582 16.605002 Q22.5980007 16.605002 22.5980007 14.670002400000001 L22.5980007 12.566002300000001 L21.576001358 12.566002300000001 L21.576001358 11.316002300000001 L21.575 11.3170008z" stroke="none"/><path fill="#969696" fill-opacity="1.0" d="M11.4179999536743 37.928 L11.4179999536743 38.928 L39.667999 38.928 L39.667999 37.928 L11.417999 37.928 L11.4179999536743 37.928z" stroke="none"/><path fill="#969696" fill-opacity="1.0" d="M11.4179999536743 23.355 L11.4179999536743 24.355 L39.667999 24.355 L39.667999 23.355 L11.417999 23.355 L11.4179999536743 23.355z" stroke="none"/><path fill="#969696" fill-opacity="1.0" d="M11.4179999536743 26.27 L11.4179999536743 27.27 L39.667999 27.27 L39.667999 26.27 L11.417999 26.27 L11.4179999536743 26.27z" stroke="none"/><path fill="#969696" fill-opacity="1.0" d="M11.4179999536743 29.184 L11.4179999536743 30.184 L39.667999 30.184 L39.667999 29.184 L11.417999 29.184 L11.4179999536743 29.184z" stroke="none"/><path fill="#969696" fill-opacity="1.0" d="M11.4179999536743 32.099 L11.4179999536743 33.099 L39.667999 33.099 L39.667999 32.099 L11.417999 32.099 L11.4179999536743 32.099z" stroke="none"/><path fill="#969696" fill-opacity="1.0" d="M11.4179999536743 35.013 L11.4179999536743 36.013 L39.667999 36.013 L39.667999 35.013 L11.417999 35.013 L11.4179999536743 35.013z" stroke="none"/><path fill="#969696" fill-opacity="1.0" d="M11.4179999536743 40.842 L11.4179999536743 41.842 L39.667999 41.842 L39.667999 40.842 L11.417999 40.842 L11.4179999536743 40.842z" stroke="none"/><path fill="#969696" fill-opacity="1.0" d="M11.4179999536743 43.756 L11.4179999536743 44.756 L39.667999 44.756 L39.667999 43.756 L11.417999 43.756 L11.4179999536743 43.756z" stroke="none"/><path fill="url(#id57)" d="M46.676998 14.144 L33.586998 14.144 Q32.586998 14.144 32.586998 13.144 L32.586998 0.0 L46.676998 14.144 L46.676998 14.144z" stroke-width="1.0" stroke-linejoin="round" stroke="#000000"/></g></g><g transform="translate(145.66349999999994 79.1750000000003) rotate(270.0 39.175000000000125 10.0)"><path fill="none" stroke-linejoin="round" id="id60" d="M78.35000000000025 20.0 L0.0 20.0" stroke="#000000" stroke-width="1.0" marker-end="url(#id58)"/><g transform="translate(0.0 0.0)"><clipPath id="id61"><path d="M0 0 L78.35000000000025 0 L78.35000000000025 20.0 L0 20.0z"/></clipPath><text font-size="12" clip-path="url(#id61)" text-decoration="none" fill="#000000" font-family="Times" font-style="normal" font-weight="normal"/></g></g><g transform="translate(199.8385 76.45000000000005)"><clipPath id="id62"><path d="M0 0 L150.0 0 L150.0 40.0 L0 40.0z"/></clipPath><text font-size="12" clip-path="url(#id62)" text-decoration="none" fill="#000000" font-family="Arial,Arial" font-style="normal" font-weight="normal"><tspan x="2.0" xml:space="preserve" y="13.0" textLength="106.0">Registro de eventos</tspan></text></g></g><g transform="translate(0.0 587.0)"><path fill-opacity="1.0" fill="#000000" stroke-linejoin="round" id="id64" d="M0.0 0.0 L426.99999999999994 0.0 L426.99999999999994 4.0 L0.0 4.0 L0.0 0.0z" stroke="#000000" stroke-width="1.0"/></g></g></g></svg>